<svg xmlns="http://www.w3.org/2000/svg" data-name="Layer 1" viewBox="0 0 200 200"><g data-name="Blood Pressure"><path fill="#cff1ef" fill-rule="evenodd" d="M40.067 134.505c2.465-1.631 3.173-5.752 3.04-6.939s-3.44 3.673-3.574 2.192 3.45-4.757 3.04-8.114c-.254-2.088-1.355-4.753-3.048-4.444-1.861.322-.583 4.815-2.898 5.992-.805.41-1.949.678-2.276-.413-1.514-3.113 4.09-5.532 3.158-9.22-.267-1.058-.853-2.379-2.055-1.9-2.628.699-.994 6.004-3.97 6.93a1.63 1.63 0 0 1-2.073-.995c-1.012-2.958 3.66-4.085 3.55-7.225-.074-2.107-1.192-5-2.714-4.672-1.634.334-.514 4.818-2.774 6.207-.747.46-1.834.814-2.245-.108-.995-1.736 1.66-3.354 1.597-5.64-.041-1.48-.08-3.816-1.234-3.588-1.275.213-2.358 4.913-3.146 4.81s1.406-3.844-.008-5.221c-.686-.7-1.652-.38-2.422.172-1.165.836-1.003 3.713-1.419 3.39s.89-3.974-.244-4.683c-1.042-.66-3.069.65-3.281 2.11-.208 1.426 3.024 1.71 2.49 2.868-.585 1.322-4.255.426-4.816 1.134-.559.697 1.489 1.121 2.559 1.625 1.277.602 3.78.608 3.44 1.12s-5.23-.07-4.803.931 5.923 2.073 6.511 3.07-3.676-.67-4.158.92c-.723 2.138.955 4.846 3.395 5.866 1.855.775 3.765-2.063 4.985-1.295.974.528.09 1.948-.65 2.781-1.48 1.664-4.601.328-5.366 1.937-.56.865.617 1.347 1.4 1.704 3.073 1.4 7.676-.787 8.65-.238s-4.294.454-4.756 2.433c-.494 2.108 1.275 3.849 3.366 4.678 2.887 1.145 6.76-1.968 7.812-1.519s-3.467 2.466-3.607 3.317 1.857.075 3.046.085c2.146.019 3.708 1.125 5.498-.058Z"/><path fill="#dee6f3" fill-rule="evenodd" d="m45.144 113.348 4.932-10.904a154.491 154.491 0 0 0-7.542-17.999l-5.668 5.989 2.806-11.5c-4.843-8.849-9.999-15.839-13.56-16.427a81.637 81.637 0 0 0-3.429 21.594l3.263 2.384-3.244.049a50.276 50.276 0 0 0 4.341 19.54l5.354 2.9-3.872.074a49.57 49.57 0 0 0 8.219 11.038q4.003 4.008 11.346 4.658 4.216-4.892 4.63-7.718c.617-1.957-.015-5.92-1.462-10.858Z"/><path fill="#fff" d="M51.485 130.364a.327.327 0 0 1-.42-.094c-.19-.26-19.197-26.398-23.177-58.308a.327.327 0 0 1 .65-.08c3.957 31.743 22.865 57.741 23.055 58a.327.327 0 0 1-.07.457.36.36 0 0 1-.038.025Z"/><path fill="#cff1ef" fill-rule="evenodd" d="m51.267 114.299 7.667-4.737a116.357 116.357 0 0 0 2.86-14.414l-6.059 1.356 6.591-6.003c.697-7.563.417-14.098-1.56-15.964a61.474 61.474 0 0 0-11.225 12.046l1.035 2.862-2.046-1.335a37.86 37.86 0 0 0-5.509 14.03l2.124 4.065-2.45-1.583a37.327 37.327 0 0 0 .49 10.352q.815 4.187 5.128 7.682 4.691-1.282 6.14-2.873c1.207-.963 2.48-3.704 3.653-7.397Z"/><path fill="#fff" d="M48.07 127.594a.247.247 0 0 1-.223-.235c-.01-.243-.886-24.564 10.051-46.169a.246.246 0 0 1 .44.223c-10.881 21.492-10.008 45.684-9.998 45.926a.246.246 0 0 1-.236.256.268.268 0 0 1-.035-.001Z"/><path fill="#cff1ef" fill-rule="evenodd" d="M156.343 134.772c2.11 1.475 5.672.73 6.59.242s-4.073-1.61-2.917-2.192 4.955 1.271 7.542-.134c1.61-.874 3.416-2.617 2.624-3.89-.856-1.403-4.085 1.069-5.779-.43-.588-.52-1.172-1.36-.393-1.975 2.036-2.221 5.787 1.542 8.475-.391.772-.556 1.654-1.452.881-2.272-1.406-1.905-5.18 1.115-6.88-.999a1.42 1.42 0 0 1 .142-1.996c2.072-1.766 4.478 1.656 6.986.563 1.683-.733 3.667-2.564 2.914-3.692-.793-1.216-4.065 1.126-5.913-.26-.61-.459-1.245-1.226-.63-1.853 1.087-1.361 3.246.272 5.077-.511 1.186-.507 3.065-1.285 2.51-2.147-.58-.964-4.731-.337-4.9-1.008s3.563-.092 4.225-1.677c.347-.78-.22-1.46-.914-1.906-1.05-.676-3.328.375-3.199-.065s3.503-.55 3.714-1.695c.202-1.055-1.508-2.277-2.757-1.983-1.222.288-.418 2.996-1.527 2.935-1.258-.052-1.706-3.31-2.458-3.538-.743-.23-.432 1.564-.498 2.592-.079 1.227.718 3.256.193 3.144s-1.616-4.257-2.29-3.591.217 5.46-.403 6.254-.633-3.191-2.075-3.073c-1.962.099-3.618 2.323-3.663 4.626-.035 1.75 2.874 2.388 2.643 3.622-.116.957-1.55.696-2.46.363-1.82-.666-1.738-3.62-3.285-3.725-.88-.177-.893.93-.932 1.678-.151 2.936 3.092 5.964 2.96 6.928s-1.742-3.331-3.492-3.072c-1.864.274-2.709 2.263-2.712 4.221-.003 2.704 3.757 4.845 3.73 5.84s-3.107-2.018-3.84-1.86.533 1.528.905 2.494c.672 1.744.275 3.363 1.806 4.433Z"/><path fill="#cff1ef" fill-rule="evenodd" d="M161.867 142.353c1.267 1.867 4.419 2.37 5.324 2.258s-2.834-2.593-1.705-2.708 3.662 2.59 6.22 2.248c1.592-.213 3.617-1.077 3.366-2.367-.263-1.417-3.68-.401-4.6-2.158-.32-.61-.535-1.482.295-1.741 2.363-1.183 4.26 3.072 7.066 2.328.806-.213 1.808-.672 1.432-1.586-.557-2-4.592-.705-5.325-2.968a1.245 1.245 0 0 1 .74-1.592c2.25-.798 3.152 2.757 5.548 2.646 1.608-.075 3.806-.954 3.542-2.114-.27-1.244-3.683-.349-4.764-2.062-.357-.566-.637-1.393.063-1.714 1.317-.776 2.575 1.237 4.32 1.168 1.13-.044 2.912-.095 2.727-.974-.173-.971-3.77-1.755-3.7-2.358s2.948 1.039 3.986-.053c.528-.53.276-1.264-.152-1.847-.65-.882-2.844-.733-2.601-1.053s3.042.644 3.572-.228c.495-.801-.523-2.337-1.639-2.486-1.09-.146-1.279 2.323-2.168 1.927-1.014-.436-.363-3.245-.908-3.667-.537-.42-.843 1.146-1.218 1.968-.448.98-.43 2.892-.824 2.636s.006-3.993-.754-3.658-1.53 4.54-2.285 4.998.479-2.813-.74-3.166c-1.638-.533-3.69.772-4.447 2.644-.575 1.422 1.609 2.855 1.033 3.793-.394.748-1.486.087-2.129-.471-1.283-1.115-.291-3.51-1.526-4.079-.665-.42-1.023.483-1.288 1.084-1.042 2.358.669 5.852.259 6.6s-.385-3.272-1.9-3.608c-1.613-.358-2.927 1.008-3.541 2.611-.849 2.214 1.563 5.144 1.229 5.95s-1.913-2.624-2.564-2.724-.04 1.419-.038 2.327c.005 1.637-.825 2.84.094 4.196Z"/><path fill="#effafa" d="M50.89 151.943c-33.345-10.072-27.363-40.652-7.222-49.958 18.527-8.56 16.08-11.618 9.988-30.4-3.634-11.204 14.52-31.013 38.934-2.695 28.525 33.088 24.915-9.987 41.05-20.587 28.419-18.671 54.91 26.185 32.611 49.953s-.426 15.78 9.048 27.553-6.908 28.026-6.908 28.026Z"/><path fill="#cff1ef" d="M25.255 153.122H170.95v1.25H25.255z"/><path fill="#fbcffc" fill-rule="evenodd" d="M62.11 83.952a17.015 17.015 0 0 1-9.84-7.983c-5.503-9.176-3.567-21.548 9.84-14.096 8.208-4.561 12.107-1.697 12.637 3.329.69 6.445-4.177 16.416-12.637 18.75Z"/><path d="M62.11 83.952a17.015 17.015 0 0 1-9.84-7.983c5.716 5.225 14.362.81 14.547-4.203.2-5.119 4.15-9.72 7.93-6.564.69 6.445-4.177 16.416-12.637 18.75Z" opacity=".1"/><path fill="#be79df" d="M59.987 76.965h-.002a.634.634 0 0 1-.594-.417l-1.823-4.964H46.091a.636.636 0 0 1 0-1.271h11.922a.635.635 0 0 1 .596.417l1.383 3.768 2.804-7.518a.613.613 0 0 1 .638-.412.64.64 0 0 1 .579.493l1.113 4.886H76.95a.636.636 0 0 1 0 1.272H64.62a.639.639 0 0 1-.62-.495l-.753-3.308-2.663 7.136a.638.638 0 0 1-.596.413Z"/><path fill="#ffd5b0" fill-rule="evenodd" d="m108.509 146.715-.491.518-1.777 1.869-1.352 1.419-.716-.795-1.578-1.764 1.365-.889 2.215-1.445.915-.597.265.305 1.154 1.379z"/><path fill="#be79df" fill-rule="evenodd" d="M106.918 154.287a24.586 24.586 0 0 1-3.395-3.235 11.42 11.42 0 0 1-1.87-2.865 3.025 3.025 0 0 1 2.254-1.22.268.268 0 0 0 .053.106 3.28 3.28 0 0 0 .836 1.234 3.343 3.343 0 0 0 1.445.795 2.206 2.206 0 0 0 .279.08c-.849 1.777 2.32 4.827.398 5.105Z"/><path fill="#dee6f3" fill-rule="evenodd" d="M133.386 126.201q-1.591 5.868-23.843 21.283a5.726 5.726 0 0 1-1.525-.252 3.191 3.191 0 0 1-1.512-1.034 2.674 2.674 0 0 1-.331-.57 4.412 4.412 0 0 1-.398-1.91l19.931-19.135q-6.604-12.452-7.996-21.177l3.341-1.021 6.87-2.082q6.743 19.612 5.463 25.898Z"/><path fill-rule="evenodd" d="M133.386 126.201q-1.591 5.868-23.843 21.283a5.726 5.726 0 0 1-1.525-.252l-1.777 1.87a2.206 2.206 0 0 0 .279.08c-.849 1.777 2.32 4.827.398 5.105a24.586 24.586 0 0 1-3.395-3.235c.199-.398.41-.823.65-1.327.132-.305.278-.636.424-.994.053-.133.12-.265.199-.424a13.827 13.827 0 0 1 1.71-2.109c.252-.278.544-.57.85-.862a137.638 137.638 0 0 1 19.917-15.555c5.861-3.447 3.13-15.992-7.612-24.174 0 0 .53-1.34 1.392-3.222l6.87-2.082q6.743 19.612 5.463 25.898Z" opacity=".1"/><path fill="#ffd5b0" fill-rule="evenodd" d="m118.269 154.871-1.671.119-1.751.119.133-1.644.225-2.586.093-1.127.637-.026 1.565-.054.145 1.008.332 2.228.292 1.963z"/><path fill="#be79df" fill-rule="evenodd" d="M122.406 155.905c-1.3.093-3.368.239-5.37.225a22.614 22.614 0 0 1-2.6-.159 3.036 3.036 0 0 1 .425-2.532.385.385 0 0 0 .12.026 3.273 3.273 0 0 0 2.996-.557 1.342 1.342 0 0 0 .239-.172c.875 1.763 5.145 1.472 4.19 3.169Z"/><path fill="#dee6f3" fill-rule="evenodd" d="m122.499 125.737-3.5 24.121a5.686 5.686 0 0 1-1.354.822 3.56 3.56 0 0 1-1.67.305 3.157 3.157 0 0 1-.77-.106 4.116 4.116 0 0 1-1.18-.464c1.737-23.379-3.686-39.053-.848-49.953l9.415 2.957.756.239c.04 7.558.198 15.21-.85 22.079Z"/><path fill-rule="evenodd" d="M122.406 155.905c-1.3.093-3.368.239-5.37.225a6.795 6.795 0 0 1-.438-1.14 10.19 10.19 0 0 1-.345-1.392 19.748 19.748 0 0 1-.278-2.613c-.027-.41-.04-.835-.04-1.26a71.12 71.12 0 0 1 .623-9.309c.552-4.53 1.239-17.522 2.711-30.015.26-2.204-6.927-5.156-6.615-7.28 0 0 8.625.457 9.938.298l.756.239c.04 7.558.198 15.21-.85 22.079l-3.5 24.121a5.686 5.686 0 0 1-1.353.822l.332 2.228a1.342 1.342 0 0 0 .239-.172c.875 1.763 5.145 1.472 4.19 3.169Z" opacity=".1"/><path fill="#cff1ef" fill-rule="evenodd" d="M152.906 99.945q-24.347 6.325-26.973.066-6.026-15.734-1.472-21.92a3.03 3.03 0 0 1 1.499-1.34c1.87-.702 4.257 1.274 5.119 5.305a92.694 92.694 0 0 1 .318 15.449l20.846-.332.185.796Z"/><path fill-rule="evenodd" d="M152.906 99.945q-24.347 6.325-26.973.066-6.026-15.734-1.472-21.92a3.03 3.03 0 0 1 1.499-1.34c1.896.93 1.39 4.057 2.199 7.267.848 3.368-.74 10.94 1.249 14.919 1.936 3.872 15.952 1.286 23.02-.968Z" opacity=".1"/><path fill="#cff1ef" fill-rule="evenodd" d="M128.572 103.38q-5.57 3.938-16.894.41l4.084-27.714a2.39 2.39 0 0 1 .279-.106 12.585 12.585 0 0 1 11.643.928c1.722 5.06-.907 10.778.623 18.432Z"/><path fill-rule="evenodd" d="M128.572 103.38c-3.713 2.625-7.179-1.386-14.724-3.733l1.914-23.571a2.39 2.39 0 0 1 .279-.106c3.66-.226 7.77 11.192 6.06 14.188-2.771 4.84-2.811 8.633.398 6.724a10.71 10.71 0 0 1 5.808-1.552Z" opacity=".1"/><path fill="#ffd5b0" fill-rule="evenodd" d="M124.064 75.519a2.887 2.887 0 0 1-1.79.504 4.106 4.106 0 0 1-2.136-.836l.279-1.472.477-2.48 2.692-.225Z"/><path fill="#e7b2f2" d="M136.663 146.792a30.95 30.95 0 0 1-30.915-30.915v-39.04a11.709 11.709 0 0 0-23.417 0V99.59a10.452 10.452 0 0 1-20.905 0V79.417h1.326V99.59a9.126 9.126 0 0 0 18.252 0V76.838a13.035 13.035 0 1 1 26.07 0v39.039a29.589 29.589 0 1 0 59.177 0v-19.65a15.22 15.22 0 0 0-15.203-15.204v-1.326a16.548 16.548 0 0 1 16.53 16.53v19.65a30.95 30.95 0 0 1-30.915 30.915Z"/><path fill="#e7b2f2" d="M141.674 71.766h7.452v18.393h-7.452z"/><path fill-rule="evenodd" d="M149.126 71.766v14.918l-2.718.385s1.3-7.917-4.734-9.601v-5.384c1.087-.106 2.347-.212 3.607-.318Z" opacity=".1"/><path fill="#be79df" d="M149.126 77.597h2.493a1.352 1.352 0 0 1 1.352 1.351v2.824a1.352 1.352 0 0 1-1.352 1.352h-2.493v-5.527Z"/><path fill="#be79df" fill-rule="evenodd" d="M155.491 103.008c0 8.46-4.508 15.33-10.09 15.33-4.907 0-9.005-5.318-9.92-12.36a23.982 23.982 0 0 1-.186-2.97c0-5.901 2.202-11.033 5.437-13.579a1.913 1.913 0 0 1-.37-1.127v-2.095a1.84 1.84 0 0 1 1.829-1.857h6.405a1.862 1.862 0 0 1 1.856 1.857v2.095a1.836 1.836 0 0 1-.384 1.127.041.041 0 0 1 .026.013c3.223 2.56 5.397 7.678 5.397 13.566Z"/><circle cx="146.946" cy="59.329" r="15.113" fill="#c397dd" transform="rotate(-77.316 146.946 59.33)"/><circle cx="145.401" cy="60.501" r="15.113" fill="#be79df"/><path fill="#fff" fill-rule="evenodd" d="M157.157 60.5a11.759 11.759 0 1 1-17.899-10.014 11.749 11.749 0 0 1 17.9 10.014Z"/><path fill="#fbcffc" fill-rule="evenodd" d="M157.157 60.5h-11.753l-6.146-10.014a11.749 11.749 0 0 1 17.9 10.014Z"/><path fill="#be79df" d="m144.397 59.494 6.726-5.134a.3.3 0 0 1 .42.421l-5.133 6.726a1.436 1.436 0 0 1-2.283-1.743 1.49 1.49 0 0 1 .27-.27Z"/><path fill-rule="evenodd" d="M155.491 103.008c0 8.46-4.508 15.33-10.09 15.33-4.907 0-9.005-5.318-9.92-12.36 4.31 5.65 14.905 5.146 15.568-.795.822-7.532-4.814-12.213-.981-15.754a.041.041 0 0 1 .026.013c3.223 2.56 5.397 7.678 5.397 13.566Z" opacity=".1"/><path fill="#cff1ef" fill-rule="evenodd" d="m136.794 102.12-.027 1.922-.013.929q-25.142.179-26.163-6.525c-.093-.795-.186-1.578-.252-2.334q-1.333-14.719 4.177-19.267c2.506-2.507 5.636.119 5.45 5.45a94.053 94.053 0 0 1-3.474 15.064Z"/><path fill="#ffd5b0" fill-rule="evenodd" d="M141.992 104.374a3.674 3.674 0 0 1-3.143 1.22 7.534 7.534 0 0 1-2.095-.623 4.008 4.008 0 0 1-.265-.982 2.628 2.628 0 0 1 .305-1.87c1.047-.265 1.353-2.015 2.135-1.59.782.437.013 1.087-.106 1.59-.133.505 1.074.584 2.161-.105a.9.9 0 0 1 1.313.397 1.598 1.598 0 0 1-.305 1.963Z"/><path fill-rule="evenodd" d="M141.992 104.374a3.674 3.674 0 0 1-3.143 1.22 7.534 7.534 0 0 1-2.095-.623q-25.142.179-26.163-6.525c-.093-.795-.186-1.578-.252-2.333 5.45 6.351 14.4 6.391 16.722 6.351a25.7 25.7 0 0 1 9.057 1.42c.119.039.252.079.371.105a2.051 2.051 0 0 0 .278.053c2.294.411 4.23-1.193 5.53-1.63a1.598 1.598 0 0 1-.305 1.962ZM122.273 76.023c.65-1.393-.769-2.03-1.856-2.308l.477-2.48 2.692-.225.478 4.509a2.887 2.887 0 0 1-1.79.504Z" opacity=".1"/><path fill="#ffd5b0" fill-rule="evenodd" d="m120.438 66.255-.348 5.416q3.91 2.594 4.974.843 1.342-2.286.913-7.208Z"/><path fill-rule="evenodd" d="M123.332 67.996q1.265.45 2.72 1.025a6.061 6.061 0 0 0 2.652-5.084 6.62 6.62 0 0 0-4.797.866 3.425 3.425 0 0 0-4.328 1.412q-3.03 1.351-.91 5.5a2.981 2.981 0 0 0 2.566 1.806 4.086 4.086 0 0 0-.046-3.247q-.139-.82.935-.612a2.314 2.314 0 0 1 .39 2.21 1.348 1.348 0 0 0 .74-.982 7.306 7.306 0 0 1 .078-2.894Z"/><path fill-rule="evenodd" d="M98.917 154.613c0 .274 1.79.496 4 .496s4-.222 4-.496-1.79-.495-4-.495-4 .221-4 .495Z" opacity=".1"/></g></svg>