<svg xmlns="http://www.w3.org/2000/svg" viewBox="0 0 1364 960"><path fill="#F5DFE1" d="m928.388 489.719-1.081 227.687c-.055 11.476-9.413 20.729-20.889 20.675-11.476-.055-20.729-9.396-20.675-20.872l1.082-227.687 41.563.197z"/><path fill="#F56476" d="m924.449 609.402-.525 110.578c-.036 7.49-7.868 13.522-17.482 13.476-9.614-.046-17.375-6.152-17.34-13.642l.524-110.36c4.105-.811 9.181-1.18 14.635-.117 7.012 1.382 14.578.858 20.188.065z"/><path fill="#F5DFE1" d="m928.61 490.022-42.011-.2a1.707 1.707 0 0 1 .017-3.414l42.011.2a1.708 1.708 0 0 1-.017 3.414z"/><path fill="#4D4D4D" d="M897.825 709.021a3.313 3.313 0 0 1-3.297-3.329l.994-209.304a3.314 3.314 0 0 1 6.626.031l-.994 209.304a3.313 3.313 0 0 1-3.329 3.298z"/><path fill="#E6D1D3" d="m928.388 489.719-.091 19.184a19.915 19.915 0 0 0-19.383-15.764l-22.106-.105.017-3.513 41.563.198z"/><path fill="#F5DFE1" d="m1007.626 489.719-1.081 227.687c-.055 11.476-9.413 20.729-20.889 20.675-11.476-.055-20.729-9.396-20.675-20.872l1.082-227.687 41.563.197z"/><path fill="#F56476" d="m1003.904 563.571-.719 151.403c-.049 10.255-7.892 18.528-17.506 18.482-9.614-.046-17.364-8.392-17.316-18.647l.718-151.105c4.107-1.117 9.183-1.632 14.636-.186 7.009 1.88 14.575 1.149 20.187.053z"/><path fill="#F5DFE1" d="m1007.848 490.022-42.011-.2a1.707 1.707 0 0 1 .017-3.414l42.011.2a1.708 1.708 0 0 1-.017 3.414z"/><path fill="#4D4D4D" d="M977.063 709.021a3.313 3.313 0 0 1-3.297-3.329l.994-209.304a3.314 3.314 0 0 1 6.626.031l-.994 209.304a3.314 3.314 0 0 1-3.329 3.298z"/><path fill="#E6D1D3" d="m1007.626 489.719-.091 19.184a19.915 19.915 0 0 0-19.383-15.764l-22.106-.105.017-3.513 41.563.198z"/><path fill="#F5DFE1" d="m1086.863 489.719-1.081 227.687c-.055 11.476-9.413 20.729-20.889 20.675-11.476-.055-20.729-9.396-20.675-20.872l1.082-227.687 41.563.197z"/><path fill="#F56476" d="m1083.084 578.332-.657 138.254c-.044 9.365-7.884 16.916-17.498 16.87-9.614-.046-17.368-7.671-17.323-17.035l.655-137.982c4.106-1.018 9.182-1.487 14.636-.164 7.01 1.719 14.576 1.055 20.187.057z"/><path fill="#F5DFE1" d="m1087.086 490.022-42.011-.2a1.707 1.707 0 0 1 .017-3.414l42.011.2a1.707 1.707 0 0 1 1.699 1.715 1.709 1.709 0 0 1-1.716 1.699z"/><path fill="#4D4D4D" d="M1056.301 709.021a3.313 3.313 0 0 1-3.297-3.329l.994-209.304a3.314 3.314 0 0 1 6.626.031l-.994 209.304a3.314 3.314 0 0 1-3.329 3.298z"/><path fill="#E6D1D3" d="m1086.863 489.719-.091 19.184a19.915 19.915 0 0 0-19.383-15.764l-22.106-.105.017-3.513 41.563.198z"/><path fill="#F5DFE1" d="m1166.101 489.719-1.081 227.687c-.055 11.476-9.413 20.729-20.889 20.675-11.476-.055-20.729-9.396-20.675-20.872l1.082-227.687 41.563.197z"/><path fill="#F56476" d="m1162.03 637.2-.407 85.817c-.027 5.813-7.853 10.486-17.468 10.44-9.614-.046-17.381-4.793-17.354-10.605l.407-85.648c4.105-.625 9.797-2.731 14.635-.076 7.877 4.325 15.041 2.418 20.187.072z"/><path fill="#F5DFE1" d="m1166.323 490.022-42.011-.2a1.707 1.707 0 0 1 .017-3.414l42.011.2a1.708 1.708 0 0 1-.017 3.414z"/><path fill="#4D4D4D" d="M1135.538 709.021a3.313 3.313 0 0 1-3.297-3.329l.995-209.304a3.314 3.314 0 0 1 6.625.031l-.994 209.304a3.314 3.314 0 0 1-3.329 3.298z"/><path fill="#E6D1D3" d="m1166.101 489.719-.091 19.184a19.915 19.915 0 0 0-19.383-15.764l-22.106-.105.017-3.513 41.563.198z"/><path fill="#F5DFE1" d="m1241.998 489.719-1.081 227.687c-.055 11.476-9.413 20.729-20.889 20.675-11.476-.055-20.729-9.396-20.675-20.872l1.081-227.687 41.564.197z"/><path fill="#F56476" d="m1238.276 563.571-.719 151.403c-.049 10.255-7.891 18.528-17.506 18.482-9.614-.046-17.364-8.392-17.316-18.647l.718-151.105c4.107-1.117 9.183-1.632 14.636-.186 7.009 1.88 14.575 1.149 20.187.053z"/><path fill="#F5DFE1" d="m1242.22 490.022-42.011-.2a1.707 1.707 0 0 1 .017-3.414l42.011.2a1.708 1.708 0 0 1-.017 3.414z"/><path fill="#4D4D4D" d="M1211.435 709.021a3.313 3.313 0 0 1-3.297-3.329l.994-209.304a3.314 3.314 0 0 1 6.626.031l-.994 209.304a3.314 3.314 0 0 1-3.329 3.298z"/><path fill="#E6D1D3" d="m1241.998 489.719-.091 19.184a19.915 19.915 0 0 0-19.383-15.764l-22.106-.105.017-3.513 41.563.198z"/><path fill="#49499C" d="M1085.199 657.724c.27.19.573.366.874.493.78.366 1.638.572 2.544.572h43.839l-.016 4.977h70.537l.016-2.687.016-3.355h-117.81zm-231.23 0v-19.812a453.641 453.641 0 0 0-7.283 6.058v50.898c2.37 3.053 4.818 6.058 7.283 9.079v-7.966h47.226l.031-6.09h-47.257v-26.125h228.718l.016-6.042H853.969zm234.649 1.065a5.974 5.974 0 0 1-2.544-.572 4.801 4.801 0 0 1-.874-.493h-2.496l-.016 6.042h49.754l.016-4.977h-43.84zm194.929 104.914V455.194a2.434 2.434 0 0 0-2.465-2.449h-2.353c-1.336 0-2.464 1.082-2.464 2.449v68.024H853.969v-68.024c0-1.367-1.129-2.449-2.464-2.449h-2.354a2.433 2.433 0 0 0-2.464 2.449v308.509h-8.697v8.364h25.854v-8.364h-9.874v-67.722h422.295v67.722h-8.698v8.364h25.919v-8.364h-9.939zM853.969 529.261h422.295v128.463H853.969V529.261zm0 160.63v-26.125h422.295v26.125H853.969zm47.448-32.167-.047 6.042h301.624v-6.042H901.417z"/><path fill="#F56476" d="M1235.102 546.264c0 5.229-3.156 7.374-6.229 7.374s-6.617-3.584-5.384-8.578c.816-3.303 4.304-4.328 5.384-10.359 0 .001 6.229 6.334 6.229 11.563zM1216.495 510.509c0 4.009-2.419 5.653-4.775 5.653-2.356 0-5.073-2.747-4.127-6.575.625-2.532 3.299-3.317 4.127-7.941 0-.001 4.775 4.854 4.775 8.863z"/><path fill="#8BD6F2" d="M170.653 534.714h64.219v166.647h-64.219zM234.872 701.362h64.219V535.365a.651.651 0 0 0-.651-.651h-63.568v166.648z"/><path fill="#C6F0F7" d="M234.872 713.723h-77.966v-154.14c0-43.06 34.906-77.966 77.966-77.966v232.106zM234.872 713.723h77.966v-154.14c0-43.06-34.907-77.966-77.966-77.966v232.106z"/><path fill="#C6F0F7" d="M312.838 713.718c-45.02 15.387-90.038 13.025-120.051 8.265-5.827-.952-11.083-1.942-15.654-2.933-12.721-2.78-20.225-5.332-20.225-5.332l20.225-3.619 15.654-2.78 42.087-7.503 77.964 13.902zM195.889 455.124h77.966v31.62h-77.966z"/><path fill="gray" d="m231.903 461.354-.077 20.262v5.142l-.037 11.197c-22.128 3.808-39.002 23.081-39.002 46.275v177.752c-5.827-.952-11.083-1.942-15.654-2.933v-184.15c0-23.233 16.835-42.467 38.963-46.314v-27.232h15.807z"/><path fill="#7D93B2" d="M271.503 431.543h-73.261c-8.445 0-15.292 6.846-15.292 15.291s6.847 15.291 15.292 15.291h73.261c8.445 0 15.291-6.846 15.291-15.291-.001-8.445-6.847-15.291-15.291-15.291z"/><path fill="#F5F6F7" d="M156.906 579.614h155.932v72.925H156.906z"/><path d="M304.405 644.779H165.337v-57.404h139.068v57.404zm-138.458-.61h137.848v-56.184H165.947v56.184z"/><path d="M171.104 606.618a40.341 40.341 0 0 1 5.978-.453c4.039 0 6.916.938 8.823 2.715 1.938 1.776 3.07 4.297 3.07 7.82 0 3.555-1.099 6.463-3.135 8.467-2.036 2.035-5.397 3.135-9.631 3.135-2.003 0-3.684-.098-5.106-.259v-21.425zm2.812 19.26c.711.13 1.745.162 2.844.162 6.011 0 9.275-3.361 9.275-9.243.033-5.138-2.876-8.402-8.822-8.402-1.454 0-2.553.129-3.296.291v17.192zM195.436 606.327v21.781h-2.812v-21.781h2.812zM203.869 621.257l-2.262 6.851h-2.909l7.4-21.781h3.394l7.433 21.781h-3.005l-2.327-6.851h-7.724zm7.142-2.198-2.133-6.269c-.485-1.422-.808-2.715-1.131-3.976h-.064a65.123 65.123 0 0 1-1.099 3.944l-2.133 6.301h6.56zM220.121 606.618c1.228-.258 3.167-.453 5.138-.453 2.812 0 4.621.485 5.978 1.583 1.131.84 1.81 2.134 1.81 3.846 0 2.1-1.39 3.942-3.684 4.783v.064c2.068.517 4.492 2.23 4.492 5.461 0 1.874-.743 3.297-1.842 4.363-1.519 1.389-3.975 2.036-7.53 2.036-1.939 0-3.426-.13-4.363-.259v-21.424zm2.812 8.918h2.553c2.973 0 4.718-1.551 4.718-3.652 0-2.553-1.939-3.554-4.783-3.554-1.293 0-2.036.096-2.488.193v7.013zm0 10.439c.549.096 1.357.129 2.359.129 2.908 0 5.591-1.066 5.591-4.233 0-2.974-2.553-4.201-5.623-4.201h-2.327v8.305zM248.913 617.895h-8.467v7.854h9.436v2.359h-12.248v-21.781h11.763v2.359h-8.952v6.884h8.467v2.325zM258.185 608.718h-6.625v-2.391h16.125v2.391h-6.657v19.39h-2.844v-19.39zM281.385 617.895h-8.467v7.854h9.436v2.359h-12.248v-21.781h11.763v2.359h-8.952v6.884h8.467v2.325zM285.616 624.683c1.261.776 3.102 1.421 5.041 1.421 2.876 0 4.556-1.519 4.556-3.716 0-2.036-1.163-3.199-4.104-4.331-3.555-1.26-5.753-3.102-5.753-6.173 0-3.393 2.812-5.914 7.045-5.914 2.23 0 3.845.517 4.815 1.066l-.776 2.295a8.683 8.683 0 0 0-4.136-1.034c-2.973 0-4.104 1.777-4.104 3.264 0 2.036 1.325 3.038 4.33 4.201 3.684 1.422 5.559 3.2 5.559 6.399 0 3.361-2.489 6.269-7.627 6.269-2.1 0-4.395-.614-5.558-1.389l.712-2.358z"/><path fill="#1F1C80" d="M618.57 724.383a2.386 2.386 0 0 0-2.405-2.366l-110.476.884.039 4.771 110.475-.884a2.385 2.385 0 0 0 2.367-2.405z"/><path fill="#FFF" d="m42.197 760.631-.498-62.164c-.057-7.098 5.227-12.895 11.8-12.947 6.573-.053 11.948 5.659 12.005 12.757l.123 15.448 66.976-.536.25 31.27-66.976.536L66 760.44c.057 7.099-5.225 12.895-11.799 12.947-6.574.053-11.948-5.658-12.004-12.756z"/><path fill="#E6E6E6" d="M65.139 695.346c.212.944.355 1.917.363 2.93l.094 11.689-.341.003-.116-14.622z"/><path fill="#CCC" d="m42.197 760.631-.007-.824c1.278 5.669 6.005 9.871 11.641 9.826 6.573-.052 11.856-5.849 11.799-12.947l-.123-15.448 66.976-.535-.22-27.512.34-.003.25 31.27-66.976.536L66 760.44c.057 7.099-5.225 12.895-11.799 12.947-6.574.053-11.948-5.658-12.004-12.756z"/><path fill="#CCC" d="m112.105 776.787-.757-94.659a5.206 5.206 0 1 0-10.411.083l.757 94.659a5.205 5.205 0 0 0 5.247 5.163 5.205 5.205 0 0 0 5.164-5.246z"/><path fill="#FFF" d="m111.34 681.188 341.089-2.73 34.689 25.016 17.077-.136.04 4.991c5.799-.047 10.536 4.616 10.582 10.414l.091 11.411c.047 5.798-4.616 10.535-10.414 10.582l.046 5.762-17.573.14-33.773 27.42-341.088 2.73-.766-95.6z"/><path fill="#EB557D" d="m120.365 690.077.619 77.68 196.944-1.567c16.883-21.671-21.986-41.213-1.852-77.68l-195.711 1.567z"/><path fill="#FFF" d="m163.78 745.39 5.626-.045.248 31-5.627.044zM208.845 745.028l5.653-.045.248 31-5.653.044zM253.89 744.674l5.653-.046.25 31-5.651.045zM299.002 744.304l5.627-.045.248 31-5.627.044zM344.008 743.969l5.627-.045.245 31-5.627.044zM389.08 743.607l5.626-.044.242 30.999-5.627.044z"/><path fill="#F2F2F2" d="m112.008 764.698-.669-83.51 8.816-.071.245 30.661c.233 29.188 24.084 52.66 53.273 52.426l267.277-2.139a34.662 34.662 0 0 0 21.576-7.753l24.343-19.763 17.623 6.186.046 5.762-17.573.14-33.773 27.42-332.272 2.659-8.816.071-.096-12.089z"/><path fill="#F9BDBD" d="M443.291 465.972s8.529-26.903 16.742-31.367c14.207-7.723 10.718 23.61 5.89 33.039-7.17 14.003-25.778 71.185-25.778 71.185l3.146-72.857z"/><path fill="#F0BBBB" d="M444.782 466.926s8.529-26.903 16.742-31.368c2.31-1.255 4.149-1.474 5.594-.927-1.591-1.521-3.889-1.764-7.085-.027-8.213 4.465-16.742 31.367-16.742 31.367l-3.146 72.856s.654-2.01 1.764-5.369l2.873-66.532z"/><path fill="#F9BDBD" d="M479.869 617.601c-10.551-11.605-38.702-89.579-38.61-93.512.369-15.673 10.309-65.409 14.815-92.625 2.382-14.383-18.673-32.512-25.046-10.947-2.616 8.852-32.314 142.155-33.946 141.8l28.558 67.764c-.001 0 64.78-.876 54.229-12.48z"/><path fill="#F0BBBB" d="M399.259 563.551c1.632.355 31.33-132.948 33.946-141.8 2.875-9.729 8.738-11.377 14.09-8.938-5.853-3.976-12.996-3.369-16.268 7.703-2.616 8.852-32.314 142.155-33.946 141.8l28.558 67.764s.591-.008 1.645-.033l-28.025-66.496z"/><path fill="#F9C2C2" d="M426.562 556.372s-.606-94.117 1.821-121.886c3.762-43.026-23.404-53.657-35.477-32.151-8.54 15.215-30.325 152.388-16.242 183.728 12.391 27.58 58.956 111.943 58.956 111.943l56.329-88.412-65.387-53.222z"/><path fill="#F0BBBB" d="M380.555 587.912c-14.083-31.341 7.702-168.513 16.242-183.728 5.001-8.909 12.592-12.297 19.501-10.158-7.782-5.091-17.427-2.315-23.391 8.308-8.54 15.215-30.325 152.388-16.242 183.728 12.391 27.58 58.956 111.943 58.956 111.943l1.541-2.419c-9.596-17.465-45.888-83.813-56.607-107.674z"/><path fill="#F9CBCB" d="M755.346 788.592H605.677c-6.112-5.258-11.895-9.967-17.299-14.139-11.859-9.187-21.826-15.775-29.219-19.813-23.375-12.773-84.35-37.026-122.914-57.608a74.4 74.4 0 0 1-1.635-.866c-7.515-4.051-14.103-7.954-19.325-11.59-19.715-13.725-74.81-113.313-74.81-113.313s-16.299-55.168-29.804-96.441c-.146-.439-.293-.866-.427-1.293-5.149-15.787-9.297-29.755-10.956-38.198a8.898 8.898 0 0 0-.122-.598 1.09 1.09 0 0 0-.024-.207l-.049-.256a22.091 22.091 0 0 0-.073-.391c0-.025-.012-.049-.012-.073-.024-.17-.037-.317-.073-.464-.037-.22-.073-.439-.11-.646-.012-.098-.025-.184-.037-.269-.049-.293-.073-.586-.11-.854-.146-1.196-.195-2.184-.159-2.94.012-.207.037-.378.061-.549.024-.219.073-.427.134-.585 0-.012 0-.025.012-.036.012-.013.012-.013.012-.024.085-.22.183-.366.317-.476 11.785-9.894 23.68-13.53 37.868 3.05 11.883 13.883 27.499 54.022 37.051 80.653v.013c1.196 3.342 2.294 6.466 3.282 9.296v.012c3.306 9.516 5.331 15.762 5.331 15.762s7.771 6.247 18.007 14.396c.671.537 1.367 1.085 2.062 1.647 15.189 12.078 34.758 27.499 42.749 33.22 4.855 3.477 12.066 7.393 22.875 11.249 3.562 1.281 7.527 2.538 11.919 3.77 5.6 1.586 11.919 3.123 19.032 4.575.085.024.171.037.256.049.085.024.171.049.268.061 1.464.305 2.952.597 4.49.878h.012c.415.086.83.171 1.257.244.085.012.171.036.257.049.085.012.171.036.256.036 13.822 2.562 30.365 4.819 50.203 6.563 5.319.464 10.711 1.464 16.153 2.928v.012c.086.013.183.036.281.073.085.012.171.036.256.061.891.244 1.769.5 2.66.769.842.256 1.683.524 2.525.793.098.036.183.061.281.098h.012c.098.024.183.061.28.098 38.955 12.98 78.006 48.543 93.647 82.203 4.331 9.333 12.859 20.581 23.582 32.488 6.6 7.332 14.042 14.933 21.838 22.472.305.293.597.586.891.879a819.54 819.54 0 0 0 20.606 19.093 989.729 989.729 0 0 0 16.104 14.139z"/><path fill="#F0BBBB" d="M618.731 788.592h-13.054c-6.112-5.258-11.895-9.967-17.299-14.139-11.859-9.187-21.826-15.775-29.219-19.813-23.375-12.773-84.35-37.026-122.914-57.608a74.4 74.4 0 0 1-1.635-.866c-7.515-4.051-14.103-7.954-19.325-11.59-19.715-13.725-74.81-113.313-74.81-113.313s-16.299-55.168-29.804-96.441c-.146-.439-.293-.866-.427-1.293-5.149-15.787-9.297-29.755-10.956-38.198a8.898 8.898 0 0 0-.122-.598c-.012-.073-.024-.135-.037-.207-.012-.098-.025-.171-.037-.256a22.091 22.091 0 0 0-.073-.391c0-.025-.012-.049-.012-.073-.024-.17-.037-.317-.073-.464-.037-.22-.073-.439-.11-.646-.012-.098-.025-.184-.037-.269-.049-.293-.073-.586-.11-.854-.159-1.196-.208-2.184-.159-2.94.012-.207.037-.378.061-.549.024-.219.073-.427.134-.585 0-.012 0-.025.012-.036.012-.013.012-.013.012-.024.037-.024.049-.061.073-.086 0 0 3.587 2.794 8.016 8.467 2.098 8.296 5.478 19.374 9.443 31.549.134.427.28.854.427 1.293.012.061.036.122.061.183 13.493 41.248 29.743 96.27 29.743 96.27s55.095 99.575 74.81 113.3a122.763 122.763 0 0 0 5.575 3.66c1.367.866 2.806 1.733 4.307 2.623h.012a303.993 303.993 0 0 0 9.492 5.344c38.454 20.752 100.795 45.493 124.488 58.449 8.955 4.892 21.703 13.53 36.978 25.962a476.94 476.94 0 0 1 16.569 14.139z"/><path fill="#F9D6D6" d="M316.755 468.842c-1.643 1.712-3.994 2.9-6.627 4.026-5.178-15.88-9.345-29.918-10.993-38.339l-.047-.262-.07-.393c-.036-.203-.065-.4-.104-.584-.031-.209-.06-.407-.094-.598-.438-2.767-.487-4.596-.089-5.226a.69.69 0 0 1 .085-.107s3.587 2.784 8.009 8.455c3.208 4.105 6.853 9.725 9.878 16.905 3.62 8.586 2.897 13.152.052 16.123z"/><path fill="#F9CBCB" d="M620.953 703.141c.074-1.165.091-2.306.073-3.432-.002-.111-.012-.222-.015-.333a41.782 41.782 0 0 0-.19-3.098c-.014-.133-.033-.266-.047-.399a41.109 41.109 0 0 0-.422-2.92c-.035-.199-.074-.397-.112-.595a42.295 42.295 0 0 0-.596-2.599c-.042-.164-.068-.332-.113-.495-.028-.107-.07-.209-.099-.316-.191-.67-.402-1.33-.623-1.986a42.87 42.87 0 0 0-1.097-2.939c-.131-.318-.249-.642-.388-.956-.242-.55-.506-1.089-.769-1.631-.2-.416-.399-.831-.611-1.241a53.112 53.112 0 0 0-1.397-2.541c-.228-.395-.441-.799-.678-1.188-4.906-8.019-11.526-14.789-18.097-21.445-3.284-3.341-6.604-6.661-9.583-10.274-2.967-3.596-5.552-7.641-6.436-12.271a1731.738 1731.738 0 0 1-6.921-27.172c-2.196-9.08-4.452-18.161-6.129-27.342-1.547-9.213-3.358-18.396-5.763-27.439-2.383-9.042-5.408-17.953-9.52-26.391-2.091-4.198-4.517-8.252-7.442-11.943-2.903-3.696-6.454-6.962-10.653-9.179-4.213-2.144-9.146-2.994-13.789-2.009-4.621.965-8.929 3.262-12.268 6.591-3.256 3.553-4.196 8.495-4.379 13.109-.176 4.686.289 9.354.77 13.995.933 9.242 2.296 18.666.374 27.814-.457 2.281-1.405 4.4-1.917 6.714-.4 2.31-.586 4.649-.587 6.985-.04 4.673.274 9.342.747 13.988 1.965 18.587 5.531 36.96 9.285 55.26 3.046 14.58 6.34 29.108 9.845 43.587a1057.708 1057.708 0 0 0 2.713 11.061c-.002-.01-.005-.019-.006-.029l.006.029 96.834 3.03z"/><path fill="#F9BDBD" d="M566.436 577.348c3.363 11.298 6.915 22.474 10.162 33.753 1.703 5.616 3.224 11.278 4.87 16.906.851 2.74 1.471 5.909 2.43 7.956 1.039 2.291 2.618 4.527 4.396 6.673 3.51 4.362 7.733 8.453 11.799 12.744 4.023 4.341 8.13 8.76 11.577 13.754 1.722 2.491 3.385 5.041 4.757 7.764 1.362 2.726 2.533 5.547 3.428 8.451.824 2.928 1.375 5.916 1.585 8.908.194 2.997-.016 5.983-.485 8.884-.213-2.947-.531-5.841-1.198-8.652-.693-2.802-1.558-5.532-2.731-8.131-2.306-5.215-5.522-9.944-9.158-14.352-7.294-8.882-16.352-16.163-24.323-25.54-1.926-2.415-3.769-5.037-5.119-8.123l-.491-1.165-.394-1.234c-.292-.877-.411-1.495-.611-2.233-.365-1.424-.734-2.847-1.063-4.28-1.329-5.728-2.731-11.435-3.892-17.203-1.234-5.749-2.321-11.534-3.323-17.336-.921-5.815-1.874-11.645-2.216-17.544z"/><path fill="#F0BBBB" d="M621.683 694.238c-.195-2.916-.731-5.929-1.586-8.967-.854-2.769-2.013-5.624-3.453-8.479-1.427-2.904-3.221-5.563-4.77-7.796-3.428-4.966-7.527-9.394-11.504-13.676l-.098-.11c-1.073-1.134-2.159-2.256-3.233-3.367-3.074-3.172-5.978-6.161-8.552-9.37-2.025-2.44-3.453-4.599-4.368-6.612-.61-1.305-1.073-3.074-1.574-4.941-.268-.988-.537-2.013-.842-2.977-.659-2.281-1.305-4.575-1.952-6.857-.354-1.244-.707-2.501-1.074-3.77a388.878 388.878 0 0 0-1.842-6.283c-1.94-6.746-4.026-13.566-6.039-20.154a1687.424 1687.424 0 0 1-4.123-13.603l-.195-.646-.012-.037-.403-1.378.122 2.148c.329 5.66 1.232 11.333 2.098 16.811l.122.756c1.098 6.393 2.184 12.065 3.318 17.348.208 1.049.427 2.086.659 3.136v.012c.732 3.367 1.525 6.723 2.294 10.004.317 1.354.635 2.696.94 4.05.305 1.305.646 2.635.976 3.904l.098.39c.061.232.122.452.171.671.122.476.244.964.439 1.574l.403 1.257.488 1.159c.244.561.512 1.11.781 1.635 1.367 2.635 3.026 4.856 4.38 6.551 3.892 4.575 8.064 8.687 12.102 12.652 4.368 4.294 8.491 8.344 12.224 12.896 4.063 4.929 7.052 9.601 9.114 14.286 1.073 2.379 1.964 5.026 2.721 8.088.732 3.05 1.013 6.185 1.195 8.589v.025l.147 2.147.341-2.122c.512-3.124.671-6.126.487-8.944zm-.67 6.601c-.195-1.977-.488-4.209-1.013-6.405-.768-3.099-1.659-5.783-2.745-8.174-2.086-4.733-5.1-9.443-9.199-14.408-3.745-4.575-7.881-8.638-12.249-12.932-4.038-3.965-8.198-8.051-12.065-12.615-1.611-2.013-3.636-4.746-5.088-8.052l-.488-1.147-.39-1.244a16.771 16.771 0 0 1-.427-1.525c-.061-.232-.11-.451-.171-.683l-.11-.39c-.317-1.269-.659-2.586-.964-3.892a211.359 211.359 0 0 0-.952-4.051c-.744-3.196-1.513-6.478-2.233-9.76-.232-1.122-.476-2.257-.695-3.379-1.135-5.282-2.221-10.943-3.331-17.324l-.11-.756c-.757-4.733-1.537-9.626-1.94-14.506.159.525.317 1.061.476 1.586.012.012.012.012.012.024.988 3.294 2.001 6.6 2.989 9.809 2.013 6.6 4.099 13.42 6.039 20.154a371.325 371.325 0 0 1 1.745 5.953c.39 1.378.781 2.745 1.159 4.099.647 2.282 1.293 4.575 1.964 6.856.293.964.574 1.977.83 2.965.5 1.891.976 3.672 1.61 5.026.94 2.05 2.379 4.258 4.429 6.723 2.586 3.22 5.502 6.221 8.576 9.394a446.285 446.285 0 0 1 3.233 3.367l.097.11c3.953 4.258 8.052 8.674 11.456 13.615 1.537 2.22 3.306 4.88 4.746 7.735 1.415 2.831 2.562 5.661 3.404 8.406.842 2.989 1.378 5.978 1.573 8.857.135 2.001.086 4.1-.146 6.283v.086c-.01.072-.01.121-.022.195z"/><path fill="#F9BDBD" d="M524.122 700.108c-5.919-15.49-10.819-31.328-15.058-47.35-4.217-16.032-7.747-32.27-9.668-48.897-.431-4.164-.734-8.355-.818-12.591-.045-4.238.02-8.521.864-12.904l.691-3.041c.203-.929.362-1.881.495-2.846.271-1.927.423-3.906.516-5.901.161-3.996.119-8.063.027-12.154-.235-8.183-.7-16.47-.39-24.819.222-4.166.567-8.372 1.617-12.464.54-2.037 1.229-4.05 2.244-5.906 1.021-1.839 2.358-3.537 4.068-4.712-1.476 1.449-2.525 3.224-3.227 5.106-.729 1.874-1.147 3.855-1.415 5.849-.518 3.999-.496 8.072-.275 12.138.396 8.144 1.505 16.299 2.156 24.58.357 4.142.623 8.32.568 12.564-.026 2.122-.113 4.261-.339 6.422a43.939 43.939 0 0 1-.449 3.256l-.572 3.002c-.606 3.732-.701 7.736-.587 11.729.121 4.006.468 8.043.919 12.08.82 8.088 2.138 16.174 3.564 24.248 1.364 8.089 3.054 16.134 4.652 24.208 3.336 16.123 6.934 32.221 10.417 48.403z"/><path fill="#F0BBBB" d="M520.876 683.978c-2.306-10.589-4.697-21.545-6.93-32.317-.342-1.781-.708-3.55-1.062-5.331-1.244-6.173-2.525-12.566-3.587-18.873-1.147-6.478-2.403-13.993-3.27-21.533a98.212 98.212 0 0 1-.293-2.696c-.513-4.648-.805-8.479-.915-12.066-.134-4.685.049-8.393.586-11.675l.573-3.001c.171-.976.317-2.05.451-3.27.195-1.94.305-3.989.342-6.454.049-4.624-.281-9.15-.573-12.578-.256-3.294-.598-6.625-.927-9.833-.488-4.844-.988-9.846-1.232-14.75-.256-4.794-.171-8.638.28-12.09.293-2.245.757-4.136 1.403-5.795.732-1.989 1.806-3.684 3.16-5.015l-.293-.341-.024-.037c-1.586 1.086-2.977 2.696-4.148 4.795-.903 1.659-1.623 3.55-2.269 5.966-1.061 4.135-1.403 8.454-1.622 12.505-.232 6.478-.012 12.993.207 19.3.073 1.854.134 3.697.183 5.539.085 3.66.146 7.966-.024 12.139-.11 2.232-.269 4.16-.513 5.88a35.827 35.827 0 0 1-.488 2.818l-.695 3.05c-.878 4.575-.915 9.089-.866 12.956.073 3.916.342 8.04.817 12.615.024.244.061.476.086.72 1.72 14.555 4.77 29.914 9.589 48.214 4.599 17.385 9.528 32.891 15.067 47.372l.293-.085.183-.049a6323.484 6323.484 0 0 0-3.489-16.08zm2.293 12.896c-5.051-13.579-9.601-28.06-13.859-44.176-4.794-18.227-7.844-33.489-9.553-47.982l-.11-.879c-.476-4.562-.744-8.674-.818-12.566-.049-3.843-.012-8.333.854-12.847l.695-3.05c.183-.842.342-1.781.5-2.855.244-1.745.403-3.672.513-5.929.171-4.185.11-8.504.024-12.176-.049-1.842-.11-3.684-.183-5.539-.219-6.295-.439-12.798-.207-19.252.219-4.026.561-8.32 1.61-12.419.586-2.184 1.22-3.941 2.013-5.466.012-.024.024-.049.037-.061.061-.11.11-.22.171-.317.512-.915 1.061-1.745 1.659-2.464a16.059 16.059 0 0 0-1.269 2.647c-.659 1.683-1.122 3.611-1.427 5.905-.452 3.477-.537 7.357-.281 12.175.244 4.917.744 9.919 1.244 14.762.317 3.221.659 6.539.915 9.833.293 3.416.622 7.93.561 12.541-.024 2.44-.134 4.477-.329 6.393-.134 1.232-.268 2.257-.452 3.233l-.573 3.014c-.537 3.318-.72 7.051-.586 11.773.11 3.599.403 7.442.915 12.102.086.854.183 1.708.281 2.562.866 7.6 2.147 15.177 3.294 21.704 1.062 6.307 2.343 12.7 3.587 18.885.354 1.769.707 3.55 1.061 5.331 2.233 10.773 4.624 21.728 6.93 32.33.512 2.367 1.037 4.734 1.549 7.113.012.061.024.135.049.207.392 1.82.795 3.638 1.185 5.468z"/><path fill="#F9D6D6" d="M511.924 560.404c5.027 7.804 34.1 3.984 38.764-7.584-.44-1.828.063-48.846-26.93-45.698-25.276 2.949-11.834 53.282-11.834 53.282z"/><path fill="#C44F52" d="m734.777 739.097-16.141 16.263-18.958 19.093-14.03 14.139H639.74l14.041-14.139 42.126-42.444 15.751-15.86 22.228 22.07z"/><path fill="#5575A6" d="M808.061 788.592h-124.17l14.03-14.139 19.825-19.972 16.14-16.262 11.626-11.712 48.312 47.946z"/><path fill="#F44E5B" d="M361.092 427.795c-4.831 8.444-13.812 7.689-20.324 2.73-6.512-4.958-10.068-13.372-3.016-20.501 5.792-5.855 24.625-9.338 29.497-14.626-3.44 6.441-1.447 24.166-6.157 32.397z"/><path fill="#CCC" d="M361.092 427.795c4.709-8.23 2.717-25.956 6.158-32.397-.679.736-1.628 1.438-2.775 2.115-1.395 8.1-.881 20.734-4.642 27.309-4.831 8.444-13.812 7.689-20.324 2.73-2.126-1.619-3.934-3.608-5.163-5.799.964 3.358 3.368 6.446 6.423 8.772 6.511 4.958 15.492 5.713 20.323-2.73z"/><path fill="#F2F2F2" d="M344.733 409.328c-.546.332-1.191.267-1.441-.144s-.01-1.014.536-1.345c.546-.332 1.191-.268 1.441.144.25.411.01 1.013-.536 1.345zM340.665 413.901c-1.577 1.503-3.402 2.148-4.076 1.441-.674-.707.058-2.499 1.635-4.002 1.577-1.503 3.402-2.148 4.076-1.441.674.707-.058 2.499-1.635 4.002z"/><path fill="#1F1C80" d="M35.32 774.453h1293.36v14.139H35.32z"/><path fill="#F2BFC2" d="M763.484 315.621c-16.042 16.167-31.31 31.167-38.397 35.341-17.523 10.332-88.11 77.528-116.67 64.452-12.433-5.679-12.621-23.061 22.914-54.238 35.537-31.191 99.558-77.799 118.278-62.077 4.435 3.721 9.394 9.587 13.875 16.522z"/><path fill="#F2BFC2" d="M812.014 427.712c-22.781 6.383-64.071-25.015-72.578-31.755 2.74.096 10.124-2 29.741-12.535 25.7-13.809-13.952-41.51-38.968-49.73 18.877-27.699 69.668-72.672 73.298-71.412 6.11 2.11 35.412 40.413 38.303 47.345 2.876 6.931-4.316 110.963-29.796 118.087z"/><path fill="#F7C8CC" d="M639.561 263.187s-120.608 64.151-105.191 84.442c15.417 20.291 78.615.949 108.806-25.557 30.19-26.507 45.615-41.059 54.729-44.273 9.114-3.214 25.44 10.892 52.532 4.837 27.093-6.055 58.927-7.697 58.927-7.697l-69.137-60.055s-86.6 29.091-100.666 48.303z"/><path fill="#F7C8CC" d="M563.674 392.658c-11.087-18.077 71.84-105.72 95.883-116.312 24.042-10.592 133.231-4.957 133.231-4.957l-7.023 52.862s-83.376-3.608-88.326 5.422c-4.951 9.029-81.477 57.107-97.313 63.701-15.836 6.592-28.232 12.685-36.452-.716z"/><path fill="#F2CED0" d="M737.874 394.71s.548.452 1.562 1.247c-1.987-.055-1.562-1.247-1.562-1.247z"/><path fill="#F7D2D4" d="m1081.913 748.223-7.674 4.001-42.626 22.229-27.12 14.139H898.17c-1.647-4.745-3.257-9.455-4.867-14.139-2.745-7.943-5.49-15.811-8.345-23.583-.037-.11-.086-.22-.122-.329-3.795-10.321-7.783-20.508-12.237-30.512a209.836 209.836 0 0 0-1.72-3.807c-6.82-14.933-14.75-29.512-24.608-43.725a219.45 219.45 0 0 0-3.245-4.55c-20.362-27.95-48.702-54.412-91.658-79.239a312.57 312.57 0 0 0 15.286-3.782C821.859 569.787 838 536.908 838 503.639c0-1.013-.012-2.037-.049-3.05a91.686 91.686 0 0 0-.11-2.647c-.036-.72-.073-1.44-.134-2.172-.013-.219-.037-.439-.049-.671a92.867 92.867 0 0 0-.159-1.818 46.675 46.675 0 0 0-.122-1.232 57.093 57.093 0 0 0-.159-1.427 70.54 70.54 0 0 0-.195-1.66l-.147-1.049a72.272 72.272 0 0 0-.329-2.245 7.178 7.178 0 0 0-.085-.537 37.63 37.63 0 0 0-.269-1.647c-.11-.671-.232-1.33-.354-1.988-.134-.732-.281-1.464-.427-2.196-.195-.964-.39-1.928-.61-2.879-.268-1.22-.549-2.44-.854-3.648-.184-.732-.366-1.464-.561-2.196a173.36 173.36 0 0 0-2.257-7.857 75.219 75.219 0 0 0-.744-2.33c-.22-.695-.452-1.378-.683-2.062-.086-.268-.183-.524-.269-.793-.244-.708-.488-1.427-.744-2.123-.354-.988-.708-1.976-1.073-2.94-.232-.634-.464-1.257-.708-1.891a241.06 241.06 0 0 0-1.843-4.648c-.634-1.512-1.256-3.001-1.891-4.453a239.175 239.175 0 0 0-3.794-8.271c-.318-.659-.622-1.293-.939-1.928a241.871 241.871 0 0 0-5.344-10.248c14.493-13.078 16.494-99.478-15.336-116.302-2.818-1.489-5.746-3.208-8.735-5.112-.159-.11-.329-.207-.5-.318-4.038-2.586-8.186-5.49-12.346-8.589a222.802 222.802 0 0 1-4.123-3.111 326.03 326.03 0 0 1-9.26-7.393 468.265 468.265 0 0 1-11.919-10.163c-.305-.268-.622-.537-.927-.817a392.137 392.137 0 0 1-4.429-3.952l-.854-.781a.026.026 0 0 1-.024-.024 690.884 690.884 0 0 1-14.981-14.006 622.867 622.867 0 0 1-9.577-9.479c-.83-.842-1.281-1.305-1.281-1.305s-1.867 1.269-5.149 3.331l-.024.012c-7.271 4.599-21.435 13.127-37.503 20.606-23.18 10.809-43.615 16.445-60.938 18.556-.415-.256-.83-.5-1.245-.744-.415-.257-.83-.5-1.244-.732a91.883 91.883 0 0 0-2.086-1.184 106.58 106.58 0 0 0-4.819-2.549 86.425 86.425 0 0 0-2.684-1.293 1.016 1.016 0 0 0-.232-.11 69.266 69.266 0 0 0-4.196-1.818 46.048 46.048 0 0 0-2.758-1.062c-.452-.17-.915-.329-1.367-.488a90.367 90.367 0 0 0-1.366-.451c-.451-.135-.903-.281-1.355-.415-.452-.134-.902-.256-1.342-.378-.451-.134-.902-.244-1.342-.354-.451-.11-.89-.219-1.341-.317a47.916 47.916 0 0 0-5.38-.928c-.39-.048-.781-.097-1.159-.121a5.005 5.005 0 0 0-.597-.049 15.15 15.15 0 0 0-1.062-.073c-.305-.024-.61-.037-.891-.037-.415-.012-.817-.024-1.22-.024h-.085c-.159 0-.317.013-.476.013a.434.434 0 0 0-.183 0 42.49 42.49 0 0 0-2.184.098c-.366.024-.732.061-1.086.098-.329.024-.659.073-.976.11a1.1 1.1 0 0 0-.208.024c-.268.036-.537.085-.805.122-.5.073-.988.17-1.476.281-.268.049-.525.11-.793.17-.329.073-.671.159-1 .244-.268.073-.537.146-.805.232-.354.098-.707.207-1.061.329a31.711 31.711 0 0 0-6.173 2.794c-.256-.171-.512-.341-.757-.525-14.615-10.15-11.919-22.192 9.016-29.999 73.126-27.291 116.338-69.174 155.683-71.601 17.641-1.098 55.119 20.41 86.388 41.077a885.434 885.434 0 0 1 12.627 8.504c2.306 1.598 4.551 3.16 6.722 4.673a663.238 663.238 0 0 1 6.27 4.453 568.6 568.6 0 0 1 5.185 3.733h.013a570.275 570.275 0 0 1 12.053 9.003s.012.012.012 0c1.001.768 1.903 1.476 2.721 2.122.354.281.696.537 1.037.805a40.52 40.52 0 0 0 4.477 2.879c5.502 3.063 10.675 4.172 15.701 5.027 4.123.695 8.137 1.22 12.151 2.525 7.174 2.318 14.299 7.101 21.924 19.74 17.763 29.463 48.36 70.613 53.35 189.757a760.1 760.1 0 0 1 .586 20.544c.354 22.167 6.124 47.153 14.932 72.687.281.793.549 1.598.842 2.391.025.086.049.158.086.232.28.83.573 1.66.866 2.477.085.244.183.488.268.732a523.605 523.605 0 0 0 4.27 11.346 496.41 496.41 0 0 0 4.478 11.041 305.051 305.051 0 0 0 1.964 4.636 426.234 426.234 0 0 0 1.781 4.123 626.838 626.838 0 0 0 8.76 19.105 298.14 298.14 0 0 0 1.94 4.05c.318.659.646 1.33.976 1.988a768.142 768.142 0 0 0 10.419 20.533 661.535 661.535 0 0 0 3.831 7.21 936.425 936.425 0 0 0 14.408 25.815c.854 1.476 1.696 2.94 2.55 4.391.988 1.696 1.989 3.379 2.965 5.039.378.635.756 1.269 1.122 1.903.366.598.72 1.196 1.086 1.794.524.878 1.037 1.745 1.561 2.611a811.457 811.457 0 0 0 2.404 3.977l.402.659a1132.004 1132.004 0 0 0 12.493 20.045c1.025 1.61 2.037 3.16 3.001 4.673.512.78 1.001 1.549 1.489 2.294.805 1.232 1.586 2.427 2.342 3.587.073.122.159.232.22.341.28.427.549.83.817 1.244a967.137 967.137 0 0 0 6.612 9.895c4.819 7.123 7.674 11.113 7.674 11.113z"/><path fill="#F7D2D4" d="M615.198 282.185c-25.59 3.11-44.331-1.506-55.002-8.617 15.425-9.028 34.713-3.685 55.002 8.617z"/><path fill="#FFF" d="m1039.021 640.071-163.47 78.542-17.215 8.273-17.731-50.439c14.309-10.054 28.747-19.57 43.349-28.43 38.204-23.216 77.51-42.001 118.375-54.412l36.692 46.466z"/><path fill="#EBEDF5" d="m875.551 718.614-17.215 8.273-17.731-50.439c14.309-10.054 28.747-19.57 43.349-28.43-10.149 13.734-20.063 29.392-20.719 38.825-.634 8.965 5.472 21.153 12.316 31.771z"/><path fill="#324191" d="M1138.703 788.592H864.73l-4.49-14.139-13.518-42.663c3.684-2.403 7.284-4.758 10.846-7.064h.013c1.561-1 3.099-2 4.636-2.989 2.928-1.867 5.807-3.709 8.662-5.514 0-.013.012-.013.012-.013.756-.475 1.513-.964 2.269-1.439 17.702-11.175 34.233-21.118 50.678-30.207.61-.341 1.22-.683 1.83-1.013a670.685 670.685 0 0 1 18.446-9.796 242.351 242.351 0 0 1 3.05-1.562c.842-.427 1.696-.854 2.538-1.281a643.424 643.424 0 0 1 24.742-11.748c.854-.391 1.72-.781 2.586-1.159 1.367-.61 2.733-1.22 4.124-1.817a406.508 406.508 0 0 1 5.099-2.208c.586-.256 1.171-.5 1.757-.757a726.65 726.65 0 0 1 18.385-7.515c.708-.281 1.428-.561 2.148-.842l1.781-.695c2.184-.842 4.38-1.696 6.612-2.538a977.655 977.655 0 0 1 18.081-6.637c.109-.036.232-.085.341-.122.854-.305 1.72-.61 2.587-.902 1.366-.488 2.745-.964 4.123-1.452a495.355 495.355 0 0 1 5.087-1.745c1.66-.574 3.33-1.147 5.015-1.708l9.662 17.824 1.122 2.062 1.623 2.989 2.562 4.721 10.785 19.897 7.515 13.835 2.513 4.636 3.465 6.381.708 1.318.549 1.013 1.11 2.037 2.013 3.721.085.147.403.757.464.842v.013l.048.097.598 1.098.976 1.794.452.83 2.538 4.673.085.17.659 1.208.329.61 1.354 2.501 2.586 4.758.122.232.33.61.659 1.196 4.05 7.478.659 1.208 3.867 7.137.415.768.061.098.793 1.464.793 1.476.732 1.342 1.574 2.903 10.602 19.544.073.134 7.599 14.003z"/><path fill="#23317D" d="M961.658 665.764c-.524.39-15.518 11.602-32.183 26.937-18.861 17.337-39.845 39.955-44.517 58.169-.696 2.709-1.025 5.319-.939 7.808.134 3.989 1.501 9.37 3.794 15.775 1.537 4.294 3.502 9.04 5.807 14.139h-28.89l-4.49-14.139-13.518-42.663c3.684-2.403 7.284-4.758 10.846-7.064h.013c4.514-2.915 8.942-5.746 13.298-8.503 0-.013.012-.013.012-.013.756-.475 1.513-.964 2.269-1.439 26.047-16.445 49.569-30.207 74.005-42.578l14.493-6.429z"/><path fill="#62C0A6" d="m525.96 347.788-3.339-10.605c-.147-.466-.281-.93-.404-1.397-.022-.088-.051-.18-.067-.271l-.002-.005-.064-.26c-.015-.067-.034-.126-.049-.193s-.023-.13-.044-.195l-.007-.022a28.313 28.313 0 0 1-.21-.97c-.01-.05-.027-.105-.032-.157a1.927 1.927 0 0 1-.03-.169c-.043-.195-.078-.398-.116-.595a32.299 32.299 0 0 1-.163-9.878c1.436-10.471 7.947-19.854 17.721-24.699.117-.061.237-.116.357-.172a32.115 32.115 0 0 1 4.38-1.742l302.901-95.356c17.142-5.396 35.403 4.106 40.799 21.248l3.339 10.605c5.396 17.142-4.122 35.408-21.265 40.804l-302.901 95.356c-1.365.43-2.752.771-4.126 1.001-11.319 2.016-22.649-2.168-29.998-10.481a16.227 16.227 0 0 1-.465-.532 32.163 32.163 0 0 1-4.613-7.203 32.652 32.652 0 0 1-.895-2.087l-.107-.282a.556.556 0 0 0-.036-.096c-.024-.058-.045-.123-.07-.186a36.28 36.28 0 0 1-.494-1.461z"/><path fill="#88D3BC" d="M850.366 212.459c10.855-3.417 22.463 2.624 25.876 13.467l3.338 10.604c3.417 10.855-2.633 22.466-13.489 25.883l-302.898 95.355a19.08 19.08 0 0 1-2.54.618c-10.233 1.818-20.218-4.256-23.321-14.114l-3.338-10.604c-3.019-9.59 1.472-20.177 10.448-24.626a20.532 20.532 0 0 1 3.025-1.228l302.899-95.355z"/><path fill="#609991" d="m555.594 305.355 125.17-39.406 15.678 49.8-125.17 39.405z"/><path fill="#4D4D4D" d="m563.091 310.26 114.338-35.994 12.268 38.967-114.339 35.995z"/><path fill="#B3B3B3" d="m563.1 310.254 5.92-1.864 10.222 32.472 108.417-34.13 2.065 6.561-114.336 35.994z"/><path fill="#58AF92" d="m525.96 347.788-3.339-10.605c-.147-.466-.281-.93-.404-1.397-.022-.088-.051-.18-.067-.271l-.002-.005c-.027-.087-.047-.17-.069-.258-.033-.13-.055-.261-.086-.391-.062-.26-.119-.52-.172-.78-.037-.177-.084-.355-.117-.532a32.146 32.146 0 0 1-.295-10.467c1.417-10.495 7.935-19.91 17.731-24.762l.818-.257 22.667 72.002c-11.292 2.007-22.602-2.153-29.954-10.435a17.702 17.702 0 0 1-.471-.53 32.17 32.17 0 0 1-4.63-7.198 32.652 32.652 0 0 1-.895-2.087c-.04-.089-.076-.185-.112-.28a.556.556 0 0 0-.036-.096c-.024-.058-.045-.123-.07-.186a34.066 34.066 0 0 1-.497-1.465z"/><ellipse cx="828.567" cy="245.308" fill="gray" rx="43.311" ry="18.562" transform="rotate(-17.475 828.51 245.293)"/><path fill="#8ACEB9" d="m460.544 370.632-4.585-14.564 66.12-20.815c.022.088.042.171.069.258l.002.005c.022.088.051.181.073.269.123.467.263.929.409 1.395l3.338 10.605c.155.493.316.984.491 1.465.026.063.046.128.065.188a25.401 25.401 0 0 0 .143.378l-66.125 20.816z"/><path fill="#609991" d="M790.997 257.133c-1.922-6.105 11.16-15.814 30.243-23.04l7.746 24.605c-19.781 5.008-36.065 4.544-37.989-1.565z"/><path fill="#9BBFB8" d="M823.185 255.396c-17.719 3.828-26.456 1.75-27.816.367.165-.781 1.584-3.264 6.682-6.89 4.202-2.988 9.89-6.027 16.327-8.744l4.807 15.267z"/><path fill="#609991" d="M866.135 233.479c-1.922-6.105-18.207-6.569-37.988-1.561l7.746 24.605c19.083-7.226 32.165-16.935 30.242-23.044z"/><path fill="#9BBFB8" d="M838.757 250.494c16.717-7.013 22.687-13.721 23.01-15.633-.582-.546-3.168-1.768-9.424-1.819-5.156-.043-11.559.725-18.392 2.186l4.806 15.266z"/><path fill="#BEE5D8" d="m455.972 356.08 13-4.093 4.584 14.565-12.998 4.092z"/><path fill="#ED1C24" d="m471.625 360.463-13.075 4.116-.8-2.54 13.075-4.116z"/><path fill="#4D4D4D" d="M774.933 274.768h-.001c-5.634 1.773-11.639-1.356-13.412-6.99v-.001c-1.774-5.634 1.356-11.639 6.989-13.413h.001c5.634-1.774 11.639 1.356 13.412 6.99v.001c1.774 5.635-1.355 11.64-6.989 13.413z"/><path fill="gray" d="M761.518 267.78a10.65 10.65 0 0 1 .718-8.157 10.686 10.686 0 0 1 6.275-5.261 10.661 10.661 0 0 1 8.151.72c.421.219.831.47 1.219.742a10.64 10.64 0 0 0-6.844-.146 10.687 10.687 0 0 0-6.274 5.261 10.645 10.645 0 0 0-.718 8.157 10.644 10.644 0 0 0 4.043 5.532 10.69 10.69 0 0 1-6.57-6.848z"/><path fill="#4D4D4D" d="M743.79 284.572h-.001c-5.634 1.773-11.639-1.356-13.412-6.99v-.001c-1.774-5.634 1.356-11.639 6.989-13.413h.001c5.634-1.774 11.639 1.356 13.412 6.99v.001c1.774 5.635-1.355 11.64-6.989 13.413z"/><path fill="gray" d="M730.375 277.584a10.65 10.65 0 0 1 .718-8.157 10.69 10.69 0 0 1 15.645-3.8 10.692 10.692 0 0 0-13.119 5.115 10.645 10.645 0 0 0-.718 8.157 10.644 10.644 0 0 0 4.043 5.532 10.688 10.688 0 0 1-6.569-6.847z"/><path fill="#4D4D4D" d="m524.643 350.453-4.585-14.564 2.02-.636c-.021-.065-.03-.133-.043-.195-.015-.067-.023-.13-.044-.195l-.007-.022a28.684 28.684 0 0 1-.161-.759l-.049-.211c-.01-.05-.027-.105-.032-.157a1.543 1.543 0 0 1-.04-.166l1.641-.517 5.785 18.377-1.565.493a32.652 32.652 0 0 1-.895-2.087l-2.025.639z"/><path fill="#E6E6E6" d="M571.155 365.249c-3.081 2-6.693 3.213-10.422 3.667-3.74.451-7.576.11-11.219-.919-3.642-1.032-7.106-2.792-10.005-5.206-2.914-2.382-5.277-5.404-6.708-8.787 2.681 2.499 5.406 4.701 8.377 6.439 2.936 1.777 6.077 3.096 9.336 4.03a41.647 41.647 0 0 0 10.083 1.575c3.447.121 6.938-.222 10.558-.799z"/><path fill="#F7D2D4" d="M766.656 584.923a309.72 309.72 0 0 1-15.288 3.78 427.687 427.687 0 0 0-6.315-6.137c-32.015-30.412-46.267-73.841-58.226-102.554-11.946-28.7-28.362-50.128-81.916-96.426-55.695-48.148-65.692-82.209-55.92-99.908 10.887-19.718 38.762-18.78 66.208-1.494 49.481 30.029 106.091 98.302 124.827 106.99 31.264 14.499 56.071 41.687 71.742 32.837.452-.26.891-.575 1.329-.973 19.082 34.537 62.783 133.938-46.441 163.885z"/><path fill="#FAE8E9" d="M625.32 300.276c5.689 15.418-26.548 52.602-43.037 47.16-1.176-.388-45.139-36.739-25.326-62.745 19.814-26.005 68.363 15.585 68.363 15.585z"/><path fill="#EB8F52" d="M377.1 759.556c0 8.84-17.096 16.005-38.184 16.005-21.089 0-38.185-7.166-38.185-16.005v-9.957s20.242-6.048 38.185-6.048c18.047 0 38.184 6.118 38.184 6.118v9.887z"/><path fill="#E08241" d="M375.612 749.241v8.878c0 8.84-17.095 16.005-38.184 16.005-15.027 0-28.021-3.64-34.253-8.929 5.442 6.057 19.388 10.367 35.742 10.367 21.089 0 38.184-7.166 38.184-16.005v-9.887s-.53-.161-1.489-.429z"/><ellipse cx="338.916" cy="749.506" fill="#FFBC8F" rx="38.185" ry="16.005"/><path fill="#FFC8A3" d="M304.54 752.096c0-8.839 17.096-16.005 38.185-16.005 12.443 0 23.492 2.496 30.464 6.357-6.224-5.299-19.23-8.947-34.273-8.947-21.089 0-38.185 7.166-38.185 16.005 0 3.624 2.877 6.965 7.72 9.648-2.5-2.129-3.911-4.524-3.911-7.058z"/><path fill="#FAAE7C" d="M370.035 740.237c1.912 1.907 2.971 4.001 2.971 6.199 0 8.84-17.096 16.005-38.185 16.005-12.844 0-24.197-2.66-31.119-6.735 5.779 5.761 19.368 9.806 35.213 9.806 21.089 0 38.184-7.165 38.184-16.005.001-3.457-2.621-6.654-7.064-9.27z"/><path fill="#EB8F52" d="m364.375 743.851-45.39 9.592-5.163-2.629 43.563-9.165z"/><path fill="#E06BAE" d="M415.112 761.613c-3.492 8.121-22.028 7.951-41.402-.38-19.373-8.33-32.249-21.666-28.757-29.787l3.933-9.147s20.985 2.439 37.469 9.527c16.58 7.129 32.663 20.704 32.663 20.704l-3.906 9.083z"/><path fill="#D1589D" d="m417.819 751.548-3.507 8.156c-3.492 8.121-22.028 7.951-41.402-.38-13.805-5.936-24.304-14.412-27.94-21.733 2.606 7.714 13.716 17.183 28.739 23.642 19.374 8.33 37.91 8.501 41.402.38l3.906-9.083s-.422-.357-1.198-.982z"/><ellipse cx="384.002" cy="737.297" fill="#FF8FCF" rx="16.005" ry="38.185" transform="rotate(-66.734 383.996 737.278)"/><path fill="#FFA8D9" d="M351.399 726.097c3.492-8.12 22.027-7.951 41.402.38 11.431 4.915 20.596 11.573 25.475 17.874-3.625-7.326-14.132-15.815-27.952-21.758-19.373-8.33-37.91-8.5-41.402-.38-1.432 3.33-.108 7.535 3.282 11.913-1.456-2.944-1.806-5.701-.805-8.029z"/><path fill="#FA82C7" d="M416.252 741.073c1.005 2.507 1.149 4.85.281 6.869-3.492 8.121-22.028 7.951-41.402-.38-11.799-5.073-21.178-12.003-25.927-18.48 3.034 7.575 13.92 16.659 28.476 22.918 19.374 8.33 37.91 8.501 41.402.38 1.365-3.175.219-7.148-2.83-11.307z"/><path fill="#E06BAE" d="m409.625 742.158-45.487-9.118-3.705-4.454 43.64 8.788z"/><path fill="#99C7FF" d="m214.53 750.367 9.504-14.494-17.211-11.286a8.629 8.629 0 0 0-5.596-1.366l-.01-.007a8.644 8.644 0 0 0-6.393 3.868 8.601 8.601 0 0 0-1.226 6.522 8.566 8.566 0 0 0 3.721 5.477l17.211 11.286z"/><path fill="#7AADEB" d="m214.53 750.367-1.11-.728 6.505-9.921a3.274 3.274 0 0 0-.942-4.532l-14.474-9.491a8.629 8.629 0 0 0-5.596-1.366l-.01-.007a8.778 8.778 0 0 0-1.683.346 8.714 8.714 0 0 1 3.997-1.454l.01.007a8.629 8.629 0 0 1 5.596 1.366l17.211 11.286-9.504 14.494z"/><path fill="#52A0FF" d="M243.75 759.165a8.646 8.646 0 0 0 1.236-6.516 8.66 8.66 0 0 0-3.731-5.483l-17.221-11.293-9.504 14.494 17.221 11.292a8.634 8.634 0 0 0 9.285.13 8.609 8.609 0 0 0 2.714-2.624z"/><path fill="#4D96F0" d="M241.036 761.789a8.634 8.634 0 0 1-5.296 1.255 8.61 8.61 0 0 0 1.86-.859 8.602 8.602 0 0 0 2.714-2.625 8.646 8.646 0 0 0 1.236-6.516 8.663 8.663 0 0 0-3.731-5.483l-15.001-9.837 1.215-1.852 17.222 11.293c2.003 1.313 3.27 3.31 3.731 5.483a8.642 8.642 0 0 1-3.95 9.141z"/><path fill="#A7A9AC" d="M198.53 736.992c-.372.3-.861.263-1.193-.076-1.261-1.286-1.949-3.057-1.958-4.851-.002-.443.451-.842.888-.801.477.045.799.414.801.887 0 .097.002.194.007.291l.001.027.009.106a6.236 6.236 0 0 0 .22 1.081c.014.046.03.092.043.138.033.087.066.174.101.26.141.34.315.662.511.972l.078.11a6.116 6.116 0 0 0 .565.663c.313.316.269.918-.073 1.193zM223.201 754.373l-21.957-14.46c-.908-.598.016-2.013.926-1.414l21.956 14.459c.91.599-.015 2.015-.925 1.415zM226.058 756.174c-.91-.596.015-2.011.926-1.414.91.596-.015 2.011-.926 1.414z"/><path fill="#FF8FCF" d="m189.343 763.88.172-17.331-20.58-.205a8.626 8.626 0 0 0-5.447 1.872h-.012a8.647 8.647 0 0 0-3.293 6.708 8.6 8.6 0 0 0 2.49 6.151 8.562 8.562 0 0 0 6.089 2.6l20.581.205z"/><path fill="#F580C3" d="m189.343 763.88-1.327-.013.118-11.862a3.274 3.274 0 0 0-3.241-3.306l-17.307-.172a8.626 8.626 0 0 0-5.447 1.872h-.012a8.72 8.72 0 0 0-1.23 1.2 8.714 8.714 0 0 1 2.579-3.382h.012a8.626 8.626 0 0 1 5.447-1.872l20.58.205-.172 17.33z"/><path fill="#E660AD" d="M218.687 755.506a8.64 8.64 0 0 0-2.478-6.151 8.665 8.665 0 0 0-6.101-2.6l-20.593-.205-.172 17.331 20.592.205a8.634 8.634 0 0 0 7.885-4.905 8.603 8.603 0 0 0 .867-3.675z"/><path fill="#DB53A1" d="M217.82 759.181a8.63 8.63 0 0 1-3.779 3.916 8.586 8.586 0 0 0 1.102-1.727 8.6 8.6 0 0 0 .867-3.675 8.644 8.644 0 0 0-2.478-6.151 8.665 8.665 0 0 0-6.101-2.6l-17.937-.179.022-2.215 20.593.205a8.665 8.665 0 0 1 6.101 2.6 8.64 8.64 0 0 1 2.478 6.151 8.618 8.618 0 0 1-.868 3.675z"/><path fill="#A7A9AC" d="M168.654 761.263c-.151.454-.583.686-1.045.58-1.756-.402-3.291-1.521-4.267-3.026-.241-.372-.076-.952.314-1.153.426-.22.896-.083 1.154.314.053.081.107.162.163.241l.016.022.065.084a5.98 5.98 0 0 0 .77.791l.111.093c.075.055.149.111.226.164.302.209.623.387.956.542l.125.05a6.028 6.028 0 0 0 .834.253c.429.098.718.628.578 1.045zM198.805 762.57l-26.288-.314c-1.088-.013-1.074-1.703.016-1.691l26.288.314c1.088.013 1.073 1.704-.016 1.691zM202.182 762.543c-1.088-.01-1.074-1.701.016-1.691 1.088.01 1.073 1.701-.016 1.691z"/></svg>