<svg xmlns="http://www.w3.org/2000/svg" xmlns:xlink="http://www.w3.org/1999/xlink" enable-background="new 0 0 3000 2000" viewBox="0 0 3000 2000"><switch><g><rect width="709.01" height="12.499" x="1596.088" y="923.801" fill="#e6e6e6" transform="rotate(-22.15 1950.423 930.079)"/><rect width="12.501" height="1013.02" x="1996.972" y="870.159" fill="#e6e6e6" transform="rotate(-51.843 2003.259 1376.704)"/><rect width="12.501" height="1014.816" x="1103.002" y="523.597" fill="#e6e6e6" transform="rotate(-85.693 1109.228 1030.978)"/><rect width="964.355" height="12.5" x="738.167" y="1336.646" fill="#e6e6e6" transform="rotate(-35.343 1220.519 1342.946)"/><rect width="12.498" height="859.098" x="1589.792" y="1058.182" fill="#e6e6e6" transform="rotate(-1.146 1599.504 1488.855)"/><polygon fill="#e6e6e6" points="1854.547 1170.666 1801.042 1201.76 1407.54 974.571 1461.044 943.477"/><ellipse cx="2466.364" cy="1721.035" fill="#e6e6e6" rx="117.158" ry="75.548" transform="rotate(-4.704 2465.895 1720.74)"/><ellipse cx="788.371" cy="1635.108" fill="#e6e6e6" rx="61.928" ry="106.916" transform="rotate(-78.06 788.364 1635.058)"/><ellipse cx="528.05" cy="996.783" fill="#e6e6e6" rx="71.939" ry="111.561" transform="rotate(-85.296 528.082 996.82)"/><ellipse cx="2361.717" cy="748.302" fill="#e6e6e6" rx="111.095" ry="71.639" transform="rotate(-4.704 2361.245 748.177)"/><path fill="#e6e6e6" d="M1667.634,1862.018c34.361,19.839,34.526,51.997,0.404,71.826
									c-34.138,19.839-89.64,19.839-124.001,0c-34.345-19.829-34.526-51.978-0.388-71.817
									C1577.771,1842.199,1633.29,1842.189,1667.634,1862.018z"/><path fill="#edc3aa" d="M2520.046,1063.202c2.376,1.908,4.664,6.32,5.779,6.551c0.134-0.047,1.218-3.658-0.123-7.663
								c-1.355-4.045-5.129-8.494-3.882-10.68c2.89-5.066,14.701-4.868,16.476-4.617c6.602,0.933,10.038,7.208,12.245,11.808
								c2.474,5.155,1.832,12.316,0.867,16.009c-0.635,2.433-1.853,10.506,0.37,13.753c4.776,6.977-13.352,5.759-16.052,3.391
								c-2.565-2.249-3.826-3.721-5.516-4.435c-5.846-2.47-10.567-10.043-10.838-11.717c-0.595-3.668-4.328-8.947-6.184-10.776
								c-0.489-0.481-0.524-1.28-0.035-1.761C2514.662,1061.582,2517.041,1060.789,2520.046,1063.202z"/><path fill="#fff" d="M2566.89,1174.968c-4.91,6.908-20.757,8.534-26.391,0.084
								c-4.388-6.582-14.662-84.032-14.662-84.032c3.338-10.137,21.045-11.268,27.458-5.384
								C2553.296,1085.635,2569.68,1171.042,2566.89,1174.968z"/><path fill="#fff" d="M2559.483,1287.211c-3.619,6.677-26.908-5.635-27.121-19.713
								c-0.336-22.226,6.063-87.186,8.197-91.742c4.308-9.198,19.263-10.331,26.104-2.823
								C2569.594,1176.149,2564.884,1277.246,2559.483,1287.211z"/><path fill="#e35944" d="M2145.844,1341.294c-65.327,0-136.992-18.025-203.191-62.722
						c-148.091-100-228.521-233.494-269.915-327.874c-44.856-102.278-54.858-182.2-54.956-182.996l12.412-1.497
						c0.093,0.781,9.956,79.216,54.172,179.883c40.737,92.739,119.827,223.904,265.283,322.122
						c117.698,79.48,253.027,71.726,334.937,28.789c59.365-31.121,93.774-80.945,94.399-136.699l12.5,0.142
						c-0.679,60.498-37.527,114.307-101.096,147.629C2251.43,1328.494,2200.885,1341.294,2145.844,1341.294z"/><path fill="#c94c38" d="M2309.534,893.162l-26.54,15.424c12.285-7.138,29.292-3.963,46.341,5.88
									c32.146,18.558,64.44,60.818,65.524,102.321l26.54-15.427c-1.083-41.501-33.378-83.76-65.524-102.318
									C2338.825,889.199,2321.822,886.024,2309.534,893.162z"/><path fill="#c94c38" d="M2484.567,1178.712l26.54-15.422c22.597-13.132,40.271-36.064,40.377-73.289
									c0.151-54.083-31.874-96.425-64.189-115.085c-18.697-10.794-37.492-13.655-50.206-6.268l-26.54,15.424
									c12.713-7.387,31.508-4.525,50.203,6.268c32.317,18.66,64.343,61.002,64.189,115.082
									C2524.838,1142.65,2507.162,1165.583,2484.567,1178.712z"/><path fill="#ff6a4e" d="M2394.375,1188.008c26.137,13.943,130.312,7.952,130.567-82.586
										c0.154-54.081-31.871-96.423-64.189-115.082c-32.143-18.558-64.579-13.668-65.894,26.447
										c-1.083-41.503-33.378-83.763-65.524-102.321c-32.312-18.654-64.471-13.363-64.625,40.712
										C2264.453,1045.713,2368.243,1171.773,2394.375,1188.008z"/><path fill="#f0c7ad" d="M2374.574,408.371c17.237-10.951,60.655-58,69.079-71.375
									c5.12-8.129,4.694-17.402-1.106-26.053c-7.649-11.408-22.986,3.849-31.772,14.406c0,0-30.749,36.154-43.712,55.193
									C2361.684,388.444,2360.812,417.115,2374.574,408.371z"/><path fill="#f2f2f2" d="M2450.673,335.064c5.12-8.129,5.041-15.212-0.759-23.863
									c-7.649-11.408-25.226-4.357-34.012,6.201c0,0-12.845,16.566-22.47,27.288c-0.18,11.772,9.179,24.848,26.192,24.969
									C2431.308,357.537,2447.069,340.786,2450.673,335.064z"/><path fill="#e6bea5" d="M2278.267,375.257l-5.851-20.4c0,0,87.792,22.953,94.6,25.069
									c7.368,2.29,10.77,25.718,4.753,29.662C2363.57,414.962,2278.267,375.257,2278.267,375.257z"/><path fill="#e6bea5" d="M2240.075,362.258c3.336,0.72,8.788-0.406,9.775,0.402c0.109,0.3-4.073,3.286-10.191,4.985
							c-7.256,2.014-9.792,2.399-10.72,3.373c-6.353,4.032,3.645,15.239,5.115,16.606c5.47,5.083,16.943,5.076,22.502,3.749
							c6.229-1.487,12.003-7.1,14.535-10.546c1.668-2.27,11.333-7.707,13.258-8.732c8.359-4.451-4.413-15.677-8.378-16.354
							c-3.766-0.643-5.936-0.701-7.749-1.667c-6.273-3.341-16.19-2.101-17.839-1.155c-3.61,2.072-10.835,2.552-13.735,2.228
							c-0.763-0.085-1.483,0.448-1.556,1.213C2234.866,358.718,2235.856,361.347,2240.075,362.258z"/><path fill="#e35944" d="M1839.005,931.899c-47.256,0-94.59-19.473-140.056-58.127
						c-55.615-47.285-88.328-105.625-89.692-108.086l10.928-6.067c0.325,0.586,33.137,59.04,87.1,104.831
						c71.27,60.476,143.948,71.372,216.016,32.385c175.6-94.995,269.285-414.761,270.212-417.979l12.012,3.452
						c-0.234,0.818-23.989,82.698-69.519,175.388c-42.199,85.913-112.324,199.048-206.758,250.134
						C1899.54,923.901,1869.289,931.899,1839.005,931.899z"/><path fill="#c94c38" d="M2108.291,206.515l-26.541,15.424c12.285-7.138,29.292-3.963,46.341,5.88
									c32.146,18.558,64.44,60.817,65.524,102.321l26.54-15.427c-1.083-41.501-33.378-83.76-65.524-102.319
									C2137.583,202.552,2120.579,199.377,2108.291,206.515z"/><path fill="#c94c38" d="M2283.324,492.065l26.54-15.422c22.597-13.132,40.271-36.064,40.377-73.289
									c0.151-54.083-31.874-96.425-64.189-115.085c-18.697-10.793-37.492-13.655-50.205-6.268l-26.54,15.424
									c12.713-7.387,31.508-4.525,50.203,6.268c32.317,18.66,64.342,61.002,64.188,115.082
									C2323.595,456.004,2305.919,478.936,2283.324,492.065z"/><path fill="#ff6a4e" d="M2193.132,501.362c26.137,13.943,130.312,7.952,130.567-82.586
										c0.154-54.081-31.871-96.423-64.188-115.082c-32.143-18.558-64.579-13.668-65.895,26.447
										c-1.083-41.503-33.378-83.763-65.524-102.321c-32.312-18.654-64.471-13.363-64.625,40.712
										C2063.21,359.066,2167,485.126,2193.132,501.362z"/><rect width="573.191" height="12.501" x="1326.35" y="1004.643" fill="#e35944" transform="rotate(-89.398 1612.962 1010.951)"/><path fill="#9c5320" d="M841.669,1051.573c0,0-4.764,57.298-10.551,75.441l32.834,14.37
						c6.994-26.156,9.21-86.89,9.21-86.89C870.238,1049.651,844.593,1047.086,841.669,1051.573z"/><path fill="#dbdbdb" d="M843.54,1057.394l1.276-11.408c4.061-5.304,22.091-3.115,26.667,2.38l-0.85,12.016
						C860.779,1062.737,852.648,1062.144,843.54,1057.394z"/><path fill="#f0c7ad" d="M879.7,1031.555c-1.868,5.365-5.844,13.161-9.111,15.087c-2.152,1.269-3.504,3.809-4.457,5.493
						c-3.792,6.707-21.699,2.85-20.097-1.284c1.44-3.799,1.51-6.263,0.23-9.39c-2.389-5.836-0.41-14.478,0.572-15.848
						c2.15-3.001,3.219-9.335,3.191-11.924c-0.007-0.681,0.528-1.269,1.209-1.265c2.102,0.012,4.333,1.12,4.761,4.925
						c0.338,3.008-1.142,7.72-0.517,8.663c0.255,0.123,3.263-3.301,5.309-8.55c2.425-6.224,2.248-12.064,3.191-12.796
						c4.125-5.247,13.323,1.491,14.398,2.911l-0.059,0.08c3.983,5.263,2.977,19.119,1.316,23.888L879.7,1031.555z"/><path fill="#fff" d="M843.54,1057.394l1.276-11.408c3.77,4.101,21.793,6.507,26.667,2.38l-0.85,12.016
						C860.779,1062.737,852.648,1062.144,843.54,1057.394z"/><path fill="#d9742c" d="M841.669,1051.573c0,0-6.865,62.855-10.551,75.441c-3.552,12.125-30.336,58.463-37.4,73.768
						l36.556,37.258c-0.535-20.136,27.48-73.474,33.678-96.656c6.994-26.156,9.21-86.89,9.21-86.89
						C869.245,1059.407,845.443,1058.222,841.669,1051.573z"/><path fill="#e35944" d="M1043.559,1352.812c-46.584,0-79.731-12.529-100.678-24.394
						c-49.608-28.103-80.002-79.202-81.305-136.692l12.498-0.283c1.201,53.047,29.227,100.185,74.969,126.099
						c42.008,23.794,136.334,50.149,296.076-40.75c78.494-44.665,166.846-124.763,236.34-214.26
						c72.686-93.608,119.482-190.183,133.435-274.622c-35.688,42.08-135.117,150.388-249.451,197.505
						c-85.159,35.093-176.619,43.828-271.841,25.972c-75.942-14.243-154.396-45.344-233.184-92.444
						C726.538,838.911,636.684,738.83,635.793,737.829l9.333-8.315c0.881,0.989,89.668,99.832,221.984,178.865
						c77.485,46.282,154.523,76.816,228.971,90.754c92.744,17.361,181.768,8.86,264.602-25.276
						c139.702-57.571,257.178-209.182,258.347-210.708l13.364-17.41l-2.188,21.838c-9.175,91.633-58.496,199.106-138.875,302.62
						c-70.452,90.73-160.181,172.021-240.032,217.458C1164.233,1337.202,1095.534,1352.812,1043.559,1352.812z"/><path fill="#c94c38" d="M782.534,913.285l-26.54,15.424c12.285-7.138,29.292-3.963,46.341,5.88
								c32.146,18.558,64.441,60.818,65.524,102.321l26.54-15.427c-1.083-41.501-33.378-83.76-65.524-102.318
								C811.825,909.322,794.821,906.147,782.534,913.285z"/><path fill="#c94c38" d="M957.567,1198.835l26.54-15.422c22.597-13.132,40.271-36.064,40.377-73.289
								c0.151-54.083-31.874-96.425-64.189-115.084c-18.697-10.794-37.492-13.655-50.205-6.268l-26.54,15.424
								c12.713-7.387,31.508-4.525,50.203,6.268c32.317,18.659,64.342,61.002,64.189,115.082
								C997.838,1162.774,980.161,1185.706,957.567,1198.835z"/><path fill="#ff6a4e" d="M867.374,1208.131c26.137,13.943,130.312,7.952,130.567-82.586
									c0.154-54.08-31.871-96.423-64.189-115.082c-32.143-18.558-64.579-13.668-65.894,26.447
									c-1.083-41.503-33.378-83.762-65.524-102.321c-32.312-18.654-64.471-13.363-64.625,40.712
									C737.453,1065.837,841.242,1191.896,867.374,1208.131z"/><path fill="#edc3aa" d="M585.858,572.486c-1.377,2.554-5.116,5.456-5.14,6.54c0.067,0.117,3.636,0.511,7.155-1.434
								c3.555-1.965,7.072-6.266,9.334-5.474c5.242,1.834,7.09,12.93,7.161,14.635c0.263,6.344-5.023,10.642-8.95,13.501
								c-4.402,3.204-11.219,3.836-14.844,3.568c-2.388-0.176-10.158,0.074-12.817,2.714c-5.713,5.674-7.692-11.513-5.939-14.45
								c1.665-2.789,2.826-4.224,3.204-5.929c1.306-5.901,7.586-11.625,9.108-12.168c3.333-1.189,7.635-5.593,9.027-7.647
								c0.367-0.54,1.109-0.711,1.643-0.336C586.448,567.164,587.6,569.257,585.858,572.486z"/><path fill="#5e3877" d="M489.249,635.598c-7.315-3.409-11.566-17.97-4.621-24.701
								c5.409-5.243,76.175-28.197,76.175-28.197c10.069,1.38,14.176,17.77,9.769,24.789
								C570.572,607.488,493.406,637.535,489.249,635.598z"/><path fill="#c94c38" d="M563.234,463.678l-26.54,15.424c12.285-7.138,29.292-3.963,46.341,5.88
								c32.146,18.558,64.44,60.818,65.524,102.321l26.54-15.427c-1.083-41.501-33.378-83.76-65.524-102.318
								C592.525,459.715,575.521,456.54,563.234,463.678z"/><path fill="#c94c38" d="M738.267,749.228l26.54-15.422c22.597-13.132,40.271-36.064,40.377-73.289
								c0.151-54.083-31.874-96.425-64.189-115.085c-18.697-10.793-37.492-13.655-50.206-6.268l-26.54,15.424
								c12.713-7.387,31.508-4.525,50.203,6.268c32.317,18.659,64.343,61.002,64.189,115.082
								C778.538,713.167,760.862,736.099,738.267,749.228z"/><path fill="#ff6a4e" d="M648.075,758.525c26.137,13.943,130.312,7.952,130.567-82.586
									c0.154-54.081-31.871-96.423-64.189-115.082c-32.143-18.558-64.579-13.668-65.894,26.447
									c-1.083-41.503-33.378-83.762-65.524-102.321c-32.312-18.654-64.471-13.363-64.625,40.712
									C518.153,616.23,621.943,742.29,648.075,758.525z"/><path fill="#594432" d="M2524.937,1715.519c-0.39,0.769-0.619,3.3-0.825,4.496
											c9.521,7.672,21.352,13.55,30.607,10.975c8.023-2.233,9.226-9.01,7.775-15.553L2524.937,1715.519z"/><path fill="#594432" d="M2555.227,1729.404c-11.627,3.235-30.05-11.917-38.849-19.87
											c-8.512-7.694-16.747-10.764-21.437-16.819c-3.932-5.077-4.417-11.037-2.996-17.471
											c3.747-16.973,20.633-2.399,41.998,13.081c13.722,9.942,22.749,10.801,27.029,19
											C2564.527,1714.137,2565.774,1726.469,2555.227,1729.404z"/><path fill="#211913" d="M2555.288,1725.563c-11.627,3.235-28.344-10.277-37.553-18.058
											c-8.764-7.406-17.599-12.026-22.289-18.081c-3.932-5.077-4.728-9.81-3.307-16.244
											c3.747-16.973,21.318-3.196,42.683,12.284c13.722,9.942,22.749,10.801,27.029,19
											C2565.407,1711.277,2565.835,1722.629,2555.288,1725.563z"/><path fill="#005a8c" d="M2525.904,1695.702c4.447,23.919,34.635,30.794,38.484,13.09
										c0.489-2.249-1.358-221.563-1.358-221.563l-54.122,10.173C2508.907,1497.403,2524.399,1687.609,2525.904,1695.702z"/><path fill="#594432" d="M2416.865,1759.83c3.232,2.905,28.962,11.895,36.257-0.433
											c1.093-1.846,0.687-7.855,0.687-7.855l-37.819,1.672L2416.865,1759.83z"/><path fill="#594432" d="M2450.925,1756.922c-7.241,8.919-18.859,3.222-36.894-0.194
											c-20.51-3.885-29.629-2.66-42.067-13.488c-8.01-6.974-13.379-22.634-5.702-22.618c16.382,0.034,20.08,5.596,45.301,11.617
											c16.482,3.935,26.66-1.071,34.844,3.236C2452.801,1738.839,2456.884,1749.583,2450.925,1756.922z"/><path fill="#211913" d="M2449.239,1757.33c-10.637,5.701-20.154,0.639-37.099-3.498
											c-20.493-5.002-24.975-4.037-38.625-13.291c-9.402-6.374-16.808-21.635-6.449-21.972
											c16.374-0.532,19.55,1.541,44.771,7.562c16.482,3.935,30.897,2.541,37.414,9.102
											C2454.667,1740.687,2456.83,1753.262,2449.239,1757.33z"/><path fill="#0074b3" d="M2410.324,1731.396c-0.493,18.482,32.344,29.833,42.895,15.105
										c1.597-2.23,21.694-121.62,21.694-121.62l59.346-112.172l-56.833-20.101c0,0-42.246,98.643-46.139,118.109
										C2427.767,1628.315,2410.425,1727.598,2410.324,1731.396z"/><path fill="#f7cdb3" d="M2521.88,1277.637c6.831-11.504,20.174-16.499,26.828-32.402
											c11.577-27.665,9.333-33.446-8.949-41.096c-15.427-6.455-45.794-1.9-53.412,20.205
											c-4.651,13.496-13.075,38.924-5.223,47.247c4.88,5.174,13.471-0.865,14.6,1.828
											C2496.632,1275.588,2520.292,1280.31,2521.88,1277.637z"/><path fill="#e3bba3" d="M2490.898,1273.121c1.956,1.128,0.122,10.885,0.029,14.966
											c-0.071,3.072-0.107,6.026,0.191,7.653l39.524-1.96c1.748-1.575,1.273-12.181-3.485-12.863
											c0.186-1.398,2.824-22.891,5.858-40.425c-10.121,10.524-19.759,4.274-23.833,16.747
											C2504.735,1270.851,2494.957,1271.461,2490.898,1273.121z"/><path fill="#4f3824" d="M2557.856,1222.077c-3.48-37.594-58.413-39.968-64.321-31.033
											c-9.315,14.088-3.145,9.305-2.959,16.247c-0.784,3.514,1.148,6.621,2.265,7.646c3.55,3.258,4.237-5.269,9.544-2.08
											c2.855,1.716-0.372,11.414-1.132,19.451l4.346,4.904c0.858-2.418,6.499-6.022,7.175-2.398
											c0.451,2.415-2.58,9.048-1.653,14.274c1.936,10.909,8.761,18.797,10.657,24.219c3.865-3.068,10.433-5.673,13.767-9.215
											C2542.624,1256.573,2559.059,1235.065,2557.856,1222.077z"/><path fill="#fff" d="M2529.24,1266.656c-11.17-1.26-30.742,13.991-38.96,21.661
										c-3.787,3.535-9.151,18.068-8.079,28.781c5.79-7.837,13.688-22.062,21.46-23.984c15.266-3.775,28.008-10.533,31.637-14.443
										c0.896-0.966,1.224-2.256,0.076-2.902C2533.829,1274.9,2531.247,1266.882,2529.24,1266.656z"/><path fill="#a67740" d="M2546.406,1276.208c29.132,7.032,28.599,92.552,18.063,144.528
										c-7.326,36.143,1.404,59.33,1.051,64.251c-3.574,7.887-5.359,20.334-23.91,25.155
										c-37.279,9.689-60.533-6.583-68.476-18.585c-0.371-9.526,7.555-23.132,7.326-52.75
										c-0.248-32.015-0.999-49.328-4.884-65.449c-4.973-20.631-10.865-47.677-2.62-59.529
										C2480.291,1303.287,2523.265,1270.623,2546.406,1276.208z"/><path fill="#edc3aa" d="M2378.729,1149.968c-1.144,2.785-1.014,7.694-1.869,8.427
								c-0.278,0.048,2.578-14.719-1.646-17.296c-4.92-3.001-15.04,2.813-16.456,3.878c-5.264,3.961-8.891,10.548-8.603,15.581
								c0.323,5.64,4.3,11.527,6.898,14.261c1.712,1.801,6.621,8.202,6.25,12.072c-0.797,8.316,15.177-1.428,16.381-4.766
								c1.144-3.171,0.654-5.015,1.774-6.44c3.877-4.929,4.341-13.734,3.776-15.312c-1.238-3.457-0.531-9.806,0.201-12.274
								c0.193-0.65-0.158-1.358-0.811-1.54C2382.613,1145.994,2380.176,1146.446,2378.729,1149.968z"/><path fill="#fff" d="M2393.108,1267.261c7.803,3.308,22.149-3.617,22.516-13.766
								c0.285-7.906-29.655-73.924-29.655-73.924c-8.157-6.882-23.828,1.44-26.204,9.813
								C2359.765,1189.384,2388.674,1265.381,2393.108,1267.261z"/><path fill="#fff" d="M2472.701,1341.547c7.305,2.079,21.091-24.145,11.173-34.137
								c-15.66-15.776-66.589-56.605-71.339-58.263c-9.589-3.348-20.853,6.555-20.265,16.694
								C2392.522,1270.186,2461.8,1338.445,2472.701,1341.547z"/><g><path fill="#c5c5c5" d="M1638.722,753.85c-0.016,5.713-0.032,11.426-0.049,17.139
							c-0.015,5.13,1.219,13.206-4.045,16.267c7.725-4.489,15.45-8.979,23.175-13.468c3.834-2.228,7.134-3.954,7.87-8.9
							c0.606-4.075,0.18-8.471,0.192-12.57c0.014-4.755,0.027-9.51,0.041-14.265C1656.844,743.318,1647.783,748.584,1638.722,753.85
							z"/><path fill="#fff" d="M1638.722,753.85l-0.07,24.562c-0.025,8.748-6.222,12.28-13.835,7.884l-23.579-13.613
								c-7.634-4.407-13.77-15.059-13.745-23.808l0.07-24.562c8.114,5.123,16.634,10.28,25.568,15.437
								C1622.07,744.913,1630.6,749.6,1638.722,753.85z"/><path fill="#c5c5c5" d="M1618.415,133.148c0.016-0.377,0.039-0.747,0.069-1.111c0.008-0.09,0.019-0.176,0.028-0.266
							c0.007-0.076,0.016-0.15,0.023-0.225c0.022-0.215,0.04-0.433,0.067-0.643c0.048-0.383,0.104-0.758,0.168-1.126
							c0.025-0.146,0.058-0.284,0.086-0.427c0.018-0.094,0.037-0.188,0.056-0.281c0.03-0.147,0.056-0.3,0.089-0.445
							c0.094-0.412,0.199-0.813,0.313-1.203c0.031-0.107,0.07-0.205,0.103-0.31c0.037-0.117,0.076-0.23,0.115-0.346
							c0.065-0.194,0.124-0.396,0.194-0.584c0.142-0.381,0.301-0.743,0.464-1.1c0.026-0.058,0.049-0.122,0.076-0.18
							c0.009-0.019,0.016-0.04,0.025-0.059c0.27-0.569,0.567-1.106,0.889-1.611c0.007-0.011,0.016-0.018,0.024-0.029
							c0.484-0.754,1.039-1.412,1.631-2.019c0.143-0.147,0.29-0.287,0.439-0.425c0.62-0.573,1.271-1.097,1.987-1.514l-27.184,15.797
							c-0.717,0.416-1.368,0.941-1.987,1.514c-0.149,0.138-0.296,0.278-0.439,0.425c-0.591,0.606-1.147,1.264-1.63,2.018
							c-0.341,0.531-0.654,1.097-0.937,1.699c-0.028,0.061-0.051,0.127-0.079,0.188c-0.242,0.532-0.459,1.092-0.655,1.676
							c-0.039,0.116-0.079,0.23-0.116,0.348c-0.195,0.624-0.364,1.275-0.505,1.955c-0.019,0.094-0.039,0.189-0.057,0.284
							c-0.136,0.704-0.244,1.435-0.32,2.196c-0.008,0.075-0.016,0.148-0.023,0.223c-0.076,0.83-0.121,1.69-0.123,2.585
							l27.184-15.797c0-0.023,0-0.045,0-0.068C1618.39,133.901,1618.399,133.521,1618.415,133.148z"/><path fill="#c5c5c5" d="M1706.717,217.842c-6.306,2.326-14.159-4.009-19.37-7.018
							c-11.159-6.443-22.318-12.885-33.477-19.328c-21.613-12.478-43.225-24.956-64.838-37.434
							c-4.752-2.744-8.747-6.196-11.835-10.811c-2.793-4.174-4.88-8.957-5.665-13.935c-0.755-4.787-0.412-11.331,4.33-14.085
							c-6.796,3.95-13.593,7.899-20.389,11.849c-2.435,1.415-5.155,2.666-7.415,4.362c-6.456,4.846-4.057,15.345-1.343,21.573
							c3.283,7.532,8.669,13.113,15.668,17.154c5.207,3.006,10.415,6.013,15.622,9.019c17.278,9.975,34.556,19.951,51.834,29.926
							c12.689,7.326,25.379,14.652,38.068,21.979c1.525,0.88,3.035,1.777,4.714,2.35c3.733,1.276,6.732,0.449,9.957-1.425
							c7.77-4.516,15.541-9.031,23.311-13.547c0.685-0.398,1.369-0.796,2.054-1.193
							C1707.549,217.501,1707.142,217.689,1706.717,217.842z"/><path fill="#fff" d="M1714.188,663.351c-0.006,2.169,1.528,4.826,3.416,5.916l41.884,24.181v0l1.108,0.64
								c1.888,1.09,3.411,0.199,3.418-1.971c0.001-0.389-0.059-0.789-0.162-1.194c-0.103-0.404-0.247-0.812-0.415-1.215
								c-0.366-0.881-0.853-1.736-1.491-2.418c-0.077-0.082-0.171-0.126-0.25-0.203c-0.343-0.332-0.695-0.653-1.078-0.874
								l-1.108-0.64l-41.883-24.181C1715.739,660.302,1714.194,661.182,1714.188,663.351z"/><path fill="#fff" d="M1759.603,652.726l-41.884-24.182c-1.888-1.09-3.432-0.21-3.438,1.959
								c-0.006,2.169,1.528,4.803,3.416,5.893l41.883,24.181v-0.001l1.108,0.64c1.888,1.09,3.411,0.222,3.418-1.948
								c0.001-0.389-0.059-0.789-0.162-1.194c-0.103-0.404-0.247-0.812-0.415-1.216c-0.217-0.522-0.479-1.009-0.801-1.479
								c-0.284-0.414-0.596-0.807-0.932-1.152c-0.337-0.345-0.699-0.642-1.086-0.865L1759.603,652.726z"/><path fill="#fff" d="M1760.804,620.495l-1.108-0.64l-41.884-24.182c-1.888-1.09-3.432-0.21-3.438,1.959
								c-0.006,2.169,1.528,4.826,3.416,5.916l41.883,24.181l1.108,0.64c1.416,0.817,2.627,0.52,3.147-0.595
								c0.173-0.372,0.269-0.834,0.271-1.376c0.003-0.957-0.327-1.996-0.817-2.964c-0.065-0.129-0.098-0.267-0.17-0.393
								C1762.599,621.974,1761.749,621.039,1760.804,620.495z"/><path fill="#fff" d="M1717.906,562.826c-1.888-1.09-3.432-0.21-3.438,1.959c-0.006,2.169,1.528,4.803,3.416,5.893
								l41.883,24.181l1.108,0.64c1.888,1.09,3.411,0.222,3.418-1.948c0.003-1.085-0.374-2.288-0.987-3.357
								c-0.196-0.341-0.45-0.634-0.69-0.94c-0.136-0.173-0.243-0.374-0.39-0.531c-0.407-0.435-0.856-0.805-1.328-1.077l-1.108-0.64
								L1717.906,562.826z"/><path fill="#fff" d="M1760.991,554.776l-1.108-0.64l-41.884-24.182c-1.888-1.09-3.432-0.21-3.438,1.959
								c-0.006,2.169,1.528,4.827,3.416,5.917l41.883,24.181v0l1.108,0.64c1.888,1.09,3.411,0.198,3.417-1.971
								c0.001-0.373-0.097-0.768-0.18-1.16c-0.142-0.67-0.368-1.335-0.71-1.975c-0.039-0.072-0.056-0.151-0.096-0.223
								C1762.785,556.255,1761.935,555.321,1760.991,554.776z"/><path fill="#fff" d="M1761.084,521.928l-1.108-0.64l-41.884-24.182c-1.888-1.09-3.432-0.234-3.438,1.959
								c-0.006,2.169,1.528,4.803,3.416,5.893l41.883,24.181v0l1.108,0.64c1.888,1.09,3.411,0.222,3.418-1.947
								c0-0.17-0.064-0.351-0.081-0.525c-0.045-0.462-0.12-0.922-0.277-1.391C1763.574,524.284,1762.437,522.71,1761.084,521.928z"/><path fill="#fff" d="M1763.585,491.605c-0.614-1.069-1.464-2.003-2.408-2.548l-1.108-0.64l-41.884-24.182
								c-1.888-1.09-3.432-0.21-3.438,1.959c-0.006,2.169,1.528,4.827,3.416,5.916l41.883,24.181l1.108,0.64
								c0.236,0.136,0.466,0.242,0.689,0.317c1.556,0.53,2.724-0.391,2.729-2.288c0.001-0.219-0.077-0.454-0.106-0.681
								C1764.351,493.385,1764.075,492.458,1763.585,491.605z"/><path fill="#fff" d="M1764.268,239.678c-27.457-30.426-84.394-88.547-149.364-126.057
								c-64.949-37.499-122.049-45.216-149.568-46.531c-10.625-0.513-17.473,7.72-17.511,21.137l-1.379,486.534
								c-0.047,16.577,8.242,36.478,21.294,51.1c21.142,23.662,59.237,60.198,119.822,98.452
								c8.114,5.123,16.634,10.28,25.568,15.438c8.94,5.162,17.47,9.849,25.592,14.099c60.61,31.717,98.781,39.214,119.967,39.991
								c13.092,0.472,21.467-9.808,21.514-26.385l1.379-486.534C1781.62,267.504,1774.841,251.403,1764.268,239.678z
								 M1560.012,132.143l31.193,18.009c0.042-14.95,10.625-20.981,23.635-13.469c13.011,7.512,23.524,25.722,23.482,40.672
								l31.213,18.021c8.783,5.071,15.901,17.376,15.873,27.492c-0.029,10.092-7.194,14.175-15.977,9.104l-109.521-63.232
								c-8.804-5.083-15.901-17.4-15.873-27.492C1544.064,131.131,1551.209,127.06,1560.012,132.143z M1764.572,494.962
								c-0.005,1.898-1.173,2.818-2.729,2.288c-0.222-0.076-0.453-0.181-0.689-0.317l-1.108-0.64l-0.071,24.995l1.109,0.64
								c1.353,0.781,2.49,2.355,3.037,3.989c0.157,0.469,0.232,0.929,0.277,1.391c0.017,0.174,0.082,0.355,0.081,0.525v0
								c-0.006,2.17-1.53,3.037-3.418,1.947l-1.108-0.64v0l-0.071,24.995l1.108,0.64c0.944,0.545,1.794,1.479,2.408,2.548
								c0.041,0.071,0.058,0.15,0.096,0.223c0.342,0.64,0.568,1.305,0.71,1.975c0.083,0.391,0.182,0.786,0.18,1.16
								c-0.006,2.169-1.53,3.061-3.417,1.971l-1.108-0.64v0l-0.071,24.995l1.108,0.64c0.472,0.272,0.92,0.642,1.328,1.077
								c0.147,0.157,0.255,0.358,0.39,0.531c0.24,0.306,0.494,0.598,0.69,0.94c0.614,1.069,0.99,2.272,0.987,3.357
								c-0.006,2.169-1.53,3.038-3.418,1.948l-1.108-0.64l-0.071,24.995l1.108,0.64c0.944,0.545,1.794,1.479,2.408,2.548
								c0.072,0.125,0.105,0.264,0.17,0.393c0.491,0.968,0.82,2.007,0.817,2.964c-0.002,0.542-0.098,1.005-0.271,1.376
								c-0.52,1.115-1.731,1.412-3.147,0.595l-1.108-0.64l-0.071,24.995l1.108,0.64c0.387,0.223,0.749,0.52,1.086,0.865
								c0.337,0.345,0.648,0.737,0.932,1.152c0.322,0.469,0.584,0.957,0.801,1.479c0.168,0.403,0.312,0.811,0.415,1.216
								c0.103,0.405,0.163,0.805,0.162,1.194v0c-0.006,2.17-1.53,3.037-3.418,1.948l-1.108-0.64v0.001l-0.071,24.995l1.108,0.64
								c0.383,0.221,0.735,0.542,1.078,0.874c0.08,0.077,0.173,0.121,0.25,0.203c0.638,0.682,1.125,1.537,1.491,2.418
								c0.168,0.403,0.312,0.811,0.415,1.215c0.103,0.405,0.163,0.805,0.162,1.194v0c-0.006,2.17-1.53,3.061-3.418,1.971
								l-1.108-0.64v0l-0.176,61.946c-0.02,7.239-3.733,11.78-9.447,11.552c-23.348-0.844-66.013-10.431-136.667-51.224
								c-70.634-40.78-113.214-80.409-136.49-106.46c-5.696-6.383-9.371-15.189-9.351-22.428l1.035-364.907
								c30.18,9.884,40.869,10.414,66.693,25.324c10.496,6.06,23.497,14.498,41.318,26.903c24.34,16.95,83.25,89.893,134.83,119.673
								c17.803,10.279,34.742,15.415,49.073,11.327l-0.236,83.262l1.108,0.64c0.944,0.545,1.794,1.479,2.408,2.548
								c0.49,0.853,0.766,1.78,0.881,2.676C1764.495,494.508,1764.573,494.742,1764.572,494.962L1764.572,494.962z"/><path fill="#c5c5c5" d="M1808.472,260.082c-1.693-14.659-9.293-27.733-19.081-38.473
							c-10.648-11.684-21.61-23.093-32.938-34.121c-23.864-23.23-48.999-45.178-76.031-64.666
							c-26.88-19.379-55.629-36.06-86.437-48.38c-29.457-11.78-60.692-19.799-92.335-22.532c-6.015-0.52-12.406-1.625-17.944,1.385
							c-1.918,1.042-3.783,2.198-5.67,3.295c-6.666,3.874-13.333,7.748-19.999,11.622c-0.497,0.289-0.995,0.578-1.492,0.867
							c4.717-2.741,10.166-1.982,15.353-1.581c6.811,0.526,13.596,1.299,20.351,2.324c13.764,2.088,27.368,5.069,40.756,8.887
							c27.992,7.983,54.94,19.523,80.216,33.946c50.436,28.78,95.002,67.976,135.009,109.782
							c9.086,9.495,19.075,18.882,25.429,30.518c4.67,8.551,7.872,18.164,7.922,27.978c0.011,2.174-0.012,4.349-0.018,6.524
							c-0.042,14.902-0.085,29.804-0.127,44.706c-0.071,25.163-0.143,50.327-0.214,75.49c-0.087,30.693-0.174,61.386-0.261,92.079
							c-0.091,31.995-0.181,63.989-0.272,95.984c-0.081,28.582-0.162,57.164-0.243,85.746c-0.058,20.526-0.116,41.051-0.175,61.577
							c-0.023,8.135,0.018,16.272-0.069,24.407c-0.094,8.779-2.538,19.277-10.873,23.907c8.294-4.82,16.588-9.64,24.882-14.46
							c5.876-3.415,9.89-7.957,11.796-14.652c1.019-3.579,1.357-7.297,1.379-11.005c0.039-6.718,0.038-13.437,0.057-20.156
							c0.043-15.073,0.085-30.147,0.128-45.22c0.06-21.054,0.119-42.108,0.179-63.162c0.07-24.661,0.14-49.322,0.21-73.983
							c0.073-25.811,0.146-51.622,0.22-77.433c0.07-24.76,0.14-49.519,0.211-74.279c0.06-21.192,0.12-42.384,0.18-63.576
							c0.044-15.393,0.087-30.785,0.131-46.178c0.02-7.144,0.058-14.289,0.061-21.433
							C1808.764,263.899,1808.689,261.989,1808.472,260.082z"/><path fill="#ff6a4e" d="M1535.085,247.252c10.497,6.06,23.497,14.499,41.318,26.904
								c24.34,16.95,83.249,89.893,134.829,119.673c17.803,10.279,34.741,15.416,49.073,11.326l-0.236,83.262l-41.884-24.182
								c-1.888-1.09-3.432-0.21-3.438,1.959c-0.006,2.169,1.528,4.827,3.416,5.917l41.884,24.182l-0.071,24.995l-41.884-24.181
								c-1.888-1.09-3.432-0.234-3.438,1.959c-0.006,2.169,1.528,4.803,3.416,5.893l41.884,24.181l-0.071,24.995l-41.884-24.182
								c-1.888-1.09-3.432-0.21-3.438,1.959c-0.006,2.169,1.528,4.826,3.416,5.917l41.884,24.182l-0.071,24.995l-41.884-24.182
								c-1.888-1.09-3.432-0.21-3.438,1.959c-0.006,2.17,1.528,4.803,3.416,5.893l41.884,24.182l-0.071,24.995l-41.884-24.182
								c-1.888-1.09-3.432-0.21-3.438,1.959c-0.006,2.169,1.528,4.826,3.416,5.917l41.884,24.182l-0.071,24.995l-41.884-24.182
								c-1.888-1.09-3.432-0.21-3.438,1.959c-0.006,2.169,1.528,4.803,3.416,5.893l41.884,24.182l-0.071,24.995l-41.884-24.182
								c-1.888-1.09-3.432-0.21-3.438,1.959c-0.006,2.169,1.528,4.827,3.416,5.917l41.884,24.182l-0.176,61.946
								c-0.021,7.239-3.733,11.78-9.447,11.552c-23.348-0.844-66.013-10.431-136.667-51.223
								c-70.634-40.781-113.214-80.409-136.49-106.46c-5.696-6.383-9.371-15.189-9.351-22.428l1.035-364.906
								C1498.572,231.813,1509.261,232.342,1535.085,247.252z"/><path fill="#fff" d="M1635.182,575.404c6.225,0,12.022-1.576,17.167-4.753
									c12.163-7.503,18.857-22.794,18.857-43.063c0-39.409-26.138-87.599-58.274-107.416
									c-16.661-10.28-32.582-11.774-44.826-4.213c-12.163,7.502-18.857,22.794-18.857,43.067c0,39.409,26.138,87.6,58.273,107.416
									C1617.182,572.398,1626.589,575.404,1635.182,575.404z M1585.305,422.78c6.681,0,14.249,2.491,22.218,7.405
									c29.148,17.982,52.864,61.672,52.864,97.403c0,15.963-4.777,27.698-13.447,33.05c-8.761,5.396-20.838,3.912-34.007-4.208
									c-29.148-17.982-52.863-61.672-52.863-97.403c0-15.967,4.777-27.703,13.447-33.055
									C1576.977,423.841,1580.952,422.78,1585.305,422.78z"/><polygon fill="#fff" points="1579.171 466.826 1601.664 480.069 1601.664 451.066 1617.996 460.683 1617.996 489.686 1640.49 502.931 1640.49 523.989 1617.996 510.745 1617.996 539.749 1601.664 530.132 1601.664 501.128 1579.171 487.884"/></g><g><path fill="#dedede" d="M820.094,1640.338c0,0-4.84-4.608-15.795-11.391c-9.005-5.576-17.453-4.381-19.749-11.603
							c-0.392-1.233,0.05-11.623,0.05-11.623l42.899,31.767L820.094,1640.338z"/><path fill="#dedede" d="M858.062,1639.208c0.45-5.887-10.259-10.001-21.478-17.361
							c-6.613-4.338-11.144-11.996-17.952-15.62c-18.359-9.772-25.906-19.19-31.486-8.534c-5.58,10.656-2.779,18.915,15.58,28.687
							c8.276,4.405,15.081,14.248,25.529,18.771C839.447,1649.995,857.566,1645.705,858.062,1639.208z"/><path fill="#ff4436" d="M858.358,1637.793c2.74-4.951-9.173-10.503-21.722-18.384
							c-6.313-3.965-16.117-12.835-18.657-18.695c-8.271-19.082-24.958-15.092-30.538-4.436
							c-5.581,10.656-2.542,18.356,15.817,28.128c8.276,4.405,16.71,15.115,27.336,19.194
							C840.502,1647.404,855.117,1643.648,858.358,1637.793z"/><path fill="#356a8b" d="M820.63,1602.729c-0.303,3.972-2.725-2.499-7.499,0.172
							c-11.578,6.476-26.26,6.716-26.776-5.227c6.529-43.651,1.397-73.942,8.794-95.097l-35.254-122.605l57.164-1.986
							c0,0,16.398,101.366,15.493,119.195C831.322,1521.392,824.311,1554.405,820.63,1602.729z"/><path fill="#dedede" d="M729.959,1614.562c-3.783,2.088-4.174,6.524-4.619,14.434
							c-0.239,4.25,3.836,6.252,6.664,11.099c2.462,4.221,3.98,9.12,5.07,11.742l1.846-10.509L729.959,1614.562z"/><path fill="#dedede" d="M772.078,1664.42c-2.353,4.773-22.508,5.833-31.954-4.776
							c-3.59-4.031-2.746-10.402-4.908-17.528c-4.129-13.604-10.294-11.179-9.498-18.226c2.934-25.965,29.089-12.428,29.089-12.428
							s3.445,15,9.261,29.589C768.852,1653.049,775.211,1658.063,772.078,1664.42z"/><path fill="#ff4436" d="M771.321,1663.797c-6.252,3.163-23.028,1.333-30.946-7.559
							c-3.59-4.031-2.746-10.402-4.908-17.528c-4.129-13.604-10.294-11.179-9.498-18.226c2.934-25.966,29.089-12.428,29.089-12.428
							s3.445,15,9.261,29.589C769.103,1649.644,777.211,1660.817,771.321,1663.797z"/><path fill="#4183ab" d="M756.627,1613.486c4.566-47.593,8.123-59.36,12.547-100.777
							c5.453-51.061,23.78-120.778,21.286-126.673c-4.851-11.465-54.04-2.546-58.099,8.575
							c-8.466,23.196,3.096,65.687-1.914,120.326c-5.044,38.136-2.734,86.713-2.67,98.608
							C734.994,1621.172,744.359,1609.203,756.627,1613.486z"/><path fill="#ed483c" d="M757.318,1612.657c-0.646,9.193,8.077,25.412,0.434,26.226
							c-7.778,0.828-15.481-15.174-15.381-23.706c0.097-8.21,4.253-10.606,8.38-11.302
							C754.879,1603.179,757.894,1604.467,757.318,1612.657z"/><path fill="#ed483c" d="M822.73,1600.522c2.341,8.914,12.578,16.52,9.806,18.5
							c-6.365,4.546-20.936-5.412-23.581-13.525c-2.545-7.806,3.01-15.44,7.098-16.336
							C820.906,1588.098,820.645,1592.581,822.73,1600.522z"/><path fill="#fff" d="M742.069,1624.392c-0.339,0-0.662-0.205-0.793-0.539c-0.173-0.44,0.042-0.935,0.48-1.108
								l15.421-6.099c0.436-0.173,0.935,0.042,1.107,0.479c0.173,0.439-0.042,0.935-0.48,1.108l-15.421,6.099
								C742.281,1624.372,742.174,1624.392,742.069,1624.392z"/><path fill="#fff" d="M743.82,1632.356c-0.293,0-0.577-0.151-0.736-0.42c-0.239-0.405-0.105-0.93,0.3-1.17
								l14.957-8.833c0.404-0.242,0.93-0.105,1.169,0.3c0.239,0.405,0.105,0.93-0.3,1.17l-14.957,8.833
								C744.117,1632.317,743.968,1632.356,743.82,1632.356z"/><path fill="#fff" d="M747.52,1638.982c-0.294,0-0.58-0.151-0.739-0.425c-0.238-0.405-0.1-0.93,0.308-1.167
								l13.746-8.025c0.408-0.237,0.931-0.103,1.168,0.308c0.238,0.408,0.1,0.93-0.308,1.167l-13.746,8.025
								C747.814,1638.943,747.665,1638.982,747.52,1638.982z"/><path fill="#fff" d="M751.075,1646.26c-0.288,0-0.569-0.146-0.73-0.41c-0.245-0.403-0.118-0.928,0.284-1.172
								l13.041-7.962c0.4-0.246,0.928-0.12,1.173,0.283c0.245,0.403,0.118,0.928-0.284,1.172l-13.041,7.961
								C751.38,1646.218,751.226,1646.26,751.075,1646.26z"/><path fill="#fff" d="M751.072,1646.26c-0.385,0-0.735-0.264-0.829-0.654c-0.11-0.459,0.172-0.92,0.631-1.03
								l14.879-3.577c0.444-0.108,0.919,0.171,1.029,0.63c0.11,0.459-0.172,0.921-0.631,1.03l-14.879,3.577
								C751.206,1646.252,751.139,1646.26,751.072,1646.26z"/><path fill="#fff" d="M765.708,1642.759c-0.061,0-0.123-0.007-0.184-0.022l-18.287-4.018
								c-0.46-0.1-0.752-0.554-0.651-1.016c0.1-0.462,0.558-0.767,1.017-0.649l18.287,4.019c0.46,0.1,0.752,0.554,0.651,1.016
								C766.453,1642.485,766.1,1642.759,765.708,1642.759z"/><path fill="#fff" d="M764.289,1638.21c-0.072,0-0.147-0.01-0.22-0.029l-19.945-5.31
								c-0.455-0.122-0.726-0.588-0.606-1.045c0.122-0.454,0.586-0.728,1.045-0.606l19.945,5.31
								c0.455,0.122,0.726,0.588,0.606,1.045C765.011,1637.956,764.667,1638.21,764.289,1638.21z"/><path fill="#fff" d="M761.314,1631.074c-0.09,0-0.182-0.015-0.272-0.046l-19.392-6.536
								c-0.447-0.149-0.687-0.635-0.537-1.081c0.151-0.447,0.637-0.688,1.082-0.535l19.392,6.536
								c0.447,0.149,0.687,0.635,0.537,1.082C762.002,1630.849,761.67,1631.074,761.314,1631.074z"/><path fill="#fff" d="M758.706,1623.423c-0.071,0-0.142-0.01-0.212-0.027l-17.31-4.419
								c-0.457-0.117-0.732-0.581-0.617-1.038c0.118-0.461,0.586-0.732,1.039-0.618l17.31,4.419
								c0.456,0.117,0.732,0.581,0.616,1.038C759.434,1623.166,759.086,1623.423,758.706,1623.423z"/><path fill="#fff" d="M810.122,1611.762c-0.243,0-0.486-0.105-0.654-0.307c-0.303-0.361-0.255-0.898,0.106-1.201
								l12.715-10.647c0.359-0.303,0.898-0.256,1.202,0.107c0.303,0.361,0.255,0.898-0.106,1.201l-12.715,10.647
								C810.511,1611.697,810.316,1611.762,810.122,1611.762z"/><path fill="#fff" d="M814.291,1618.769c-0.199,0-0.399-0.071-0.56-0.21c-0.356-0.31-0.393-0.85-0.083-1.206
								l11.414-13.096c0.309-0.356,0.847-0.391,1.204-0.083c0.356,0.31,0.393,0.85,0.083,1.206l-11.414,13.096
								C814.766,1618.669,814.529,1618.769,814.291,1618.769z"/><path fill="#fff" d="M819.891,1623.891c-0.2,0-0.402-0.071-0.564-0.215c-0.354-0.31-0.388-0.85-0.077-1.204
								l10.519-11.946c0.311-0.357,0.85-0.391,1.205-0.076c0.354,0.31,0.388,0.85,0.077,1.204l-10.519,11.946
								C820.363,1623.794,820.127,1623.891,819.891,1623.891z"/><path fill="#fff" d="M825.556,1629.68c-0.195,0-0.391-0.068-0.552-0.203c-0.359-0.305-0.404-0.842-0.1-1.204
								l9.869-11.663c0.308-0.364,0.844-0.4,1.204-0.1c0.359,0.305,0.404,0.842,0.1,1.204l-9.869,11.663
								C826.038,1629.578,825.797,1629.68,825.556,1629.68z"/><path fill="#fff" d="M825.557,1629.68c-0.286,0-0.564-0.144-0.726-0.403c-0.249-0.4-0.126-0.928,0.275-1.177
								l12.996-8.081c0.404-0.249,0.925-0.125,1.175,0.273c0.249,0.4,0.126,0.928-0.275,1.177l-12.996,8.081
								C825.866,1629.639,825.711,1629.68,825.557,1629.68z"/><path fill="#fff" d="M819.72,1623.696c-0.431,0-0.802-0.327-0.847-0.767c-0.05-0.469,0.291-0.889,0.759-0.938
								l18.621-1.948c0.486-0.029,0.89,0.293,0.938,0.762c0.05,0.469-0.29,0.889-0.759,0.938l-18.621,1.948
								C819.779,1623.694,819.749,1623.696,819.72,1623.696z"/><path fill="#fff" d="M814.96,1619.121c-0.448,0-0.824-0.349-0.851-0.803c-0.028-0.471,0.33-0.874,0.801-0.903
								l20.602-1.243c0.438,0,0.875,0.327,0.903,0.801c0.028,0.471-0.33,0.874-0.801,0.903l-20.602,1.243
								C814.995,1619.119,814.977,1619.121,814.96,1619.121z"/><path fill="#fff" d="M830.492,1612.043c-0.001,0-0.002,0-0.004,0l-20.464-0.095
								c-0.471-0.003-0.852-0.388-0.85-0.859c0.002-0.469,0.383-0.85,0.853-0.85c0.001,0,0.002,0,0.004,0l20.464,0.095
								c0.471,0.002,0.852,0.388,0.85,0.859C831.343,1611.662,830.962,1612.043,830.492,1612.043z"/><path fill="#fff" d="M807.785,1606.86c-0.443,0-0.819-0.344-0.85-0.794c-0.034-0.471,0.321-0.879,0.791-0.913
								l17.82-1.257c0.485,0.02,0.879,0.322,0.911,0.791c0.034,0.471-0.321,0.879-0.791,0.913l-17.82,1.257
								C807.825,1606.858,807.806,1606.86,807.785,1606.86z"/></g><g><path fill="#a6a6a6" d="M756.586,1205.777c0,0-0.233,9.723,3.721,13.152c7.521,6.521,28.52-1.273,29.191-1.373
							c0.969-0.145,1.806-0.756,2.237-1.636l-3.98-16.225C781.516,1201.715,763.371,1198.514,756.586,1205.777z"/><path fill="#bf6726" d="M814.436,1320.289c0.275,28.857,4.809,45.61,4.864,58.52
							c0.091,21.404-88.166,42.223-91.046,20.795c-1.999-11.479,1.734-21.875-2.727-78.755
							c-1.118-14.254-10.868-42.358-12.797-64.713c-1.284-14.875,5.934-27.683,19.467-33.989
							c13.17-6.137,29.43-13.199,41.083-16.528c11.035-3.153,23.348-4.39,33.787-4.777c13.043-0.484,25.437,10.774,24.745,23.808
							C830.383,1251.514,813.969,1271.289,814.436,1320.289z"/><path fill="#c7a58e" d="M796.64,1169.716l-38.197,9.222c0,0,1.151,21.932,2.888,31.159
							c1.996,10.605,16.332,21.031,30.498,16.11c10.253-3.561,7.743-19.576,7.522-21.732L796.64,1169.716z"/><path fill="#e6e6e6" d="M800.67,1224.944c-4.207,5.469-15.651,7.573-21.288,5.974l2.945-13.884h14.052L800.67,1224.944
							z"/><path fill="#fff" d="M787.109,1217.048c0,0,10.49,12.287,14.665,15.652c0.763,0.615,1.876,0.56,2.767,0.153
							c0.713-0.325,3.42-16.753,1.909-22.085c-0.839-2.96-7.021-10.106-7.021-10.106
							C798.807,1208.108,793.165,1214.137,787.109,1217.048z"/><path fill="#fff" d="M756.575,1205.784c0,0-6.311,6.058-4.863,11.088c2.753,9.566,25.371,24.618,25.987,24.9
							c0.892,0.407,2.177,0.629,2.767-0.153c3.837-5.081,6.596-24.599,6.596-24.599
							C779.899,1216.513,760.614,1212.179,756.575,1205.784z"/><path fill="#fccfb7" d="M745.559,1167.225c4.373,12.476,12.561,21.651,23.756,28.826
							c9.843,6.308,21.859,12.274,29.996,10.129c18.198-4.797,10.037-10.531,11.673-18.929c2.07-10.622,2.127-24.214-2.463-37.307
							c-3.409-9.726-8.858-20.917-16.551-25.805c-10.852-6.894-28.125-5.993-37.388-0.994
							C738.622,1131.759,737.342,1143.78,745.559,1167.225z"/><path fill="#7a5a47" d="M791.686,1111.655c2.998,1.204,1.816,4.97,3.125,8.611c1.422,3.955,4.395,7.474,5.032,11.519
							c-2.977-2.354-7.58-8.372-10.151-5.095c-1.942,2.476-1.82,2.932-6.024,4.875c-7.528,2.193-13.018-2.554-22.117,3.004
							c-8.048,4.916-12.448,18.06-2.026,26.855c-0.368,2.517-0.294,4.306-0.816,6.916c-2.282-3.637-5.351-5.729-7.173-4.746
							c-1.997,1.077-1.739,5.43,0.576,9.723c1.567,2.907,4.202,4.698,6.019,5.439c-0.019,8.747,4.366,11.506,4.701,12.829
							c-9.423-5.114-15.024-12.595-17.378-19.448c-5.731-16.687-10.513-31.787-4.393-42.329
							C748.325,1117.296,783.338,1108.303,791.686,1111.655z"/></g><g><path fill="#f2f2f2" d="M442.844,589.865c-2.904-6.624,19.965-16.933,30.672-8.864
										c16.904,12.739,61.995,55.52,64.172,59.788c4.396,8.614-3.494,20.519-13.136,21.273
										C520.42,662.383,447.177,599.749,442.844,589.865z"/><path fill="#594432" d="M472.275,991.53c0.371,0.732,0.589,3.142,0.785,4.281
													c-9.067,7.305-20.332,12.903-29.145,10.451c-7.64-2.126-8.786-8.58-7.404-14.81L472.275,991.53z"/><path fill="#594432" d="M443.432,1004.752c11.071,3.081,28.615-11.348,36.993-18.921
													c8.106-7.326,15.947-10.25,20.413-16.016c3.744-4.834,4.206-10.51,2.853-16.636
													c-3.568-16.162-19.648-2.285-39.992,12.456c-13.066,9.467-21.663,10.285-25.737,18.092
													C434.577,990.215,433.389,1001.958,443.432,1004.752z"/><path fill="#211913" d="M443.374,1001.095c11.071,3.081,26.99-9.786,35.759-17.196
													c8.346-7.052,16.758-11.452,21.224-17.217c3.744-4.834,4.502-9.341,3.149-15.468
													c-3.568-16.162-20.3-3.043-40.644,11.697c-13.066,9.467-21.663,10.285-25.737,18.092
													C433.739,987.492,433.331,998.3,443.374,1001.095z"/><path fill="#6d431b" d="M471.354,972.66c-4.234,22.777-32.98,29.323-36.645,12.465
												c-0.466-2.141,1.294-210.979,1.294-210.979l51.537,9.687C487.54,783.834,472.787,964.953,471.354,972.66z"/><path fill="#594432" d="M575.184,1033.725c-3.078,2.766-27.579,11.327-34.525-0.412
													c-1.04-1.758-0.654-7.48-0.654-7.48l36.012,1.592L575.184,1033.725z"/><path fill="#594432" d="M542.751,1030.956c6.895,8.493,17.958,3.068,35.131-0.185
													c19.531-3.699,28.213-2.532,40.057-12.843c7.628-6.64,12.74-21.553,5.43-21.538c-15.6,0.033-19.121,5.329-43.137,11.062
													c-15.695,3.747-25.386-1.019-33.18,3.081C540.966,1013.737,537.077,1023.967,542.751,1030.956z"/><path fill="#211913" d="M544.357,1031.344c10.129,5.429,19.191,0.608,35.327-3.331
													c19.514-4.763,23.782-3.844,36.78-12.656c8.953-6.07,16.005-20.602,6.141-20.922
													c-15.591-0.507-18.616,1.468-42.633,7.201c-15.695,3.747-29.421,2.419-35.627,8.668
													C539.188,1015.496,537.129,1027.47,544.357,1031.344z"/><path fill="#825834" d="M581.413,1006.649c0.469,17.599-30.799,28.408-40.846,14.383
												c-1.521-2.123-20.657-115.81-20.657-115.81l-56.511-106.813l54.118-19.141c0,0,40.228,93.93,43.935,112.466
												C564.803,908.492,581.317,1003.032,581.413,1006.649z"/><path fill="#f7cdb3" d="M474.8,576.044c-7.171-12.076-21.177-17.32-28.163-34.014
													c-12.153-29.042-9.797-35.11,9.395-43.141c16.194-6.777,48.073-1.994,56.069,21.21
													c4.882,14.167,13.725,40.861,5.483,49.598c-5.123,5.431-14.142-0.908-15.326,1.919
													C501.303,573.892,476.466,578.85,474.8,576.044z"/><path fill="#e3bba3" d="M504.688,570.266c-1.863,1.074-0.117,10.366-0.027,14.251
													c0.067,2.925,0.102,5.738-0.182,7.287l-37.636-1.867c-1.664-1.5-1.213-11.599,3.318-12.249
													c-0.177-1.331-2.689-21.797-5.578-38.494c9.638,10.021,18.815,4.07,22.695,15.947
													C491.512,568.104,500.823,568.685,504.688,570.266z"/><path fill="#fff" d="M468.178,564.11c10.637-1.2,29.274,13.323,37.099,20.627
												c3.606,3.366,8.714,17.205,7.693,27.406c-5.513-7.462-13.034-21.008-20.434-22.838
												c-14.537-3.595-26.67-10.03-30.126-13.753c-0.853-0.919-1.166-2.149-0.072-2.763
												C463.809,571.96,466.266,564.326,468.178,564.11z"/><path fill="#231f20" d="M437.033,517.719c3.654-39.465,61.319-41.956,67.521-32.577
												c9.779,14.789,3.301,9.768,3.106,17.055c0.823,3.689-1.205,6.95-2.378,8.026c-3.727,3.421-4.448-5.531-10.019-2.183
												c-2.997,1.801,0.39,11.981,1.189,20.419l-4.562,5.148c-0.9-2.539-6.822-6.322-7.532-2.517
												c-0.473,2.535,2.709,9.498,1.735,14.984c-2.032,11.452-11.277,19.243-16.126,23.122c-4.057-3.22-6.014-3.654-9.513-7.372
												C453.024,553.932,435.771,531.354,437.033,517.719z"/><path fill="#734b91" d="M451.831,573.206c-27.74,6.696-27.233,88.131-17.2,137.624
												c6.976,34.417-1.337,56.496-1,61.182c3.404,7.51,5.103,19.362,22.768,23.954c35.498,9.226,57.641-6.269,65.205-17.697
												c0.354-9.071-7.194-22.027-6.976-50.23c0.236-30.486,0.951-46.972,4.651-62.323c4.735-19.645,10.346-45.4,2.495-56.685
												C514.789,598.991,473.867,567.887,451.831,573.206z"/></g><g><path fill="#ffd2b7" d="M648.844,741.81c-2.822,0.508-7.366-0.594-8.219,0.055c-0.1,0.249,14.219,0.543,15.773,4.99
								c1.81,5.18-5.625,13.44-6.9,14.545c-4.74,4.109-11.597,6.169-16.225,4.895c-5.187-1.428-9.872-6.307-11.898-9.273
								c-1.335-1.954-6.312-7.804-9.989-8.233c-7.902-0.92,4.364-13.844,7.712-14.298c3.181-0.431,4.8,0.394,6.35-0.364
								c5.364-2.624,13.654-1.296,15.011-0.455c2.971,1.844,9.023,2.455,11.468,2.267c0.643-0.049,1.232,0.419,1.271,1.063
								C653.32,738.989,652.412,741.167,648.844,741.81z"/><path fill="#5e3877" d="M542.517,704.975c-1.52-7.926,7.795-19.898,17.318-18.21
								c7.417,1.315,62.896,42.387,62.896,42.387c4.777,8.971-6.104,21.897-14.375,22.435
								C608.356,751.586,543.381,709.479,542.517,704.975z"/><path fill="#5e3877" d="M497.24,628.659c-2.345-10.819,14.246-31.616,21.814-20.55
								c11.949,17.472,44.266,76.902,44.966,81.642c1.414,9.567-9.866,18.328-19.243,15.962
								C540.759,704.699,499.526,639.208,497.24,628.659z"/></g><path fill="#f0c7ad" d="M762.031,1078.873c-2.125,5.268-4.263,13.754-3.072,17.355c0.785,2.372,0.131,5.174-0.261,7.069
						c-1.56,7.545,14.46,16.427,15.974,12.261c1.417-3.808,2.985-5.709,6.008-7.221c5.64-2.821,9.838-10.63,10.001-12.307
						c0.357-3.675,3.721-9.147,5.446-11.077c0.454-0.508,0.438-1.302-0.077-1.748c-1.59-1.375-4-2.009-6.826,0.574
						c-2.235,2.043-4.222,6.563-5.313,6.863c-0.273-0.076-0.284-4.633,1.631-9.931c2.271-6.281,6.248-10.562,6.021-11.734
						c0.348-6.665-11.012-7.647-12.755-7.285l-0.008,0.099c-6.462,1.34-14.825,12.434-16.714,17.118L762.031,1078.873z"/><g><path fill="#fff" d="M765.579,1126.474l9.073-8.786c3.345-5.954-8.986-21.163-16.159-18.831l-8.757,6.577
								L765.579,1126.474z"/><path fill="#d9742c" d="M743.413,1211.302c5.272,11.247,6.657,19.516-0.539,32.536
								c-6.614,11.968-21.122,25.711-22.801,18.203c-4.137-18.496-28.844-75.107-31.776-95.949
								c-0.588-4.182,30.889,1.236,33.076,3.638C731.065,1180.376,738.201,1200.182,743.413,1211.302z"/><path fill="#d9742c" d="M770.516,1124.389c0,0-33.357,32.7-49.484,46.414c-1.593,1.354-26.485,5.949-31.54-1.955
								c-10.941-17.108,60.815-65.656,60.815-65.656C757.693,1097.461,772.685,1113.292,770.516,1124.389z"/></g><g><path fill="#594432" d="M2420.076,742.806c-0.388,0.766-0.616,3.288-0.822,4.479
											c9.486,7.644,21.273,13.501,30.495,10.935c7.994-2.225,9.193-8.977,7.747-15.496L2420.076,742.806z"/><path fill="#594432" d="M2450.255,756.641c-11.584,3.224-29.94-11.873-38.707-19.797
											c-8.481-7.666-16.686-10.725-21.358-16.757c-3.918-5.058-4.4-10.997-2.985-17.407c3.733-16.91,20.558-2.39,41.844,13.033
											c13.672,9.906,22.666,10.761,26.93,18.93C2459.521,741.43,2460.763,753.717,2450.255,756.641z"/><path fill="#211913" d="M2450.316,752.814c-11.584,3.223-28.24-10.24-37.415-17.992
											c-8.732-7.379-17.534-11.982-22.207-18.015c-3.918-5.058-4.71-9.774-3.295-16.184c3.733-16.911,21.24-3.184,42.526,12.239
											c13.672,9.906,22.666,10.761,26.929,18.93C2460.397,738.581,2460.824,749.89,2450.316,752.814z"/><path fill="#20668c" d="M2423.931,723.012c4.43,23.832,31.616,30.732,35.451,13.093
										c0.487-2.24-1.354-220.751-1.354-220.751l-49.44,9.667C2408.588,525.02,2422.432,714.948,2423.931,723.012z"/><path fill="#594432" d="M2312.4,786.956c3.221,2.894,28.856,11.852,36.124-0.431
											c1.088-1.839,0.685-7.826,0.685-7.826l-37.68,1.666L2312.4,786.956z"/><path fill="#594432" d="M2346.335,784.058c-7.215,8.887-18.79,3.21-36.759-0.193
											c-20.435-3.871-29.52-2.65-41.912-13.438c-7.981-6.948-13.33-22.552-5.681-22.535
											c16.322,0.034,20.007,5.576,45.135,11.575c16.422,3.92,26.562-1.067,34.717,3.224
											C2348.204,766.041,2352.272,776.746,2346.335,784.058z"/><path fill="#211913" d="M2344.655,784.465c-10.598,5.68-20.08,0.636-36.963-3.485
											c-20.417-4.984-24.884-4.022-38.484-13.242c-9.368-6.351-16.747-21.556-6.425-21.892
											c16.314-0.53,19.479,1.536,44.607,7.535c16.422,3.92,30.783,2.532,37.277,9.069
											C2350.063,767.882,2352.218,780.411,2344.655,784.465z"/><path fill="#2982b3" d="M2310.688,760.273c-0.491,18.414,27.42,28.077,37.933,13.402
										c1.592-2.222,18.323-121.53,18.323-121.53l65.689-125.414l-58.667-15.043c0,0-43.318,107.306-47.197,126.7
										C2323.262,655.922,2310.789,756.488,2310.688,760.273z"/><path fill="#f7cdb3" d="M2417.361,302.462c6.034-12.996,19.709-19.762,25.079-37.426
											c9.342-30.729,6.325-36.645-13.981-42.818c-17.135-5.209-48.998,2.931-54.722,27.307
											c-3.495,14.882-9.719,42.887-0.453,50.906c5.76,4.985,14.26-2.379,15.753,0.368
											C2390.238,303.01,2415.959,305.482,2417.361,302.462z"/><path fill="#e3bba3" d="M2384.146,301.21c2.095,1.208,0.131,11.658,0.031,16.028
											c-0.075,3.29-0.115,6.453,0.205,8.196l42.328-2.099c1.872-1.687,1.364-13.045-3.732-13.776
											c0.199-1.497,3.024-24.514,6.273-43.293c-10.839,11.271-21.16,4.578-25.524,17.935
											C2398.965,298.779,2388.493,299.432,2384.146,301.21z"/><path fill="#f2f2f2" d="M2424.363,295.588c-11.129-1.255-30.63,13.94-38.818,21.582
											c-3.773,3.521-9.117,18.002-8.049,28.676c5.769-7.808,13.638-21.982,21.381-23.896
											c15.21-3.761,27.906-10.494,31.521-14.39c0.893-0.962,1.22-2.248,0.076-2.892
											C2428.935,303.802,2426.363,295.813,2424.363,295.588z"/><path fill="#fff" d="M2441.467,305.105c29.025,7.006,28.494,92.213,17.997,143.999
										c-7.3,36.011,1.857,53.176,1.505,58.079c-3.561,7.858-5.339,20.259-23.823,25.063
										c-37.142,9.654-60.311-6.559-68.225-18.517c-0.37-9.491,7.069-17.11,6.841-46.619c-0.247-31.898-0.995-49.147-4.866-65.209
										c-4.955-20.555-10.825-47.503-2.611-59.311C2375.594,332.084,2418.41,299.54,2441.467,305.105z"/></g><g><path fill="#ffd3b7" d="M2322.363,452.219c4.551-7.113-3.709-21.115-13.504-23.657
									c-3.051-0.792-43.801,13.752-56.83,18.241c-10.054,3.464-9.438,16.777-1.609,20.507
									C2250.42,467.31,2319.777,456.261,2322.363,452.219z"/><path fill="#ffd3b7" d="M2382.149,362.697c1.781-7.355-18.018-11.264-27.573-0.994
									c-15.086,16.215-45.107,64.118-46.021,66.859c-3.2,9.6,3.356,24.839,13.427,23.853
									C2326.296,451.992,2379.491,373.672,2382.149,362.697z"/><path fill="#f2f2f2" d="M2368.997,340.335c-3.973,2.65-16.015,18.294-28.509,35.785
								c-1.334,14.487,12.731,25.02,27.19,24.089c8.013-10.495,15.365-20.961,19.048-28.217
								C2396.373,352.987,2375.292,336.137,2368.997,340.335z"/></g><path fill="#ffd3b7" d="M2257.785,447.173c-5.721-2.335-8.144-7.043-11.35-10.326
						c-4.585-4.697-8.458-5.962-10.409-6.414c-4.243-0.982-9.033-5.444-12.659-4.898c-2.056,0.31-2.659,3.254,0.534,6.495
						c1.394,1.415,6.232,4.909,8.718,6.982c-1.894,0.037-4.161-0.033-6.594-0.811c-7.558-2.418-11.046-4.692-12.426-4.37
						c-7.927-0.118-6.915,14.167-6.407,16.221c1.887,7.641,13.667,13.915,19.333,15.958c6.349,2.289,22.224,1.378,23.986,1.299
						C2250.481,467.141,2261.271,450.263,2257.785,447.173z"/><path fill="#7d4d00" d="M2404.94,266.654l-4.538-3.297c-0.027-8.933-0.265-22.345-6.893-23.053
						c0.572-3.37-5.125-11.949-7.313-7.652c-0.441,0.866-2.487-1.915-4.944-1.723c0.882-4.818,17.095-14.868,36.546-14.486
						c18.768,0.368,35.522,13.745,30.167,43.709c-1.585,8.869-9.855,14.606-14.866,24.418c-0.431,0.845-0.847,1.706-1.242,2.584
						c0,0-4.007,2.494-7.434,2.217c-4.179-0.337-10.095-6.584-9.775-11.201c0.324-4.669,0.85-13.515-6.475-14.646
						C2406.578,263.277,2405.575,264.837,2404.94,266.654z"/><g><path fill="#c94c38" d="M1480.672,1089.698l-26.54,15.424c12.285-7.138,29.292-3.963,46.341,5.88
										c32.146,18.558,64.441,60.818,65.524,102.321l26.54-15.427c-1.083-41.501-33.378-83.76-65.524-102.318
										C1509.963,1085.735,1492.959,1082.56,1480.672,1089.698z"/><path fill="#c94c38" d="M1655.705,1375.248l26.54-15.422c22.597-13.132,40.271-36.064,40.377-73.289
										c0.151-54.083-31.874-96.425-64.189-115.085c-18.697-10.793-37.492-13.655-50.205-6.268l-26.54,15.424
										c12.713-7.387,31.508-4.525,50.203,6.268c32.317,18.66,64.343,61.002,64.189,115.082
										C1695.976,1339.187,1678.299,1362.119,1655.705,1375.248z"/><path fill="#ff6a4e" d="M1565.512,1384.544c26.137,13.943,130.312,7.952,130.567-82.586
											c0.154-54.081-31.871-96.423-64.189-115.082c-32.143-18.558-64.579-13.668-65.894,26.447
											c-1.083-41.503-33.378-83.762-65.524-102.321c-32.312-18.654-64.471-13.363-64.625,40.712
											C1435.59,1242.25,1539.38,1368.309,1565.512,1384.544z"/><path fill="#ffc8a3" d="M1586.645,1880.74c-3.62,6.601-13.518,4.735-16.981-0.62
								c-0.44-3.212,0.392-13.036,0.262-21.841c-0.367-24.888-7.323-50.173-5.397-99.947c1.101-28.44,7.675-114.324,7.675-114.324
								l29.019,1.074c0,0-2.346,85.376-4.282,113.773c-1.692,24.81-6.572,59.042-9.262,107.524
								C1587.163,1875.688,1587.035,1876.653,1586.645,1880.74z"/><path fill="#6b6b6b" d="M1640.131,1903.042h-13.302c-0.924,0-1.715-0.662-1.877-1.571l-1.777-15.339l19.88,0.402
								l-1.027,14.809C1641.921,1902.309,1641.104,1903.042,1640.131,1903.042z"/><polygon fill="#e6463b" points="1637.264 1892.49 1630.162 1892.49 1631.273 1903.205 1636.153 1903.205"/><path fill="#595959" d="M1631.273,1903.205l0.348,3.356c1.381,0.499,2.776,0.489,4.184,0l0.348-3.356H1631.273z"/><path fill="#6b6b6b" d="M1585.459,1903.042h-13.302c-0.924,0-1.715-0.662-1.877-1.571l-1.777-15.339l19.88,0.402
								l-1.027,14.809C1587.249,1902.309,1586.432,1903.042,1585.459,1903.042z"/><polygon fill="#e6463b" points="1582.592 1892.49 1575.49 1892.49 1576.601 1903.205 1581.481 1903.205"/><path fill="#595959" d="M1576.601,1903.205l0.348,3.356c1.381,0.499,2.776,0.489,4.184,0l0.348-3.356H1576.601z"/><path fill="#f25349" d="M1588.653,1885.797c0.091-8.295,2.095-20.74-10.049-21.724
								c-12.144-0.984-10.486,11.757-10.578,20.053c-0.091,8.295,3.809,10.292,10.211,10.197
								C1584.772,1894.225,1588.561,1894.092,1588.653,1885.797z"/><path fill="#ffc8a3" d="M1624.507,1880.74c3.62,6.601,13.518,4.735,16.981-0.62c0.44-3.212-0.392-13.036-0.262-21.841
								c0.367-24.888,7.323-50.173,5.397-99.947c-1.101-28.44-7.675-114.324-7.675-114.324l-29.019,1.074
								c0,0,2.346,85.376,4.282,113.773c1.692,24.81,7.079,61.135,9.262,107.524
								C1623.913,1875.752,1624.171,1876.525,1624.507,1880.74z"/><path fill="#006838" d="M1568.537,1419.391c-12.73,1.785-20.439,13.542-19.431,26.358
							c3.93,49.991,20.278,68.289,20.278,96.415c-10.277,10.905-44.556,187.48-40.384,191.91c23.843,26.965,130.73,37.214,155.162,0
							c4.676-2.168-27.835-171.059-40.372-191.91c0-28.942,14.122-46.753,20.196-95.994c1.572-12.748-6.712-24.521-19.428-26.337
							C1620.181,1416.351,1591.264,1416.204,1568.537,1419.391z"/><path fill="#ffc8a3" d="M1720.079,1304.823l12.509-3.648c0,0-2.479,53.086-12.022,73.079
							c-10.918,22.872-53.642,75.804-53.642,75.804c-10.784,10.82-18.89-13.062-12.873-26.596l47.527-55.905L1720.079,1304.823z"/><path fill="#ffc8a3" d="M1622.971,1422.19v-25.821h-32.479v25.821
								C1596.474,1428.738,1616.248,1429.486,1622.971,1422.19z"/><path fill="#ffc8a3" d="M1639.73,1362.039c0,26.607-14.333,47.688-32.192,47.688s-32.481-21.081-32.481-47.688
								c0-26.607,14.478-40.542,32.337-40.542C1625.252,1321.497,1639.73,1335.432,1639.73,1362.039z"/><path fill="#fff" d="M1642.727,1364.329c4.057-29.082-12.283-44.159-35.371-44.159
								c-21.696,0-38.491,10.919-35.995,47.784c0.16,2.366,46.446-0.176,54.411-21.11
								C1631.401,1359.722,1642.727,1364.329,1642.727,1364.329z"/><path fill="#fff" d="M1646.707,1402.058c-22.834,11.521-58.314,12.34-79.574,0l3.981-38.886l38.223-31.706
								l33.388,31.706L1646.707,1402.058z"/><defs><path id="a" d="M1528.999,1734.074c31.276,24.174,119.266,32.042,155.162,0c0,0-28.43-142.803-30.862-191.91
									c-1.004-20.269,6.111-67.981,10.686-95.994c2.071-12.677-6.712-24.521-19.428-26.337
									c-24.376-3.481-53.294-3.628-76.02-0.442c-12.73,1.785-21.506,13.671-19.431,26.358L1528.999,1734.074z"/></defs><clipPath id="b"><use overflow="visible" xlink:href="#a"/></clipPath><ellipse cx="1607.056" cy="1418.88" fill="#ffc8a3" clip-path="url(#b)" rx="28.149" ry="23.953"/><path fill="#fff" d="M1652.789,1566.722c-21.735,11.77-67.823,9.951-92.445-0.565
							c-0.767-10.607,6.497-19.949,8.971-27.8c17.877,7.988,55.311,8.473,74.817-0.074
							C1647.06,1547.48,1654.428,1556.956,1652.789,1566.722z"/><path fill="#f25349" d="M1643.325,1885.797c0.091-8.295,2.095-20.74-10.049-21.724
							c-12.144-0.984-10.486,11.757-10.577,20.053c-0.091,8.295,3.809,10.292,10.21,10.197
							C1639.444,1894.225,1643.233,1894.092,1643.325,1885.797z"/><path fill="#ffc8a3" d="M1711.907,1274.037c1.521,2.189,2.348,6.457,3.227,6.927c0.249-0.012,1.145-3.922,0.531-8.844
							c-0.728-5.835-1.213-7.779-0.79-8.741c0.998-5.79,14.239-2.738,15.666-2.088c5.307,2.418,8.251,11.106,8.965,15.512
							c0.8,4.937-2.313,10.956-4.036,13.815c-1.135,1.884-1.706,5.709-1.738,7.412c-0.128,6.782-13.966,9.933-14.456,6.061
							c-0.476-3.545-2.51-5.419-4.811-7.306c-4.293-3.52-6.379-11.042-6.192-12.514c0.408-3.225-1.416-8.578-2.521-10.571
							c-0.291-0.525-0.123-1.204,0.407-1.486C1707.79,1271.344,1709.983,1271.269,1711.907,1274.037z"/><g><path fill="#ffc8a3" d="M1482.26,1288.349l-16.064,1.896c0,0,17.958,62.094,27.501,82.087
								c10.918,22.872,53.642,75.804,53.642,75.804c10.784,10.82,18.89-13.062,12.873-26.596l-47.527-55.905L1482.26,1288.349z"/><path fill="#ffc8a3" d="M1474.063,1260.749c-0.216,2.657,1.212,6.763,0.688,7.61c-0.221,0.115-2.96-2.817-4.901-7.381
								c-2.301-5.412-2.858-7.336-3.706-7.955c-3.77-4.506-13.688,4.783-14.596,6.062c-3.375,4.756-1.558,13.748,0.037,17.916
								c1.788,4.671,7.502,8.313,10.428,9.921c1.928,1.059,4.342,4.08,5.225,5.536c3.517,5.8,17.066,1.576,15.545-2.018
								c-1.369-3.305-0.551-5.947,0.492-8.734c1.945-5.2-0.028-12.752-0.929-13.931c-1.973-2.583-3.083-8.129-3.129-10.407
								c-0.012-0.6-0.498-1.102-1.098-1.081C1476.271,1256.354,1474.337,1257.389,1474.063,1260.749z"/></g></g></g></switch></svg>