<svg xmlns="http://www.w3.org/2000/svg" data-name="Layer 2" viewBox="0 0 800 800"><path fill="#b7d7f1" d="M386.585 595v-2a47.022 47.022 0 0 1 46.969-46.969H621.5a26.531 26.531 0 1 0 0-53.062H170a38.969 38.969 0 0 1 0-77.938h184.777a43.858 43.858 0 0 0 43.808-43.808v-32.342h11.937v32.342a55.81 55.81 0 0 1-55.745 55.746H170a27.031 27.031 0 0 0 0 54.062h451.5a38.469 38.469 0 1 1 0 76.938H433.554A35.07 35.07 0 0 0 398.522 593v2Z"/><path fill="#ff5a4d" d="M462.262 688.859a38.744 38.744 0 0 0-69.633-23.423 38.744 38.744 0 0 0-69.633 23.423c0 36.642 68.552 86.352 68.552 86.352s70.714-47.138 70.714-86.352Z"/><path fill="#ff402f" d="M417.101 748.934a37.219 37.219 0 0 1-50.045-.698c-19.125-17.96-39.06-41.369-39.06-59.378a33.745 33.745 0 0 1 60.653-20.396l3.98 5.234 3.98-5.234a33.745 33.745 0 0 1 60.654 20.396c0 20.252-21.314 43.488-40.162 60.076Z"/><path fill="#ff5a4d" d="M423.483 650.08a38.675 38.675 0 0 0-30.854 15.356 38.744 38.744 0 0 0-69.633 23.423c0 36.642 68.552 86.352 68.552 86.352s70.714-47.138 70.714-86.352a38.779 38.779 0 0 0-38.779-38.78Zm-31.838 118.98c-20.123-15.19-63.649-53.591-63.649-80.202a33.745 33.745 0 0 1 60.653-20.396l3.98 5.234 3.98-5.234a33.745 33.745 0 0 1 60.654 20.396c0 31.822-52.623 71.012-65.618 80.203Z"/><path fill="#d3f2ff" d="M488.697 282.885c-7.97-59.04-7.97-99.039 0-158.079 1.508-11.17-9.568-37.241-41.066-42.446-3.682-.608-7.103-1.16-10.332-1.668.849 1.667-.034 3.946-2.746 3.946-11.29 0-22.537-.233-33.82-.509-10.693-.26-21.339.482-32.02.631a3.238 3.238 0 0 1-1.16.03l-.085-.013c-.305.003-.61.01-.915.012a3.175 3.175 0 0 1-1.566-.373 98.235 98.235 0 0 0-13.1-1.289 2.75 2.75 0 0 1-2.796-1.931c-2.599.357-5.315.73-8.195 1.123-31.767 4.339-45.855 31.223-44.334 42.489 7.97 59.04 7.97 99.038 0 158.077-1.509 11.172 6.825 21.535 19.066 23.406a506.545 506.545 0 0 0 154.003 0c12.24-1.871 20.574-12.234 19.066-23.406Z"/><path fill="#6bbedb" d="M397.432 79.25c3.601 0 7.268.144 11.142.423 0-.027-.009-.052-.009-.08 0-.292-10.527-2.184-15.875-2.184s-15.875 1.892-15.875 2.184a3.735 3.735 0 0 1-.13.944 186.263 186.263 0 0 1 20.747-1.287Z"/><path fill="#eef7fb" d="M485.719 283.216c-8.01-59.342-8.01-99.398 0-158.74 1.242-9.204-8.424-34.45-38.626-39.44-12.439-2.055-22.29-3.562-30.836-4.525a4.463 4.463 0 0 1-4.42 3.2 4.35 4.35 0 0 1-4.533-4.038c-3.874-.279-7.54-.423-11.142-.423a186.261 186.261 0 0 0-20.747 1.287 4.465 4.465 0 0 1-4.411 3.174 4.603 4.603 0 0 1-3.98-2.173c-5.354.68-11.365 1.506-18.362 2.468l-7.318 1.003c-30.062 4.106-43.103 29.849-41.804 39.469 8.01 59.34 8.01 99.397 0 158.738-1.325 9.81 5.96 18.769 16.587 20.393a507.783 507.783 0 0 0 76.502 5.849 507.794 507.794 0 0 0 76.503-5.85c10.625-1.623 17.911-10.581 16.587-20.392Z"/><path fill="#b7d7f1" d="M488.697 282.889c-7.97-59.042-7.97-99.042 0-158.083 1.371-10.157-7.667-32.627-32.997-40.534a98.486 98.486 0 0 1-13.693-5.525c-7.715-3.752-15.423-7.111-21.378-8.863-5.977-1.757-16.498-2.615-28-2.972-11.502.357-22.022 1.215-28 2.972-6.988 2.055-16.39 6.326-25.387 10.845a122.791 122.791 0 0 1-11.285 4.881 53.352 53.352 0 0 0-17.243 10.679l-.003.001h.002c-10.476 9.7-15.052 21.846-14.151 28.518 7.97 59.04 7.97 99.04 0 158.08-1.129 8.356 3.283 16.252 10.697 20.492l27.346 24h5.032v34.685a2.935 2.935 0 0 0 2.935 2.935h18.63a2.935 2.935 0 0 0 2.935-2.935v-34.684h7.626v34.684a2.935 2.935 0 0 0 2.934 2.935h6.38a2.935 2.935 0 0 0 2.936-2.935v-34.684h14.416v34.684a2.935 2.935 0 0 0 2.935 2.935h6.38a2.935 2.935 0 0 0 2.935-2.935v-34.684h7.958v34.684a2.935 2.935 0 0 0 2.935 2.935h18.63a2.935 2.935 0 0 0 2.935-2.935v-34.684h7.516L478 303.38c7.414-4.24 11.826-12.136 10.698-20.491ZM366.538 78.854a4.32 4.32 0 0 1 3.409-3.255l-.003-.01.137-.028.013-.002a101.222 101.222 0 0 1 42.654 0l.012.002.138.028-.003.01a4.501 4.501 0 0 1 2.974 2.123 4.005 4.005 0 0 1 .31.704 3.725 3.725 0 0 1 .142.555 3.169 3.169 0 0 1-.018 1.295c-.015.078-.027.158-.046.235a4.463 4.463 0 0 1-4.42 3.2 4.345 4.345 0 0 1-4.541-4.118c0-.292-10.528-2.184-15.875-2.184-5.347 0-15.875 1.892-15.875 2.184a4.345 4.345 0 0 1-4.542 4.118 4.602 4.602 0 0 1-3.98-2.174 4.19 4.19 0 0 1-.33-.706c-.031-.09-.068-.18-.093-.273-.026-.09-.043-.184-.062-.277a3.372 3.372 0 0 1 0-1.427Zm-27.442 16.372c28.846-4.716 78.67-5.84 107.827-.405 10.893 2.03 17.149 5.913 21.646 10.978a29.769 29.769 0 0 1 7.291 21.89c-7.162 56.747-7.162 95.05 0 151.797a17.59 17.59 0 0 1-14.83 19.5q-8.919 1.46-17.893 2.533v-3.704a2.935 2.935 0 0 0-2.934-2.934h-18.631a2.935 2.935 0 0 0-2.935 2.934v5.947q-3.981.248-7.958.416v-6.363a2.935 2.935 0 0 0-2.935-2.934h-6.38a2.935 2.935 0 0 0-2.935 2.934v6.705c-1.934.027-3.87.06-5.8.06q-4.301 0-8.616-.09v-6.675a2.935 2.935 0 0 0-2.935-2.934h-6.38a2.935 2.935 0 0 0-2.935 2.934v6.218q-3.812-.19-7.626-.449v-5.769a2.935 2.935 0 0 0-2.934-2.934h-18.631a2.935 2.935 0 0 0-2.935 2.934v3.391q-7.72-.976-15.408-2.22a17.59 17.59 0 0 1-14.83-19.5c7.161-56.746 7.05-95.038 0-151.795-2.77-22.295 19.086-30.73 29.697-32.465Z"/><path fill="#ff402f" d="M475.86 279.486c-6.572-52.07-7.109-88.621-1.62-138.13l-.001-.015c-57.216 20.464-111.376 21.013-163.244 0v.008c5.418 49.521 4.975 86.065-1.597 138.137a17.59 17.59 0 0 0 14.83 19.5q8.372 1.37 16.793 2.394a7.671 7.671 0 0 1 6.742 7.615v27.386h8.25v-25.13a7.686 7.686 0 0 1 8.23-7.656q1.156.078 2.311.151a7.678 7.678 0 0 1 7.209 7.66v24.975h8.25v-24.137a7.668 7.668 0 0 1 7.721-7.677q1.449.013 2.895.013h.078a7.694 7.694 0 0 1 7.722 7.68V363h8.25V311.58a7.677 7.677 0 0 1 7.264-7.662q1.321-.073 2.643-.154a7.685 7.685 0 0 1 8.177 7.66v24.956h8.25v-27.078a7.665 7.665 0 0 1 6.768-7.618q9.648-1.13 19.249-2.698a17.591 17.591 0 0 0 14.83-19.501Z"/><path fill="#ff5a4d" d="m334.157 149.24-.52 88.983a59.167 59.167 0 0 0 59.167 59.167 59.167 59.167 0 0 0 59.167-59.167l.525-90.032c-40.903 11.128-80.252 11.682-118.34 1.05Z"/><path fill="#fff" d="M358.34 159.756h68.578a8.086 8.086 0 0 1 8.086 8.086v78.953a8.086 8.086 0 0 1-8.086 8.086H358.34a8.086 8.086 0 0 1-8.086-8.086v-78.953a8.086 8.086 0 0 1 8.086-8.086Z"/><path fill="#ff5a4d" d="M408.574 212.041c0-13.838-15.945-31.564-15.945-31.564s-15.097 16.783-15.91 30.437a45.198 45.198 0 0 0-.035 1.416c0 .319.035 1.083.038 1.15.003 0 .051.514.082.768a15.906 15.906 0 0 0 31.386 1.206c.119-.596.384-2.864.384-3.413Z"/><path fill="#ff402f" d="M408.574 630.223c0-13.838-15.945-31.564-15.945-31.564s-15.097 16.784-15.91 30.438a45.187 45.187 0 0 0-.035 1.415c0 .319.035 1.083.038 1.15.003 0 .051.514.082.768a15.906 15.906 0 0 0 31.386 1.206c.119-.596.384-2.864.384-3.413Z"/><path fill="#e3f5ff" d="M359.387 342.63h-15.25a1.75 1.75 0 0 1-1.75-1.75 1.75 1.75 0 0 1 1.75-1.75h15.25a1.75 1.75 0 0 1 1.75 1.75 1.75 1.75 0 0 1-1.75 1.75ZM359.387 348.63h-15.25a1.75 1.75 0 0 1-1.75-1.75 1.75 1.75 0 0 1 1.75-1.75h15.25a1.75 1.75 0 0 1 1.75 1.75 1.75 1.75 0 0 1-1.75 1.75ZM359.387 354.63h-15.25a1.75 1.75 0 0 1-1.75-1.75 1.75 1.75 0 0 1 1.75-1.75h15.25a1.75 1.75 0 0 1 1.75 1.75 1.75 1.75 0 0 1-1.75 1.75ZM359.387 360.63h-15.25a1.75 1.75 0 0 1-1.75-1.75 1.75 1.75 0 0 1 1.75-1.75h15.25a1.75 1.75 0 0 1 1.75 1.75 1.75 1.75 0 0 1-1.75 1.75ZM438.512 342.63h-15.25a1.75 1.75 0 0 1-1.75-1.75 1.75 1.75 0 0 1 1.75-1.75h15.25a1.75 1.75 0 0 1 1.75 1.75 1.75 1.75 0 0 1-1.75 1.75ZM438.512 348.63h-15.25a1.75 1.75 0 0 1-1.75-1.75 1.75 1.75 0 0 1 1.75-1.75h15.25a1.75 1.75 0 0 1 1.75 1.75 1.75 1.75 0 0 1-1.75 1.75ZM438.512 354.63h-15.25a1.75 1.75 0 0 1-1.75-1.75 1.75 1.75 0 0 1 1.75-1.75h15.25a1.75 1.75 0 0 1 1.75 1.75 1.75 1.75 0 0 1-1.75 1.75ZM438.512 360.63h-15.25a1.75 1.75 0 0 1-1.75-1.75 1.75 1.75 0 0 1 1.75-1.75h15.25a1.75 1.75 0 0 1 1.75 1.75 1.75 1.75 0 0 1-1.75 1.75Z"/><path fill="#eef7fb" d="M423.483 655.08a33.53 33.53 0 0 0-26.874 13.382l-3.98 5.234-3.98-5.234a33.739 33.739 0 0 0-60.301 15.56A11.811 11.811 0 0 0 339.77 693h105.718a11.811 11.811 0 0 0 11.423-8.979 33.827 33.827 0 0 0-33.428-28.94Z"/><path fill="#ff402f" d="M396.522 593c-.272 5.063-7.46 4.875-7.937 0a45.02 45.02 0 0 1 44.969-44.969H621.5a28.531 28.531 0 1 0 0-57.062H170a36.969 36.969 0 0 1 0-73.938h184.777a45.86 45.86 0 0 0 45.808-45.808v-30.342h7.937v30.342a53.807 53.807 0 0 1-53.745 53.746H170a29.031 29.031 0 0 0 0 58.062h451.5a36.469 36.469 0 1 1 0 72.938H433.554A37.073 37.073 0 0 0 396.522 593Z"/><path fill="#cadcfe" d="M381.171 247.612h33.68v.496h-33.68z" transform="rotate(180 398.011 247.86)"/><path fill="#cadcfe" d="M381.171 241.731h33.68v.496h-33.68z" transform="rotate(180 398.011 241.98)"/><path fill="#4e7bd5" d="M421.453 165.292a.38.38 0 0 1-.385.404.405.405 0 1 1 .385-.404ZM419.965 165.292a.38.38 0 0 1-.385.404.405.405 0 1 1 .385-.404ZM418.477 165.292a.38.38 0 0 1-.385.404.405.405 0 1 1 .385-.404ZM416.988 165.292a.38.38 0 0 1-.385.404.405.405 0 1 1 .385-.404ZM415.5 165.292a.38.38 0 0 1-.385.404.405.405 0 1 1 .385-.404ZM414.012 165.292a.38.38 0 0 1-.385.404.405.405 0 1 1 .385-.404ZM412.524 165.292a.38.38 0 0 1-.385.404.405.405 0 1 1 .385-.404ZM411.035 165.292a.38.38 0 0 1-.385.404.405.405 0 1 1 .385-.404ZM409.547 165.292a.38.38 0 0 1-.385.404.405.405 0 1 1 .385-.404ZM408.06 165.292a.38.38 0 0 1-.386.404.405.405 0 1 1 .385-.404ZM406.57 165.292a.38.38 0 0 1-.384.404.405.405 0 1 1 .385-.404ZM405.082 165.292a.38.38 0 0 1-.385.404.405.405 0 1 1 .385-.404ZM403.594 165.292a.38.38 0 0 1-.385.404.405.405 0 1 1 .385-.404ZM402.106 165.292a.38.38 0 0 1-.385.404.405.405 0 1 1 .385-.404ZM400.618 165.292a.38.38 0 0 1-.385.404.405.405 0 1 1 .385-.404ZM399.13 165.292a.38.38 0 0 1-.386.404.405.405 0 1 1 .386-.404ZM397.641 165.292a.38.38 0 0 1-.385.404.405.405 0 1 1 .385-.404ZM396.153 165.292a.38.38 0 0 1-.385.404.405.405 0 1 1 .385-.404ZM394.665 165.292a.38.38 0 0 1-.385.404.405.405 0 1 1 .385-.404ZM393.177 165.292a.38.38 0 0 1-.386.404.405.405 0 1 1 .386-.404ZM391.688 165.292a.38.38 0 0 1-.385.404.405.405 0 1 1 .385-.404ZM390.2 165.292a.38.38 0 0 1-.385.404.405.405 0 1 1 .385-.404ZM388.712 165.292a.38.38 0 0 1-.385.404.405.405 0 1 1 .385-.404ZM387.224 165.292a.38.38 0 0 1-.385.404.405.405 0 1 1 .385-.404ZM385.735 165.292a.38.38 0 0 1-.385.404.405.405 0 1 1 .385-.404ZM384.247 165.292a.38.38 0 0 1-.385.404.405.405 0 1 1 .385-.404ZM382.759 165.292a.38.38 0 0 1-.385.404.405.405 0 1 1 .385-.404ZM381.27 165.292a.38.38 0 0 1-.384.404.405.405 0 1 1 .385-.404ZM379.782 165.292a.38.38 0 0 1-.385.404.405.405 0 1 1 .385-.404ZM378.294 165.292a.38.38 0 0 1-.385.404.405.405 0 1 1 .385-.404ZM376.806 165.292a.38.38 0 0 1-.385.404.405.405 0 1 1 .385-.404ZM375.317 165.292a.38.38 0 0 1-.385.404.405.405 0 1 1 .385-.404ZM373.83 165.292a.38.38 0 0 1-.386.404.405.405 0 1 1 .385-.404ZM372.341 165.292a.38.38 0 0 1-.385.404.405.405 0 1 1 .385-.404ZM370.853 165.292a.38.38 0 0 1-.385.404.405.405 0 1 1 .385-.404ZM369.364 165.292a.38.38 0 0 1-.385.404.405.405 0 1 1 .385-.404ZM367.876 165.292a.38.38 0 0 1-.385.404.405.405 0 1 1 .385-.404ZM366.388 165.292a.38.38 0 0 1-.385.404.405.405 0 1 1 .385-.404ZM364.9 165.292a.38.38 0 0 1-.385.404.405.405 0 1 1 .385-.404ZM421.453 173.292a.38.38 0 0 1-.385.404.405.405 0 1 1 .385-.404ZM419.965 173.292a.38.38 0 0 1-.385.404.405.405 0 1 1 .385-.404ZM418.477 173.292a.38.38 0 0 1-.385.404.405.405 0 1 1 .385-.404ZM416.988 173.292a.38.38 0 0 1-.385.404.405.405 0 1 1 .385-.404ZM415.5 173.292a.38.38 0 0 1-.385.404.405.405 0 1 1 .385-.404ZM414.012 173.292a.38.38 0 0 1-.385.404.405.405 0 1 1 .385-.404ZM412.524 173.292a.38.38 0 0 1-.385.404.405.405 0 1 1 .385-.404ZM411.035 173.292a.38.38 0 0 1-.385.404.405.405 0 1 1 .385-.404ZM409.547 173.292a.38.38 0 0 1-.385.404.405.405 0 1 1 .385-.404ZM408.06 173.292a.38.38 0 0 1-.386.404.405.405 0 1 1 .385-.404ZM406.57 173.292a.38.38 0 0 1-.384.404.405.405 0 1 1 .385-.404ZM405.082 173.292a.38.38 0 0 1-.385.404.405.405 0 1 1 .385-.404ZM403.594 173.292a.38.38 0 0 1-.385.404.405.405 0 1 1 .385-.404ZM402.106 173.292a.38.38 0 0 1-.385.404.405.405 0 1 1 .385-.404ZM400.618 173.292a.38.38 0 0 1-.385.404.405.405 0 1 1 .385-.404ZM399.13 173.292a.38.38 0 0 1-.386.404.405.405 0 1 1 .386-.404ZM397.641 173.292a.38.38 0 0 1-.385.404.405.405 0 1 1 .385-.404ZM396.153 173.292a.38.38 0 0 1-.385.404.405.405 0 1 1 .385-.404ZM394.665 173.292a.38.38 0 0 1-.385.404.405.405 0 1 1 .385-.404ZM393.177 173.292a.38.38 0 0 1-.386.404.405.405 0 1 1 .386-.404ZM391.688 173.292a.38.38 0 0 1-.385.404.405.405 0 1 1 .385-.404ZM390.2 173.292a.38.38 0 0 1-.385.404.405.405 0 1 1 .385-.404ZM388.712 173.292a.38.38 0 0 1-.385.404.405.405 0 1 1 .385-.404ZM387.224 173.292a.38.38 0 0 1-.385.404.405.405 0 1 1 .385-.404ZM385.735 173.292a.38.38 0 0 1-.385.404.405.405 0 1 1 .385-.404ZM384.247 173.292a.38.38 0 0 1-.385.404.405.405 0 1 1 .385-.404ZM382.759 173.292a.38.38 0 0 1-.385.404.405.405 0 1 1 .385-.404ZM381.27 173.292a.38.38 0 0 1-.384.404.405.405 0 1 1 .385-.404ZM379.782 173.292a.38.38 0 0 1-.385.404.405.405 0 1 1 .385-.404ZM378.294 173.292a.38.38 0 0 1-.385.404.405.405 0 1 1 .385-.404ZM376.806 173.292a.38.38 0 0 1-.385.404.405.405 0 1 1 .385-.404ZM375.317 173.292a.38.38 0 0 1-.385.404.405.405 0 1 1 .385-.404ZM373.83 173.292a.38.38 0 0 1-.386.404.405.405 0 1 1 .385-.404ZM372.341 173.292a.38.38 0 0 1-.385.404.405.405 0 1 1 .385-.404ZM370.853 173.292a.38.38 0 0 1-.385.404.405.405 0 1 1 .385-.404ZM369.364 173.292a.38.38 0 0 1-.385.404.405.405 0 1 1 .385-.404ZM367.876 173.292a.38.38 0 0 1-.385.404.405.405 0 1 1 .385-.404ZM366.388 173.292a.38.38 0 0 1-.385.404.405.405 0 1 1 .385-.404ZM364.9 173.292a.38.38 0 0 1-.385.404.405.405 0 1 1 .385-.404Z"/><path fill="#80afff" d="M396.77 246.71a.1.1 0 0 0 .082.043h.326a.1.1 0 0 0 .093-.064l1.334-3.468a.1.1 0 0 0-.093-.135h-.32a.1.1 0 0 0-.094.064l-1.339 3.467a.1.1 0 0 0 .011.093ZM395.128 246.71a.1.1 0 0 0 .083.043h.325a.1.1 0 0 0 .093-.064l1.334-3.468a.1.1 0 0 0-.093-.135h-.32a.1.1 0 0 0-.093.064l-1.34 3.467a.1.1 0 0 0 .011.093ZM393.487 246.71a.1.1 0 0 0 .082.043h.326a.1.1 0 0 0 .093-.064l1.334-3.468a.1.1 0 0 0-.093-.135h-.32a.1.1 0 0 0-.094.064l-1.339 3.467a.1.1 0 0 0 .011.093ZM391.846 246.71a.1.1 0 0 0 .082.043h.325a.1.1 0 0 0 .093-.064l1.334-3.468a.1.1 0 0 0-.093-.135h-.32a.1.1 0 0 0-.093.064l-1.34 3.467a.1.1 0 0 0 .012.093ZM390.204 246.71a.1.1 0 0 0 .083.043h.325a.1.1 0 0 0 .093-.064l1.334-3.468a.1.1 0 0 0-.093-.135h-.32a.1.1 0 0 0-.094.064l-1.339 3.467a.1.1 0 0 0 .011.093ZM388.563 246.71a.1.1 0 0 0 .082.043h.325a.1.1 0 0 0 .093-.064l1.335-3.468a.1.1 0 0 0-.094-.135h-.32a.1.1 0 0 0-.093.064l-1.34 3.467a.1.1 0 0 0 .012.093ZM386.921 246.71a.1.1 0 0 0 .082.043h.326a.1.1 0 0 0 .093-.064l1.334-3.468a.1.1 0 0 0-.093-.135h-.32a.1.1 0 0 0-.094.064l-1.339 3.467a.1.1 0 0 0 .011.093ZM385.28 246.71a.1.1 0 0 0 .082.043h.325a.1.1 0 0 0 .093-.064l1.335-3.468a.1.1 0 0 0-.093-.135h-.32a.1.1 0 0 0-.094.064l-1.339 3.467a.1.1 0 0 0 .01.093ZM383.638 246.71a.1.1 0 0 0 .082.043h.326a.1.1 0 0 0 .093-.064l1.334-3.468a.1.1 0 0 0-.093-.135h-.32a.1.1 0 0 0-.094.064l-1.339 3.467a.1.1 0 0 0 .011.093ZM381.997 246.71a.1.1 0 0 0 .082.043h.325a.1.1 0 0 0 .093-.064l1.334-3.468a.1.1 0 0 0-.093-.135h-.32a.1.1 0 0 0-.093.064l-1.34 3.467a.1.1 0 0 0 .012.093Z"/></svg>