<svg width="1296" height="897" viewBox="0 0 1296 897" fill="none" xmlns="http://www.w3.org/2000/svg">
<g clip-path="url(#clip0_6_398)">
<path d="M939.646 328.101L940.382 332.339L941.677 332.312L942.556 328.143L941.406 325.974L939.646 328.101Z" fill="#353434"/>
<path d="M1268.1 263.563C1268.1 274.805 1263.04 286.022 1253.03 294.565L1247.04 299.641L1174.12 361.643L1101.31 299.641L1095.32 294.565C1083.25 284.289 1078.39 270.2 1080.8 256.877C1082.4 247.963 1087.23 239.42 1095.32 232.561C1105.44 224.043 1118.56 219.735 1131.76 219.735C1145 219.735 1158.12 224.043 1168.24 232.561L1174.23 237.638L1180.11 232.561C1200.24 215.426 1232.87 215.426 1253.03 232.561C1254.89 234.146 1256.58 235.83 1258.06 237.588C1264.76 245.265 1268.1 254.403 1268.1 263.563Z" fill="#F0F2F0"/>
<path d="M1268.1 263.563C1268.1 274.805 1263.04 286.021 1253.03 294.564L1247.04 299.641L1174.12 361.643L1101.31 299.641L1095.32 294.564C1083.25 284.289 1078.39 270.199 1080.8 256.877C1086.68 256.753 1093.43 257.199 1100 258.957C1117.86 263.711 1110.04 265.593 1140.75 265.593C1171.47 265.593 1181.54 257.991 1198.84 260.369C1216.15 262.745 1216.15 268.466 1230.11 256.58C1241.57 246.824 1245.12 236.103 1258.06 237.588C1264.76 245.265 1268.1 254.402 1268.1 263.563Z" fill="#E02242"/>
<path d="M1162.93 381.629C1159.13 381.63 1156.31 379.26 1152.04 375.671C1146.65 371.14 1138.51 364.293 1122.16 356.294C1119.01 354.749 1115.99 353.566 1113.15 352.75C1113.06 359.672 1110.28 366.401 1106.25 370.093C1103.04 373.033 1099.25 373.987 1095.56 372.779C1091.45 371.432 1088.68 368.079 1088.15 363.811C1087.53 358.77 1090.21 353.803 1094.98 351.159C1097.61 349.702 1102.48 348.092 1110.09 349.47C1109.76 347.004 1109.02 344.578 1107.79 342.35C1104.99 337.303 1098.52 331.45 1083.6 332.211C1059.87 333.453 1038.65 312.174 1019.98 293.423C1004.98 278.36 990.816 264.133 977.91 263.751C969.886 263.516 963.52 265.362 958.528 269.4C948.091 277.843 943.165 295.96 942.556 328.142L939.647 328.101C940.271 295.2 945.477 276.543 956.524 267.605C962.11 263.084 969.127 260.992 978.013 261.277C992.202 261.695 1006.77 276.328 1022.2 291.82C1040.42 310.129 1061.08 330.868 1083.43 329.738C1099.95 328.888 1107.23 335.553 1110.42 341.291C1111.94 344.04 1112.78 347.065 1113.05 350.123C1116.17 350.934 1119.68 352.22 1123.61 354.146C1140.28 362.305 1148.59 369.288 1154.09 373.91C1159.94 378.83 1161.65 380.052 1165.9 378.561C1173.31 375.952 1173.81 353.659 1173.38 345.29L1176.28 345.181C1176.45 348.439 1177.63 377.111 1167.01 380.849C1165.49 381.383 1164.16 381.629 1162.93 381.629ZM1104.5 351.403C1101.45 351.403 1098.78 352.01 1096.57 353.235C1092.7 355.377 1090.53 359.426 1091.04 363.552C1091.45 366.876 1093.53 369.46 1096.6 370.466C1099.8 371.513 1102.46 369.927 1104.11 368.408C1107.87 364.962 1110.42 358.551 1110.29 352.04C1108.24 351.616 1106.3 351.403 1104.5 351.403Z" fill="#E02242"/>
<path d="M959.903 365.541C959.903 374.545 951.329 381.844 940.752 381.844C930.175 381.844 921.6 374.546 921.6 365.541C921.6 356.536 940.752 335.787 940.752 335.787C940.752 335.787 959.903 356.537 959.903 365.541Z" fill="#E02242"/>
<path d="M1178.44 354.418H1169.86V364.402H1178.44V354.418Z" fill="#E02242"/>
</g>
<path d="M900 635.256L898.996 835.058C898.945 845.129 890.255 853.248 879.599 853.201C868.942 853.153 860.35 844.956 860.4 834.885L861.405 635.083L900 635.256Z" fill="#F5DFE1"/>
<path d="M896.4 739.957L895.919 836.995C895.886 843.568 888.707 848.861 879.894 848.821C871.082 848.781 863.968 843.422 864 836.849L864.48 740.002C868.243 739.291 872.896 738.967 877.895 739.9C884.323 741.113 891.258 740.653 896.4 739.957Z" fill="#F56476"/>
<path d="M900.286 635.959L861.95 635.765C861.537 635.763 861.141 635.586 860.851 635.275C860.56 634.963 860.398 634.541 860.4 634.102C860.402 633.663 860.568 633.243 860.862 632.934C861.155 632.625 861.552 632.453 861.965 632.455L900.302 632.649C900.706 632.666 901.088 632.848 901.367 633.159C901.647 633.469 901.802 633.882 901.8 634.312C901.798 634.741 901.639 635.153 901.356 635.461C901.074 635.768 900.69 635.947 900.286 635.959Z" fill="#F5DFE1"/>
<path d="M871.615 827.798C871.204 827.796 870.798 827.719 870.419 827.571C870.039 827.424 869.695 827.208 869.406 826.937C869.117 826.666 868.888 826.345 868.733 825.992C868.577 825.639 868.498 825.261 868.5 824.88L869.439 641.408C869.463 640.65 869.805 639.931 870.392 639.404C870.98 638.876 871.767 638.583 872.584 638.587C873.401 638.59 874.185 638.89 874.767 639.423C875.349 639.955 875.684 640.677 875.7 641.435L874.761 824.907C874.759 825.288 874.676 825.666 874.517 826.017C874.358 826.369 874.126 826.688 873.834 826.957C873.541 827.225 873.195 827.438 872.815 827.582C872.434 827.726 872.026 827.8 871.615 827.798Z" fill="#4D4D4D"/>
<path d="M900 635.253L899.917 651.727C899.056 647.91 896.839 644.486 893.634 642.024C890.428 639.561 886.428 638.208 882.297 638.19L862.2 638.1L862.216 635.083L900 635.253Z" fill="#E6D1D3"/>
<path d="M972.9 635.256L971.896 835.058C971.845 845.129 963.156 853.248 952.499 853.201C941.843 853.153 933.25 844.956 933.301 834.885L934.305 635.083L972.9 635.256Z" fill="#F5DFE1"/>
<path d="M969.3 699.852L968.626 832.615C968.58 841.607 961.232 848.861 952.224 848.821C943.217 848.781 935.955 841.462 936 832.47L936.673 699.969C940.521 698.99 945.277 698.538 950.386 699.806C956.953 701.454 964.042 700.813 969.3 699.852Z" fill="#F56476"/>
<path d="M972.32 635.959L934.817 635.765C934.412 635.763 934.026 635.586 933.741 635.275C933.457 634.963 933.298 634.541 933.3 634.102C933.302 633.663 933.465 633.243 933.752 632.934C934.039 632.625 934.428 632.453 934.832 632.455L972.335 632.649C972.73 632.666 973.104 632.848 973.377 633.159C973.651 633.469 973.802 633.882 973.8 634.312C973.798 634.741 973.643 635.153 973.367 635.461C973.09 635.768 972.715 635.947 972.32 635.959Z" fill="#F5DFE1"/>
<path d="M944.515 827.798C944.104 827.796 943.697 827.719 943.318 827.571C942.939 827.424 942.595 827.208 942.306 826.937C942.017 826.666 941.788 826.345 941.632 825.992C941.477 825.639 941.398 825.261 941.4 824.88L942.339 641.408C942.363 640.65 942.705 639.931 943.292 639.404C943.88 638.876 944.666 638.583 945.484 638.587C946.301 638.59 947.085 638.89 947.667 639.423C948.249 639.955 948.584 640.677 948.6 641.435L947.661 824.907C947.657 825.677 947.323 826.414 946.733 826.957C946.143 827.499 945.346 827.801 944.515 827.798Z" fill="#4D4D4D"/>
<path d="M972.9 635.253L972.815 651.727C971.933 647.91 969.663 644.486 966.382 642.024C963.1 639.561 959.004 638.208 954.775 638.19L934.2 638.1L934.215 635.083L972.9 635.253Z" fill="#E6D1D3"/>
<path d="M1045.8 635.256L1044.8 835.058C1044.75 845.129 1036.06 853.248 1025.4 853.201C1014.74 853.153 1006.15 844.956 1006.2 834.885L1007.21 635.083L1045.8 635.256Z" fill="#F5DFE1"/>
<path d="M1042.2 712.93L1041.6 834.043C1041.56 842.247 1034.4 848.861 1025.62 848.821C1016.84 848.781 1009.76 842.101 1009.8 833.898L1010.4 713.024C1014.15 712.132 1018.78 711.721 1023.76 712.88C1030.17 714.386 1037.08 713.804 1042.2 712.93Z" fill="#F56476"/>
<path d="M1046 635.959L1006.88 635.765C1006.46 635.763 1006.06 635.586 1005.76 635.274C1005.46 634.963 1005.3 634.541 1005.3 634.102C1005.3 633.663 1005.47 633.243 1005.77 632.934C1006.07 632.625 1006.48 632.453 1006.9 632.455L1046.02 632.649C1046.23 632.65 1046.43 632.694 1046.63 632.778C1046.82 632.862 1046.99 632.985 1047.14 633.139C1047.29 633.294 1047.4 633.477 1047.48 633.678C1047.56 633.879 1047.6 634.094 1047.6 634.312C1047.6 634.751 1047.43 635.171 1047.13 635.48C1046.83 635.788 1046.42 635.961 1046 635.959Z" fill="#F5DFE1"/>
<path d="M1017.93 827.798C1017.57 827.796 1017.21 827.719 1016.88 827.571C1016.55 827.424 1016.25 827.208 1015.99 826.937C1015.74 826.666 1015.54 826.345 1015.4 825.992C1015.27 825.639 1015.2 825.261 1015.2 824.88L1016.02 641.408C1016.04 640.65 1016.34 639.931 1016.86 639.404C1017.37 638.876 1018.06 638.583 1018.77 638.587C1019.49 638.59 1020.17 638.89 1020.68 639.423C1021.19 639.955 1021.49 640.677 1021.5 641.435L1020.68 824.907C1020.67 825.677 1020.38 826.414 1019.87 826.957C1019.35 827.499 1018.65 827.801 1017.93 827.798Z" fill="#4D4D4D"/>
<path d="M1045.8 635.253L1045.72 651.727C1044.83 647.91 1042.56 644.486 1039.28 642.024C1036 639.561 1031.9 638.208 1027.67 638.19L1007.1 638.1L1007.12 635.083L1045.8 635.253Z" fill="#E6D1D3"/>
<path d="M1118.7 635.256L1117.7 835.058C1117.64 845.129 1108.95 853.248 1098.3 853.201C1087.64 853.153 1079.05 844.956 1079.1 834.885L1080.1 635.083L1118.7 635.256Z" fill="#F5DFE1"/>
<path d="M1114.2 764.189L1113.84 839.642C1113.81 844.753 1106.81 848.861 1098.22 848.821C1089.62 848.781 1082.68 844.607 1082.7 839.497L1083.06 764.192C1086.73 763.643 1091.82 761.791 1096.15 764.126C1103.19 767.928 1109.6 766.252 1114.2 764.189Z" fill="#F56476"/>
<path d="M1118.99 635.959L1080.65 635.765C1080.24 635.763 1079.84 635.586 1079.55 635.275C1079.26 634.963 1079.1 634.541 1079.1 634.102C1079.1 633.663 1079.27 633.243 1079.56 632.934C1079.85 632.625 1080.25 632.453 1080.67 632.455L1119 632.649C1119.41 632.666 1119.79 632.848 1120.07 633.159C1120.35 633.469 1120.5 633.882 1120.5 634.312C1120.5 634.741 1120.34 635.153 1120.06 635.461C1119.77 635.768 1119.39 635.947 1118.99 635.959Z" fill="#F5DFE1"/>
<path d="M1090.32 827.798C1089.9 827.796 1089.5 827.719 1089.12 827.571C1088.74 827.424 1088.4 827.208 1088.11 826.937C1087.82 826.666 1087.59 826.345 1087.43 825.992C1087.28 825.639 1087.2 825.261 1087.2 824.879L1088.14 641.392C1088.17 640.637 1088.51 639.922 1089.1 639.398C1089.69 638.874 1090.47 638.583 1091.28 638.587C1092.1 638.59 1092.88 638.888 1093.46 639.417C1094.04 639.946 1094.38 640.664 1094.4 641.419L1093.46 824.907C1093.46 825.677 1093.12 826.414 1092.53 826.957C1091.94 827.499 1091.15 827.801 1090.32 827.798Z" fill="#4D4D4D"/>
<path d="M1118.7 635.253L1118.62 651.727C1117.76 647.91 1115.54 644.486 1112.33 642.024C1109.13 639.561 1105.13 638.208 1101 638.19L1080.9 638.1L1080.92 635.083L1118.7 635.253Z" fill="#E6D1D3"/>
<path d="M1188.9 635.256L1187.9 835.058C1187.84 845.129 1179.16 853.248 1168.5 853.201C1157.84 853.153 1149.25 844.956 1149.3 834.885L1150.3 635.083L1188.9 635.256Z" fill="#F5DFE1"/>
<path d="M1185.3 699.852L1184.63 832.615C1184.58 841.607 1177.23 848.861 1168.22 848.821C1159.22 848.781 1151.96 841.462 1152 832.47L1152.67 699.969C1156.52 698.99 1161.28 698.538 1166.39 699.806C1172.95 701.454 1180.04 700.813 1185.3 699.852Z" fill="#F56476"/>
<path d="M1189.15 635.959L1149.98 635.765C1149.56 635.763 1149.16 635.586 1148.86 635.275C1148.56 634.963 1148.4 634.541 1148.4 634.102C1148.4 633.663 1148.57 633.243 1148.87 632.934C1149.17 632.625 1149.58 632.453 1150 632.455L1189.17 632.649C1189.58 632.666 1189.97 632.848 1190.26 633.159C1190.54 633.469 1190.7 633.882 1190.7 634.312C1190.7 634.741 1190.54 635.153 1190.25 635.461C1189.96 635.768 1189.57 635.947 1189.15 635.959Z" fill="#F5DFE1"/>
<path d="M1160.52 827.798C1160.1 827.796 1159.7 827.719 1159.32 827.571C1158.94 827.424 1158.6 827.208 1158.31 826.937C1158.02 826.666 1157.79 826.345 1157.63 825.992C1157.48 825.639 1157.4 825.261 1157.4 824.88L1158.34 641.408C1158.36 640.65 1158.71 639.931 1159.29 639.404C1159.88 638.876 1160.67 638.583 1161.48 638.587C1162.3 638.59 1163.09 638.89 1163.67 639.423C1164.25 639.955 1164.58 640.677 1164.6 641.435L1163.66 824.907C1163.66 825.677 1163.32 826.414 1162.73 826.957C1162.14 827.499 1161.35 827.801 1160.52 827.798Z" fill="#4D4D4D"/>
<path d="M1188.9 635.253L1188.82 651.727C1187.93 647.91 1185.66 644.486 1182.38 642.024C1179.1 639.561 1175 638.208 1170.78 638.19L1150.2 638.1L1150.22 635.083L1188.9 635.253Z" fill="#E6D1D3"/>
<path d="M1043.92 782.61C1044.17 782.777 1044.45 782.931 1044.72 783.043C1045.44 783.364 1046.23 783.545 1047.07 783.545H1087.43L1087.42 787.914H1152.36L1152.38 785.555L1152.39 782.61H1043.92ZM831.013 782.61V765.218C828.758 766.969 826.522 768.741 824.307 770.536V815.216C826.489 817.896 828.743 820.534 831.013 823.186V816.193H874.496L874.525 810.847H831.013V787.914H1041.61L1041.62 782.61H831.013ZM1047.07 783.545C1046.26 783.544 1045.46 783.373 1044.72 783.043C1044.44 782.926 1044.17 782.781 1043.92 782.61H1041.62L1041.61 787.914H1087.42L1087.43 783.545H1047.07ZM1226.55 875.642V604.822C1226.55 604.538 1226.49 604.256 1226.38 603.994C1226.27 603.731 1226.1 603.493 1225.89 603.293C1225.68 603.093 1225.42 602.935 1225.15 602.828C1224.87 602.721 1224.58 602.668 1224.28 602.672H1222.11C1220.88 602.672 1219.84 603.622 1219.84 604.822V664.536H831.013V604.822C831.013 603.622 829.973 602.672 828.744 602.672H826.576C826.279 602.668 825.983 602.721 825.707 602.828C825.431 602.935 825.18 603.093 824.969 603.293C824.757 603.493 824.59 603.731 824.477 603.994C824.363 604.256 824.306 604.538 824.308 604.822V875.642H816.3V882.984H840.105V875.642H831.013L831.013 816.193H1219.84V875.642H1211.83V882.984H1235.7V875.642H1226.55ZM831.013 669.841H1219.84V782.61H831.013V669.841ZM831.013 810.847V787.914H1219.84V810.847H831.013ZM874.701 782.61L874.657 787.914H1152.38V782.61H874.701Z" fill="#49499C"/>
<path d="M1181.7 684.685C1181.7 689.266 1178.83 691.146 1176.03 691.146C1173.24 691.146 1170.01 688.006 1171.14 683.63C1171.88 680.736 1175.05 679.838 1176.03 674.555C1176.03 674.555 1181.7 680.104 1181.7 684.685ZM1164.77 653.36C1164.77 656.872 1162.57 658.312 1160.43 658.312C1158.29 658.312 1155.81 655.906 1156.68 652.552C1157.24 650.334 1159.68 649.646 1160.43 645.595C1160.43 645.594 1164.77 649.847 1164.77 653.36Z" fill="#F56476"/>
<path d="M202.5 674.502H261.45V820.789H202.5V674.502ZM261.45 820.789L320.4 820.79V675.073C320.4 674.922 320.337 674.777 320.225 674.669C320.113 674.562 319.961 674.502 319.802 674.502H261.45V820.789Z" fill="#8BD6F2"/>
<path d="M261.45 831.302H189.9V696.34C189.9 658.638 221.933 628.075 261.45 628.075V831.302ZM261.45 831.302H333V696.34C333 658.638 300.965 628.075 261.45 628.075V831.302Z" fill="#C6F0F7"/>
<path d="M333 831.445C291.684 844.901 250.37 842.835 222.827 838.673C217.479 837.84 212.656 836.974 208.461 836.108C196.786 833.677 189.9 831.445 189.9 831.445L208.461 828.28L222.827 825.849L261.451 819.287L333 831.445ZM225.674 605.3H297.224V632.952H225.674V605.3Z" fill="#C6F0F7"/>
<path d="M259.2 610.557L259.128 628.331V632.842L259.093 642.664C238.367 646.004 222.562 662.911 222.562 683.257V839.186C217.104 838.35 212.181 837.482 207.9 836.613V675.072C207.9 654.691 223.668 637.819 244.394 634.444V610.556H259.2V610.557Z" fill="#808080"/>
<path d="M295.552 584.276H228.249C220.49 584.276 214.2 590.355 214.2 597.854C214.2 605.353 220.49 611.432 228.249 611.432H295.552C303.311 611.432 309.6 605.353 309.6 597.854C309.599 590.355 303.31 584.276 295.552 584.276Z" fill="#7D93B2"/>
<path d="M189.9 713.921H333V777.867H189.9V713.921Z" fill="#F5F6F7"/>
<path d="M325.8 770.859H198V720.929H325.8V770.859ZM198.561 770.329H325.239V721.459H198.561V770.329Z" fill="black"/>
<path d="M203.401 738.128C205.21 737.872 207.037 737.742 208.866 737.74C212.559 737.74 215.189 738.544 216.933 740.069C218.705 741.593 219.74 743.756 219.74 746.779C219.74 749.829 218.735 752.324 216.874 754.044C215.012 755.79 211.939 756.734 208.068 756.734C206.237 756.734 204.7 756.65 203.4 756.512V738.128H203.401ZM205.972 754.654C206.622 754.766 207.567 754.793 208.572 754.793C214.068 754.793 217.052 751.909 217.052 746.862C217.082 742.454 214.422 739.653 208.986 739.653C207.657 739.653 206.652 739.764 205.973 739.903V754.654H205.972ZM225.647 737.879V756.567H223.076V737.879H225.647ZM233.357 750.689L231.289 756.567H228.629L235.395 737.879H238.498L245.294 756.567H242.546L240.419 750.689H233.357ZM239.887 748.803L237.937 743.424C237.493 742.204 237.198 741.095 236.903 740.013H236.844C236.547 741.15 236.212 742.279 235.839 743.397L233.889 748.803H239.887ZM248.216 738.128C249.339 737.907 251.111 737.74 252.913 737.74C255.484 737.74 257.138 738.156 258.379 739.098C259.413 739.819 260.034 740.929 260.034 742.398C260.034 744.2 258.763 745.78 256.666 746.502V746.557C258.556 747 260.772 748.47 260.772 751.242C260.772 752.85 260.093 754.071 259.088 754.986C257.7 756.178 255.454 756.733 252.204 756.733C250.431 756.733 249.072 756.622 248.215 756.511V738.128H248.216ZM250.787 745.78H253.121C255.839 745.78 257.434 744.449 257.434 742.647C257.434 740.456 255.662 739.597 253.061 739.597C251.879 739.597 251.2 739.68 250.787 739.763V745.78ZM250.787 754.737C251.289 754.82 252.027 754.848 252.944 754.848C255.602 754.848 258.055 753.933 258.055 751.216C258.055 748.664 255.721 747.611 252.914 747.611H250.787V754.737ZM274.54 747.804H266.798V754.543H275.426V756.567H264.227V737.879H274.982V739.903H266.798V745.809H274.539L274.54 747.804ZM283.017 739.93H276.96V737.879H291.702V739.93H285.616V756.567H283.016V739.93H283.017ZM304.228 747.804H296.487V754.543H305.114V756.567H293.916V737.879H304.67V739.903H296.486V745.809H304.227V747.804H304.228ZM308.096 753.629C309.249 754.295 310.932 754.848 312.705 754.848C315.335 754.848 316.87 753.545 316.87 751.66C316.87 749.913 315.807 748.915 313.118 747.943C309.868 746.862 307.858 745.282 307.858 742.647C307.858 739.735 310.429 737.572 314.3 737.572C316.338 737.572 317.815 738.016 318.702 738.487L317.992 740.456C316.83 739.87 315.53 739.565 314.211 739.569C311.493 739.569 310.459 741.094 310.459 742.37C310.459 744.117 311.67 744.976 314.417 745.974C317.786 747.194 319.5 748.72 319.5 751.465C319.5 754.349 317.224 756.844 312.527 756.844C310.607 756.844 308.509 756.317 307.445 755.652L308.096 753.629Z" fill="black"/>
<path d="M614.7 841.018C614.695 840.528 614.458 840.06 614.041 839.716C613.624 839.373 613.061 839.182 612.476 839.186L510.3 839.87L510.336 843.565L612.511 842.881C612.801 842.879 613.087 842.829 613.354 842.735C613.621 842.64 613.863 842.502 614.066 842.329C614.27 842.156 614.43 841.951 614.539 841.726C614.648 841.501 614.702 841.261 614.7 841.018Z" fill="#1F1C80"/>
<path d="M85.0529 872.669L84.6005 818.133C84.5487 811.906 89.3484 806.82 95.319 806.775C101.29 806.728 106.172 811.739 106.224 817.966L106.335 831.519L167.173 831.049L167.4 858.482L106.563 858.952L106.674 872.502C106.726 878.73 101.928 883.814 95.9567 883.86C89.9852 883.907 85.1037 878.896 85.0529 872.669Z" fill="white"/>
<path d="M105.3 815.534C105.718 816.382 105.999 817.257 106.015 818.167L106.2 828.671L105.529 828.674L105.3 815.534Z" fill="#E6E6E6"/>
<path d="M84.6065 872.723L84.6001 872.004C85.7673 876.953 90.0843 880.622 95.2315 880.582C101.234 880.537 106.059 875.476 106.007 869.279L105.895 855.792L167.062 855.324L166.861 831.304L167.172 831.302L167.4 858.603L106.233 859.071L106.345 872.556C106.397 878.754 101.573 883.815 95.5694 883.86C89.5656 883.906 84.6576 878.92 84.6065 872.723Z" fill="#CCCCCC"/>
<path d="M149.4 887.111L148.668 803.504C148.67 802.896 148.54 802.293 148.286 801.731C148.031 801.169 147.657 800.659 147.185 800.23C146.713 799.801 146.153 799.462 145.536 799.232C144.92 799.002 144.26 798.886 143.594 798.891C142.928 798.896 142.27 799.021 141.657 799.26C141.045 799.499 140.49 799.846 140.026 800.282C139.562 800.718 139.197 801.234 138.952 801.799C138.707 802.365 138.588 802.969 138.601 803.578L139.333 887.184C139.338 887.788 139.474 888.384 139.731 888.94C139.989 889.496 140.364 890 140.836 890.424C141.307 890.847 141.865 891.182 142.477 891.408C143.09 891.635 143.745 891.749 144.406 891.744C145.067 891.739 145.721 891.616 146.329 891.38C146.938 891.145 147.49 890.802 147.954 890.372C148.417 889.942 148.784 889.432 149.032 888.873C149.28 888.313 149.405 887.714 149.4 887.111Z" fill="#CCCCCC"/>
<path d="M148.5 803.026L461.894 800.643L493.766 822.482L509.457 822.364L509.493 826.721C514.821 826.68 519.174 830.751 519.216 835.813L519.3 845.775C519.343 850.837 515.059 854.973 509.731 855.014L509.774 860.044L493.627 860.166L462.597 884.105L149.204 886.488L148.5 803.026Z" fill="white"/>
<path d="M156.6 810.771L157.171 878.604L338.866 877.236C354.441 858.312 318.582 841.247 337.157 809.402L156.6 810.771Z" fill="#EB557D"/>
<path d="M196.2 859.19L201.391 859.15L201.62 886.45L196.428 886.488L196.2 859.19ZM237.782 858.871L242.998 858.832L243.227 886.131L238.011 886.169L237.782 858.871ZM279.345 858.559L284.561 858.519L284.792 885.818L279.577 885.858L279.345 858.559ZM320.97 858.234L326.162 858.194L326.391 885.493L321.199 885.532L320.97 858.234ZM362.497 857.939L367.689 857.899L367.915 885.198L362.723 885.237L362.497 857.939ZM404.086 857.62L409.277 857.581L409.5 884.879L404.308 884.918L404.086 857.62Z" fill="white"/>
<path d="M149.114 875.973L148.5 803.332L156.592 803.271L156.817 829.941C157.031 855.33 178.922 875.747 205.714 875.543L451.035 873.682C458.253 873.628 465.236 871.25 470.839 866.939L493.182 849.748L509.358 855.129L509.4 860.141L493.27 860.263L462.272 884.114L157.294 886.427L149.202 886.488L149.114 875.973Z" fill="#F2F2F2"/>
<path d="M453.826 614.449C453.826 614.449 461.758 590.98 469.396 587.086C482.608 580.349 479.363 607.682 474.873 615.908C468.205 628.123 450.9 678.006 450.9 678.006L453.826 614.449Z" fill="#F9BDBD"/>
<path d="M455.077 615.281C455.077 615.281 462.761 591.812 470.16 587.916C472.241 586.822 473.898 586.631 475.2 587.108C473.767 585.781 471.696 585.569 468.817 587.084C461.418 590.979 453.734 614.448 453.734 614.448L450.9 678.006C450.9 678.006 451.489 676.252 452.489 673.322L455.077 615.281Z" fill="#F0BBBB"/>
<path d="M487.629 747.639C477.901 737.45 451.946 668.994 452.031 665.541C452.371 651.781 461.536 608.115 465.69 584.221C467.886 571.593 448.474 555.677 442.598 574.61C440.186 582.382 412.805 699.414 411.3 699.103L437.63 758.596C437.629 758.596 497.357 757.827 487.629 747.639Z" fill="#F9BDBD"/>
<path d="M413.291 700.187C414.783 700.498 441.929 583.465 444.321 575.693C446.949 567.152 452.308 565.705 457.2 567.846C451.85 564.356 445.321 564.888 442.33 574.609C439.938 582.381 412.792 699.414 411.3 699.102L437.405 758.596C437.405 758.596 437.945 758.589 438.908 758.567L413.291 700.187Z" fill="#F0BBBB"/>
<path d="M437.825 693.873C437.825 693.873 437.27 611.283 439.493 586.914C442.938 549.158 418.062 539.829 407.006 558.701C399.186 572.052 379.238 692.426 392.134 719.928C403.48 744.131 446.12 818.162 446.12 818.162L497.7 740.578L437.825 693.873Z" fill="#F9C2C2"/>
<path d="M395.783 721.55C382.743 694.047 402.915 573.672 410.823 560.32C415.454 552.502 422.483 549.529 428.88 551.406C421.674 546.939 412.743 549.375 407.221 558.697C399.313 572.049 379.141 692.425 392.181 719.927C403.655 744.13 446.773 818.162 446.773 818.162L448.2 816.039C439.314 800.713 405.709 742.489 395.783 721.55Z" fill="#F0BBBB"/>
<path d="M740.7 897H603.002C597.378 892.395 592.058 888.27 587.086 884.616C576.176 876.569 567.006 870.798 560.204 867.262C538.699 856.074 482.6 834.83 447.121 816.803C446.616 816.556 446.115 816.303 445.617 816.044C438.703 812.496 432.642 809.077 427.837 805.893C409.699 793.871 359.011 706.642 359.011 706.642C359.011 706.642 344.015 658.32 331.59 622.169C331.456 621.785 331.321 621.411 331.198 621.037C326.46 607.209 322.644 594.974 321.118 587.579C321.087 587.403 321.049 587.229 321.006 587.055C321.004 586.994 320.997 586.934 320.983 586.874L320.938 586.65C320.917 586.536 320.895 586.421 320.871 586.307C320.871 586.286 320.86 586.264 320.86 586.243C320.838 586.095 320.826 585.966 320.793 585.837C320.759 585.644 320.726 585.453 320.692 585.271C320.681 585.185 320.669 585.11 320.658 585.036C320.613 584.779 320.591 584.522 320.557 584.288C320.422 583.24 320.377 582.375 320.41 581.712C320.421 581.531 320.444 581.381 320.466 581.232C320.488 581.04 320.534 580.858 320.59 580.719C320.59 580.709 320.59 580.697 320.601 580.688C320.612 580.676 320.612 580.676 320.612 580.667C320.69 580.474 320.78 580.346 320.903 580.25C331.746 571.584 342.689 568.399 355.743 582.921C366.675 595.081 381.042 630.239 389.83 653.565V653.576C390.931 656.504 391.941 659.24 392.85 661.719V661.729C395.891 670.064 397.754 675.535 397.754 675.535C397.754 675.535 404.904 681.007 414.321 688.145C414.939 688.615 415.579 689.095 416.218 689.587C430.193 700.166 448.196 713.674 455.548 718.685C460.015 721.73 466.649 725.16 476.594 728.538C479.871 729.66 483.519 730.761 487.559 731.84C492.711 733.229 498.525 734.575 505.069 735.847C505.147 735.868 505.227 735.879 505.305 735.89C505.383 735.911 505.462 735.933 505.551 735.943C506.898 736.21 508.267 736.466 509.682 736.712H509.693C510.075 736.788 510.457 736.862 510.85 736.926C510.928 736.937 511.007 736.958 511.086 736.969C511.164 736.98 511.243 737 511.322 737C524.038 739.245 539.258 741.221 557.509 742.749C562.403 743.155 567.364 744.031 572.37 745.314V745.324C572.45 745.336 572.539 745.356 572.629 745.388C572.707 745.399 572.786 745.42 572.864 745.442C573.684 745.655 574.492 745.879 575.312 746.115C576.086 746.339 576.86 746.574 577.635 746.81C577.725 746.841 577.803 746.863 577.893 746.896H577.904C577.995 746.917 578.073 746.949 578.162 746.981C614.001 758.351 649.929 789.5 664.319 818.983C668.304 827.158 676.149 837.01 686.015 847.439C692.087 853.861 698.934 860.519 706.106 867.122C706.387 867.379 706.655 867.635 706.926 867.892C713.144 873.569 719.465 879.145 725.884 884.616C730.775 888.795 735.714 892.923 740.7 897Z" fill="#F9CBCB"/>
<path d="M615.6 897H603.566C597.932 892.397 592.601 888.275 587.619 884.623C576.687 876.581 567.499 870.813 560.684 867.279C539.137 856.097 482.928 834.866 447.378 816.849C446.872 816.602 446.37 816.349 445.871 816.091C438.943 812.544 432.87 809.128 428.056 805.945C409.882 793.93 359.094 706.751 359.094 706.751C359.094 706.751 344.069 658.457 331.62 622.327C331.485 621.942 331.35 621.569 331.226 621.195C326.48 607.375 322.656 595.147 321.126 587.756C321.095 587.581 321.058 587.406 321.014 587.233C321.003 587.169 320.992 587.115 320.98 587.052C320.969 586.966 320.957 586.902 320.946 586.828C320.924 586.713 320.902 586.599 320.879 586.485C320.879 586.463 320.867 586.442 320.867 586.421C320.845 586.273 320.833 586.144 320.8 586.015C320.766 585.823 320.733 585.631 320.699 585.45C320.688 585.364 320.676 585.289 320.665 585.214C320.619 584.958 320.597 584.701 320.563 584.467C320.417 583.42 320.372 582.555 320.417 581.893C320.428 581.712 320.451 581.562 320.473 581.412C320.495 581.221 320.54 581.039 320.596 580.9C320.596 580.89 320.596 580.878 320.607 580.869C320.619 580.857 320.619 580.857 320.619 580.848C320.653 580.827 320.664 580.794 320.686 580.772C320.686 580.772 323.992 583.218 328.075 588.184C330.009 595.447 333.125 605.144 336.78 615.802C336.904 616.176 337.038 616.55 337.174 616.934C337.185 616.988 337.207 617.041 337.23 617.094C349.668 653.203 364.648 701.369 364.648 701.369C364.648 701.369 415.437 788.537 433.61 800.551C435.293 801.663 437.006 802.732 438.75 803.755C440.01 804.513 441.336 805.272 442.72 806.052H442.731C445.618 807.66 448.535 809.22 451.481 810.73C486.929 828.896 544.397 850.554 566.238 861.896C574.493 866.178 586.245 873.74 600.326 884.623C605.516 888.638 610.608 892.764 615.6 897Z" fill="#F0BBBB"/>
<path d="M337.104 616.704C335.604 618.187 333.457 619.216 331.053 620.191C326.326 606.436 322.521 594.277 321.016 586.983L320.973 586.756L320.91 586.416C320.877 586.24 320.85 586.069 320.815 585.91C320.786 585.729 320.76 585.557 320.729 585.392C320.329 582.995 320.284 581.411 320.647 580.865C320.67 580.832 320.696 580.801 320.725 580.772C320.725 580.772 324 583.184 328.038 588.096C330.967 591.652 334.295 596.52 337.057 602.739C340.362 610.176 339.702 614.131 337.104 616.704Z" fill="#F9D6D6"/>
<path d="M617.327 822.542C617.395 821.519 617.41 820.517 617.394 819.529C617.392 819.431 617.383 819.334 617.38 819.236C617.357 818.328 617.299 817.421 617.205 816.517C617.193 816.4 617.175 816.283 617.162 816.166C617.065 815.308 616.936 814.452 616.774 813.603C616.742 813.428 616.707 813.254 616.672 813.08C616.514 812.314 616.332 811.553 616.124 810.798C616.085 810.654 616.062 810.507 616.02 810.364C615.994 810.27 615.956 810.18 615.929 810.086C615.754 809.498 615.56 808.919 615.357 808.343C615.054 807.471 614.718 806.611 614.349 805.762C614.229 805.483 614.12 805.199 613.992 804.923C613.77 804.44 613.528 803.967 613.286 803.491C613.102 803.126 612.919 802.762 612.725 802.402C612.318 801.647 611.89 800.903 611.441 800.171C611.232 799.824 611.036 799.469 610.818 799.128C606.311 792.087 600.228 786.144 594.191 780.3C591.174 777.367 588.123 774.452 585.386 771.28C582.66 768.123 580.285 764.571 579.473 760.506C577.286 752.571 575.167 744.619 573.114 736.65C571.097 728.679 569.024 720.706 567.483 712.645C566.062 704.557 564.398 696.494 562.188 688.555C559.999 680.616 557.22 672.793 553.442 665.385C551.52 661.699 549.291 658.14 546.604 654.899C543.937 651.654 540.674 648.787 536.816 646.841C532.946 644.958 528.413 644.212 524.147 645.077C519.902 645.924 515.944 647.941 512.876 650.863C509.884 653.983 509.021 658.322 508.853 662.372C508.691 666.487 509.118 670.585 509.56 674.66C510.417 682.774 511.669 691.047 509.904 699.079C509.484 701.082 508.613 702.942 508.142 704.974C507.775 707.002 507.604 709.055 507.603 711.106C507.566 715.209 507.855 719.308 508.289 723.387C510.095 739.706 513.371 755.836 516.82 771.903C519.619 784.704 522.645 797.459 525.865 810.171C526.678 813.412 527.509 816.649 528.358 819.882C528.356 819.873 528.354 819.865 528.353 819.856L528.358 819.882L617.327 822.542Z" fill="#F9CBCB"/>
<path d="M567 712.169C570.132 722.082 573.441 731.888 576.465 741.784C578.052 746.712 579.468 751.68 581.001 756.618C581.794 759.022 582.372 761.803 583.265 763.599C584.233 765.609 585.703 767.571 587.359 769.454C590.629 773.281 594.562 776.871 598.349 780.636C602.097 784.445 605.922 788.322 609.133 792.704C610.737 794.889 612.286 797.127 613.564 799.516C614.832 801.908 615.923 804.383 616.757 806.931C617.524 809.5 618.037 812.122 618.233 814.747C618.414 817.377 618.218 819.997 617.781 822.542C617.583 819.956 617.287 817.417 616.665 814.951C616.02 812.492 615.214 810.097 614.122 807.816C611.974 803.241 608.978 799.091 605.591 795.224C598.797 787.43 590.361 781.042 582.936 772.814C581.142 770.695 579.425 768.395 578.168 765.687L577.711 764.665L577.344 763.582C577.072 762.813 576.961 762.27 576.775 761.623C576.435 760.373 576.091 759.125 575.784 757.868C574.547 752.842 573.241 747.834 572.159 742.773C571.01 737.729 569.997 732.653 569.064 727.562C568.206 722.46 567.319 717.345 567 712.169Z" fill="#F9BDBD"/>
<path d="M618.231 814.607C618.048 812.054 617.546 809.417 616.744 806.757C615.944 804.334 614.858 801.834 613.508 799.335C612.171 796.793 610.489 794.465 609.037 792.511C605.824 788.164 601.982 784.287 598.255 780.539L598.163 780.443C597.157 779.45 596.14 778.468 595.133 777.495C592.252 774.719 589.53 772.102 587.117 769.293C585.219 767.157 583.881 765.267 583.023 763.505C582.452 762.363 582.018 760.814 581.548 759.18C581.297 758.315 581.045 757.418 580.759 756.574C580.141 754.577 579.536 752.569 578.929 750.571C578.598 749.482 578.267 748.382 577.923 747.271C577.364 745.433 576.788 743.6 576.196 741.771C574.378 735.866 572.423 729.896 570.536 724.129C569.23 720.165 567.942 716.195 566.672 712.221L566.489 711.656L566.478 711.623L566.1 710.417L566.214 712.297C566.523 717.252 567.369 722.218 568.181 727.013L568.295 727.675C569.324 733.271 570.342 738.236 571.405 742.861C571.6 743.779 571.805 744.687 572.023 745.606V745.617C572.709 748.564 573.452 751.502 574.173 754.374C574.47 755.559 574.768 756.734 575.054 757.919C575.34 759.062 575.659 760.226 575.969 761.337L576.06 761.678C576.118 761.881 576.175 762.074 576.221 762.266C576.335 762.682 576.449 763.109 576.632 763.643L577.01 764.744L577.467 765.758C577.696 766.249 577.947 766.73 578.199 767.19C579.481 769.496 581.035 771.44 582.305 772.924C585.952 776.929 589.863 780.529 593.647 783.999C597.741 787.758 601.606 791.304 605.104 795.288C608.913 799.603 611.714 803.693 613.647 807.794C614.652 809.876 615.488 812.194 616.197 814.874C616.883 817.544 617.146 820.288 617.317 822.393V822.414L617.455 824.294L617.774 822.436C618.254 819.702 618.403 817.074 618.231 814.607ZM617.603 820.385C617.42 818.655 617.146 816.701 616.653 814.779C615.934 812.066 615.099 809.716 614.081 807.623C612.126 803.48 609.301 799.357 605.459 795.011C601.949 791.006 598.072 787.449 593.978 783.69C590.193 780.22 586.294 776.643 582.67 772.648C581.16 770.885 579.262 768.493 577.901 765.599L577.444 764.595L577.078 763.506C576.922 763.067 576.789 762.622 576.678 762.171C576.621 761.968 576.575 761.776 576.518 761.573L576.415 761.232C576.118 760.121 575.797 758.968 575.511 757.825C575.226 756.64 574.929 755.458 574.619 754.279C573.922 751.481 573.201 748.608 572.526 745.735C572.309 744.753 572.08 743.759 571.875 742.777C570.811 738.153 569.793 733.198 568.753 727.612L568.649 726.95C567.94 722.807 567.209 718.524 566.831 714.252C566.98 714.712 567.128 715.181 567.277 715.64C567.289 715.651 567.289 715.651 567.289 715.661C568.215 718.545 569.164 721.439 570.09 724.248C571.977 730.025 573.932 735.996 575.75 741.89C576.311 743.623 576.856 745.36 577.386 747.101C577.751 748.308 578.118 749.504 578.472 750.69C579.078 752.687 579.684 754.694 580.313 756.691C580.587 757.535 580.851 758.422 581.091 759.287C581.559 760.942 582.006 762.501 582.6 763.686C583.481 765.481 584.83 767.414 586.751 769.571C589.175 772.39 591.908 775.017 594.789 777.795C595.804 778.772 596.815 779.755 597.819 780.742L597.91 780.838C601.615 784.566 605.457 788.431 608.647 792.757C610.088 794.7 611.746 797.029 613.096 799.528C614.422 802.006 615.497 804.483 616.286 806.886C617.075 809.503 617.578 812.119 617.76 814.639C617.887 816.391 617.841 818.228 617.624 820.139V820.215C617.614 820.278 617.614 820.321 617.603 820.385Z" fill="#F0BBBB"/>
<path d="M528.3 819.914C522.88 806.316 518.393 792.413 514.512 778.348C510.65 764.274 507.418 750.019 505.659 735.423C505.264 731.768 504.987 728.089 504.91 724.37C504.869 720.65 504.928 716.89 505.701 713.042L506.334 710.373C506.52 709.557 506.665 708.722 506.787 707.874C507.035 706.183 507.174 704.445 507.26 702.694C507.407 699.186 507.368 695.616 507.284 692.025C507.069 684.841 506.643 677.566 506.927 670.237C507.13 666.58 507.446 662.888 508.408 659.296C508.902 657.507 509.533 655.74 510.463 654.111C511.397 652.497 512.622 651.006 514.188 649.975C512.836 651.247 511.875 652.805 511.233 654.457C510.565 656.102 510.182 657.841 509.937 659.592C509.463 663.102 509.483 666.678 509.685 670.247C510.048 677.396 511.063 684.555 511.659 691.825C511.986 695.461 512.23 699.128 512.179 702.854C512.156 704.717 512.076 706.594 511.869 708.492C511.769 709.449 511.632 710.402 511.458 711.35L510.934 713.985C510.379 717.261 510.292 720.776 510.397 724.281C510.507 727.798 510.825 731.342 511.238 734.886C511.989 741.986 513.196 749.084 514.502 756.172C515.751 763.273 517.298 770.336 518.761 777.423C521.816 791.577 525.111 805.709 528.3 819.914Z" fill="#F9BDBD"/>
<path d="M525.045 805.701C522.894 796.419 520.664 786.816 518.58 777.373C518.261 775.812 517.92 774.262 517.59 772.7C516.429 767.289 515.234 761.685 514.244 756.157C513.174 750.478 512.002 743.891 511.193 737.282C511.09 736.495 510.999 735.707 510.92 734.918C510.441 730.844 510.169 727.486 510.066 724.342C509.941 720.235 510.112 716.985 510.613 714.108L511.147 711.477C511.307 710.622 511.443 709.68 511.568 708.611C511.75 706.91 511.853 705.114 511.887 702.954C511.933 698.9 511.625 694.933 511.353 691.928C511.114 689.041 510.795 686.121 510.488 683.309C510.033 679.063 509.566 674.678 509.339 670.379C509.1 666.177 509.179 662.808 509.6 659.782C509.873 657.814 510.306 656.156 510.909 654.702C511.591 652.958 512.593 651.473 513.856 650.306L513.583 650.007L513.561 649.975C512.081 650.927 510.784 652.338 509.691 654.178C508.849 655.632 508.177 657.29 507.575 659.407C506.585 663.032 506.266 666.818 506.061 670.369C505.845 676.047 506.05 681.758 506.255 687.287C506.323 688.912 506.38 690.527 506.425 692.142C506.505 695.35 506.562 699.125 506.403 702.783C506.3 704.739 506.152 706.429 505.924 707.937C505.808 708.766 505.656 709.59 505.469 710.407L504.821 713.081C504.002 717.091 503.967 721.048 504.013 724.437C504.081 727.87 504.332 731.485 504.775 735.495C504.797 735.709 504.832 735.913 504.855 736.126C506.46 748.885 509.305 762.348 513.801 778.389C518.091 793.628 522.689 807.22 527.856 819.914L528.129 819.84L528.3 819.797C527.222 815.097 526.137 810.398 525.045 805.701ZM527.184 817.006C522.472 805.103 518.228 792.409 514.256 778.282C509.784 762.305 506.938 748.927 505.344 736.223L505.242 735.452C504.797 731.453 504.547 727.849 504.478 724.437C504.433 721.069 504.467 717.133 505.275 713.176L505.923 710.503C506.094 709.764 506.242 708.941 506.39 708C506.617 706.47 506.766 704.781 506.868 702.803C507.028 699.134 506.971 695.348 506.891 692.13C506.845 690.515 506.788 688.9 506.72 687.274C506.516 681.756 506.311 676.056 506.527 670.399C506.731 666.87 507.05 663.106 508.029 659.513C508.576 657.598 509.167 656.058 509.907 654.721C509.918 654.7 509.929 654.678 509.941 654.668C509.998 654.571 510.044 654.475 510.101 654.39C510.578 653.588 511.091 652.86 511.648 652.23C511.179 652.968 510.783 653.745 510.465 654.55C509.85 656.026 509.418 657.716 509.133 659.726C508.712 662.774 508.632 666.175 508.871 670.399C509.099 674.709 509.565 679.093 510.032 683.339C510.327 686.162 510.647 689.07 510.885 691.958C511.159 694.952 511.466 698.909 511.409 702.951C511.386 705.09 511.284 706.875 511.102 708.555C510.977 709.635 510.852 710.533 510.68 711.389L510.146 714.031C509.645 716.939 509.474 720.211 509.599 724.351C509.702 727.505 509.975 730.874 510.452 734.959C510.533 735.707 510.623 736.456 510.715 737.205C511.522 743.866 512.717 750.508 513.787 756.23C514.778 761.758 515.973 767.362 517.134 772.784C517.464 774.334 517.793 775.895 518.123 777.457C520.206 786.9 522.437 796.503 524.588 805.796C525.066 807.871 525.556 809.946 526.033 812.031C526.044 812.085 526.056 812.149 526.079 812.213C526.445 813.808 526.82 815.401 527.184 817.006Z" fill="#F0BBBB"/>
<path d="M516.264 697.231C520.86 704.005 547.436 700.689 551.7 690.648C551.298 689.061 551.758 648.249 527.082 650.982C503.976 653.542 516.264 697.231 516.264 697.231Z" fill="#F9D6D6"/>
<path d="M721.8 853.909L706.82 868.068L689.226 884.69L676.205 897H633.6L646.631 884.69L685.726 847.738L700.344 833.93L720.973 853.144L721.8 853.909Z" fill="#C44F52"/>
<path d="M789.3 897H675L687.915 884.632L706.164 867.16L721.021 852.935L731.723 842.689L776.195 884.632L789.3 897Z" fill="#5575A6"/>
<path d="M378.487 581.255C373.925 588.687 365.445 588.022 359.297 583.658C353.148 579.294 349.791 571.889 356.449 565.614C361.918 560.461 379.7 557.395 384.3 552.741C381.052 558.41 382.934 574.011 378.487 581.255Z" fill="#F44E5B"/>
<path d="M378.573 581.256C382.952 574.012 381.1 558.41 384.3 552.741C383.669 553.389 382.786 554.007 381.719 554.603C380.422 561.732 380.9 572.852 377.402 578.639C372.91 586.071 364.557 585.406 358.501 581.042C356.524 579.617 354.843 577.866 353.7 575.938C354.596 578.893 356.832 581.611 359.673 583.658C365.728 588.022 374.08 588.687 378.573 581.256Z" fill="#CCCCCC"/>
<path d="M363.03 564.743C362.541 565.034 361.962 564.977 361.738 564.617C361.513 564.257 361.729 563.729 362.219 563.439C362.708 563.148 363.287 563.204 363.511 563.565C363.735 563.925 363.52 564.452 363.03 564.743ZM359.381 568.748C357.967 570.064 356.329 570.629 355.725 570.01C355.12 569.39 355.777 567.821 357.192 566.505C358.606 565.189 360.243 564.624 360.848 565.243C361.452 565.862 360.796 567.431 359.381 568.748Z" fill="#F2F2F2"/>
<path d="M78.3 884.736H1268.1V897H78.3V884.736Z" fill="#1F1C80"/>
<path d="M747.9 483.233C733.165 497.377 719.14 510.501 712.631 514.153C696.535 523.192 631.699 581.983 605.465 570.542C594.045 565.574 593.872 550.366 626.513 523.089C659.155 495.8 717.96 455.022 735.155 468.777C739.229 472.033 743.784 477.165 747.9 483.233Z" fill="#F2BFC2"/>
<path d="M792.765 580.904C771.749 586.485 733.659 559.032 725.812 553.139C728.339 553.223 735.151 551.391 753.248 542.179C776.956 530.106 740.377 505.885 717.3 498.698C734.714 474.479 781.569 435.157 784.917 436.259C790.554 438.104 817.585 471.594 820.252 477.655C822.905 483.715 816.27 574.675 792.765 580.904Z" fill="#F2BFC2"/>
<path d="M634.256 436.744C634.256 436.744 523.492 493.261 537.65 511.137C551.809 529.014 609.849 511.974 637.576 488.622C665.302 465.269 679.468 452.449 687.838 449.617C696.208 446.786 711.202 459.213 736.082 453.879C760.964 448.544 790.2 447.098 790.2 447.098L726.706 394.189C726.706 394.189 647.174 419.819 634.256 436.744Z" fill="#F7C8CC"/>
<path d="M564.332 550.113C554.143 534.248 630.357 457.329 652.454 448.033C674.55 438.737 774.9 443.682 774.9 443.682L768.446 490.076C768.446 490.076 691.819 486.91 687.269 494.835C682.719 502.759 612.388 544.954 597.834 550.741C583.28 556.526 571.887 561.874 564.332 550.113Z" fill="#F7C8CC"/>
<path d="M724.543 551.865C724.543 551.865 725.159 552.5 726.3 553.617C724.065 553.54 724.543 551.865 724.543 551.865Z" fill="#F2CED0"/>
<path d="M1041.3 861.648L1034.23 865.152L994.979 884.618L970.005 897H872.093C870.576 892.845 869.094 888.72 867.611 884.618C865.083 877.662 862.555 870.772 859.926 863.966C859.892 863.87 859.847 863.774 859.814 863.678C856.319 854.64 852.647 845.719 848.545 836.958C848.029 835.842 847.501 834.731 846.961 833.624C840.681 820.547 833.378 807.78 824.3 795.334C823.322 793.994 822.325 792.665 821.312 791.349C802.56 766.873 776.462 743.7 736.905 721.958C741.625 720.967 746.319 719.863 750.981 718.646C801.819 705.389 816.683 676.596 816.683 647.462C816.683 646.575 816.672 645.678 816.638 644.791C816.616 644.018 816.582 643.245 816.537 642.473C816.504 641.843 816.469 641.212 816.413 640.571C816.401 640.379 816.379 640.187 816.368 639.983C816.325 639.452 816.276 638.922 816.222 638.391C816.189 638.031 816.152 637.672 816.109 637.312C816.066 636.895 816.017 636.479 815.963 636.063C815.909 635.578 815.849 635.093 815.783 634.609L815.648 633.691C815.558 633.034 815.457 632.378 815.345 631.725C815.325 631.567 815.299 631.41 815.267 631.254C815.195 630.772 815.113 630.291 815.019 629.812C814.918 629.224 814.805 628.647 814.693 628.071C814.57 627.43 814.434 626.789 814.3 626.148C814.12 625.304 813.941 624.46 813.738 623.627C813.491 622.558 813.233 621.49 812.952 620.432C812.782 619.791 812.615 619.15 812.435 618.509C811.799 616.2 811.106 613.906 810.357 611.629C810.14 610.945 809.911 610.265 809.671 609.588C809.469 608.98 809.255 608.381 809.043 607.782C808.963 607.548 808.874 607.324 808.795 607.088C808.57 606.468 808.345 605.838 808.11 605.229C807.784 604.364 807.458 603.498 807.122 602.654C806.908 602.099 806.694 601.553 806.47 600.998C805.919 599.636 805.353 598.279 804.772 596.928C804.189 595.604 803.616 594.3 803.031 593.028C801.915 590.593 800.75 588.178 799.537 585.785C799.244 585.208 798.964 584.653 798.672 584.097C797.107 581.069 795.467 578.076 793.751 575.123C807.098 563.67 808.94 488.008 779.628 473.275C777.033 471.971 774.337 470.466 771.584 468.798C771.438 468.702 771.281 468.617 771.124 468.52C767.405 466.255 763.586 463.712 759.755 460.998C758.478 460.104 757.212 459.196 755.958 458.274C753.074 456.165 750.231 454.007 747.43 451.8C743.72 448.892 740.061 445.925 736.454 442.9C736.174 442.665 735.882 442.43 735.601 442.184C734.232 441.041 732.872 439.887 731.522 438.724L730.736 438.04C730.73 438.039 730.725 438.037 730.721 438.033C730.716 438.029 730.714 438.024 730.714 438.019C726.051 433.995 721.452 429.907 716.918 425.753C713.947 423.017 711.007 420.25 708.098 417.452C707.334 416.715 706.919 416.31 706.919 416.31C706.919 416.31 705.199 417.421 702.177 419.227L702.155 419.237C695.459 423.265 682.416 430.733 667.619 437.282C646.273 446.748 627.454 451.683 611.502 453.532C611.12 453.308 610.737 453.094 610.355 452.88C609.973 452.655 609.591 452.443 609.21 452.239C608.574 451.886 607.934 451.54 607.289 451.203C605.83 450.423 604.35 449.678 602.851 448.97C602.034 448.579 601.21 448.202 600.379 447.838C600.313 447.798 600.241 447.765 600.166 447.742C598.896 447.171 597.608 446.64 596.302 446.15C595.466 445.814 594.619 445.504 593.762 445.22C593.346 445.071 592.919 444.932 592.503 444.792C592.085 444.658 591.665 444.526 591.245 444.397C590.83 444.279 590.413 444.151 589.997 444.034C589.581 443.917 589.167 443.81 588.761 443.703C588.346 443.586 587.931 443.489 587.526 443.393C587.11 443.297 586.706 443.201 586.291 443.115C584.657 442.755 583.003 442.484 581.336 442.303C580.977 442.261 580.617 442.218 580.269 442.197C580.087 442.172 579.903 442.158 579.719 442.154C579.394 442.122 579.068 442.1 578.741 442.09C578.46 442.069 578.179 442.057 577.921 442.057C577.538 442.047 577.168 442.036 576.797 442.036H576.719C576.572 442.036 576.427 442.048 576.281 442.048C576.225 442.036 576.168 442.036 576.112 442.048C575.441 442.06 574.77 442.089 574.101 442.134C573.764 442.155 573.427 442.187 573.101 442.219C572.798 442.241 572.494 442.283 572.202 442.316C572.138 442.317 572.073 442.324 572.01 442.337C571.764 442.368 571.516 442.411 571.269 442.444C570.809 442.508 570.359 442.593 569.91 442.69C569.663 442.733 569.426 442.786 569.18 442.839C568.877 442.903 568.562 442.978 568.259 443.052C568.012 443.116 567.764 443.18 567.517 443.255C567.191 443.341 566.866 443.437 566.54 443.544C564.559 444.164 562.653 444.984 560.856 445.99C560.62 445.841 560.384 445.692 560.159 445.531C546.7 436.642 549.182 426.097 568.461 419.26C635.802 395.361 675.596 358.683 711.828 356.558C728.073 355.596 762.586 374.431 791.382 392.53C795.28 394.98 799.156 397.463 803.01 399.977C805.133 401.376 807.201 402.744 809.2 404.069C811.133 405.358 813.057 406.658 814.974 407.968C816.572 409.05 818.164 410.139 819.749 411.238H819.761C823.497 413.819 827.197 416.447 830.86 419.122C830.86 419.122 830.871 419.132 830.871 419.122C831.793 419.794 832.624 420.414 833.377 420.98C833.703 421.226 834.018 421.45 834.332 421.685C835.647 422.61 837.024 423.452 838.455 424.206C843.522 426.888 848.285 427.86 852.914 428.608C856.711 429.217 860.407 429.677 864.103 430.819C870.71 432.849 877.271 437.038 884.293 448.106C900.651 473.907 928.827 509.943 933.422 614.279C933.687 620.274 933.867 626.271 933.962 632.27C934.288 651.682 939.602 673.563 947.713 695.923C947.971 696.618 948.218 697.323 948.488 698.017C948.511 698.092 948.533 698.156 948.567 698.22C948.825 698.947 949.095 699.674 949.365 700.389C949.443 700.603 949.533 700.817 949.612 701.03C950.882 704.357 952.193 707.669 953.544 710.966C954.878 714.205 956.252 717.428 957.668 720.635C958.259 721.993 958.862 723.346 959.476 724.695C960.016 725.901 960.563 727.105 961.116 728.306C963.707 733.925 966.396 739.502 969.183 745.036C969.769 746.223 970.365 747.405 970.97 748.583C971.263 749.16 971.565 749.747 971.869 750.324C974.972 756.363 978.171 762.357 981.463 768.305C982.626 770.416 983.802 772.521 984.991 774.619C989.289 782.22 993.712 789.757 998.259 797.225C999.046 798.518 999.821 799.8 1000.61 801.071C1001.52 802.556 1002.44 804.03 1003.34 805.483C1003.69 806.039 1004.03 806.595 1004.37 807.15C1004.71 807.673 1005.03 808.197 1005.37 808.721C1005.85 809.49 1006.33 810.249 1006.81 811.007C1007.54 812.17 1008.28 813.331 1009.02 814.49L1009.39 815.067C1013.16 820.956 1017 826.808 1020.9 832.621C1021.84 834.031 1022.77 835.388 1023.66 836.713C1024.13 837.396 1024.58 838.07 1025.03 838.722C1025.77 839.801 1026.49 840.847 1027.19 841.863C1027.26 841.97 1027.34 842.066 1027.39 842.162C1027.65 842.536 1027.9 842.889 1028.14 843.251C1030.15 846.151 1032.18 849.04 1034.23 851.916C1038.67 858.154 1041.3 861.648 1041.3 861.648Z" fill="#F7D2D4"/>
<path d="M612 453.775C588.551 456.476 571.378 452.467 561.6 446.291C575.734 438.45 593.408 443.091 612 453.775Z" fill="#F7D2D4"/>
<path d="M1001.7 766.802L851.178 835.458L835.327 842.689L819 798.599C832.176 789.811 845.47 781.493 858.916 773.748C894.094 753.454 930.286 737.033 967.915 726.185L1001.7 766.802Z" fill="white"/>
<path d="M851.65 835.522L835.566 842.689L819 798.993C832.369 790.283 845.858 782.039 859.5 774.363C850.018 786.261 840.756 799.826 840.143 807.998C839.551 815.765 845.255 826.324 851.65 835.522Z" fill="#EBEDF5"/>
<path d="M1093.5 897H840.997L836.859 884.655L824.4 847.407C827.795 845.308 831.113 843.252 834.396 841.239H834.408C835.847 840.366 837.264 839.493 838.681 838.629C841.379 836.999 844.033 835.391 846.664 833.815C846.664 833.804 846.675 833.804 846.675 833.804C847.372 833.389 848.069 832.962 848.766 832.547C865.081 822.791 880.316 814.109 895.473 806.174C896.035 805.876 896.597 805.578 897.159 805.289C902.779 802.355 908.446 799.504 914.16 796.737C915.093 796.276 916.03 795.821 916.971 795.373C917.747 795 918.534 794.627 919.31 794.254C926.833 790.682 934.436 787.263 942.113 783.997C942.9 783.656 943.698 783.315 944.496 782.985C945.756 782.453 947.015 781.92 948.297 781.399C949.859 780.746 951.426 780.104 952.997 779.471C953.537 779.248 954.076 779.035 954.616 778.81C960.232 776.55 965.881 774.363 971.56 772.249C972.213 772.004 972.876 771.759 973.54 771.514L975.181 770.907C977.194 770.172 979.218 769.426 981.275 768.691C986.81 766.708 992.365 764.776 997.939 762.896C998.04 762.865 998.153 762.822 998.254 762.79C999.041 762.523 999.839 762.257 1000.64 762.002C1001.9 761.576 1003.17 761.161 1004.44 760.735C1006 760.219 1007.56 759.711 1009.13 759.211C1010.66 758.71 1012.2 758.21 1013.75 757.72L1022.65 773.282L1023.69 775.082L1025.18 777.692L1027.54 781.814L1037.48 799.186L1044.41 811.265L1046.73 815.312L1049.92 820.884L1050.57 822.034L1051.08 822.919L1052.1 824.697L1053.96 827.946L1054.03 828.075L1054.41 828.735L1054.83 829.471V829.482L1054.88 829.567L1055.43 830.525L1056.33 832.092L1056.75 832.816L1059.08 836.896L1059.16 837.045L1059.77 838.099L1060.07 838.632L1061.32 840.816L1063.7 844.97L1063.82 845.172L1064.12 845.705L1064.73 846.749L1068.46 853.278L1069.07 854.333L1072.63 860.564L1073.01 861.235L1073.07 861.32L1073.8 862.598L1074.53 863.887L1075.21 865.059L1076.66 867.593L1086.43 884.657L1086.5 884.774L1093.5 897Z" fill="#324191"/>
<path d="M930.6 789.255C930.116 789.597 916.261 799.432 900.863 812.884C883.436 828.092 864.047 847.933 859.73 863.91C859.087 866.287 858.783 868.576 858.862 870.759C858.986 874.259 860.249 878.979 862.368 884.597C863.788 888.364 865.603 892.527 867.733 897H841.039L836.89 884.597L824.4 847.173C827.804 845.065 831.13 842.999 834.422 840.977H834.434C838.604 838.42 842.696 835.936 846.721 833.518C846.721 833.506 846.732 833.506 846.732 833.506C847.43 833.09 848.13 832.661 848.828 832.244C872.896 817.818 894.63 805.746 917.208 794.894L930.6 789.255Z" fill="#23317D"/>
<path d="M529.148 510.847L526.073 501.559C525.937 501.151 525.814 500.745 525.701 500.336C525.68 500.258 525.654 500.178 525.639 500.098L525.637 500.094L525.578 499.866C525.564 499.807 525.547 499.756 525.533 499.697C525.519 499.638 525.512 499.583 525.493 499.526L525.486 499.507C525.416 499.225 525.352 498.942 525.293 498.657C525.283 498.614 525.268 498.565 525.263 498.52C525.252 498.471 525.242 498.422 525.236 498.372C525.196 498.201 525.164 498.023 525.129 497.851C524.612 494.991 524.562 492.073 524.979 489.199C526.301 480.028 532.298 471.81 541.301 467.567C541.409 467.513 541.519 467.465 541.63 467.416C542.933 466.814 544.282 466.304 545.664 465.891L824.655 382.374C840.443 377.648 857.263 385.97 862.233 400.984L865.308 410.272C870.278 425.286 861.512 441.284 845.722 446.01L566.731 529.526C565.474 529.903 564.197 530.202 562.931 530.403C552.505 532.169 542.07 528.504 535.301 521.223C535.155 521.071 535.012 520.916 534.873 520.757C533.167 518.844 531.738 516.722 530.624 514.449C530.327 513.849 530.052 513.239 529.799 512.621L529.701 512.374C529.693 512.345 529.681 512.317 529.668 512.29C529.646 512.239 529.626 512.182 529.603 512.127C529.442 511.704 529.29 511.277 529.148 510.847Z" fill="#62C0A6"/>
<path d="M828.16 392.397C838.141 389.408 848.815 394.693 851.953 404.178L855.022 413.454C858.164 422.949 852.601 433.106 842.619 436.095L564.109 519.509C563.344 519.74 562.564 519.92 561.773 520.05C552.364 521.64 543.183 516.327 540.33 507.703L537.261 498.427C534.485 490.038 538.614 480.777 546.868 476.885C547.763 476.457 548.693 476.098 549.649 475.811L828.16 392.397Z" fill="#88D3BC"/>
<path d="M557.1 474.18L672.274 439.74L686.7 483.264L571.526 517.702L557.1 474.18Z" fill="#609991"/>
<path d="M563.4 478.294L669.063 446.748L680.4 480.9L574.736 512.446L563.4 478.294Z" fill="#4D4D4D"/>
<path d="M563.4 477.897L568.87 476.247L578.315 504.989L678.492 474.779L680.4 480.587L574.754 512.446L563.4 477.897Z" fill="#B3B3B3"/>
<path d="M529.217 511.028L526.104 501.803C525.967 501.397 525.842 500.994 525.727 500.588C525.707 500.511 525.68 500.431 525.665 500.352L525.663 500.347C525.638 500.272 525.619 500.2 525.599 500.123C525.568 500.01 525.547 499.896 525.519 499.783C525.461 499.557 525.408 499.331 525.358 499.104C525.324 498.95 525.28 498.796 525.249 498.642C524.625 495.641 524.532 492.565 524.974 489.536C526.295 480.406 532.372 472.216 541.505 467.995L542.267 467.771L563.4 530.408C552.872 532.154 542.328 528.535 535.474 521.33C535.324 521.179 535.178 521.025 535.035 520.869C533.303 518.97 531.852 516.865 530.718 514.607C530.417 514.011 530.139 513.406 529.884 512.792C529.846 512.714 529.813 512.631 529.779 512.548C529.771 512.519 529.76 512.491 529.746 512.465C529.723 512.414 529.704 512.358 529.68 512.303C529.516 511.881 529.361 511.456 529.217 511.028Z" fill="#58AF92"/>
<path d="M813.16 436.75C834.149 430.458 848.869 418.414 846.037 409.848C843.205 401.283 823.894 399.439 802.905 405.732C781.916 412.024 767.196 424.068 770.028 432.634C772.86 441.199 792.171 443.042 813.16 436.75Z" fill="#808080"/>
<path d="M469.502 530.842L465.3 518.221L525.894 500.183C525.914 500.259 525.932 500.331 525.957 500.406L525.959 500.411C525.979 500.487 526.005 500.567 526.026 500.644C526.138 501.048 526.267 501.449 526.4 501.853L529.459 511.043C529.601 511.47 529.749 511.895 529.909 512.312C529.933 512.367 529.952 512.423 529.969 512.475C530.012 512.585 530.055 512.694 530.1 512.803L469.502 530.842Z" fill="#8ACEB9"/>
<path d="M773.276 431.873C771.464 426.53 783.8 418.033 801.795 411.709L809.1 433.242C790.446 437.625 775.091 437.219 773.276 431.873Z" fill="#609991"/>
<path d="M802.8 429.99C786.747 433.256 778.832 431.484 777.6 430.304C777.75 429.637 779.035 427.519 783.654 424.425C787.461 421.876 792.614 419.283 798.445 416.965L802.8 429.99Z" fill="#9BBFB8"/>
<path d="M842.232 410.814C840.51 405.471 825.921 405.065 808.2 409.447L815.139 430.98C832.235 424.657 843.955 416.16 842.232 410.814Z" fill="#609991"/>
<path d="M817.054 425.725C832.199 419.741 837.608 414.018 837.9 412.386C837.373 411.921 835.03 410.878 829.362 410.834C824.691 410.798 818.891 411.453 812.7 412.7L817.054 425.725Z" fill="#9BBFB8"/>
<path d="M465.3 518.533L477.277 515.074L481.5 527.384L469.525 530.842L465.3 518.533Z" fill="#BEE5D8"/>
<path d="M479.7 522.336L467.826 525.586L467.1 523.58L478.973 520.33L479.7 522.336Z" fill="#ED1C24"/>
<path d="M758.973 447.177C753.759 448.774 748.2 445.956 746.56 440.881V440.881C744.918 435.806 747.814 430.398 753.028 428.8H753.028C758.242 427.202 763.8 430.021 765.44 435.095V435.096C767.082 440.172 764.187 445.58 758.973 447.177Z" fill="#4D4D4D"/>
<path d="M746.551 440.68C746.166 439.493 746.025 438.243 746.137 437.003C746.249 435.762 746.611 434.556 747.203 433.452C747.792 432.348 748.598 431.368 749.575 430.568C750.552 429.768 751.681 429.164 752.897 428.791C754.112 428.416 755.391 428.28 756.661 428.389C757.93 428.499 759.165 428.852 760.294 429.429C760.676 429.623 761.048 429.845 761.4 430.086C759.401 429.376 757.218 429.331 755.189 429.957C753.973 430.33 752.844 430.934 751.867 431.734C750.89 432.534 750.085 433.514 749.496 434.618C748.904 435.722 748.542 436.928 748.43 438.169C748.318 439.409 748.459 440.659 748.845 441.846C749.481 443.83 750.771 445.554 752.513 446.748C751.108 446.253 749.839 445.448 748.805 444.396C747.771 443.343 747 442.072 746.551 440.68Z" fill="#808080"/>
<path d="M730.172 455.937C724.958 457.534 719.4 454.716 717.759 449.641V449.64C716.118 444.566 719.014 439.157 724.227 437.56C729.441 435.962 734.999 438.781 736.64 443.855V443.856C738.282 448.931 735.386 454.34 730.172 455.937Z" fill="#4D4D4D"/>
<path d="M717.751 449.44C717.366 448.253 717.225 447.003 717.337 445.763C717.449 444.522 717.811 443.315 718.403 442.212C719.042 441.013 719.936 439.962 721.025 439.129C722.114 438.295 723.373 437.699 724.718 437.38C726.063 437.061 727.462 437.027 728.821 437.279C730.181 437.532 731.469 438.066 732.6 438.845C730.39 438.064 727.965 438.093 725.775 438.927C723.586 439.761 721.781 441.342 720.695 443.377C720.103 444.48 719.741 445.687 719.629 446.928C719.517 448.168 719.658 449.418 720.043 450.606C720.68 452.59 721.969 454.313 723.712 455.508C722.307 455.013 721.038 454.208 720.004 453.155C718.97 452.103 718.199 450.832 717.751 449.44Z" fill="#808080"/>
<path d="M528.349 512.988L523.8 500.819L525.804 500.287C525.783 500.233 525.774 500.176 525.762 500.124C525.747 500.068 525.739 500.016 525.718 499.961L525.711 499.943C525.654 499.732 525.601 499.521 525.551 499.309L525.503 499.133C525.493 499.091 525.476 499.045 525.471 499.001C525.455 498.956 525.441 498.909 525.431 498.863L527.059 498.431L532.8 513.786L531.247 514.198C530.927 513.626 530.631 513.044 530.359 512.454L528.349 512.988Z" fill="#4D4D4D"/>
<path d="M571.5 526.607C568.68 528.346 565.375 529.401 561.962 529.796C558.539 530.188 555.029 529.892 551.695 528.997C548.362 528.099 545.192 526.568 542.539 524.469C539.872 522.397 537.709 519.769 536.4 516.826C538.853 519 541.347 520.915 544.066 522.427C546.753 523.972 549.628 525.119 552.61 525.932C555.615 526.746 558.714 527.206 561.838 527.302C564.992 527.407 568.187 527.109 571.5 526.607Z" fill="#E6E6E6"/>
<path d="M750.844 718.5C746.198 719.715 741.521 720.817 736.816 721.805C734.904 719.997 732.973 718.209 731.022 716.44C701.648 689.854 688.571 651.888 677.599 626.787C666.638 601.698 651.576 582.966 602.439 542.492C551.338 500.401 542.166 470.625 551.132 455.153C561.121 437.915 586.696 438.735 611.879 453.847C657.278 480.098 709.219 539.782 726.41 547.377C755.095 560.052 777.856 583.82 792.235 576.083C792.649 575.856 793.052 575.58 793.454 575.232C810.962 605.425 851.059 692.321 750.844 718.5Z" fill="#F7D2D4"/>
<path d="M620.395 469.692C625.574 483.229 596.228 515.875 581.218 511.097C580.148 510.756 540.128 478.841 558.164 456.009C576.2 433.178 620.395 469.692 620.395 469.692Z" fill="#FAE8E9"/>
<path d="M392.4 871.597C392.4 879.338 376.685 885.612 357.301 885.612C337.915 885.612 322.2 879.337 322.2 871.597V862.877C322.2 862.877 340.807 857.581 357.301 857.581C373.89 857.581 392.4 862.939 392.4 862.939V871.597Z" fill="#EB8F52"/>
<path d="M391.041 862.837V870.519C391.041 878.168 375.432 884.368 356.176 884.368C342.455 884.368 330.59 881.218 324.9 876.642C329.869 881.883 342.603 885.612 357.535 885.612C376.791 885.612 392.4 879.412 392.4 871.763V863.208C392.4 863.208 391.916 863.069 391.041 862.837Z" fill="#E08241"/>
<path d="M357.3 876.853C376.685 876.853 392.4 870.578 392.4 862.837C392.4 855.096 376.685 848.821 357.3 848.821C337.915 848.821 322.2 855.096 322.2 862.837C322.2 870.578 337.915 876.853 357.3 876.853Z" fill="#FFBC8F"/>
<path d="M325.701 865.33C325.701 857.483 341.415 851.121 360.799 851.121C372.236 851.121 382.392 853.337 388.8 856.765C383.079 852.06 371.125 848.821 357.298 848.821C337.914 848.821 322.2 855.183 322.2 863.031C322.2 866.248 324.845 869.215 329.296 871.597C326.998 869.706 325.701 867.58 325.701 865.33Z" fill="#FFC8A3"/>
<path d="M385.904 854.953C387.662 856.605 388.636 858.42 388.636 860.324C388.636 867.984 372.914 874.192 353.519 874.192C341.707 874.192 331.266 871.887 324.9 868.356C330.215 873.348 342.712 876.853 357.284 876.853C376.679 876.853 392.4 870.644 392.4 862.985C392.401 859.99 389.99 857.22 385.904 854.953Z" fill="#FAAE7C"/>
<path d="M380.7 857.792L338.68 866.341L333.9 863.998L374.229 855.829L380.7 857.792Z" fill="#EB8F52"/>
<path d="M427.521 873.399C424.32 880.467 407.333 880.319 389.578 873.069C371.824 865.819 360.024 854.213 363.224 847.146L366.828 839.186C366.828 839.186 386.06 841.308 401.166 847.477C416.361 853.681 431.1 865.495 431.1 865.495L427.521 873.399Z" fill="#E06BAE"/>
<path d="M429.994 864.55L426.754 871.694C423.528 878.807 406.406 878.658 388.509 871.361C375.757 866.162 366.059 858.738 362.7 852.325C365.107 859.082 375.37 867.376 389.247 873.033C407.144 880.329 424.266 880.479 427.492 873.366L431.1 865.41C431.1 865.41 430.71 865.097 429.994 864.55Z" fill="#D1589D"/>
<path d="M431.347 865.425C434.558 858.311 422.714 846.629 404.891 839.332C387.069 832.035 370.017 831.887 366.805 839C363.593 846.113 375.437 857.795 393.26 865.092C411.083 872.389 428.135 872.538 431.347 865.425Z" fill="#FF8FCF"/>
<path d="M369.085 842.534C372.276 835.451 389.214 835.599 406.92 842.866C417.366 847.153 425.741 852.961 430.2 858.457C426.887 852.067 417.285 844.662 404.656 839.478C386.952 832.212 370.013 832.063 366.821 839.146C365.513 842.051 366.723 845.719 369.821 849.538C368.49 846.97 368.17 844.565 369.085 842.534Z" fill="#FFA8D9"/>
<path d="M428.873 855.721C429.798 857.896 429.93 859.929 429.132 861.681C425.919 868.727 408.869 868.58 391.049 861.351C380.195 856.95 371.568 850.937 367.2 845.317C369.991 851.89 380.004 859.771 393.393 865.202C411.214 872.429 428.264 872.578 431.476 865.532C432.732 862.777 431.678 859.33 428.873 855.721Z" fill="#FA82C7"/>
<path d="M423 856.705L380.557 848.466L377.1 844.441L417.819 852.382L423 856.705Z" fill="#E06BAE"/>
<path d="M243.063 863.713L252 851.105L235.815 841.288C234.26 840.346 232.402 839.927 230.553 840.1L230.543 840.094C229.333 840.203 228.164 840.562 227.124 841.144C226.083 841.726 225.197 842.517 224.531 843.458C223.942 844.286 223.537 845.214 223.339 846.188C223.142 847.162 223.155 848.162 223.378 849.131C223.591 850.101 224.009 851.021 224.61 851.839C225.211 852.657 225.982 853.356 226.878 853.896L243.063 863.713Z" fill="#99C7FF"/>
<path d="M243.068 863.713L242.025 863.08L248.138 854.45C248.586 853.818 248.744 853.048 248.578 852.309C248.411 851.57 247.935 850.922 247.253 850.508L233.65 842.252C232.096 841.31 230.239 840.89 228.391 841.063L228.382 841.057C227.845 841.11 227.315 841.21 226.8 841.358C227.92 840.656 229.211 840.222 230.556 840.094L230.566 840.1C232.414 839.927 234.271 840.346 235.825 841.288L252 851.105L243.068 863.713Z" fill="#7AADEB"/>
<path d="M270.466 871.572C271.053 870.714 271.458 869.754 271.658 868.746C271.857 867.738 271.847 866.702 271.628 865.697C271.411 864.693 270.989 863.739 270.387 862.891C269.786 862.043 269.015 861.317 268.121 860.754L251.934 850.573L243 863.64L259.187 873.82C260.479 874.635 261.987 875.079 263.533 875.1C265.08 875.121 266.6 874.717 267.915 873.937C268.937 873.34 269.809 872.532 270.466 871.572Z" fill="#52A0FF"/>
<path d="M267.806 873.939C266.275 874.821 264.48 875.218 262.688 875.07C263.318 874.88 263.921 874.62 264.485 874.296C265.537 873.698 266.433 872.89 267.108 871.929C267.712 871.072 268.128 870.111 268.333 869.103C268.538 868.095 268.528 867.059 268.303 866.055C268.079 865.05 267.646 864.097 267.027 863.249C266.408 862.4 265.617 861.674 264.697 861.112L250.2 852.243L251.374 850.573L268.018 860.755C269.953 861.938 271.178 863.739 271.623 865.698C271.976 867.271 271.798 868.908 271.115 870.383C270.431 871.858 269.276 873.1 267.806 873.939Z" fill="#4D96F0"/>
<path d="M227.926 852.078C227.581 852.34 227.127 852.308 226.818 852.012C225.647 850.888 225.008 849.34 225 847.772C224.998 847.385 225.419 847.036 225.825 847.072C226.268 847.111 226.567 847.434 226.569 847.847C226.569 847.932 226.571 848.017 226.575 848.101L226.576 848.125L226.584 848.218C226.623 848.538 226.691 848.854 226.789 849.162C226.802 849.203 226.817 849.243 226.829 849.283C226.859 849.359 226.89 849.435 226.923 849.51C227.053 849.807 227.215 850.089 227.397 850.36L227.47 850.456C227.63 850.661 227.805 850.854 227.994 851.035C228.285 851.312 228.244 851.838 227.926 852.078ZM250.839 867.269L230.447 854.631C229.604 854.108 230.462 852.872 231.307 853.395L251.698 866.032C252.544 866.556 251.685 867.793 250.839 867.269ZM253.493 868.843C252.648 868.322 253.507 867.085 254.353 867.607C255.198 868.128 254.339 869.365 253.493 868.843Z" fill="#A7A9AC"/>
<path d="M220.342 875.101L220.5 860.383L201.557 860.209C199.737 860.194 197.967 860.755 196.543 861.799H196.532C195.597 862.479 194.839 863.344 194.315 864.329C193.79 865.315 193.512 866.397 193.501 867.495C193.489 868.463 193.685 869.422 194.078 870.319C194.472 871.216 195.055 872.031 195.793 872.719C196.521 873.411 197.392 873.964 198.354 874.343C199.317 874.722 200.351 874.92 201.397 874.926L220.342 875.101Z" fill="#FF8FCF"/>
<path d="M220.343 875.101L219.133 875.09L219.24 865.016C219.248 864.279 218.941 863.569 218.387 863.042C217.833 862.516 217.076 862.216 216.285 862.208L200.5 862.062C198.698 862.047 196.944 862.608 195.533 863.652H195.522C195.113 863.957 194.737 864.298 194.4 864.671C194.917 863.548 195.725 862.561 196.752 861.799H196.763C198.174 860.755 199.928 860.194 201.731 860.209L220.5 860.383L220.343 875.101Z" fill="#F580C3"/>
<path d="M247.5 868.262C247.511 867.238 247.315 866.223 246.924 865.274C246.533 864.325 245.954 863.461 245.22 862.731C244.487 862 243.614 861.418 242.651 861.017C241.687 860.616 240.653 860.404 239.606 860.393L220.658 860.209L220.5 875.792L239.447 875.976C240.96 875.993 242.447 875.587 243.733 874.805C245.018 874.024 246.048 872.9 246.702 871.566C247.215 870.536 247.487 869.407 247.5 868.262Z" fill="#E660AD"/>
<path d="M246.697 871.576C245.953 873.087 244.727 874.323 243.202 875.101C243.604 874.624 243.946 874.102 244.221 873.546C244.737 872.515 245.011 871.386 245.023 870.239C245.034 869.215 244.837 868.199 244.444 867.249C244.051 866.299 243.469 865.434 242.731 864.703C241.995 863.972 241.117 863.389 240.149 862.987C239.181 862.586 238.141 862.374 237.089 862.363L220.5 862.202L220.52 860.209L239.565 860.393C240.618 860.404 241.658 860.616 242.626 861.017C243.594 861.419 244.471 862.002 245.208 862.733C245.946 863.464 246.528 864.329 246.921 865.279C247.314 866.229 247.511 867.245 247.5 868.269C247.486 869.416 247.212 870.545 246.697 871.576Z" fill="#DB53A1"/>
<path d="M200.455 873.082C200.312 873.479 199.901 873.682 199.462 873.589C197.793 873.238 196.335 872.26 195.407 870.944C195.178 870.619 195.335 870.112 195.705 869.936C196.11 869.744 196.557 869.864 196.802 870.211C196.852 870.282 196.904 870.352 196.957 870.421L196.972 870.441L197.034 870.514C197.254 870.765 197.499 870.996 197.766 871.205L197.871 871.287C197.942 871.335 198.013 871.384 198.086 871.43C198.373 871.613 198.678 871.768 198.994 871.904L199.113 871.948C199.371 872.039 199.636 872.113 199.906 872.169C200.313 872.254 200.588 872.718 200.455 873.082ZM229.107 874.225L204.126 873.95C203.092 873.939 203.105 872.461 204.141 872.472L229.123 872.746C230.157 872.758 230.142 874.236 229.107 874.225ZM232.317 874.201C231.283 874.192 231.296 872.714 232.332 872.723C233.366 872.732 233.351 874.21 232.317 874.201Z" fill="#A7A9AC"/>
<defs>
<clipPath id="clip0_6_398">
<rect width="346.5" height="294.964" fill="white" transform="translate(921.6 153.296)"/>
</clipPath>
</defs>
</svg>
