<svg xmlns="http://www.w3.org/2000/svg" xmlns:xlink="http://www.w3.org/1999/xlink" enable-background="new 0 0 850 850" viewBox="0 0 850 850"><path fill="#f4f4f4" d="M210.3,241c-0.1-11.3,1.8-14.6-1.1-19.5c0,0,0-0.1-0.1-0.1c-1.3-2.2-3.3-3.9-5.6-4.8
				c-0.3-0.1-0.6-0.3-0.8-0.5c-0.5-0.4-0.7-0.9-0.8-1.2c-0.2-0.4-0.9-2-1.9-2.3v-29h-1.2v29.1c-0.7,0.3-1.3,1-1.4,1.1
				c-0.1,0.2-0.3,0.3-0.3,0.3c-0.1,0.1-0.1,0.2-0.2,0.3c-0.4,0.7-1.2,1.1-1.9,1.1l-5.6,0.3c-3.7,0-7.3,1.7-9.5,4.7
				c-0.1,0.2-0.3,0.4-0.4,0.6c-3,4.6-1.5,7.7-2.5,17.9c-0.8,8.2-2.2,11.4-1.6,14.9c0.2,1.3,0.7,2.3,0.9,2.6c0,0,1.6,3.5,5.4,6.3
				c2.1,1.6,5.7,2.6,10,2.8v1.9c0,0.4,0.4,0.8,0.8,0.8h1.9c0.4,0,0.8-0.4,0.8-0.8v-2c1.5-0.1,3.1-0.3,4.8-0.6c3.7-0.7,7-2.7,9.1-5.9
				c0.1-0.2,0.3-0.4,0.4-0.7c0.2-0.3,0.7-1.2,1.1-2.5C211.5,252.6,210.4,249.2,210.3,241z"/><path fill="#46c671" d="M298.6,687.2h-55.8V184.3h55.8c2.7,0,4.9-2.2,4.9-4.9c0-2.7-2.2-4.9-4.9-4.9H177.4c-2.7,0-4.9,2.2-4.9,4.9
				c0,2.7,2.2,4.9,4.9,4.9h55.8v502.9h-55.8c-2.7,0-4.9,2.2-4.9,4.9s2.2,4.9,4.9,4.9h121.2c2.7,0,4.9-2.2,4.9-4.9
				S301.3,687.2,298.6,687.2z"/><path fill="#c4c4c4" d="M180.9,232.6c1.4-0.5,3.5-1.2,6-1.2c2.6,0,3.1,0.6,5.9,0.8c3.4,0.1,4.3-0.8,7.4-1c1.8-0.1,4.3,0.1,7.5,1.4
				c-3.4,1.8-6.8,3.5-10.2,5.3l-11.7-0.7L180.9,232.6z"/><path fill="#b5e8c6" d="M238.2,461.5h-5c-22.3,0-40.4-18.1-40.4-40.4v-154c0-0.3,0.3-0.6,0.6-0.6c0.3,0,0.6,0.3,0.6,0.6v154
				c0,21.6,17.6,39.2,39.2,39.2h5c10.9,0,20.9-5.5,26.8-14.6l1.4-2.2c0.2-0.3,0.5-0.4,0.8-0.2c0.3,0.2,0.4,0.5,0.2,0.8l-1.4,2.2
				C259.9,455.8,249.5,461.5,238.2,461.5z"/><path fill="#c4c4c4" d="M207.7,232.6c-1-0.1-2.6-0.2-4.5-0.1c-5.3,0.3-7.9,1.6-11.3,2c-2.5,0.3-6.2,0.2-11-2
				c0.2,3.3-0.2,5.9-0.3,7.7c-0.6,6.6-1.8,9.2-1.3,12c0.2,1.1,0.6,1.9,0.7,2.1c0,0,1.2,2.8,4.3,5.1c1.7,1.3,4.6,2.1,8.2,2.3v6.6h1.9
				v-6.6c1.5,0,3-0.2,4.7-0.5c3-0.6,5.7-2.2,7.3-4.7c0.1-0.2,0.2-0.4,0.3-0.5c0.1-0.2,0.6-1,0.9-2c0.8-2.7-0.1-5.4-0.2-12
				C207.3,237.7,207.6,234.9,207.7,232.6z"/><path fill="#f4f4f4" d="M295.8,691.2h19.8V565.7h42.9v125.5h19.8c1.3,0,2.4,1.1,2.4,2.4v1.3c0,1.3-1.1,2.4-2.4,2.4h-82.5
			c-1.3,0-2.4-1.1-2.4-2.4v-1.3C293.4,692.3,294.5,691.2,295.8,691.2z"/><path fill="#c4c4c4" d="M235.5,613.4h-11.1l8.8-43.6l1.7-12.9h167.9v6.1c0,7.7-6.2,13.9-13.9,13.9H286c-2.6,0-4.7,1.8-5.2,4.3
			l-6.5,32.3h-11.1l6.6-33c0.4-1.9-1.1-3.6-3-3.6h-20c-2.3,0-4.3,1.6-4.7,3.9L235.5,613.4z"/><path fill="#c4c4c4" d="M230.1,480.1c-0.4-2.2,0.8-4.4,2.8-4.9l59-15c0.6-0.2,1.2-0.2,1.9-0.2h61.1c2,0,3.7,1.9,3.7,4.1l0,0
			c0,2.3-1.6,4.1-3.7,4.1h-60.2c-0.3,0-0.5,0-0.8,0.1l-59.3,15C232.5,483.8,230.6,482.4,230.1,480.1L230.1,480.1z"/><path fill="#99e4a5" d="M223.8,478l85.5-20.9c3.2-0.8,5.2-4.3,4.5-7.9l0,0c-0.7-3.6-3.8-5.9-7-5.1L221.3,465
			c-3.2,0.8-5.2,4.3-4.5,7.9l0,0C217.5,476.5,220.6,478.7,223.8,478z"/><path fill="#37b561" d="M356.3,389.7c0.2,0.5,0.5,1,0.9,1.5c0.6,0.8,1.2,1.5,2,2.1c0.4,0.3,0.8,0.5,1.2,0.8c1.3,0.6,2.7,1,4.3,1h50.2
			c4.1,0,7.7-2.6,8.8-6.5l11.9-40c1.1-3.8-0.5-7.7-3.5-9.8c-0.3-0.2-0.5-0.4-0.9-0.5c-1.1-0.6-2.3-1-3.6-1.1c1.1,2,1.4,4.3,0.7,6.7
			l-11.6,40c-1.1,3.8-4.6,6.5-8.6,6.5h-48.7C358.3,390.3,357.3,390.1,356.3,389.7z"/><path fill="#37b561" d="M356.3,389.7c1,0.4,2,0.6,3.1,0.6h48.7c4,0,7.5-2.6,8.6-6.5l11.6-40c0.7-2.4,0.4-4.7-0.7-6.7
			c-0.3,0-0.6-0.1-0.9-0.1h-50.2c-4.1,0-7.7,2.6-8.8,6.5l-11.9,40C355.2,385.7,355.4,387.9,356.3,389.7z"/><path fill="#f4f4f4" d="M460.4,363.7h-19.6h-75c-14.2,0-26.9,11.4-31.7,28.4l-36.7,130.2c-2.3,8.3-9.2,13.9-16.9,13.9h-56.5
			c-7.5,0-13.6,6.9-13.6,15.4v9.6c0,4.8,3.4,8.6,7.7,8.6h131.7h59.4c12.8,0,24.1-9.3,27.9-23l3-10.6l39-138.6
			C483.9,381.1,474.2,363.7,460.4,363.7z M413.9,526.3C413.9,526.3,413.9,526.3,413.9,526.3l39.4-140L413.9,526.3z"/><path fill="#f4f4f4" d="M185.5,667.5h131.2c3.9,0,7.3-3.5,8.3-8.4l10.9-55.3c1.1-5.6-2.1-11-6.5-11H200.2L185.5,667.5z"/><path fill="#f4f4f4" d="M175.8,667.5h114.7c8,0,14.9-7.1,16.9-17.2l8.9-45.4c1.2-6.2-2.4-12.2-7.2-12.2H194.4
			c-8,0-14.9,7.1-16.9,17.2l-8.9,45.4C167.4,661.4,171,667.5,175.8,667.5z"/><path fill="#fcc0a9" d="M405.4,349.9c-5,13.6-18.6,21.3-31.3,18.8c-9.7-1.9-17.7-9.7-20.6-19.9c1.1-0.5,2.2-1.1,3.3-1.7
			c0.7-0.4,1.3-0.7,1.9-1.1c1.7-0.9,2.9-4.1,5-5c1.7-0.8,4.1-1.5,5.6-2.1c0-0.6,0,0.9,0,0c0-1,0.1-2.2,0.1-3.6
			c0.1-1.3,0.3-5.2,0.9-10.6c0.6-5.1,1.6-11.9,1.9-14.1c0-0.2,0-0.3,0.1-0.5c0-0.3,0.1-0.6,0.1-0.9c0-0.2,0.1-0.4,0.1-0.6
			c0.2,0.2,0.4,0.5,0.7,0.7c0,0,0,0,0.1,0c2.9,2.6,7.1,1.6,10.4,2l0.1,0c0.2,0,0.3,0.1,0.5,0.1c2.2,0.4,4.5,0.9,6.8,1.3
			c1.4,0.3,2.8,0.5,4.2,0.8l-1.3,9.3l-2.6,18c-0.2,1.5,0.6,2.9,1.9,3.5c0,0,0,0,0,0c2.4,1,4.2,1.6,5.1,1.9
			C400.1,346.9,402.5,347.9,405.4,349.9z"/><path fill="#fc9a73" d="M393,313.2c-0.8,2.3-2,5.4-3.8,9.1c-2.2,4.7-3.4,7.2-5.7,9.7c-1.6,1.8-4.1,4.5-8.3,5.9
			c-2.4,0.8-4.5,0.9-6,0.9c0-1,0.1-2.3,0.1-3.6c0.1-1.3,0.3-5.2,0.9-10.6c0.7-4.7,1.3-9.4,1.9-14.1c0-0.2,0-0.4,0.1-0.5
			c0-0.3,0.1-0.6,0.1-0.9c0-0.2,0-0.4,0.1-0.6c0.2,0.2,0.4,0.5,0.7,0.8c0,0,0,0,0,0c2.9,2.6,7.1,1.6,10.4,2h0.1
			c0.2,0,0.3,0.1,0.5,0.1c2.2,0.4,4.5,0.9,6.8,1.3C391.7,312.9,392.4,313,393,313.2z"/><path fill="#fcc0a9" d="M396.8,303.5C396.7,303.5,396.7,303.5,396.8,303.5c-1.7,6.1,0.2,8.7-1.2,12c-0.2,0.4-0.3,0.7-2.7,3.1
			c-2.5,2.6-4.6,4.8-6.3,6.4c-0.3,0.3-1.2,0.7-2.3,1.3c-2.1,0.9-4,1.2-8.2,1.5c-2,0.1-4.5,0.2-7.3,0.1c-0.6,0-1.1-0.3-1.4-0.8
			c-0.7-1.1-1.6-2.5-2.5-4.1c-1.1-2-1.8-3.2-2.4-5.1c-0.2-0.7-0.9-2.8-1.2-5.8c-0.1-1.5-0.1-2.8,0-4.5c0.2-2.4,0.4-5.7,1-9.8
			c-0.1-2.1-0.1-5.2,0.3-8.9c0.6-5.8,1-9.9,2.9-12.7c4.9-7.4,22.6-9,30-0.9C402.4,283.2,398.2,298.3,396.8,303.5z"/><path fill="#0a0a0c" d="M393.3,318.1c0.3-1.4,0.5-2.6,0.7-3.4c0,0,1.5-5.7,1.1-7.5c-0.1-0.3-0.1-0.4-0.2-0.5c0,0-0.1-0.2-0.2-0.4
			c-0.2-0.5-0.9-0.6-1.1-0.8c-0.9-0.7,1.1-3.5,0.3-5.6c-0.6-1.6-2.2-1.1-3.2-2.7c-1.7-2.7,2.1-6.1,1-9.7c-0.6-2-2.3-2.9-4.5-4.2
			c-8.6-4.9-18.5-2.6-20.8-0.6c-2,1.8-3,4.1-3,4.1c0,0,0,0,0,0c-0.9,1.9-1.1,3.7-1.1,4.8c-0.6-2-1.3-5.4-0.7-9.7
			c0.2-1.2,0.7-4.6,2.7-7.8c4.6-7.3,13.8-8.6,16.6-9c11.6-1.6,19.3,4.6,19.8,5.1c1,1,1.7,2,1.7,2c0.5,0.8,0.9,1.6,1.2,2.2
			c3.2,1.8,4.8,3.9,5.7,5.3c6,9.7-1,25.4-9.9,33.9C396.9,315.8,394.6,317.3,393.3,318.1z"/><path fill="#fcc0a9" d="M395.5,302.4c0.5-0.9,1.1-1.9,2.2-2.8c1.3-1,3.8-2,5.4-1c2.2,1.3,1.7,5.6,0.9,7.8c-1.3,3.6-4.4,5.5-6.1,5.9
			c-0.5,0.1-1.7,0.3-2.8-0.3c-0.3-0.2-0.5-0.4-0.6-0.5c-0.6,1.5-1.1,3.1-1.7,4.6l-1.5-5.4C393,307.1,394.4,304.3,395.5,302.4z"/><path fill="#fcc0a9" d="M242.6,447.2c5.7-1.1,11.3-2.1,17-3.2c15.6-7.5,31.3-15,46.9-22.5c5.2-10.4,10.4-20.9,15.6-31.3
			c7.9,6.1,15.7,12.2,23.6,18.2c-7.5,9.5-15.1,19.1-22.6,28.6c-1.3,1.6-3.1,2.8-5.1,3.4c-17.1,4.7-34.3,9.3-51.4,14
			c0,0-6.5,8.3-7.1,9c-0.6,0.7-5.5,2.1-5.5,2.1c-0.3-0.4-0.5-1.1-0.4-1.8c0.2-1.1,1.3-1.5,2.2-2.4c0.7-0.7,1.5-1.8,1.9-3.8
			c-1.7,0.2-3.2,0.5-4.2,0.8c-1.4,0.3-2,0.5-2.5,0.9c-0.9,0.6-1.6,1.3-2.2,1.9c-1.1,1.8-1.7,3.4-2.1,4.5c-0.3,1-0.5,1.9-1.3,2.5
			c-0.8,0.5-1.7,0.5-2.4,0.3c0-0.9,0.1-2,0.4-3.2c0.5-2,1.4-3.5,2.1-4.4c-1.5,0.3-2.3,1-2.8,1.5c-1,1.3-0.7,2.7-1.8,3.6
			c-0.6,0.5-1.3,0.6-1.8,0.6c-0.1-1.2-0.2-3,0.2-5c0.6-3.1,2-5.3,2.9-6.5l-0.9,0.3c-0.6,0.5-1.2,1.2-1.8,1.7c-0.3,0.8-0.4,1.5-0.6,2
			c-0.2,0.9-0.3,1.4-0.7,1.7c-0.4,0.3-0.9,0.4-1.3,0.3c-0.2-1.9-0.3-3.8-0.5-5.7C238.7,452.2,240.3,450.2,242.6,447.2z"/><path fill="#b5e8c6" d="M289.4,436.3l7.9-3.5c1.5-0.6,2.1-2.4,1.5-3.8l-0.5-1.2c-0.6-1.5-2.4-2.1-3.8-1.5l-7.9,3.5
			c-1.5,0.6-2.1,2.4-1.5,3.8l0.5,1.2C286.2,436.2,288,436.9,289.4,436.3z"/><path fill="#b5e8c6" d="M291.5,429.4c0,0.3-0.2,0.5-0.5,0.5c-0.9,0-1.8,0.1-2.6,0.3c-2.4,0.5-4.4,1.6-6,2.8l-3.3,1.6
			c2.6-2.8,5.7-4.6,9.1-5.3c0.9-0.2,1.8-0.3,2.8-0.4C291.2,428.9,291.4,429.2,291.5,429.4z"/><path fill="#1987c5" d="M317.2,399c3.9,3.7,11.5,10,22.8,12.5c3.8,0.8,7.3,1.1,10.3,1.1c0.3-14.1,0.8-36.9,1.2-64.8
			c-1.2,0.6-2.7,1.3-4.2,2.4c-2.2,1.5-3.6,3-4.7,4.1c-5.8,6.2-9.4,12.1-9.4,12.1C325.7,378.4,317.8,397.5,317.2,399z"/><path fill="#fcc0a9" d="M188.5,683.3l-16.6-4.7c1.7-6.1,3.4-12.1,5.1-18.2c5.7,2,11.3,4,17,6C192.2,672.1,190.4,677.7,188.5,683.3z"/><path fill="#0a0a0c" d="M192.4,678.1l-22.5-6.3l-2.8,3.7c-6.8-2.5-12.6-4.1-16.8-5.1c-12.8-3-16-1.8-17.6-1c-3.1,1.7-5,4.5-6.2,7
			c-0.7,1.6,0.2,3.4,1.8,3.9l60.3,16.9c1.4,0.4,2.9-0.4,3.4-1.8c0.8-2.1,1.5-4.9,1.6-8.2C193.9,683.3,193.1,680.2,192.4,678.1z"/><path fill="#262d62" d="M171.9,666.9c10.1-48.8,21.4-105,31.5-153.8c0.7-3.2,3-5.7,6-6.8L325.7,468c3.4-1.1,7.1-2.1,11.2-2.8
			c13.3-2.4,24.9-1.6,33.6-0.1c-0.2,12.9-2.2,45.9-24.3,59.7c-8,5-15.7,5.5-27.1,6.3c-18.1,1.3-39.9,3-70.4,5.4
			c-4.9,0.4-8.9,3.9-9.9,8.7c-0.7,3.5-1.6,7.5-2.7,11.8c-2.4,9.9-4.9,18.2-6.8,24.2c-0.9,2.9-1.7,5.2-2.3,6.8
			c-0.2,0.7-0.4,1.2-0.5,1.5c0,0,0,0.1-0.1,0.2c-0.2,0.5-8.3,29.9-28.1,85.7C189.8,672.3,180.3,670.1,171.9,666.9z"/><rect width="17.3" height="15.7" x="297.1" y="668.2" fill="#fcc0a9"/><path fill="#0a0a0c" d="M316.7,677.9h-23.4l-1.7,4.3c-7.2-0.6-13.2-0.5-17.6-0.4c-13.2,0.6-15.9,2.5-17.2,3.8c-2.6,2.4-3.6,5.7-4,8.4
			c-0.3,1.7,1.1,3.2,2.8,3.2h62.7c1.5,0,2.7-1.1,2.8-2.6c0.2-2.2,0.1-5.1-0.6-8.4C319.5,682.5,317.9,679.7,316.7,677.9z"/><path fill="#262d62" d="M319.2,671.2H290c-4.7-49.6-9.3-99.1-14-148.7c-1.1-11.2,4.4-22.1,14.1-27.9c25.9-15.7,43.9-26.9,50.2-31.7
			c1.4-1,5.7-3.8,12-5.9c0,0,5.5-1.4,11.5-0.7c10,1.1,23,11.2,32.5,27.7c-0.3,4.9-2,20.1-14,32.7c-8.8,9.2-18.6,12.6-22.6,13.7
			c-7.2,1.8-28.3,4-32.3,9.3C319.2,550.1,316.1,601.4,319.2,671.2z"/><path fill="#1987c5" d="M321.8,469.2c7.6-1.9,11.8-3.1,14.3-3.9c0.3-0.1,1.1-0.4,2.2-0.6c1.8-0.5,4.4-1.1,7.6-1.4c0,0,0,0,0,0
			c7.6,0.7,21,2.9,34.4,11.8c5.9,3.9,10.5,8.2,13.8,11.9c0.7,0.3,1.8,0.6,2.7,0.2c2.3-0.9,12-55.8,15.4-75.1c0.6-3.6,1.1-6,1.2-6.5
			c0.8-4.1,1.4-7.9,1.9-11.5c1.5-10.6,1.9-19.3,1.7-27.7c0-0.8,0-1.4,0-1.6c-0.1-2.3,0-6.2,0.3-12.8c-0.7-0.4-1.8-1-3.2-1.8
			c-4.9-2.8-7.4-4.5-9.3-5.6c-2.6-1.5-6.3-3.5-11.5-5.2c-0.4,1.6-2.7,9.4-10.2,13.5c-3.4,1.9-6.7,2.3-8.8,2.3
			c-0.8-0.2-5.9-1.3-8.8-6.1c-2.1-3.5-1.8-7-1.6-8.2c-1.6,1.1-3.3,2.2-5.2,3.3c-2.3,1.3-4.6,2.4-6.8,3.3c-3.1,1.3-4.6,3.7-6,5.4
			c-4.5,5.3-6.2,11.4-7.2,15.1c-3.4,13.2-3.7,25.5-4.8,34.7c-2,16-4.5,16.1-8.4,37.8c-0.2,1-0.4,2-0.5,3
			C323.1,454.5,322.2,463.5,321.8,469.2z"/><defs><path id="a" d="M321.8,469.2c7.6-1.9,11.8-3.1,14.3-3.9c0.3-0.1,1.1-0.4,2.2-0.6c1.8-0.5,4.4-1.1,7.6-1.4c0,0,0,0,0,0
					c7.6,0.7,21,2.9,34.4,11.8c5.9,3.9,10.5,8.2,13.8,11.9c0.7,0.3,1.8,0.6,2.7,0.2c2.3-0.9,12-55.8,15.4-75.1
					c-2-8.4-4.3-17.1-4.3-17.1c-3.1,4.3-7.6,10.9-12.4,19.3c-8.8,15.6-9.4,21.2-13.6,26.1c-6.3,7.3-20.8,12.6-57,3.3
					C323.1,454.5,322.2,463.5,321.8,469.2z"/></defs><clipPath id="b"><use overflow="visible" xlink:href="#a"/></clipPath><polygon fill="#fefefe" points="412.1 402.7 404.9 395 412.1 395" clip-path="url(#b)"/><polygon fill="#fdfdfd" points="412.1 411.9 396.3 395 404.9 395 412.1 402.7" clip-path="url(#b)"/><polygon fill="#fcfcfd" points="412.1 421.1 387.6 395 396.3 395 412.1 411.9" clip-path="url(#b)"/><polygon fill="#fbfbfc" points="412.1 430.3 378.9 395 387.6 395 412.1 421.1" clip-path="url(#b)"/><polygon fill="#fafbfb" points="412.1 439.6 371.9 396.8 373.8 395 378.9 395 412.1 430.3" clip-path="url(#b)"/><polygon fill="#f9fafa" points="412.1 448.8 367.3 401.1 371.9 396.8 412.1 439.6" clip-path="url(#b)"/><polygon fill="#f8f9fa" points="412.1 458 362.7 405.4 367.3 401.1 412.1 448.8" clip-path="url(#b)"/><polygon fill="#f7f8f9" points="412.1 467.2 358.1 409.7 362.7 405.4 412.1 458" clip-path="url(#b)"/><polygon fill="#f6f7f8" points="412.1 476.4 353.5 414.1 358.1 409.7 412.1 467.2" clip-path="url(#b)"/><polygon fill="#f4f6f7" points="412.1 476.7 407.7 480.9 348.9 418.4 353.5 414.1 412.1 476.4" clip-path="url(#b)"/><rect width="6.3" height="85.8" x="372.9" y="408.9" fill="#f3f5f6" clip-path="url(#b)" transform="rotate(-43.241 376.026 451.78)"/><polygon fill="#f2f4f6" points="403.1 485.2 400.5 487.6 396.7 487.6 339.7 427 344.3 422.7" clip-path="url(#b)"/><polygon fill="#f1f3f5" points="388.1 487.6 335.1 431.3 339.7 427 396.7 487.6" clip-path="url(#b)"/><polygon fill="#f0f3f4" points="379.4 487.6 330.6 435.7 335.1 431.3 388.1 487.6" clip-path="url(#b)"/><polygon fill="#eff2f3" points="370.8 487.6 326 440 330.6 435.7 379.4 487.6" clip-path="url(#b)"/><polygon fill="#eef1f3" points="362.1 487.6 321.8 444.8 321.8 443.9 326 440 370.8 487.6" clip-path="url(#b)"/><polygon fill="#edf0f2" points="353.4 487.6 321.8 454 321.8 444.8 362.1 487.6" clip-path="url(#b)"/><polygon fill="#eceff1" points="344.8 487.6 321.8 463.2 321.8 454 353.4 487.6" clip-path="url(#b)"/><polygon fill="#eceff1" points="321.8 463.2 344.8 487.6 321.8 487.6" clip-path="url(#b)"/><g><path fill="#c4c4c4" d="M348.7,494.5c-0.4-2.2,0.8-4.4,2.8-4.9l59-15c0.6-0.2,1.2-0.2,1.9-0.2h61.1c2,0,3.7,1.9,3.7,4.1v0
			c0,2.3-1.6,4.1-3.7,4.1h-60.2c-0.3,0-0.5,0-0.8,0.1l-59.3,15C351.1,498.1,349.1,496.7,348.7,494.5L348.7,494.5z"/></g><g><path fill="#99e4a5" d="M342.4,492.4l85.5-20.9c3.2-0.8,5.2-4.3,4.5-7.9l0,0c-0.7-3.6-3.8-5.9-7-5.1l-85.5,20.9
			c-3.2,0.8-5.2,4.3-4.5,7.9v0C336.1,490.9,339.2,493.1,342.4,492.4z"/></g><g><path fill="#fcc0a9" d="M328.3,479.5c5.6-1.7,11.3-3.5,16.9-5.2l46-32.2c2.9-12.3,5.7-24.6,8.6-36.9c8.6,2.8,17.3,5.7,25.9,8.5
			c-3.4,12.9-6.8,25.9-10.2,38.8c-1,3.6-3.6,6.6-7,8.1c-18,7.6-36,15.2-53.9,22.7c-1.8,2.4-3.6,3.4-5.1,3.8c-3.5,0.9-9.3,3-10.4,4.1
			c-0.8,0.8-1.5,1.6-2,2.3c-0.8,2-1.2,3.7-1.3,5c-0.1,1.1-0.1,2.1-0.8,2.8c-0.7,0.7-1.7,0.8-2.5,0.8c0.4-2.7,0.8-5.5,1.1-8.2
			c-1.3,0.5-2.1,1.3-2.6,2.1c-0.9,1.6-0.2,3-1.2,4c-0.6,0.6-1.6,0.6-2.4,0.6c0.3-3.9,0.5-7.9,0.8-11.8c-0.5,0.6-0.9,1.1-1.4,1.7
			c0.5,2.3,0.5,4.1,0,4.8c-0.3,0.4-0.6,0.5-0.6,0.5c-0.6,0.3-1.2,0.1-1.3,0.1c-0.6-2.2-1.3-4.5-1.9-6.7
			C325.1,485.3,326.3,483.1,328.3,479.5z"/></g><g><path fill="#1987c5" d="M395.8,408.4c5-15,10-30.2,15-45.5c1.3-4.1,2.7-8.3,4-12.4c3.3,1.7,6.4,3.3,9.4,5c2,1.1,4.4,2.4,6.6,5
			c0.2,0.2,0.4,0.5,0.7,0.9c2.4,3,5.7,9,5.1,22.6c-0.7,15.2-5.9,29.1-8.5,35.4C417.3,415.7,406.5,412.1,395.8,408.4z"/></g><g><polygon fill="#f4f4f4" points="723.7 152.7 723.7 323.8 549 323.8 511.2 351.8 511.2 320.7 483.2 320.7 483.2 152.7"/><rect width="184.5" height="17.7" x="508.1" y="266" fill="#46c671"/><rect width="80.4" height="7.9" x="615.3" y="189.6" fill="#46c671"/><rect width="80.4" height="7.9" x="615.3" y="210.9" fill="#46c671"/><rect width="80.4" height="7.9" x="615.3" y="232.2" fill="#46c671"/><path fill="#37b561" d="M542.4,188.9c-3.7-9.9-13.1-15.2-22.1-15.2c-12.2,0-22.1,10.2-22.1,22.8c0,30.4,44.3,53.1,44.3,53.1
				s44.3-22.8,44.3-53.1c0-12.6-9.9-22.8-22.1-22.8C555.4,173.8,546.1,179.1,542.4,188.9z"/><path fill="#fff" d="M542.4,235.8c-0.3,0-0.6-0.2-0.7-0.5l-12-33.6l-2.2,15.3c-0.1,0.4-0.4,0.7-0.8,0.7h-22.1
					c-0.4,0-0.8-0.3-0.8-0.8c0-0.4,0.3-0.8,0.8-0.8H526l2.6-17.7c0.1-0.4,0.3-0.6,0.7-0.7c0.4,0,0.7,0.2,0.8,0.5l12.3,34.3l5.4-16.9
					c0.1-0.3,0.4-0.5,0.7-0.5c0.3,0,0.6,0.2,0.7,0.4l5.4,11.2l8.4-10.6c0.1-0.2,0.4-0.3,0.6-0.3h16.7c0.4,0,0.8,0.3,0.8,0.8
					s-0.3,0.8-0.8,0.8H564l-8.9,11.2c-0.2,0.2-0.4,0.3-0.7,0.3c-0.3,0-0.5-0.2-0.6-0.4l-5.1-10.6l-5.5,17.2
					C543,235.6,542.7,235.8,542.4,235.8C542.4,235.8,542.4,235.8,542.4,235.8z"/></g></svg>