<svg width="980" height="835" viewBox="0 0 980 835" fill="none" xmlns="http://www.w3.org/2000/svg">
<path d="M51.0396 494.401L53.1191 506.386L56.7834 506.309L59.2682 494.52L56.016 488.383L51.0396 494.401Z" fill="#353434"/>
<path d="M980 311.869C980 343.663 965.685 375.387 937.385 399.549L920.436 413.907L714.191 589.267L508.271 413.907L491.322 399.549C457.178 370.486 443.442 330.638 450.272 292.958C454.796 267.747 468.453 243.585 491.322 224.185C519.951 200.094 557.055 187.909 594.405 187.909C631.834 187.909 668.941 200.094 697.571 224.185L714.52 238.543L731.136 224.185C788.066 175.723 880.372 175.723 937.385 224.185C942.65 228.668 947.421 233.43 951.616 238.402C970.539 260.115 980 285.959 980 311.869Z" fill="#F0F2F0"/>
<path d="M980 311.869C980 343.663 965.685 375.387 937.385 399.549L920.436 413.906L714.191 589.267L508.271 413.906L491.322 399.549C457.178 370.486 443.442 330.638 450.272 292.958C466.889 292.607 485.974 293.869 504.57 298.84C555.082 312.287 532.954 317.609 619.828 317.609C706.703 317.609 735.169 296.108 784.12 302.833C833.07 309.555 833.07 325.734 872.559 292.118C904.972 264.526 915.008 234.202 951.616 238.404C970.539 260.114 980 285.959 980 311.869Z" fill="#E02242"/>
<path d="M682.561 645.793C671.805 645.795 663.835 639.093 651.76 628.944C636.515 616.127 613.47 596.762 567.254 574.138C558.324 569.769 549.783 566.423 541.757 564.116C541.508 583.694 533.628 602.723 522.23 613.167C513.168 621.481 502.437 624.179 492.003 620.762C480.373 616.953 472.539 607.471 471.051 595.399C469.287 581.14 476.871 567.094 490.372 559.617C497.81 555.493 511.573 550.94 533.11 554.837C532.183 547.864 530.08 541.003 526.585 534.7C518.672 520.427 500.378 503.872 458.188 506.024C391.053 509.536 331.041 449.355 278.233 396.32C235.821 353.72 195.761 313.481 159.262 312.4C136.565 311.736 118.56 316.956 104.441 328.376C74.9251 352.255 60.9925 403.497 59.2683 494.517L51.043 494.401C52.807 401.348 67.5302 348.578 98.7739 323.299C114.574 310.514 134.419 304.595 159.551 305.401C199.681 306.583 240.887 347.97 284.512 391.787C336.067 443.569 394.478 502.226 457.696 499.031C504.434 496.627 525.021 515.478 534.023 531.705C538.332 539.482 540.701 548.036 541.471 556.684C550.285 558.977 560.224 562.617 571.35 568.064C618.493 591.14 641.989 610.89 657.54 623.961C674.097 637.877 678.927 641.333 690.936 637.116C711.902 629.738 713.313 566.686 712.091 543.017L720.31 542.708C720.788 551.922 724.113 633.016 694.079 643.587C689.793 645.097 686.03 645.793 682.561 645.793ZM517.284 560.307C508.67 560.307 501.112 562.023 494.857 565.487C483.924 571.545 477.788 582.998 479.23 594.666C480.389 604.066 486.272 611.376 494.956 614.221C503.999 617.182 511.51 612.697 516.201 608.401C526.834 598.654 534.027 580.521 533.655 562.108C527.864 560.909 522.39 560.307 517.284 560.307Z" fill="#E02242"/>
<path d="M108.331 600.291C108.331 625.756 84.0806 646.4 54.1657 646.4C24.2508 646.4 0 625.759 0 600.291C0 574.822 54.1657 516.14 54.1657 516.14C54.1657 516.14 108.331 574.825 108.331 600.291Z" fill="#E02242"/>
<path d="M726.426 568.833H702.142V597.07H726.426V568.833Z" fill="#E02242"/>
</svg>
