<svg xmlns="http://www.w3.org/2000/svg" fill-rule="evenodd" stroke-linejoin="round" stroke-miterlimit="2" clip-rule="evenodd" viewBox="0 0 2084 2084"><g transform="matrix(1.62869 0 0 1.7239 -7187.63 -180.674)"><rect width="1279.15" height="1208.5" x="4413.14" y="104.806" fill="none"/><g transform="matrix(.70597 0 0 .66698 3129.22 248.575)"><path fill="#ffc8b8" d="M2711.46,308.965L2711.5,271.439C2711.5,271.439 2717.72,214.367 2759.86,230.123C2759.86,230.123 2782.03,239.882 2805.21,268.672C2805.21,268.672 2838.16,252.781 2903.07,328.318C2903.07,328.318 2936.92,337.959 2996.43,414.803C2996.43,414.803 3061.8,492.242 3058.74,546.309C3058.74,546.309 3101.33,479.277 3144.68,514.082C3144.68,514.082 3170.04,538.742 3142.79,584.806C3142.79,584.806 3102.94,634.902 3076.54,705.742C3076.54,705.742 3057.99,753.937 3015.08,803.454C3015.08,803.454 2963.38,857.879 2960.23,919.143C2960.23,919.143 2961.09,986.959 2966.7,1027.24C2966.7,1027.24 2854.5,1071.68 2737.56,1043.77C2737.56,1043.77 2731.62,896.031 2711.46,833.235C2691.29,896.031 2685.35,1043.77 2685.35,1043.77C2568.41,1071.68 2456.22,1027.24 2456.22,1027.24C2461.82,986.959 2462.68,919.143 2462.68,919.143C2459.53,857.879 2407.83,803.454 2407.83,803.454C2364.92,753.937 2346.37,705.742 2346.37,705.742C2319.97,634.902 2280.12,584.806 2280.12,584.806C2252.87,538.742 2278.23,514.082 2278.23,514.082C2321.58,479.277 2364.17,546.309 2364.17,546.309C2361.12,492.242 2426.48,414.803 2426.48,414.803C2485.99,337.959 2519.84,328.318 2519.84,328.318C2584.75,252.781 2617.7,268.672 2617.7,268.672C2640.88,239.882 2663.05,230.123 2663.05,230.123C2705.19,214.367 2711.41,271.439 2711.41,271.439L2711.46,308.965Z"/><clipPath id="a"><path d="M2711.46,308.965L2711.5,271.439C2711.5,271.439 2717.72,214.367 2759.86,230.123C2759.86,230.123 2782.03,239.882 2805.21,268.672C2805.21,268.672 2838.16,252.781 2903.07,328.318C2903.07,328.318 2936.92,337.959 2996.43,414.803C2996.43,414.803 3061.8,492.242 3058.74,546.309C3058.74,546.309 3101.33,479.277 3144.68,514.082C3144.68,514.082 3170.04,538.742 3142.79,584.806C3142.79,584.806 3102.94,634.902 3076.54,705.742C3076.54,705.742 3057.99,753.937 3015.08,803.454C3015.08,803.454 2963.38,857.879 2960.23,919.143C2960.23,919.143 2961.09,986.959 2966.7,1027.24C2966.7,1027.24 2854.5,1071.68 2737.56,1043.77C2737.56,1043.77 2731.62,896.031 2711.46,833.235C2691.29,896.031 2685.35,1043.77 2685.35,1043.77C2568.41,1071.68 2456.22,1027.24 2456.22,1027.24C2461.82,986.959 2462.68,919.143 2462.68,919.143C2459.53,857.879 2407.83,803.454 2407.83,803.454C2364.92,753.937 2346.37,705.742 2346.37,705.742C2319.97,634.902 2280.12,584.806 2280.12,584.806C2252.87,538.742 2278.23,514.082 2278.23,514.082C2321.58,479.277 2364.17,546.309 2364.17,546.309C2361.12,492.242 2426.48,414.803 2426.48,414.803C2485.99,337.959 2519.84,328.318 2519.84,328.318C2584.75,252.781 2617.7,268.672 2617.7,268.672C2640.88,239.882 2663.05,230.123 2663.05,230.123C2705.19,214.367 2711.41,271.439 2711.41,271.439L2711.46,308.965Z"/></clipPath><g clip-path="url(#a)"><path fill="#d49987" d="M2972.71,669.297L3078.62,517.69C3080.59,514.862 3079.9,510.962 3077.07,508.987C3074.25,507.011 3070.35,507.703 3068.37,510.531L2962.47,662.139C2960.49,664.967 2961.18,668.867 2964.01,670.842C2966.84,672.817 2970.74,672.125 2972.71,669.297ZM2460.4,662.139L2354.5,510.531C2352.52,507.703 2348.62,507.011 2345.8,508.987C2342.97,510.962 2342.28,514.862 2344.25,517.69L2450.16,669.297C2452.13,672.125 2456.03,672.817 2458.86,670.842C2461.69,668.867 2462.38,664.967 2460.4,662.139ZM2495.32,477.079C2495.32,477.079 2481.95,499.24 2471.06,522.788C2465.78,534.206 2461.09,545.953 2458.67,555.74C2457.85,559.089 2459.89,562.479 2463.24,563.305C2466.59,564.132 2469.98,562.084 2470.81,558.735C2473.06,549.612 2477.48,538.68 2482.4,528.036C2493.01,505.11 2506.02,483.534 2506.02,483.534C2507.8,480.58 2506.85,476.735 2503.9,474.954C2500.94,473.173 2497.1,474.125 2495.32,477.079ZM2916.85,483.534C2916.85,483.534 2929.86,505.11 2940.47,528.036C2945.39,538.68 2949.81,549.612 2952.06,558.735C2952.89,562.084 2956.28,564.132 2959.63,563.305C2962.98,562.479 2965.02,559.089 2964.2,555.74C2961.78,545.953 2957.09,534.206 2951.81,522.788C2940.92,499.24 2927.55,477.079 2927.55,477.079C2925.77,474.125 2921.93,473.173 2918.97,474.954C2916.02,476.735 2915.07,480.58 2916.85,483.534ZM2705.16,263.365C2705.11,263.733 2705.09,264.112 2705.11,264.497L2705.11,264.497C2705.11,264.497 2705.18,273.334 2693.23,295.147C2686.95,306.603 2677.51,321.315 2663.31,339.767C2662.65,340.595 2652.25,353.889 2641.1,373.859C2635.13,384.545 2628.95,397.145 2623.93,410.763C2622.73,414 2624.39,417.596 2627.63,418.79C2630.86,419.983 2634.46,418.324 2635.65,415.088C2640.43,402.121 2646.33,390.128 2652.01,379.953C2662.96,360.344 2673.13,347.492 2673.13,347.492C2673.15,347.469 2673.17,347.445 2673.19,347.421C2687.91,328.291 2697.69,313.026 2704.19,301.151L2705.16,299.365L2705.16,330.02C2705.14,330.206 2705.13,330.393 2705.13,330.582C2704.24,335.014 2700.26,353.118 2689.75,378.488C2684.07,392.193 2676.5,407.997 2666.51,424.905C2664.75,427.874 2665.74,431.71 2668.71,433.466C2671.68,435.221 2675.51,434.235 2677.27,431.266C2687.6,413.783 2695.43,397.442 2701.3,383.271C2702.69,379.905 2703.98,376.66 2705.16,373.546L2705.16,483.945C2705.16,487.394 2707.96,490.195 2711.41,490.195C2714.86,490.195 2717.66,487.394 2717.66,483.945L2717.66,373.395C2718.85,376.552 2720.16,379.849 2721.57,383.271C2727.44,397.442 2735.27,413.783 2745.6,431.266C2747.36,434.235 2751.19,435.221 2754.16,433.466C2757.13,431.71 2758.12,427.874 2756.36,424.905C2746.37,407.997 2738.8,392.193 2733.12,378.488C2722.61,353.118 2718.62,335.014 2717.74,330.582C2717.74,330.242 2717.71,329.906 2717.66,329.577L2717.66,299.258L2718.68,301.151C2725.18,313.026 2734.96,328.291 2749.68,347.421C2749.7,347.445 2749.72,347.469 2749.74,347.492C2749.74,347.492 2759.91,360.344 2770.86,379.953C2776.54,390.128 2782.43,402.121 2787.22,415.088C2788.41,418.324 2792.01,419.983 2795.24,418.79C2798.48,417.596 2800.14,414 2798.94,410.763C2793.92,397.145 2787.74,384.545 2781.77,373.859C2770.37,353.436 2759.74,339.995 2759.53,339.73C2745.37,321.315 2735.91,306.603 2729.64,295.147C2717.69,273.334 2717.76,264.497 2717.76,264.497C2717.78,263.984 2717.75,263.481 2717.66,262.998L2717.66,231.68C2717.66,228.231 2714.86,225.43 2711.41,225.43C2707.96,225.43 2705.16,228.231 2705.16,231.68L2705.16,263.365ZM2891.79,425.451C2891.79,425.451 2863.27,398.27 2850.98,370.371C2844.95,356.672 2842.53,342.743 2852.35,332.782C2852.36,332.773 2852.37,332.763 2852.38,332.754C2852.38,332.754 2861.49,324.157 2883.68,325.314C2893.17,325.808 2904.83,328.05 2918.97,333.229C2922.21,334.416 2925.8,332.75 2926.99,329.511C2928.18,326.272 2926.51,322.679 2923.27,321.492C2903.35,314.194 2887.83,312.29 2876.12,312.777C2853.03,313.739 2843.56,323.885 2843.43,324.03C2829.99,337.675 2831.28,356.641 2839.54,375.408C2852.7,405.294 2883.16,434.487 2883.16,434.487C2885.65,436.871 2889.61,436.781 2891.99,434.288C2894.38,431.794 2894.29,427.835 2891.79,425.451ZM2539.71,434.487C2539.71,434.487 2570.17,405.294 2583.33,375.408C2591.59,356.644 2592.88,337.681 2579.44,324.03C2579.31,323.885 2569.84,313.739 2546.75,312.777C2535.04,312.29 2519.52,314.194 2499.6,321.492C2496.36,322.679 2494.69,326.272 2495.88,329.511C2497.07,332.75 2500.66,334.416 2503.9,333.229C2518.04,328.05 2529.7,325.808 2539.18,325.314C2561.38,324.157 2570.49,332.754 2570.49,332.754C2570.5,332.763 2570.51,332.773 2570.52,332.782C2580.34,342.743 2577.92,356.672 2571.89,370.371C2559.6,398.27 2531.08,425.451 2531.08,425.451C2528.58,427.835 2528.49,431.794 2530.88,434.288C2533.26,436.781 2537.22,436.871 2539.71,434.487ZM2806.57,254.979C2806.56,254.981 2786.82,259.711 2777.85,278.354C2773.7,286.988 2771.73,298.689 2775.58,314.451C2780.49,334.607 2795.29,362.151 2828.49,399.282C2830.79,401.854 2834.75,402.074 2837.32,399.775C2839.89,397.476 2840.11,393.521 2837.81,390.95C2806.62,356.066 2792.34,330.425 2787.72,311.489C2784.77,299.395 2785.93,290.398 2789.12,283.773C2795.49,270.524 2809.49,267.132 2809.49,267.132C2812.85,266.325 2814.92,262.948 2814.11,259.594C2813.3,256.24 2809.93,254.172 2806.57,254.979ZM2613.38,267.132C2613.38,267.132 2627.38,270.524 2633.75,283.773C2636.94,290.398 2638.1,299.395 2635.15,311.489C2630.53,330.425 2616.25,356.066 2585.06,390.95C2582.76,393.521 2582.98,397.476 2585.55,399.775C2588.12,402.074 2592.08,401.854 2594.38,399.282C2627.58,362.151 2642.38,334.607 2647.29,314.451C2651.14,298.689 2649.17,286.988 2645.01,278.354C2636.05,259.707 2616.3,254.979 2616.3,254.979C2612.95,254.172 2609.57,256.24 2608.76,259.594C2607.95,262.948 2610.02,266.325 2613.38,267.132L2613.38,267.132ZM2806.57,254.979L2806.57,254.979L2806.57,254.979Z"/></g><g transform="matrix(1.02754 0 0 1.01896 -70.454 -26.654)"><path fill="#ea646f" d="M2705.87,471.996C2752.89,386.895 2846.93,386.895 2893.96,432.7C2940.98,478.505 2940.98,570.114 2893.96,661.724C2861.04,730.432 2776.4,799.139 2705.87,844.944C2635.33,799.139 2550.69,730.432 2517.78,661.724C2470.76,570.114 2470.76,478.505 2517.78,432.7C2564.8,386.895 2658.85,386.895 2705.87,471.996Z"/><clipPath id="b"><path d="M2705.87,471.996C2752.89,386.895 2846.93,386.895 2893.96,432.7C2940.98,478.505 2940.98,570.114 2893.96,661.724C2861.04,730.432 2776.4,799.139 2705.87,844.944C2635.33,799.139 2550.69,730.432 2517.78,661.724C2470.76,570.114 2470.76,478.505 2517.78,432.7C2564.8,386.895 2658.85,386.895 2705.87,471.996Z"/></clipPath><g clip-path="url(#b)"><path fill="#92070a" d="M2727.19,488.006C2727.19,488.006 2659.47,629.971 2659.47,690.813C2659.47,728.184 2689.82,758.524 2727.19,758.524C2764.56,758.524 2794.9,728.184 2794.9,690.813C2794.9,629.971 2727.19,488.006 2727.19,488.006Z" transform="matrix(.9732 0 0 .98139 52.082 21.73)"/></g></g></g></g></svg>