<svg xmlns="http://www.w3.org/2000/svg" data-name="Layer 1" viewBox="0 0 3000 2000"><path fill="#ecf4ff" fill-rule="evenodd" d="M2422.49,220.08a40.82,40.82,0,0,1-6.19-.47h-.1l-1.41-.24h-.06c-.74-.14-1.47-.3-2.2-.49h-.07l-.93-.25h0l-.73-.22v0h-.13c-1-.3-1.93-.62-2.88-1v0h-.06c-.4-.15-.8-.31-1.19-.48v0h-.06c-.74-.31-1.48-.64-2.2-1h0l-.49-.25h0c-1.2-.61-2.37-1.27-3.5-2v0h0l-.73-.46v0h0l-.7-.47v0h0c-.58-.4-1.15-.82-1.71-1.25h0c-.42-.32-.83-.65-1.24-1v0h0l-.23-.19v-.06h-.07c-.57-.48-1.13-1-1.69-1.49v0h0l-.23-.21v0h0l-.21-.2v-.05h0l-.2-.19v-.06h-.06l-.19-.18v-.07h-.07l-.18-.18v-.07h-.07c-.93-.94-1.83-1.92-2.69-2.94v-.07h-.06l-.19-.23v0h0c-.33-.41-.66-.82-1-1.24h0c-.26-.33-.5-.66-.74-1v0h0l-.49-.68V201h0c-.79-1.12-1.52-2.27-2.21-3.46v-.05h0q-.65-1.11-1.23-2.25h0c-.17-.33-.34-.66-.5-1h0c-.35-.73-.69-1.46-1-2.21V192h0c-.35-.82-.68-1.66-1-2.51h0c-.08-.23-.16-.47-.25-.71v0h0l-.24-.71v0h0l-.24-.75h0c-.18-.58-.34-1.15-.5-1.74v0h0c-.09-.31-.17-.63-.25-.94v-.06h0c-.09-.33-.17-.67-.24-1h0c-.09-.38-.17-.77-.25-1.16v-.09h0c-.08-.41-.16-.83-.23-1.24h0c-.09-.52-.18-1-.25-1.56v-.2h0a49.69,49.69,0,0,1-.47-5.63v-.89h0c0-.24,0-.48,0-.73s0-.52,0-.77h0v-.84c0-1.24.11-2.47.24-3.68h0v-.1c.05-.55.12-1.11.19-1.65h.06v-.41c.13-1,.3-1.91.49-2.85h0v0c.06-.33.13-.65.2-1h0v-.21c.08-.35.16-.69.25-1h0a51,51,0,0,1,2.51-7.52h0l.21-.5h0v-.08c.67-1.53,1.41-3,2.21-4.43h0v-.08l.24-.42h0c.39-.68.8-1.35,1.22-2h0v-.05l.47-.7h0v-.05l.48-.7h0v0c.79-1.12,1.61-2.2,2.48-3.23h0v0c.64-.76,1.31-1.5,2-2.22h0v0l.22-.23h0v0l.22-.22h0v0l.22-.22h0v0l.22-.21h0v0l.23-.22h0v0l.24-.23h0l.25-.24h0c.65-.61,1.31-1.19,2-1.75h0v0c.4-.34.81-.67,1.22-1h0v0c.9-.69,1.82-1.35,2.76-2h0c.81-.53,1.63-1,2.46-1.51h.05v0a40.61,40.61,0,0,1,4-2h.05v0l1.14-.48h.12v0l1.21-.46h0l1.43-.49h.08v0l.74-.23h0l.86-.25h.14v0c1-.27,2.09-.51,3.15-.71h.11v0c.46-.09.93-.16,1.39-.23h.12v0c.64-.09,1.28-.17,1.93-.23h.32v0c1.22-.1,2.45-.16,3.69-.16s2.57.06,3.84.18v0h.17q.93.09,1.83.21v0h.22l1.29.21v0h.21c.78.14,1.54.31,2.3.49h0c.58.14,1.15.3,1.72.47v0h.11c1,.29,1.95.62,2.9,1v0h.07l1.19.48v0h.07c.56.23,1.13.48,1.68.75h0l.49.23v0h0l.47.23v0h0l.47.24h0c.76.4,1.5.81,2.23,1.25h0l.75.46v0h.07l.68.43v.07h.1c1.17.77,2.31,1.61,3.41,2.49v0h0l.23.19v.06h.07a46.28,46.28,0,0,1,5.2,5h0c.42.48.84,1,1.24,1.46v0h0c.59.72,1.16,1.47,1.72,2.24h0c.16.23.33.46.49.7v.06h0c.16.22.31.45.46.68v.07h.05c.33.49.64,1,.95,1.49h0c.34.56.68,1.13,1,1.71v.05h0l.22.41v.09h0c.51.95,1,1.92,1.45,2.91v.1h0c.07.15.14.3.2.45v0h0q.38.85.72,1.74v0h0c.26.65.51,1.32.75,2h0c.09.24.17.48.25.72v0h0l.24.73v0h0c.28.86.52,1.73.75,2.62v.14h0l.21.87v.13h0c.08.33.15.66.22,1h0c.2.91.36,1.82.5,2.74v.27h.05l.21,1.54v.22h0c.1.81.17,1.63.23,2.45v.81h0c.05.92.08,1.85.08,2.78s0,1.83-.07,2.74h-.05v.85c-.06.81-.13,1.61-.22,2.41h0v.26c-.07.5-.13,1-.21,1.49h-.05V180c-.14.91-.3,1.8-.49,2.69h0v.06c-.06.32-.14.63-.21,1h0v.17c-.06.28-.13.55-.2.83h-.05v.19c-.22.86-.46,1.72-.73,2.57h0v.06c-.07.23-.15.46-.23.69h0v.08c-.08.23-.15.45-.23.67h0v.06l-.25.69h0c-.31.85-.65,1.68-1,2.5h0v0l-.2.48h0v.1c-.59,1.34-1.25,2.65-2,3.92h0v.09l-.24.41h0v0a48.41,48.41,0,0,1-2.72,4.23h0v.06c-.48.66-1,1.31-1.49,2h0v0c-.4.51-.82,1-1.24,1.48h0v0a47.88,47.88,0,0,1-4.51,4.5h0c-.39.34-.78.67-1.19,1h-.06v.05c-.4.33-.81.64-1.23.95h0v0c-.57.43-1.15.84-1.74,1.24h0c-.24.17-.49.33-.74.49h0c-.82.52-1.64,1-2.49,1.49h0v0l-.44.23h-.06v0l-.41.22h-.09v0l-.4.21h-.11v0c-1,.53-2.12,1-3.21,1.45h0v0c-.89.36-1.8.69-2.72,1h0c-.55.18-1.09.34-1.64.5h-.12v0c-1,.28-2,.52-3.1.72h-.16v0l-1.31.22h-.19v0c-.57.08-1.15.16-1.72.22h0a41.62,41.62,0,0,1-4.34.23M2175.78,1876.35h0A346.87,346.87,0,0,0,2291.4,1849h0q15.39-6.57,30.1-14.55h0q11.11-6,21.81-12.79h0a383.72,383.72,0,0,0,72.47-59.69h0q13.3-14,25.32-29.34h0a412.87,412.87,0,0,0,32.6-48.4h0a423.26,423.26,0,0,0,38.87-90.79h0a431,431,0,0,0,11.79-50.91h0q2.13-12.66,3.51-25.58h0q2.25-20.76,2.51-42.1v0h0c0-1.74.06-3.48.06-5.23,0-5.3-.12-10.58-.31-15.84h0c-.08-2.09-.15-4.18-.25-6.27h0c-.07-1.43-.17-2.84-.25-4.26h0a428.11,428.11,0,0,0-59.19-193.86h0a411.28,411.28,0,0,0-25.33-37.61h0c-69-91.15-173.54-149.53-290.06-149.53-87.29,0-166.25-77.52-166.25-172.26s71.42-172.25,158.71-172.25h228.29l1.09,0h.9c3.4,0,6.78-.19,10.14-.46v0h.57l2.44-.24h.14c1.38-.14,2.75-.3,4.12-.48v0h.23l1.53-.2v-.06h.35c1.56-.22,3.11-.47,4.66-.74h0l1.21-.22v0h.18c.44-.08.89-.15,1.33-.24h.06l1.19-.25h0c1.17-.24,2.34-.48,3.49-.75h0l1-.24h.07l.93-.22v0h.13l.87-.21v-.05h.18c.28-.06.55-.14.83-.21v0h.14l.86-.22v0h.08l.92-.24h0c1.17-.31,2.34-.64,3.5-1h0l.71-.21v0h.13l1.62-.5h0l.75-.24h0l.72-.24h0l3-1h0c.66-.23,1.33-.46,2-.71v0h.13l.63-.23v0h.06c.65-.24,1.29-.5,1.94-.75h0c1.43-.56,2.85-1.13,4.26-1.72v0h.09l1.16-.48v0h0l.46-.21v0h.1l1.66-.74h0c1.08-.49,2.16-1,3.23-1.5h0l.49-.23v0h0l.47-.22v0h.06l.44-.21v0h.09l.41-.21v0h.09l.42-.21v0h.07l.43-.22v0h.06l.44-.23v0h.06q2.12-1.08,4.2-2.22v0h.07l.43-.24h0l1.72-1v0h.06c1.41-.8,2.81-1.63,4.2-2.47v0h0l1.21-.74v0h0l.73-.45v0h.07l1.94-1.24h0c.75-.49,1.5-1,2.24-1.49v0h0l.72-.49h0l.74-.5h0c.59-.4,1.17-.82,1.75-1.23v0h0c1.26-.89,2.5-1.81,3.74-2.73v0h0l1-.73v0h0l1-.75h0l1.24-1v0h0l2.48-2h0l1.5-1.25h0l.25-.2v-.05h.05c.49-.41,1-.83,1.45-1.25h0l.24-.21v0h.05c1.59-1.39,3.17-2.8,4.72-4.25h0l.24-.22v0h0l.22-.22v0h0l.21-.21v0h0q3.18-3,6.22-6.23v0h0l.21-.23v0h0l.22-.24h0c.93-1,1.85-2,2.75-3v0h0c.58-.65,1.17-1.3,1.74-2v-.06h0l.2-.24h0c.93-1.07,1.84-2.15,2.75-3.24v0h0l1-1.21v0h0c.32-.4.65-.79,1-1.19v-.07h.06l.19-.25h0l.75-1v0h0l1-1.25h0l1.5-2v0h0l.74-1h0l1.25-1.71v0h0q2.71-3.78,5.24-7.73v-.05h0l.47-.73v0h0c.42-.66.83-1.32,1.24-2h0l.75-1.22v0h0l.73-1.2v-.05h0l.72-1.24v0h0q1.8-3.09,3.5-6.26h0c.09-.15.17-.32.25-.47v0h0c.09-.15.16-.31.24-.46v0h0l.23-.45v-.05h0q1.28-2.45,2.48-4.94v-.08h0l.21-.44v-.06h0l.22-.45v0h0l.22-.49h0c.51-1.08,1-2.17,1.5-3.26h0c.26-.57.5-1.15.75-1.72v0h0c.24-.57.49-1.13.73-1.71v0h0c.17-.38.33-.76.49-1.15v-.11h0l.71-1.74h0c.6-1.5,1.19-3,1.75-4.52h0c.09-.22.17-.44.25-.66v-.09h0c.33-.9.65-1.81,1-2.72v0h0c.52-1.47,1-2.94,1.49-4.43v-.08h0c.07-.23.15-.46.22-.69v-.06h0c.07-.24.15-.47.22-.71v-.05h0c.25-.81.49-1.63.74-2.45v-.06h0c.34-1.14.67-2.28,1-3.43v-.08h0c.16-.58.33-1.16.48-1.74h0l.25-.94V587h0c.08-.31.15-.62.23-.93V586h0l.23-.93V585h0c.35-1.38.67-2.77,1-4.16v-.1h0l.48-2.16v-.1h0c.08-.38.15-.76.23-1.14v-.12h0c.26-1.24.5-2.49.73-3.74v0h0c.09-.46.17-.93.25-1.39V572h0c.08-.44.16-.87.23-1.3v-.21h0c.08-.45.14-.9.21-1.35V569h0c.08-.49.15-1,.22-1.48v0h0c.27-1.81.52-3.62.75-5.45v-.32h0l.21-1.9v-.1h0c.19-1.71.35-3.42.49-5.14v-.38h0c.08-1,.15-2,.22-3v-.51h0c.09-1.45.16-2.9.22-4.35v-.67h0q.14-3.48.14-7t-.14-7h0v-.65c-.06-1.46-.13-2.92-.22-4.37h0v-.49c-.06-1-.14-2-.22-3h0v-.36c-.14-1.72-.31-3.44-.49-5.16h0v-.08l-.21-1.92h0v-.3c-.23-1.83-.48-3.66-.75-5.47h0c-.07-.5-.15-1-.22-1.5h0v-.13l-.21-1.37h0v-.19c-.07-.44-.15-.88-.23-1.31h0v-.1c-.08-.47-.16-.94-.25-1.41h0c-.23-1.26-.48-2.51-.73-3.76h0v-.1c-.08-.39-.15-.77-.23-1.16h0v-.09l-.48-2.16h0v-.09c-.32-1.4-.65-2.79-1-4.18h0v0l-.23-1h0v0c-.08-.32-.15-.64-.24-1h0v0c-.23-.91-.49-1.81-.73-2.71h0v-.06q-.48-1.74-1-3.45h0v0c-.25-.82-.49-1.65-.75-2.47h0v0c-.07-.24-.15-.48-.23-.72h0v-.06c-.07-.23-.15-.46-.22-.7h0v-.06c-.48-1.5-1-3-1.49-4.45h0v0c-.32-.92-.64-1.83-1-2.74h0v-.07c-.48-1.32-1-2.64-1.5-3.94h0c-.4-1-.8-2-1.22-3h0v-.1c-.17-.38-.33-.77-.49-1.15h0v0c-.24-.57-.49-1.15-.74-1.72h0v0q-1.09-2.52-2.26-5h0l-.23-.5h0v0c-.07-.16-.15-.31-.22-.47h0v0c-.07-.16-.15-.31-.22-.46h0V456q-1.2-2.51-2.48-5h0v0l-.23-.46h0v0l-.24-.48h0c-.48-.92-1-1.84-1.49-2.75h0v0l-1.25-2.23h0c-.57-1-1.14-2-1.73-3h0v0c-.24-.41-.5-.81-.74-1.22h0v0l-.75-1.23h0c-.41-.67-.83-1.33-1.25-2h0l-.48-.75h0v0c-.16-.24-.31-.49-.46-.72h0V436q-1.71-2.64-3.51-5.2h0L2506.1,429h0v0c-.23-.33-.46-.66-.7-1h-.05v-.07c-.41-.57-.83-1.13-1.25-1.68h0c-.82-1.1-1.65-2.18-2.49-3.26h0v0l-1-1.23h-.05v-.06l-1-1.19h0v0l-1-1.22h0l-1.25-1.5h0c-.49-.59-1-1.18-1.5-1.76h0l-.22-.25h0v0c-.58-.66-1.16-1.31-1.75-2h0q-1.48-1.65-3-3.26h0l-.22-.25h0v0l-.21-.23h0v0l-.2-.21h0v-.05q-2.69-2.81-5.48-5.47h0v0l-.22-.22h0v0l-.23-.23h0v0l-.24-.23h0c-1.63-1.54-3.3-3-5-4.5h0v0l-1.71-1.48h0v0q-2.1-1.77-4.26-3.48h0l-.95-.75h-.06v0c-.41-.32-.82-.64-1.24-1h0l-1-.75h0l-2-1.49h0l-1.75-1.24h0l-.69-.5H2465v0c-.83-.58-1.66-1.15-2.5-1.71h0q-2.08-1.41-4.21-2.75h-.05v0l-.75-.47h0c-.41-.26-.82-.5-1.24-.75h0v0q-2.1-1.28-4.23-2.49h0v0l-1.75-1h0l-.46-.25h0v0c-.91-.5-1.83-1-2.75-1.48h0l-.49-.25h0l-.48-.24h0l-.47-.24h0v0l-.47-.23h0v0l-.46-.23h0v0l-.45-.23h-.06v0l-.45-.23h0v0l-.47-.23h0l-.5-.24h0q-2.7-1.3-5.45-2.51h-.07v0l-.5-.22h0l-1.19-.5h-.06v0l-1.76-.73h0c-1.06-.43-2.12-.85-3.19-1.26h-.07v0l-1.23-.48h0l-.67-.25h-.09v0l-2.74-1h0l-1.48-.5h0l-.75-.24h0c-1.06-.35-2.11-.68-3.18-1h-.08v0q-2.61-.8-5.25-1.48h0l-.92-.24h-.08v0l-.89-.23h-.12v0l-.94-.22h-.06v0l-1-.23h0c-1.52-.35-3-.69-4.57-1h-.2v0l-1-.21h-.22v0l-1.17-.21h-.09v0l-2.73-.48h0l-1.62-.25h-.14v0l-1.5-.23H2397v0l-1.65-.21h-.11v0c-1.42-.18-2.85-.34-4.28-.48h-.23v0l-2.39-.23h-.62v0l-3-.21h0c-2.64-.15-5.3-.23-8-.25h-172c-35.34,0-64.26-31.37-64.26-69.72s28.92-69.73,64.26-69.73h93.36a41.33,41.33,0,0,0,6.13-.46v0h.12c.47-.07.93-.15,1.39-.24h.07c.74-.14,1.46-.3,2.18-.48v0h.09l.92-.25h0l.73-.22v0h.13c1-.3,1.93-.63,2.88-1v0h.05c.41-.15.8-.31,1.2-.48v0h.05a42.75,42.75,0,0,0,6.22-3.25h0c.25-.16.5-.31.74-.48v0h0l.72-.49h0c.67-.47,1.33-1,2-1.45v-.06h.07c.32-.24.63-.49.94-.75h0l.25-.21v0h0c.58-.49,1.15-1,1.7-1.5h0l.24-.22v0h0l.22-.21v0h0l.21-.2v-.05h0l.21-.19v-.06h.05l.2-.19v-.06h.05l.2-.2v-.05h.05l.2-.2v-.05h.05l.2-.21v0h0l.21-.23v0h0c.6-.63,1.17-1.28,1.74-1.94v-.07h0l.2-.24h0l1-1.24h0l.74-1v0h0c.17-.22.33-.45.49-.68V201h0c.78-1.11,1.52-2.26,2.21-3.44v-.07h0c.33-.57.65-1.14,1-1.73v0h0c.25-.48.5-1,.74-1.45v0h0l.23-.47v0h0c.26-.54.5-1.09.74-1.64V192h0l.2-.48v0h0c.17-.41.33-.82.49-1.24h0l.24-.65v-.11h0l.21-.6v-.15h0c.46-1.31.86-2.65,1.21-4h0c.18-.71.35-1.43.5-2.16v-.1h0c.08-.39.16-.78.23-1.18v-.07h0c.09-.48.17-.95.24-1.43v-.33h.05c.07-.5.14-1,.2-1.52v-.23h0c.1-.89.18-1.78.23-2.68V174h.05c0-.65,0-1.31,0-2h0c0-.67,0-1.35,0-2h-.05v-1c0-.91-.13-1.82-.23-2.72h0V166c-.06-.52-.13-1.05-.21-1.57h0v-.28c-.07-.5-.16-1-.25-1.47h0v0l-.24-1.23h0v-.06l-.21-.94h0v-.19q-.33-1.42-.75-2.82h0v0c-.08-.25-.15-.49-.22-.73h0v-.1c-.06-.22-.14-.44-.21-.65h0v-.12l-.21-.64h0V155c-.07-.22-.15-.43-.23-.65h0v-.06c-.3-.83-.63-1.64-1-2.45h0v-.07c-.32-.74-.65-1.46-1-2.18h0c-.17-.33-.33-.67-.5-1h0c-.3-.59-.62-1.17-.94-1.75h-.06v-.1l-.23-.4h0v0c-.39-.67-.8-1.33-1.22-2h0v-.06l-.47-.69h0v-.06q-.22-.35-.48-.69h0v0q-.71-1-1.47-2h0v0c-.32-.41-.65-.82-1-1.21h0v0l-.2-.23h-.06v-.06c-.64-.75-1.31-1.49-2-2.19h0l-.24-.24h0v0l-.24-.23h0v0l-.24-.23h0v0l-.25-.24h0c-.71-.69-1.44-1.36-2.2-2h0V134l-.25-.2h0l-1.24-1h0a44.31,44.31,0,0,0-4-2.74h-.05v0c-.4-.25-.81-.49-1.22-.73h0l-.42-.24H2318v0a38.3,38.3,0,0,0-3.46-1.71h-.05v0l-1.14-.49h-.11v0l-1.21-.46h0l-1.44-.49h-.07v0l-.74-.23h0l-.86-.25h-.15v0c-1-.28-2.07-.51-3.12-.71h-.14v0l-1.35-.22h-.15v0c-.63-.09-1.26-.16-1.89-.22h-.37v0c-1.19-.11-2.4-.16-3.62-.16-47.12,0-88.26.08-126.29.19h-.44c-22.84.07-44.56.15-65.77.25h-.23l-54.19.25h-.28l-54.9.25h-.24c-22.22.09-45.06.18-69.23.25h-.18c-34.88.1-72.52.16-115,.16-108.32,1-99.18,29.87-133.83,51.25h0c-20.63,12.74-56.79,22.83-142.56,22.83-52.85,0-95-2-129.6-1.61-177.26,1.87-239.46,212.77-146.87,316.88,32,36,100.06,103.18,104.9,173.63,3.37,49-45.64,120.79-200.72,147.69H881.75q-4.85,0-9.6.39v0h-.36c-1.56.13-3.11.3-4.66.5h0c-.59.07-1.17.14-1.75.23v0h-.15l-1.61.24h0c-1.42.22-2.83.47-4.23.74h-.06c-2.17.43-4.33.92-6.46,1.47v0h-.14l-.87.23v0h-.07l-.93.24h0l-1.75.5h0c-1.35.39-2.68.81-4,1.25h0c-1.17.39-2.33.79-3.49,1.22v0h-.11l-.64.24h0c-1.68.63-3.35,1.29-5,2h0l-.49.22v0h-.09l-1.66.75h0q-4.34,1.95-8.5,4.25h0l-1.74,1v0h0c-1,.57-2,1.16-3,1.76h0c-.67.41-1.34.82-2,1.25h0c-1.26.81-2.51,1.63-3.74,2.48v0h-.05l-.71.49h0L812,858.87h0c-1,.73-2,1.47-3,2.23v0h0c-.75.58-1.48,1.17-2.22,1.76h0c-.51.41-1,.82-1.5,1.24h0l-1.48,1.25h0l-.24.21v0h0q-2.67,2.29-5.22,4.76h0l-.25.24h0c-.84.82-1.67,1.64-2.5,2.48v0h0l-.22.22v0h0l-.22.23v0h0l-.23.23v0h0l-.23.24h0q-1.51,1.59-3,3.24v0h0c-.58.65-1.16,1.3-1.73,2v0h0q-3.95,4.57-7.5,9.51v0h0c-.42.58-.83,1.17-1.24,1.75h0c-.51.73-1,1.47-1.51,2.21v0h0l-.47.69v.06h0l-.47.73v0h0c-.59.91-1.16,1.83-1.73,2.76h0l-.75,1.24h0l-.74,1.25h0c-.78,1.31-1.53,2.65-2.26,4h0l-.25.45v0h0c-1.41,2.62-2.73,5.29-4,8v0h0c-.6,1.31-1.18,2.62-1.75,4v0h0q-1,2.46-2,5v0h0c-.25.65-.5,1.31-.74,2v0h0c-.09.23-.16.46-.25.69v.06h0q-.91,2.56-1.73,5.18v.09h0c-.08.25-.15.5-.22.74h0q-.79,2.61-1.5,5.25v0h0c-.09.32-.17.64-.25,1v0h0l-.24,1v0h0c-.35,1.4-.68,2.8-1,4.22v0h0l-.24,1.14v.11h0c-.27,1.25-.51,2.5-.74,3.76h0c-.08.46-.17.93-.25,1.4v.1h0l-.24,1.42v.09h0c-.28,1.73-.52,3.47-.74,5.23v0h0c-.09.73-.17,1.45-.25,2.18v.08h0c-.08.8-.17,1.6-.24,2.41v.1h0q-.13,1.5-.24,3v.51h0c-.1,1.47-.17,2.95-.22,4.43v.83h0c0,1.5-.08,3-.08,4.51s0,3,.08,4.52h0v.82c.05,1.49.12,3,.22,4.45h0v.48c.07,1,.15,2,.24,3h0v.08c.07.81.16,1.62.24,2.43h0v.06c.07.65.14,1.3.22,1.95h0v.26c.22,1.76.47,3.51.74,5.25h0v.07l.24,1.44h0v.07q.45,2.63,1,5.2h0v.09l.24,1.16h0v0c.31,1.42.64,2.84,1,4.24h0v0c.08.32.16.65.25,1h0v0q.91,3.54,2,7h0v.07c.07.23.15.45.22.68h0v.1c.47,1.48,1,2.95,1.49,4.41h0v.05c.09.23.17.47.25.71h0l.75,2h0v0c.63,1.68,1.3,3.35,2,5h0v0l.75,1.72h0v0c.4.92.81,1.83,1.23,2.74h0v0q1.77,3.81,3.74,7.49h0v0c.49.92,1,1.82,1.51,2.73h0q2,3.58,4.26,7h0l.48.75h0v0l.49.72h0v0c.17.24.33.48.49.73h0l.49.74h0c.57.84,1.16,1.67,1.75,2.5h0l.73,1h0v0c.74,1,1.49,2,2.25,3h0c.32.42.64.83,1,1.24h0v0c.32.4.65.8,1,1.21h0v0c.33.41.66.82,1,1.22h0c.49.59,1,1.18,1.5,1.76h0c1.62,1.88,3.29,3.72,5,5.5h0l.25.24h0l.24.25h0l.24.24h0l.24.24h0l.23.24h0v0l1.49,1.48h0l.25.24h0c1.87,1.81,3.78,3.57,5.75,5.26h0v0q2.09,1.8,4.23,3.49h0v0l1.25,1h0l1,.75h0c1.48,1.11,3,2.2,4.5,3.25h0l.72.49h0v0c.74.5,1.49,1,2.24,1.48h0l2,1.25h0v0c1.24.77,2.49,1.51,3.75,2.23h0l2.24,1.25h0q4.75,2.59,9.73,4.75h0v0l1.74.74h0c.82.34,1.65.68,2.48,1h0l2,.74h.06v0c2.22.82,4.46,1.56,6.73,2.24h0q1.74.52,3.51,1h0l.94.25h.07v0l.92.23h.08v0l1,.23h0c1.51.36,3,.7,4.55,1h.22v0l1.15.21h.1v0c1.49.27,3,.52,4.49.73h.28v0c.54.08,1.09.14,1.64.21h.11v0l2,.23c.86.09,1.72.18,2.58.25h.43v0q1.65.13,3.33.21h.18c1.94.1,3.88.15,5.84.15h14.47c66.83,0,121.51,59.34,121.51,131.88s-54.68,131.86-121.51,131.86H624.69c-2.29,0-4.57,0-6.85.12v.07H616.2c-1.63.07-3.26.14-4.88.25h-.09l-2.92.2v0h-.71c-.77.06-1.53.14-2.3.21v0h-.47l-2.54.25h0l-2.22.25h0c-.57.06-1.13.14-1.7.21v0H598l-1.7.21v0H596l-1.45.2v0h-.32l-1.44.22v0h-.2c-.52.08-1,.15-1.55.24h-.09L588,1377h-.07l-1.19.22v0h-.19l-1.31.24h-.08l-1.18.22v0h-.2l-1,.22v0h-.15l-1.1.24h-.1l-1.16.25h0q-2.74.59-5.48,1.24h0l-1,.23v0h-.09l-.91.22v0h-.14l-.87.23v0h-.08l-.92.25h0q-3.15.83-6.25,1.74v0h-.06l-.69.2v0h-.16l-.84.25h0l-.75.22v0h-.1l-.65.2v0H561l-.59.19v.06h-.18l-3.08,1h0c-1.42.47-2.84,1-4.25,1.47v0h-.1l-.66.23v0h0l-.7.25h0l-.5.18v.07h-.21l-.54.21v0H550l-.64.25h0l-1.23.48v0h-.07l-1.94.74h0l-2.48,1h0l-1.75.73v0h-.06l-1.19.5h0l-.49.2v0H540l-1.63.72v0h-.06c-1.66.73-3.32,1.48-5,2.25h0l-.49.23v0h0l-.46.22v0h-.06l-.44.21v0h-.09q-4.26,2-8.44,4.26h0l-2.25,1.22v0H521l-.43.23v0h0l-1.72,1v0h-.09l-.41.24h0l-1.23.71v0h-.08l-.42.25h0l-1.75,1h0c-.42.24-.83.5-1.25.75h0l-2,1.22v0h-.05l-1.2.73v0h0c-.24.14-.48.28-.71.43v.07h-.11l-1.15.74h0l-.73.47v0h-.05c-1.16.74-2.31,1.49-3.46,2.26h0l-2.51,1.7v.05h-.08l-.67.46v.05h-.07c-.22.15-.46.3-.68.46v0h-.05l-1.71,1.22v0h0c-1.16.83-2.32,1.66-3.47,2.51h0c-1.1.81-2.18,1.63-3.26,2.45v.06h-.07l-.93.71v0h-.05c-.41.31-.8.64-1.21.95v.05h-.06l-.94.75h0c-.41.34-.83.66-1.24,1v0h0l-1.24,1h0l-1.5,1.25h0l-.25.2v0h-.06l-1.2,1h0l-.25.21v0h-.05c-.49.41-1,.83-1.45,1.25h0l-.24.22v0h-.05l-1.71,1.5h0l-2.25,2h0l-.25.22v0h0c-1,.9-2,1.81-3,2.74v0h0l-.23.21v0h0l-.21.2v0h-.05l-.2.19v.06h-.06l-.19.19v.06h-.07q-4.46,4.23-8.71,8.72v.06h-.06l-.19.2v0h0l-.21.22v0h0l-.22.23v0h0l-.23.25h0c-.93,1-1.85,2-2.76,3v0h0l-.22.25h0c-.59.65-1.18,1.29-1.76,2v.06h-.05l-.2.22v0h0l-.23.25h0l-1.25,1.44v.06H456l-.2.24h0l-1.49,1.74v0h0c-.84,1-1.67,2-2.5,3v0h0l-1,1.2v0h0c-.32.4-.65.78-1,1.18v.08h-.07l-.18.22v0h0l-.74.94v.06h0l-1,1.23v0h0c-1.09,1.41-2.17,2.82-3.24,4.25v0h0l-.74,1h0l-.49.66v.09h-.07l-.18.25h0l-.49.68v.08h-.06c-.24.32-.46.65-.7,1v0h0l-.49.69v.06h0l-.7,1h0c-.58.83-1.17,1.65-1.75,2.49h0l-.5.74v0h0l-.49.72v0h0l-.48.72v0h0c-.16.24-.33.47-.48.71v0h0c-.16.24-.32.47-.47.71v0h0l-.47.69v.06h0l-.47.73v0h0c-.76,1.16-1.51,2.33-2.24,3.5h0c-.68,1.08-1.34,2.17-2,3.26h0c-.25.41-.51.82-.75,1.24v0h0l-.24.39v.11h-.06c-.14.24-.29.47-.44.72v0h0l-.23.4v.1h-.05c-.24.4-.47.8-.7,1.21v0h0c-1.1,1.9-2.17,3.81-3.23,5.74v0h0l-.23.43v.07h0c-.41.74-.82,1.48-1.21,2.22v0h0c-.08.15-.15.3-.23.44v.06h0c-.07.14-.14.29-.22.43v.08h0l-.21.4v.1h-.05q-2.18,4.15-4.21,8.41v.11h-.06c-.06.14-.13.27-.19.4v.11h0l-.2.42v.08h0l-.21.47v0h0c-.5,1.08-1,2.16-1.49,3.24v0h0q-.88,2-1.74,4v0h0l-.73,1.69v.07h0l-.48,1.09v.16h-.06c-.07.15-.12.31-.19.46v0h0l-.48,1.2v.06h0c-.17.39-.32.78-.48,1.18v.07h0c-.5,1.24-1,2.48-1.48,3.72v0h0l-.74,2v.06h0l-.73,1.93v.08h0l-.22.6v.15h-.05c-.24.66-.47,1.33-.7,2h0l-.24.7v.06h0q-1,2.92-2,5.88v.14h-.05l-.2.63v.12h0l-.21.65v.1h0l-.21.67v.08h0c-.08.25-.15.49-.22.73v0h0c-.17.54-.33,1.09-.5,1.64v.11h0l-.22.73v0h0q-.76,2.58-1.49,5.18v.09h0c-.16.58-.32,1.15-.47,1.73v0h0l-.24.88v.12h0l-.21.81v.19h-.05l-.21.8v.21h0c-.69,2.69-1.34,5.41-2,8.14v.13h0c-.08.33-.15.65-.22,1v0h0c-.08.37-.17.72-.24,1.08v.18h0c-.08.34-.14.69-.21,1v.22h0c-.24,1.17-.48,2.33-.71,3.5h0q-.52,2.71-1,5.44v.08h0c-.08.44-.17.88-.24,1.33v.18h0c-.08.44-.15.88-.22,1.32v.18h0c-.08.48-.15,1-.22,1.46v0h0q-.54,3.46-1,7v.31h0c-.07.54-.15,1.08-.22,1.62v.38h-.05c-.07.58-.13,1.16-.2,1.73v.53h-.05c-.07.61-.13,1.22-.2,1.83v.18h0q-.25,2.52-.48,5v.23h0c-.08.93-.16,1.87-.23,2.81v.7h-.06c-.07,1-.13,2.09-.19,3.13v.38h0c-.09,1.43-.17,2.87-.23,4.31v.45h0q-.21,5-.23,10.11v.43h0c0,.28,0,.56,0,.85s0,.6,0,.9h0v.38q0,5.1.23,10.15h0v.4c.06,1.38.14,2.75.22,4.12h0v.57c.06,1.07.12,2.13.2,3.19h.05v.64c.07,1,.16,1.92.24,2.87h0v.17c.08,1,.16,1.9.25,2.84h0v0c.07.75.16,1.49.24,2.24h0v.12c.07.63.13,1.26.2,1.89h.05v.47l.21,1.78h0v.33c.07.56.15,1.12.22,1.68h0v.25c.23,1.76.48,3.52.74,5.27h0v.11l.21,1.39h0v.25c.06.42.12.84.19,1.26h.06v.37l.18,1.13h.07v.38c.06.37.13.75.2,1.13h.05v.28q.67,3.88,1.47,7.74h0v.18c.08.36.15.72.22,1.08h0v.16c.07.37.14.73.22,1.09h0v.12c.06.29.13.59.2.88h0v.23c.07.34.15.68.23,1h0v.07c.16.73.32,1.46.49,2.18h0v0q.59,2.51,1.22,5h0v.15c.08.28.14.57.22.85h0v.15c.08.28.15.57.22.86h0v.14c.07.29.15.57.23.86h0v.06c.15.57.31,1.13.46,1.69h0v.13l.24.88h0v0c.56,2,1.14,4,1.74,6h0v0l.21.7h0v.13c.17.54.33,1.09.5,1.62h0v0c.07.25.16.48.23.73h0v0c.07.24.15.47.23.71h0v.06l.22.69h0v.08l.22.67h0v.1c.49,1.48,1,2.95,1.49,4.42h0v0l.26.71h0c.23.67.46,1.34.7,2h.05v.13c.07.2.14.41.22.62h0v.09l.24.66h0v0c.15.41.31.82.47,1.24h0v.09l.25.66h0c.57,1.51,1.15,3,1.74,4.51h0v0c.16.41.33.81.49,1.22h0v0c.16.41.33.82.5,1.23h0l.2.49h.05v.12c.16.38.3.76.46,1.14h0v.1c.16.39.34.77.5,1.15h0l.22.49h0v.09c.82,1.91,1.65,3.8,2.51,5.68h0l.23.5h0v0c.42.9.83,1.81,1.25,2.71h0v0l.23.48h0v0l.22.45h0v.06c.07.15.14.3.22.45h0v.07l.21.43h0v.08q1.57,3.24,3.22,6.44h0v.07l.22.43h0v0l.23.45h0v0l.24.46h0v0c.09.15.17.32.25.47h0c.4.75.82,1.5,1.22,2.25h0v.07l.24.43h0v0q1.23,2.25,2.5,4.49h0l.71,1.24h0v.06l.69,1.19H429v.12l.23.39h0v0l.72,1.21h0v0l.74,1.2h0v0c.24.41.49.81.74,1.22h0v0l.75,1.23h0L434,1768h0v0l.47.73h0v0l.45.71H435v.07l.43.68h.07v.11q2.55,3.88,5.23,7.66h0v.06l.49.7h0l.7,1h0v.07c.17.23.32.46.49.68h0v0c.23.33.48.66.72,1h0v0l.72,1h0v0c1,1.33,2,2.66,3,4h0c.32.42.64.83,1,1.24h0v0l.75,1h0l.2.25h.06v.08l.73.92h0v0l.18.23h.07v.08l1,1.18h0v.05l1,1.2h0v0c.82,1,1.66,2,2.5,3h0l1.51,1.75h0l.21.25h0v0l.18.21h.07v.08c.41.48.83,1,1.25,1.42h0l.23.25h0v0l.2.22h.06v.06l1.75,1.95h0q1.74,1.91,3.51,3.76h0l.23.24h0v0l.22.23h0v0l.21.21h0v0l.19.2h.06v.07l.18.19h.08v.08l.16.17h.09v.08c2,2.11,4.12,4.16,6.22,6.19h.05v0l.21.21h0v0l.22.22h0v0l.23.23h0l.24.24h0c1.07,1,2.14,2,3.23,3h0v0l.24.22h0l2.49,2.25h0l1.7,1.49h0v0l.24.2h0v0l1.41,1.24h.09v.07l.22.18h0v0l1.47,1.22h0v0l3,2.48h0l1.25,1h0l.95.75h.05v0l1.21,1h.05v0l.92.72h.08v.06c.41.32.84.63,1.25.94h0l1,.75h0l1,.75h0l2.74,2h0v0l.68.49H498v0l1,.71h0l.69.49h.07v0l.65.45h.1v.07l1.74,1.19h0l.73.5h0c1,.68,2,1.34,3,2h0c.64.42,1.28.84,1.93,1.25H508v0l.71.46h.05v0c.24.15.48.32.73.47h0l.39.24H510v.07l.71.43h0v0l1.2.73H512v0l2,1.22h0l1.72,1h0v0l1.71,1h0v0l1.7,1h.06v0l.4.22h.1v.06l1.75.94h0l.46.24h0v0c1.08.58,2.16,1.16,3.25,1.73h0l.48.25h0l.48.24h0l.47.24h0v0l.46.23h0v0l.46.23h0v0l.44.22h.06v0l.43.23h.07v0l.43.22h.07v0l.43.22h.07v0l.46.22h0v0l.48.23h0c2.13,1,4.29,2,6.46,3h.06v0l1.63.73h.12v.06l.44.19h.06v0l1.12.47h.14v.06l.47.19h0v0l1.18.48h.07v0l1.74.72h0c1,.43,2.12.84,3.18,1.25h.08v0l1.23.47h0l.63.24h.12v0l1.21.46h0l.65.24h.1v0l.61.22h.14v0l2,.7h0c1.23.42,2.46.84,3.7,1.24h.06v0l.71.23h0v0l.73.23h0l.74.25h0l.77.25h.23v.07l.59.18h.16v.05l.69.2h.07v0l2.48.73h0c1.5.43,3,.84,4.52,1.24h0l.94.25h.06l.88.24H572v0l.84.22H573v0l.89.22H574v0l.95.23H575l1,.24h0c1.49.35,3,.68,4.49,1h0l1.18.24h.08v0l1.12.23H583v0l1.11.22h.14v0l1.24.23h.27v0l1.12.21H587v0l1.25.23h0c1.55.27,3.11.51,4.68.75h.33v.05l1.31.2H595v.07l1.39.18h.36v.05l1.65.2h.11v0q2.15.26,4.29.48H603v0c.79.09,1.57.16,2.36.23h.65v.07l2.36.18h.65v.05l3,.21h0c1.82.11,3.64.18,5.47.25h2.31v.06c1.61,0,3.22.07,4.84.07H2155.08C2162,1877,2168.93,1876.76,2175.78,1876.35Z"/><path fill="#f6b1c2" d="M1038.24,1877l-7.71-549.39L864.36,1167c-56.52-107-36.86-153.18-116-307.5,0,0-5.39-5.74,2.62-9.07,53.13-18.09,119.54,33.06,210.68,219.92l-.06-40.23a62.34,62.34,0,0,1-3.11-19.45V543.25c0-81.3,123.32-85.48,123.32,0V804.08c2.21-.23,6.85-.45,9.1-.65V378c0-81.3,123.31-85.48,123.31,0V805.49c2.19.21,6.77.43,8.94.64V486c0-81.3,123.32-85.48,123.32,0V825.32l9.15,1.37V620.58c0-82.35,123.31-85.48,123.31,0v523.71s14.65,134.28-83.62,196.14l-.25,536.56Z"/><path fill="#f27f99" d="M1149.43,315.57c31.85-2,64.84,18.2,64.84,62.41V805.49c2.19.21,6.77.43,8.94.64l.33,59.31a212.82,212.82,0,0,0-12.72-27c-8.48-15.36-24.9-24.37-24.9-24.37s3.56-440.95-9.15-467.43c-12.47-26-26.79-30.88-27.34-31.06M1017,480.84c31.85-2,64.82,18.2,64.85,62.41l.16,259.54c2.18.2,6.77.42,8.94.64l.32,59.31a211.45,211.45,0,0,0-12.71-27c-8.47-15.36-24.89-24.37-24.89-24.37s3.26-273.22-9.33-299.45S1017.55,481,1017,480.84Zm264.67-57.21c31.85-2,64.85,18.2,64.85,62.41V825.32c2.18.21,6.76.43,8.94.64l.32,59.31a212.82,212.82,0,0,0-12.72-27c-8.47-15.36-24.89-24.37-24.89-24.37s3.43-353-9.16-379.21S1282.23,423.81,1281.68,423.63Zm132.46,134.54c31.85-2,64.85,18.21,64.85,62.41v523.7c7.93,72.85-18.83,155.36-83.62,196.15l-.25,536.56H1352V1298.77c110.73-55.8,98.52-139.66,99-219.28,1-160.17-.19-470.85-9.51-490.26C1428.89,563,1414.69,558.35,1414.14,558.17Z"/><rect width="481.47" height="121.45" x="964.12" y="1755.54" fill="#485f87"/><rect width="240.74" height="121.45" x="1204.86" y="1755.54" fill="#504b6a"/><path fill="#fff" fill-rule="evenodd" d="M1012.56,1783.37a21,21,0,1,1-21,21,21,21,0,0,1,21-21"/><path fill="#f27f99" fill-rule="evenodd" d="M1027.73,1030.05c121.32,9.93,264,4.92,375.93,17.35-73.67,19.2-108.12,39.9-134.92,62.36-27.63,23.15-46.77,48.85-67.8,122.86-54.16-108.33-81-131.35-173.21-202.57"/><path fill="#f6b1c2" d="M2011.59,1877l7.71-549.39L2185.46,1167c56.53-107,36.87-153.18,116-307.5,0,0,5.38-5.74-2.62-9.07-53.14-18.09-119.54,33.06-210.68,219.92l.06-40.23a62.33,62.33,0,0,0,3.1-19.45V543.25c0-81.3-123.31-85.48-123.31,0V804.08c-2.22-.23-6.86-.45-9.11-.65V378c0-81.3-123.31-85.48-123.31,0V805.49c-2.18.21-6.76.43-8.94.64V486c0-81.3-123.31-85.48-123.31,0V825.32l-9.15,1.37V620.58c0-82.35-123.31-85.48-123.31,0v523.71s-14.65,134.28,83.61,196.14l.25,536.56Z"/><path fill="#f27f99" d="M1900.4,315.57c-31.85-2-64.85,18.2-64.85,62.41V805.49c-2.18.21-6.76.43-8.94.64l-.32,59.31a213.48,213.48,0,0,1,12.71-27c8.48-15.36,24.9-24.37,24.9-24.37s-3.55-440.95,9.16-467.43c12.47-26,26.79-30.88,27.34-31.06m132.42,165.27c-31.85-2-64.82,18.2-64.85,62.41l-.17,259.54c-2.18.2-6.76.42-8.94.64l-.32,59.31a213.17,213.17,0,0,1,12.71-27c8.48-15.36,24.9-24.37,24.9-24.37s-3.26-273.22,9.33-299.45S2032.27,481,2032.82,480.84Zm-264.67-57.21c-31.86-2-64.85,18.2-64.85,62.41V825.32c-2.18.21-6.76.43-8.94.64l-.32,59.31a213.48,213.48,0,0,1,12.71-27c8.48-15.36,24.9-24.37,24.9-24.37s-3.43-353,9.16-379.21S1767.6,423.81,1768.15,423.63ZM1635.69,558.17c-31.85-2-64.85,18.21-64.85,62.41v523.7c-7.94,72.85,18.83,155.36,83.61,196.15l.25,536.56h43.16V1298.77c-110.72-55.8-98.52-139.66-99-219.28-1-160.17.2-470.85,9.52-490.26C1620.94,563,1635.14,558.35,1635.69,558.17Z"/><rect width="481.47" height="121.45" x="1604.23" y="1755.54" fill="#485f87"/><rect width="240.74" height="121.45" x="1604.23" y="1755.54" fill="#504b6a"/><path fill="#fff" fill-rule="evenodd" d="M2037.27,1783.37a21,21,0,1,0,21,21,21,21,0,0,0-21-21"/><path fill="#f27f99" fill-rule="evenodd" d="M2022.09,1030.05c-121.31,9.93-264,4.92-375.92,17.35,73.67,19.2,108.11,39.9,134.92,62.36,27.63,23.15,46.77,48.85,67.8,122.86,54.16-108.33,81-131.35,173.2-202.57"/><path fill="#d22027" fill-rule="evenodd" d="M1524.92,383.77c200.47-269.19,577.76-121,601.09,152,25.82,301.78-384.32,683.22-601.81,832.63C1306.71,1219,898,837.54,923.83,535.76c23.33-272.95,400.63-421.18,601.09-152"/><path fill="#e33738" fill-rule="evenodd" d="M1524.92,383.77c150-201.49,399.14-169.1,524.75-25.62a303.4,303.4,0,0,1,13.84,68.25c25.82,301.77-384.31,683.22-601.8,832.62-137.46-94.42-351.27-281.55-483.51-482.66-39.36-81.93-60.94-163.84-54.38-240.6,23.35-272.95,400.64-421.18,601.1-152"/><path fill="#fff" fill-rule="evenodd" d="M1942.09,714.48c-113.34,12.32-237.88,25.9-283.77,26.25v0c-10.48.08-20.12-5.59-23.06-14.28l-46.12-136.34L1504.56,858c-27.91-56.64-45.63-118.37-65.55-177.25l-31.43,45.66c-3.65,6.76-11.86,11.49-21.46,11.57l-231.54-13.86c68.85-9.21,147.82-15.87,217.52-25L1426,620.82c6.4-9.34,20-30.55,27.08-42.82,1.41.65,16.35,47.14,16.37,47.13l31,91.55L1565.32,510l17.76-59.93,93,251.53Z"/><path fill="#ecf4ff" d="M1068.15,482.76a23.58,23.58,0,1,1-43.55-18.08c22.7-54.62,65-97.9,116.2-123.28,50.32-24.94,109.35-32.67,167.12-17A23.59,23.59,0,0,1,1295.74,370c-46.32-12.55-93.68-6.33-134.09,13.69-41.26,20.44-75.27,55.24-93.5,99.11"/><path fill="#ecf4ff" fill-rule="evenodd" d="M1372.39,352.78a27.94,27.94,0,1,1-28,27.93,27.94,27.94,0,0,1,28-27.93"/></svg>