<svg xmlns="http://www.w3.org/2000/svg" enable-background="new 0 0 2950 2950" viewBox="0 0 2950 2950"><polygon fill="#353434" points="153.64 1748.27 159.9 1790.65 170.93 1790.38 178.41 1748.69 168.62 1726.99"/><path fill="#f0f2f0" d="M2950,1102.81c0,112.43-43.09,224.61-128.28,310.05l-51.02,50.77l-620.84,620.1l-619.86-620.1l-51.02-50.77
			c-102.78-102.77-144.13-243.68-123.57-376.92c13.62-89.15,54.73-174.59,123.57-243.19c86.18-85.19,197.87-128.28,310.3-128.28
			c112.67,0,224.37,43.09,310.55,128.28l51.02,50.77l50.02-50.77c171.37-171.37,449.23-171.37,620.85,0
			c15.85,15.85,30.21,32.69,42.84,50.27C2921.52,919.8,2950,1011.19,2950,1102.81z"/><path fill="#e02242" d="M2950,1102.81c0,112.43-43.09,224.61-128.28,310.05l-51.02,50.77l-620.84,620.1l-619.86-620.1l-51.02-50.77
			c-102.78-102.77-144.13-243.68-123.57-376.92c50.02-1.24,107.47,3.22,163.45,20.8c152.05,47.55,85.44,66.37,346.95,66.37
			c261.51,0,347.2-76.03,494.55-52.25c147.35,23.77,147.35,80.98,266.22-37.89c97.57-97.57,127.78-204.8,237.98-189.94
			C2921.52,919.8,2950,1011.19,2950,1102.81z"/><path fill="#e02242" d="M2054.65,2283.61c-32.38,0.01-56.37-23.69-92.72-59.58c-45.89-45.32-115.26-113.8-254.38-193.8
			c-26.88-15.45-52.59-27.28-76.75-35.44c-0.75,69.23-24.47,136.52-58.78,173.45c-27.28,29.4-59.58,38.94-90.99,26.86
			c-35.01-13.47-58.59-47-63.07-89.69c-5.31-50.42,17.52-100.09,58.16-126.53c22.39-14.58,63.82-30.68,128.65-16.9
			c-2.79-24.66-9.12-48.92-19.64-71.21c-23.82-50.47-78.89-109.01-205.89-101.4c-202.09,12.42-382.74-200.39-541.7-387.93
			c-127.67-150.64-248.26-292.93-358.13-296.75c-68.32-2.35-122.52,16.11-165.02,56.49c-88.85,84.44-130.79,265.64-135.98,587.5
			l-24.76-0.41c5.31-329.05,49.63-515.65,143.68-605.04c47.56-45.21,107.3-66.14,182.95-63.29
			c120.8,4.18,244.84,150.53,376.16,305.47c155.19,183.11,331.02,390.53,521.32,379.23c140.69-8.5,202.66,58.16,229.76,115.54
			c12.97,27.5,20.1,57.75,22.42,88.33c26.53,8.11,56.45,20.98,89.94,40.24c141.91,81.6,212.64,151.44,259.45,197.66
			c49.84,49.21,64.38,61.43,100.53,46.52c63.11-26.09,67.36-249.05,63.68-332.75l24.74-1.09c1.44,32.58,11.45,319.34-78.96,356.72
			C2076.42,2281.15,2065.09,2283.61,2054.65,2283.61z M1557.13,1981.32c-25.93,0-48.68,6.07-67.51,18.32
			c-32.91,21.42-51.38,61.92-47.04,103.18c3.49,33.24,21.2,59.09,47.34,69.15c27.22,10.47,49.83-5.39,63.95-20.58
			c32.01-34.47,53.66-98.59,52.54-163.7C1588.98,1983.45,1572.5,1981.32,1557.13,1981.32z"/><path fill="#e02242" d="M326.1,2122.71c0,90.05-73,163.05-163.05,163.05S0,2212.77,0,2122.71s163.05-297.57,163.05-297.57
		S326.1,2032.66,326.1,2122.71z"/><rect width="73.1" height="99.85" x="2113.59" y="2011.47" fill="#e02242"/></svg>