<svg width="3000" height="3000" viewBox="0 0 3000 3000" fill="none" xmlns="http://www.w3.org/2000/svg">
<g clip-path="url(#clip0_8_564)">
<path d="M815.735 931.862C827.585 932.15 834.431 929.962 841.797 923.414C855.538 911.195 881.236 908.283 885.958 909.659C896.301 912.675 912.206 910.255 919.302 907.678C921.17 906.999 923.305 907.902 923.954 909.781C925.959 915.576 925.071 922.791 915.015 927.647C907.064 931.486 895.226 931.203 893.235 933.835C893.144 934.656 936.972 934.317 939.899 936.202C958.333 942.479 948.707 974.309 945.842 978.641C935.181 994.751 893.737 1002.82 878.948 1002.86C862.376 1002.91 857.542 1000.21 851.111 995.363C845.288 990.976 837.234 989.403 831.677 988.411C809.547 984.461 802.811 931.45 815.735 931.862Z" fill="#F0BF98"/>
<path d="M763.348 936.817C798.434 935.147 824.225 931.122 824.225 931.122C861.078 949.938 850.059 983.444 821.083 989.574C821.083 989.574 799.377 990.618 773.137 992.866C770.914 966.81 770.64 962.104 763.348 936.817Z" fill="#F0BF98"/>
<path d="M782.161 992.173C800.453 984.296 809.045 952.922 796.57 935C796.57 935 721.031 930.124 643.364 933.494L659.079 1010.03L782.161 992.173Z" fill="#F0BF98"/>
<path d="M721.286 1023.33C755.061 1023.15 764.412 931.138 735.4 919.443C735.4 919.443 704.119 919.47 670.685 918.469C630.121 918.878 641.114 1021.2 668.455 1028.84L721.286 1023.33Z" fill="#D9D9D9"/>
<path d="M707.603 927.134C707.603 927.134 564.537 924.561 552.556 935.774C540.555 947.007 517.755 1023.97 539.408 1022.94C602.269 1019.95 698.366 1011.75 698.366 1011.75C717.441 1006.03 728.487 943.877 707.603 927.134Z" fill="#E6E6E6"/>
<path d="M721.429 1025.29C755.204 1025.11 765.848 929.609 736.837 917.914C736.837 917.914 704.159 917.622 670.685 918.47C696.052 946.917 692.912 1007.32 668.455 1028.84L721.429 1025.29Z" fill="#F0F0F0"/>
<path opacity="0.07" d="M473.094 2544.31C371.421 2586.22 359.113 2674.58 445.605 2741.66C532.097 2808.73 684.649 2829.13 786.322 2787.22C887.995 2745.31 1464.34 2417.06 1214.79 2292.28C1040.11 2161.26 574.767 2502.4 473.094 2544.31Z" fill="black"/>
<path d="M737.841 687.141C737.448 699.366 727.928 714.754 723.107 731.878C713.412 766.319 707.255 798.341 688.755 827.726C667.286 861.826 648.539 888.677 611.959 852.377C577.901 818.58 554.799 801.44 579.43 742.527C592.296 711.754 475.82 703.23 482.461 654.346C494.247 567.595 573.445 525.59 635.903 544.189C708.304 565.749 740.586 601.917 737.841 687.141Z" fill="#FFD4B9"/>
<path d="M637.302 1171.65C645.152 1196.52 619.024 1248.45 594.528 1239.54C575.198 1232.51 381.398 1040.31 375.333 935.846C372.444 886.091 418.649 875.412 441.968 880.079C473.365 886.364 634.367 1162.35 637.302 1171.65Z" fill="#696969"/>
<path d="M651.926 2625.72C570.011 2658.6 487.393 2693.66 447.223 2662.66C427.375 2647.35 439.338 2571.12 453.99 2562.24C457.575 2560.07 461.039 2561.81 467.434 2562.3C471.932 2562.65 478.154 2573.44 489.074 2573.64C524.544 2574.29 601.901 2568.06 633.788 2562.96C656.073 2559.4 688.926 2530.7 699.314 2541.43C718.588 2561.34 702.158 2605.56 651.926 2625.72Z" fill="white"/>
<path d="M649.067 2608.09C567.15 2640.96 483.812 2670.55 443.643 2639.56C423.795 2624.24 430.285 2556.37 444.937 2547.49C448.522 2545.31 451.986 2547.06 458.381 2547.55C462.879 2547.9 469.101 2558.68 480.021 2558.88C489.99 2559.07 512.181 2554.55 539.529 2548.48C609.485 2532.95 677.78 2518.85 696.962 2535.72C717.766 2554.02 699.297 2587.92 649.067 2608.09Z" fill="#DEB500"/>
<path d="M546.044 2086.06C526.379 2127.62 502.832 2247.31 525.441 2555.42C520.692 2585.14 442.772 2579.53 440.933 2558.94C424.134 2370.82 366.465 2281.04 411.318 2132.27C416.657 2114.57 380.503 1932.14 384.032 1858.39C387.358 1788.93 382.436 1706.57 380.196 1699.16C364.546 1647.39 335.979 1560.49 378.94 1467.51L543.779 1508.91C543.779 1508.91 595.173 1982.25 546.044 2086.06Z" fill="#FFCBA1"/>
<path d="M836.042 2719.08C754.127 2751.96 661.247 2785.77 621.077 2754.77C601.229 2739.46 608.242 2633.81 622.894 2624.93C626.48 2622.76 629.944 2624.5 636.338 2624.99C640.837 2625.34 650.399 2665.98 661.319 2666.18C696.789 2666.84 747.147 2653.76 763.521 2661.52C773.31 2667.65 785.409 2658.88 817.296 2653.78C839.583 2650.21 872.435 2621.52 882.822 2632.25C902.097 2652.16 886.273 2698.92 836.042 2719.08Z" fill="white"/>
<path d="M832.574 2698.91C750.659 2731.78 657.663 2762.66 617.494 2731.66C597.648 2716.35 604.136 2648.48 618.788 2639.6C622.374 2637.42 625.838 2639.16 632.233 2639.66C636.731 2640.01 642.952 2650.79 653.872 2650.99C689.342 2651.65 853.789 2603.08 880.471 2626.54C901.275 2644.84 882.806 2678.74 832.574 2698.91Z" fill="#DEB500"/>
<path d="M685.758 2158.82C666.093 2200.37 692.939 2339.61 701.38 2649.18C696.632 2678.9 617.08 2671.52 615.489 2650.91C603.277 2492.8 518.944 2380.96 565.104 2161.77C568.915 2143.67 554.356 2024.25 557.885 1950.5C561.21 1881.04 556.287 1798.68 554.049 1791.27C538.399 1739.49 509.832 1652.59 552.794 1559.62L697.991 1628.59C697.991 1628.59 734.886 2055 685.758 2158.82Z" fill="#FFCBA1"/>
<path d="M561.585 956.801L608.915 963.031L627.814 819.458L580.485 813.228L561.585 956.801Z" fill="#FFD4B9"/>
<path d="M355.856 2184.93C437.297 2252.13 687.764 2274 736.343 2202.51C736.343 2202.51 755.307 2106.88 755.397 2012.24C755.509 1891.85 688.016 1533.9 688.016 1533.9L360.467 1482.56C349.306 1512.69 346.918 1544.27 350.477 1602.96C352.727 1640.05 371.297 1662.9 377.308 1705.44C385.542 1763.71 355.856 2184.93 355.856 2184.93Z" fill="#F0F0F0"/>
<path d="M360.468 1483.07C372.666 1610.87 613.293 1598.51 686.422 1542.53C698.206 1533.51 653.515 1469.29 643.917 1363.51C637.353 1291.16 719.383 1149.19 721.43 1111.16C724.334 1057.18 707.306 1005.69 699.052 987.248C669.373 920.945 438.78 829.296 374.101 889.421C336.991 923.917 398.515 1154.16 403.114 1292.44C406.727 1401.1 360.932 1468.04 360.468 1483.07Z" fill="#F0F0F0"/>
<path d="M369.524 826.305C465.629 761.709 450.588 601.479 506.601 548.1C560.371 496.857 672.925 517.163 717.172 575.8C755.814 627.01 726.074 705.956 678.68 784.928C626.28 872.239 663.669 947.368 639.189 995.689C624.045 1025.58 590.761 995.935 535.103 1021.39C500.642 1037.15 473.405 973.514 422.427 975.946C400.81 976.978 394.459 939.185 373.669 938.81C344.311 938.28 322.121 858.165 369.524 826.305Z" fill="#361308"/>
<path d="M870.026 1189.41C908.176 1179.56 945.972 1280.56 916.711 1302.38C916.711 1302.38 881.42 1311.66 844.004 1322.74C798.129 1334.35 780.227 1215.67 808.805 1198.92L870.026 1189.41Z" fill="#D9D9D9"/>
<path d="M1008 1168.18C1029.71 1166.1 1043.23 1189.49 1040.66 1213.27C1040.66 1213.27 899.401 1271.67 823.045 1309.35L804.609 1234.63L1008 1168.18Z" fill="#F0C7AD"/>
<path d="M880.17 1295.95C880.17 1295.95 611.269 1366.43 594.06 1361.3C576.82 1356.16 566.179 1287.47 586.3 1278.16C610.405 1267.01 829.854 1217.53 829.854 1217.53C851.338 1213.8 892.473 1269.32 880.17 1295.95Z" fill="#E6E6E6"/>
<path d="M869.605 1187.15C907.756 1177.3 948.045 1281.85 918.786 1303.68C918.786 1303.68 882.014 1313.73 844.004 1322.74C864.193 1283.1 842.764 1215.91 808.805 1198.92L869.605 1187.15Z" fill="#F0F0F0"/>
<path d="M642.034 1354.33C630.254 1377.06 593.566 1339.55 575.739 1308.07C570.717 1299.21 590.225 1115.99 613.784 1056.8C636.407 999.963 734.955 978.247 734.955 1042.09C734.954 1098.17 664.966 1310.11 642.034 1354.33Z" fill="#E6E6E6"/>
<path d="M1085.2 1128.65C1079.66 1135.21 1067.08 1141.34 1066.35 1144.46C1066.88 1146.13 1129.09 1118.28 1135.26 1119.22C1154.09 1117.5 1149.7 1150.72 1148.87 1155.7C1145.76 1174.21 1111.96 1196.38 1098.85 1202.27C1084.17 1208.87 1063.57 1218.69 1053.25 1215.72C1046.45 1213.76 1038.59 1215.93 1033.26 1217.24C1012.07 1222.5 985.182 1178.12 996.812 1173.37C1007.44 1168.94 1011.61 1161.87 1015.56 1153.15C1022.94 1136.87 1044.21 1125.56 1048.94 1124.91C1059.31 1123.49 1076.85 1112.05 1082.13 1106.95C1083.52 1105.61 1085.77 1105.57 1087.09 1106.98C1091.15 1111.32 1092.21 1120.37 1085.2 1128.65Z" fill="#F0C7AD"/>
<path opacity="0.07" d="M2079.91 2269.26C2086.29 2143.66 1915.68 2032.91 1698.84 2021.9C1482 2010.9 1301.05 2103.8 1294.67 2229.4C1288.3 2355.01 1458.91 2465.75 1675.75 2476.76C1892.59 2487.77 2073.54 2394.87 2079.91 2269.26Z" fill="black"/>
<path d="M1409.03 1842.99C1405.19 1789.44 1420.56 1791.42 1460.09 1762.38C1519.74 1729.33 1453.85 991.997 1482.66 902.543L1325.93 856.409L1409.03 1842.99Z" fill="#1C1C1C"/>
<path d="M1645.5 2166.72C1634.73 2186.56 1568.58 2220.38 1568.58 2220.38L1538.68 2206.99L1645.5 2166.72Z" fill="black"/>
<path d="M1568.58 2220.38C1568.58 2220.38 1634.73 2186.56 1645.5 2166.72C1648.03 2162.06 1644.9 2131.05 1644.9 2131.05L1562.53 2192.46L1568.58 2220.38Z" fill="#2E231B"/>
<path d="M1339.73 2245.16C1331.76 2207.42 1429.6 2153.18 1506.53 2115.9C1583.45 2078.63 1615.79 2041.15 1637.38 2085.72C1658.98 2130.28 1646.35 2163.73 1569.42 2201.01C1534.74 2217.81 1503.73 2254.78 1460.09 2271.73C1413.34 2289.89 1347.21 2280.55 1339.73 2245.16Z" fill="#2E231B"/>
<path d="M1338.7 2239.31C1323.11 2204.03 1428.57 2147.33 1505.5 2110.05C1582.42 2072.78 1614.75 2035.3 1636.35 2079.87C1657.94 2124.44 1644.41 2155.56 1567.49 2192.83C1532.81 2209.64 1493.78 2245.27 1449.46 2260.37C1408.14 2274.46 1349.84 2264.51 1338.7 2239.31Z" fill="#613B20"/>
<path d="M1483.95 2115.68C1485.75 2162.73 1644.29 2147.09 1638.83 2094.86L1563.51 1694.27L1631.7 1144.11L1409.57 1179.19C1409.57 1179.19 1368.46 1616.61 1375.82 1689.41C1383.67 1767.13 1483.95 2115.68 1483.95 2115.68Z" fill="#2E2E2E"/>
<path d="M1860.78 2164.49C1856.38 2174.3 1835.35 2195.45 1818.65 2233.65C1808.61 2256.62 1795.18 2277.63 1794.2 2299.81C1792.45 2339.35 1807.25 2344.77 1843.19 2348.8C1905.53 2355.79 1968.09 2289.85 1986.33 2211.15C2004.94 2130.9 1966.38 2122.64 1942.59 2112.84C1902.41 2096.3 1894.49 2089.32 1860.78 2164.49Z" fill="#2E231B"/>
<path d="M1858.03 2148.26C1853.63 2158.08 1838.95 2183.79 1822.25 2221.99C1810.4 2249.1 1789.27 2290.9 1794.19 2314.22C1806.09 2326.11 1853.64 2338 1884.07 2324.91C1912.14 2312.83 1938.28 2290.03 1954.8 2264.12C1976.14 2230.66 2007.89 2122.28 1968.25 2104.51C1928.61 2086.73 1891.74 2073.1 1858.03 2148.26Z" fill="#613B20"/>
<path d="M1838.63 2196.83C1872.39 2204.78 1967.22 2206.85 1980.94 2116.28L1839.23 1747.05L1794.61 1218.86L1568.8 1209.79C1568.8 1209.79 1633.79 1711.71 1650.98 1778.36C1662.5 1823.02 1830.58 2194.94 1838.63 2196.83Z" fill="#3B3B3B"/>
<path d="M1262.83 1237.3C1247 1288.13 1235.02 1323.88 1235.02 1323.88C1214.78 1353.64 1100.03 1312.89 1103.26 1287.9L1129.46 1177.15L1262.83 1237.3Z" fill="#2B2B2B"/>
<path d="M1160.44 1368.53C1159.48 1367.92 1139.99 1399.63 1136.85 1411.07C1133.49 1423.28 1142 1432.4 1136.4 1437.73C1121.49 1451.93 1093.56 1428.36 1090.79 1423.62C1084.43 1412.77 1079.7 1385.78 1084.08 1368.63C1086.82 1357.92 1090.32 1348.38 1092.95 1342.97C1100.61 1327.21 1110.97 1304.63 1121.66 1299.9C1128.71 1296.79 1136.15 1271.56 1139.67 1266.75C1153.71 1247.57 1218 1282.33 1211.59 1294.41C1205.81 1305.53 1190.81 1328.51 1192.6 1338.77L1160.44 1368.53Z" fill="#FACFB4"/>
<path d="M1001.2 1549.34C1025.93 1615.68 1013.92 1470.46 1080.26 1445.72L1200.37 1400.92C1222.93 1389.31 1245.68 1322.14 1196.63 1339.63L1076.51 1384.42C1010.18 1409.16 976.457 1483 1001.2 1549.34Z" fill="#634831"/>
<path d="M1024.78 1476.2L1324.74 2282C1336.78 2290.59 1354.75 2286.39 1359.32 2269.1L1059.36 1463.3L1024.78 1476.2Z" fill="#915D30"/>
<path d="M1001.2 1549.34C1025.93 1615.68 1016.97 1472.28 1083.31 1447.55L1200.75 1400.68C1145.86 1419.87 1162.84 1352.23 1196.63 1339.63L1076.52 1384.42C1010.18 1409.16 976.457 1483 1001.2 1549.34Z" fill="#634831"/>
<path d="M1123.31 1299.37C1095.3 1319.08 1084.11 1362.22 1082.85 1373.37C1079.09 1384.12 1076.75 1406.46 1072.55 1413.25C1071.44 1415.03 1071.91 1417.44 1073.71 1418.52C1079.27 1421.84 1089.13 1420.89 1096.33 1411.53C1102.03 1404.13 1141.94 1329.21 1145.09 1327.72L1123.31 1299.37Z" fill="#FACFB4"/>
<path d="M1181.03 567.162C1201.25 535.468 1282.32 503.243 1312 526.314C1361.76 564.985 1336.41 820.976 1339.46 916.394C1342.26 1003.82 1235.02 1323.88 1235.02 1323.88C1222.7 1290.04 1122.91 1262.14 1103.26 1287.9L1183.98 946.672C1183.98 946.672 1144.26 624.799 1181.03 567.162Z" fill="#7B481B"/>
<path d="M1238.82 298.758L1278.91 481.699C1278.91 481.699 1304.76 552.595 1361.57 541.789C1420.56 530.569 1465.67 459.014 1461.52 442.998C1408.81 439.361 1395.26 249.853 1395.26 249.853L1238.82 298.758Z" fill="#D9B49C"/>
<path d="M1395.45 231.294C1416.23 281.574 1416.25 332.182 1401.56 384.893C1388.64 431.237 1368.12 482.491 1337.26 498.214C1268.26 533.378 1277.59 493.405 1249.55 472.116C1214.08 445.189 1176.65 403.625 1154.84 350.857C1138.64 311.66 1124.69 262.371 1134.9 226.279C1149.31 175.369 1204.79 130.783 1246.92 120.734C1319.52 103.42 1356.4 136.806 1395.45 231.294Z" fill="#F0C7AD"/>
<path d="M1102.1 198.999C1096.67 210.858 1110.6 218.603 1116.89 232.907C1123.72 248.442 1124.79 267.015 1134.17 280.63C1136.35 265.46 1133.1 235.038 1149.74 237.49C1162.31 239.343 1163.22 241.018 1180.93 235.021C1209.07 220.518 1211.95 191.353 1254.05 182.338C1291.28 174.364 1340.71 200.627 1334.63 255.36C1344.03 264.837 1353.94 277.79 1372.71 292.317C1369.29 275.321 1372.46 260.664 1380.53 258.477C1389.37 256.08 1400.72 269.546 1405.87 288.555C1409.36 301.424 1406.62 313.994 1403.36 321.218C1413.9 331.26 1406.08 348.085 1408.78 352.891C1422.16 311.721 1417.77 274.237 1405.61 247.623C1376.01 182.82 1348.04 125.303 1300.82 111.438C1244.77 94.9855 1117.23 165.975 1102.1 198.999Z" fill="#F2F2F2"/>
<path d="M1196.03 450.323C1196.62 452.71 1221.43 478.186 1250.67 451.283C1301.63 447.295 1324.47 384.375 1322.66 382.744C1321.57 379.401 1272.52 400.302 1240.05 429.905C1202.77 427.996 1196.03 450.323 1196.03 450.323Z" fill="#F2F2F2"/>
<path d="M1406.27 1195.84C1418.4 1251.77 1705.27 1280.24 1741.61 1180.82L1466.05 474.157L1247.41 512.493L1406.27 1195.84Z" fill="#3A5234"/>
<path d="M1550.63 477.225C1612.9 483.382 1650.4 494.899 1668.32 554.856C1687.57 619.242 1699.26 743.632 1721.21 869.352C1755.64 1066.53 1946.05 1817.36 1956.17 1828.06C1958.61 1878.19 1934.95 1909.69 1893.91 1928.82C1893.91 1928.82 1518.81 954.707 1487.03 844.438C1462.88 760.626 1441.96 422.146 1467.53 446.839C1485.13 463.84 1529.85 475.17 1550.63 477.225Z" fill="#69482C"/>
<path d="M1508.69 1244.03C1510.76 1243.41 1512.01 1241.27 1511.5 1239.14L1331.76 497.761C1331.23 495.562 1329.02 494.211 1326.82 494.741C1324.68 495.307 1323.27 497.487 1323.8 499.682L1503.54 1241.06C1504.07 1243.26 1506.28 1244.61 1508.48 1244.08L1508.69 1244.03Z" fill="#4A6942"/>
<path d="M1176.13 600.787C1176.75 546.277 1234.53 487.894 1284.99 488.052C1269.94 514.592 1269.46 593.127 1292.21 672.603C1312.63 743.92 1316.96 818.408 1328.56 862.237C1355.31 963.3 1465.62 1974.01 1465.62 1974.01C1420.77 1963.77 1390.94 1942.32 1385.67 1902.54C1385.67 1902.54 1316.83 1135.11 1268.94 960.192C1232 825.263 1175.16 685.922 1176.13 600.787Z" fill="#69482C"/>
<path d="M1422.85 392.258C1443.01 434.825 1352.04 495.576 1327.06 496.872L1412.21 590.358C1412.21 590.358 1462.37 467.943 1451.49 429.95C1446.42 412.225 1422.85 392.258 1422.85 392.258Z" fill="#5A8050"/>
<path d="M1268.56 458.039C1268.56 458.039 1271.51 467.935 1273.62 474.197C1282.88 501.713 1327.01 507.77 1327.01 507.77L1288.31 622.088C1288.31 622.088 1257 540.492 1254.49 506.801C1253.77 497.138 1268.56 458.039 1268.56 458.039Z" fill="#5A8050"/>
<path d="M1270.25 465.81C1264.95 465.997 1249.76 484.961 1244.04 501.65C1235.55 526.468 1223.19 615.315 1223.19 615.315L1254.61 640.518L1260.73 713.836L1326 858.286C1327.28 850.252 1314.53 717.551 1302.76 678.159C1297.3 659.899 1294.95 611.599 1276.82 578.346C1243.74 517.656 1262.53 478.926 1270.25 465.81Z" fill="#85562C"/>
<path d="M1405.84 318.094C1405.84 318.094 1323.56 430.559 1289.65 448.83C1246.06 472.317 1237.53 460.851 1226.36 452.068C1223.25 463.951 1252.02 483.854 1263.16 495.569C1270.02 502.785 1282.59 520.265 1292.21 522.818C1304.67 526.122 1331.65 517.983 1342.37 510.808C1364.5 495.982 1397.18 449.952 1404.78 424.413C1423.7 360.806 1405.84 318.094 1405.84 318.094Z" fill="#F2F2F2"/>
<path d="M1431.79 400.526C1438.59 403.301 1469.71 459.181 1488.33 470.055C1516.05 486.235 1499.5 581.149 1499.5 581.149L1465.64 613.781L1496.34 681.985L1485.31 841.217C1485.31 841.217 1433.38 673.833 1426.41 631.602C1416.02 568.583 1454.38 450.99 1431.79 400.526Z" fill="#85562C"/>
<path d="M1023.72 1069.25C1035.02 1069.05 1051.75 1061.3 1055.55 1063.16C1056.12 1064.04 1044.89 1076.83 1026.44 1086.94C1004.56 1098.92 996.676 1102.08 994.417 1105.92C976.973 1123.72 1020.31 1161.69 1026.08 1164.98C1047.56 1177.24 1084.75 1165.79 1101.67 1157.31C1120.63 1147.81 1133.62 1122.16 1139.19 1109.14C1142.85 1100.56 1151.6 1094.32 1157.38 1089.98C1180.39 1072.71 1157.5 1008.27 1142.97 1016.2C1129.6 1023.36 1120.51 1024.81 1108.31 1021.58C1085.56 1015.55 1054.51 1027.05 1049.91 1031.35C1039.83 1040.76 1016.9 1047.77 1007.3 1048.92C1004.77 1049.22 1002.85 1051.48 1003.2 1054C1004.25 1061.78 1009.43 1069.51 1023.72 1069.25Z" fill="#F0C6AC"/>
<path d="M1692.52 595.196C1692.52 646.189 1501.38 880.356 1469.44 914.401C1431.99 954.315 1187.12 1115.03 1187.12 1115.03C1158.66 1108.17 1099.64 1035.78 1100.05 1009.79L1363.68 797.527C1363.68 797.527 1484.36 601.983 1532.93 563.275C1574.22 530.37 1692.52 435.592 1692.52 595.196Z" fill="#85562C"/>
<path d="M990.525 1010.45C990.056 1010.89 989.417 1011.26 988.616 1011.54L928.359 1032.12C925.089 1033.24 920.331 1032.3 917.745 1030.03L867.298 985.699C863.542 982.399 860.876 978.934 859.265 975.477C858.767 974.409 858.27 973.34 857.772 972.272C859.461 975.896 862.256 979.531 866.195 982.992L916.642 1027.32C919.991 1030.26 926.142 1031.47 930.379 1030.03L990.636 1009.44C991.674 1009.09 992.501 1008.61 993.109 1008.04C992.246 1008.84 991.385 1009.65 990.525 1010.45Z" fill="#4D4D4D"/>
<path d="M994.289 1006C994.008 1007.45 992.766 1008.71 990.634 1009.44L930.377 1030.03C926.14 1031.47 919.989 1030.26 916.64 1027.32L866.193 982.992C858 975.793 854.755 967.844 856.122 960.792L858.916 946.386C857.548 953.437 860.794 961.386 868.986 968.584L919.433 1012.91C922.782 1015.85 928.933 1017.07 933.17 1015.62L993.427 995.035C995.559 994.307 996.801 993.044 997.082 991.594L994.289 1006Z" fill="#666666"/>
<path d="M992.691 990.52C995.963 989.404 996.522 986.651 993.934 984.379L943.487 940.051C927.759 926.23 898.858 920.537 878.948 927.339C859.034 934.14 855.643 950.864 871.373 964.684L921.82 1009.01C924.406 1011.28 929.164 1012.22 932.434 1011.1L992.691 990.52Z" fill="#E6E6E6"/>
<path d="M925.039 1005.35C926.309 1006.46 929.244 1007.04 930.856 1006.49L985.549 987.807C987.12 987.271 987.523 985.237 986.276 984.141L944.839 947.731C943.324 946.4 941.214 945.981 939.306 946.633L890.109 963.438C886.017 964.836 884.965 970.136 888.214 972.99L925.039 1005.35Z" fill="#859194"/>
<path d="M995.33 986.22C995.352 986.268 996.704 989.168 996.749 989.264C997.842 991.609 996.654 993.934 993.429 995.036L933.172 1015.62C928.935 1017.07 922.784 1015.86 919.435 1012.91L868.988 968.586C856.538 957.646 855.513 944.976 864.74 936.353C864.912 936.192 865.084 936.031 865.256 935.87C865.334 935.797 865.437 935.701 865.514 935.629C865.553 935.593 865.604 935.545 865.643 935.509C865.721 935.436 865.824 935.34 865.901 935.268C866.374 934.825 866.848 934.383 867.321 933.941C858.519 942.165 859.497 954.253 871.372 964.686L921.819 1009.01C924.405 1011.29 929.163 1012.22 932.433 1011.11L992.69 990.521C995.181 989.671 996.099 987.873 995.254 986.061C995.278 986.108 995.308 986.172 995.33 986.22Z" fill="#999999"/>
<path d="M938.835 957.495L900.027 970.751C899.311 970.995 898.773 971.346 898.411 971.759C898.589 972.267 898.945 972.782 899.498 973.268L923.924 994.731C925.869 996.44 929.444 997.144 931.906 996.303L970.714 983.047C971.43 982.802 971.967 982.452 972.33 982.039C972.152 981.531 971.796 981.016 971.243 980.53L946.816 959.067C944.872 957.358 941.298 956.654 938.835 957.495Z" fill="#B0BAAD"/>
<path d="M971.652 978.429C972.619 979.278 973.002 980.216 972.84 981.048C972.771 981.404 972.597 981.738 972.332 982.04C972.154 981.532 971.798 981.017 971.245 980.531L946.818 959.068C944.872 957.359 941.298 956.655 938.835 957.496L900.027 970.752C899.311 970.996 898.773 971.347 898.411 971.76C898.278 971.381 898.241 971.006 898.31 970.65C898.474 969.807 899.195 969.073 900.435 968.65L939.243 955.394C941.706 954.553 945.28 955.257 947.225 956.966L971.652 978.429Z" fill="#6E7475"/>
<path d="M922.861 971.67L923.078 970.599L923.308 969.524L917.022 971.672L910.738 973.818L912.602 974.178L914.452 974.542L918.655 973.107L922.861 971.67Z" fill="#595959"/>
<path d="M932.825 977.679L923.532 969.513L923.325 970.593L923.11 971.666L929.938 977.666L931.789 978.03L932.825 977.679Z" fill="#595959"/>
<path d="M931.511 979.233L931.731 978.161L929.878 977.798L925.641 979.245L921.404 980.692L921.187 981.763L923.037 982.127L927.274 980.68L931.511 979.233Z" fill="#595959"/>
<path d="M919.912 982.09L920.947 981.734L921.164 980.663L914.335 974.663L912.483 974.297L910.619 973.924L919.912 982.09Z" fill="#595959"/>
<path d="M942.251 986.147L940.404 985.782L938.551 985.418L934.313 986.866L930.076 988.313L929.86 989.384L929.645 990.453L935.947 988.302L942.251 986.147Z" fill="#595959"/>
<path d="M929.398 990.424L929.619 989.354L929.836 988.285L923.006 982.282L921.155 981.917L920.125 982.277L929.398 990.424Z" fill="#595959"/>
<path d="M952.191 971.065L942.898 962.899L942.691 963.979L942.474 965.052L949.302 971.052L951.155 971.416L952.191 971.065Z" fill="#595959"/>
<path d="M961.676 979.399L952.404 971.252L951.364 971.599L951.145 972.671L957.975 978.673L959.828 979.037L961.676 979.399Z" fill="#595959"/>
<path d="M961.615 979.534L959.767 979.168L957.917 978.804L953.68 980.251L949.443 981.699L949.226 982.769L949.009 983.84L955.313 981.686L961.615 979.534Z" fill="#595959"/>
<path d="M942.31 986.013L933.038 977.866L931.998 978.214L931.781 979.284L938.611 985.286L940.462 985.651L942.31 986.013Z" fill="#F2F2F2"/>
<path d="M942.224 965.057L942.442 963.986L942.672 962.911L936.389 965.057L930.105 967.203L931.967 967.564L933.818 967.928L938.021 966.492L942.224 965.057Z" fill="#F2F2F2"/>
<path d="M950.877 972.618L951.095 971.548L949.244 971.183L945.007 972.631L940.77 974.078L940.553 975.149L942.403 975.513L946.64 974.066L950.877 972.618Z" fill="#F2F2F2"/>
<path d="M939.279 975.475L940.31 975.121L940.527 974.05L933.699 968.049L931.846 967.683L929.986 967.31L939.279 975.475Z" fill="#F2F2F2"/>
<path d="M948.764 983.81L948.983 982.741L949.2 981.67L942.37 975.668L940.519 975.304L939.492 975.662L948.764 983.81Z" fill="#F2F2F2"/>
<path d="M929.616 969.37L927.962 967.917L925.869 968.633L927.522 970.086L929.616 969.37Z" fill="#595959"/>
<path d="M877.061 938.923C871.944 944.781 871.785 952.498 876.637 959.566C877.707 961.13 880.279 961.882 882.252 961.207L902.054 954.442C902.649 954.239 903.138 953.922 903.508 953.499C904.564 952.289 904.375 950.573 903.058 949.417L887.413 935.67C886.146 934.554 883.991 934.122 882.4 934.666C882.379 934.673 882.359 934.681 882.339 934.687L882.194 934.666L881.6 935.051C879.832 936.195 878.305 937.498 877.061 938.923Z" fill="#D9D9D9"/>
<path d="M893.005 931.38C891.945 932.593 892.137 934.314 893.459 935.472L909.104 949.219C910.389 950.35 912.504 950.768 914.131 950.211L933.936 943.444C934.533 943.241 935.023 942.924 935.394 942.5C935.933 941.883 936.167 941.072 936.035 940.275C935.88 939.337 935.253 938.506 934.271 937.938C923.082 931.427 908.133 928.483 895.262 930.256L894.142 930.41L894.075 930.593C893.653 930.788 893.288 931.056 893.005 931.38Z" fill="#D9D9D9"/>
<path d="M903.609 947.774C904.844 948.859 904.578 950.171 903.015 950.705L883.211 957.47C881.376 958.097 878.649 957.369 877.694 955.98C871.952 947.614 873.727 938.861 882.29 933.312C882.475 933.192 882.684 933.093 882.911 933.016C884.42 932.5 886.703 932.919 887.962 934.025L903.609 947.774ZM883.851 933.192C883.715 933.239 883.583 933.385 883.473 933.378C883.47 933.378 883.466 933.378 883.463 933.377C875.199 938.731 873.485 947.184 879.027 955.256C879.617 956.119 881.334 956.579 882.488 956.184L902.292 949.419C903.273 949.085 903.44 948.259 902.665 947.578L887.018 933.829C886.229 933.135 884.789 932.871 883.851 933.192Z" fill="#C1D6D9"/>
<path d="M902.291 949.419C903.272 949.085 903.439 948.259 902.664 947.578L887.017 933.829C886.229 933.134 884.788 932.87 883.85 933.191C883.71 933.239 883.574 933.392 883.462 933.376C875.197 938.73 873.483 947.183 879.025 955.255C879.615 956.118 881.332 956.578 882.486 956.183L902.291 949.419Z" fill="#A6B8BB"/>
<path d="M903.894 951.857C903.79 952.392 903.332 952.857 902.546 953.125L882.742 959.891C880.907 960.518 878.18 959.789 877.225 958.401C874.381 954.257 873.381 950.018 874.137 946.12L874.606 943.698C873.85 947.596 874.85 951.835 877.694 955.979C878.649 957.367 881.375 958.095 883.211 957.469L903.015 950.704C903.801 950.435 904.26 949.97 904.363 949.435L903.894 951.857Z" fill="#889799"/>
<path d="M934.173 938.423C935.326 938.03 935.328 936.982 934.173 936.313C923.381 930.033 908.772 927.156 896.36 928.865C896.338 928.927 896.026 928.926 895.886 928.974C894.947 929.294 894.746 930.119 895.538 930.813L911.185 944.562C911.959 945.243 913.386 945.525 914.366 945.19L934.173 938.423Z" fill="#A6B8BB"/>
<path d="M934.897 939.708L915.091 946.474C913.528 947.008 911.26 946.561 910.026 945.476L894.379 931.727C893.12 930.621 893.44 929.313 894.948 928.798C895.175 928.721 895.428 928.661 895.707 928.623C908.57 926.852 923.698 929.832 934.882 936.339C936.738 937.42 936.73 939.082 934.897 939.708ZM934.173 936.313C923.381 930.033 908.772 927.156 896.36 928.865C896.338 928.927 896.026 928.926 895.886 928.974C894.947 929.294 894.746 930.119 895.538 930.813L911.185 944.562C911.959 945.243 913.386 945.525 914.366 945.19L934.173 938.423C935.326 938.03 935.328 936.982 934.173 936.313Z" fill="#C1D6D9"/>
<path d="M935.78 940.857C935.677 941.389 935.225 941.858 934.427 942.13L914.621 948.896C913.058 949.43 910.79 948.983 909.556 947.898L893.909 934.149C893.287 933.602 893.05 933.007 893.152 932.482L893.622 930.061C893.52 930.586 893.757 931.182 894.379 931.728L910.026 945.477C911.261 946.562 913.528 947.008 915.091 946.475L934.897 939.709C935.695 939.436 936.147 938.968 936.25 938.436L935.78 940.857Z" fill="#889799"/>
<path d="M894.218 947.76C894.747 947.58 894.898 947.12 894.432 946.71L886.863 940.059C886.396 939.648 885.577 939.52 885.048 939.701C884.879 939.759 884.74 939.848 884.652 939.969L880.139 946.129C879.772 946.631 880.541 947.307 881.525 947.347L893.608 947.838C893.843 947.846 894.05 947.817 894.218 947.76Z" fill="#9C9C9C"/>
<path d="M916.03 940.74C916.198 940.682 916.337 940.595 916.426 940.474L920.939 934.313C921.306 933.811 920.537 933.135 919.553 933.095L907.471 932.604C907.233 932.594 907.026 932.624 906.858 932.682C906.33 932.863 906.179 933.321 906.646 933.732L914.215 940.383C914.681 940.793 915.501 940.92 916.03 940.74Z" fill="#9C9C9C"/>
<mask id="mask0_8_564" style="mask-type:luminance" maskUnits="userSpaceOnUse" x="855" y="946" width="143" height="85">
<path d="M994.289 1006C994.008 1007.45 992.766 1008.71 990.634 1009.44L930.377 1030.03C926.14 1031.47 919.989 1030.26 916.64 1027.32L866.193 982.992C858 975.793 854.755 967.844 856.122 960.792L858.916 946.386C857.548 953.437 860.794 961.386 868.986 968.584L919.433 1012.91C922.782 1015.85 928.933 1017.07 933.17 1015.62L993.427 995.035C995.559 994.307 996.801 993.044 997.082 991.594L994.289 1006Z" fill="white"/>
</mask>
<g mask="url(#mask0_8_564)">
<path d="M899.46 988.341L895.332 984.755L889.663 1013.54L893.791 1017.13L899.46 988.341Z" fill="#404040"/>
<path d="M884.301 974.336L875.025 966.253L869.356 995.041L878.632 1003.12L884.301 974.336Z" fill="#404040"/>
<path d="M931.823 1008.76L922.547 1000.68L915.013 1037.24L924.289 1045.32L931.823 1008.76Z" fill="#404040"/>
</g>
<mask id="mask1_8_564" style="mask-type:luminance" maskUnits="userSpaceOnUse" x="855" y="946" width="143" height="85">
<path d="M994.289 1006C994.008 1007.45 992.766 1008.71 990.634 1009.44L930.377 1030.03C926.14 1031.47 919.989 1030.26 916.64 1027.32L866.193 982.992C858 975.793 854.755 967.844 856.122 960.792L858.916 946.386C857.548 953.437 860.794 961.386 868.986 968.584L919.433 1012.91C922.782 1015.85 928.933 1017.07 933.17 1015.62L993.427 995.035C995.559 994.307 996.801 993.044 997.082 991.594L994.289 1006Z" fill="white"/>
</mask>
<g mask="url(#mask1_8_564)">
<path d="M952.1 1000.48L946.025 1002.29L940.188 1031.93L946.263 1030.12L952.1 1000.48Z" fill="#404040"/>
</g>
<mask id="mask2_8_564" style="mask-type:luminance" maskUnits="userSpaceOnUse" x="855" y="946" width="143" height="85">
<path d="M994.289 1006C994.008 1007.45 992.766 1008.71 990.634 1009.44L930.377 1030.03C926.14 1031.47 919.989 1030.26 916.64 1027.32L866.193 982.992C858 975.793 854.755 967.844 856.122 960.792L858.916 946.386C857.548 953.437 860.794 961.386 868.986 968.584L919.433 1012.91C922.782 1015.85 928.933 1017.07 933.17 1015.62L993.427 995.035C995.559 994.307 996.801 993.044 997.082 991.594L994.289 1006Z" fill="white"/>
</mask>
<g mask="url(#mask2_8_564)">
<path d="M992.874 989.685L988.357 991.298L982.52 1020.94L987.037 1019.33L992.874 989.685Z" fill="#404040"/>
</g>
<mask id="mask3_8_564" style="mask-type:luminance" maskUnits="userSpaceOnUse" x="855" y="946" width="143" height="85">
<path d="M994.289 1006C994.008 1007.45 992.766 1008.71 990.634 1009.44L930.377 1030.03C926.14 1031.47 919.989 1030.26 916.64 1027.32L866.193 982.992C858 975.793 854.755 967.844 856.122 960.792L858.916 946.386C857.548 953.437 860.794 961.386 868.986 968.584L919.433 1012.91C922.782 1015.85 928.933 1017.07 933.17 1015.62L993.427 995.035C995.559 994.307 996.801 993.044 997.082 991.594L994.289 1006Z" fill="white"/>
</mask>
<g mask="url(#mask3_8_564)">
<path d="M955.518 1000.87L953.614 1001.61L947.777 1031.25L949.681 1030.51L955.518 1000.87Z" fill="#404040"/>
</g>
<mask id="mask4_8_564" style="mask-type:luminance" maskUnits="userSpaceOnUse" x="900" y="952" width="72" height="39">
<path d="M942.88 953.071L902.378 959.502C901.631 959.621 901.041 959.875 900.613 960.22C900.702 960.751 900.965 961.319 901.427 961.892L921.827 987.212C923.452 989.228 926.854 990.533 929.423 990.125L969.925 983.693C970.673 983.574 971.262 983.321 971.69 982.976C971.601 982.445 971.338 981.877 970.877 981.304L950.475 955.983C948.852 953.967 945.45 952.663 942.88 953.071Z" fill="white"/>
</mask>
<g mask="url(#mask4_8_564)">
<path d="M982.344 943.493L962.89 940.12L950.104 1013.87L969.559 1017.24L982.344 943.493Z" fill="#4D4D4D"/>
</g>
<mask id="mask5_8_564" style="mask-type:luminance" maskUnits="userSpaceOnUse" x="899" y="960" width="72" height="38">
<path d="M941.456 960.278L900.954 966.71C900.206 966.828 899.616 967.082 899.189 967.427C899.278 967.958 899.541 968.526 900.002 969.099L920.403 994.419C922.027 996.435 925.43 997.74 927.999 997.332L968.501 990.9C969.248 990.781 969.837 990.528 970.265 990.183C970.177 989.652 969.914 989.084 969.452 988.511L949.051 963.19C947.427 961.174 944.026 959.87 941.456 960.278Z" fill="white"/>
</mask>
<g mask="url(#mask5_8_564)">
<path d="M935.347 938.41L925.743 936.745L912.957 1010.49L922.562 1012.16L935.347 938.41Z" fill="#4D4D4D"/>
</g>
<mask id="mask6_8_564" style="mask-type:luminance" maskUnits="userSpaceOnUse" x="899" y="961" width="72" height="38">
<path d="M941.334 961.823L900.832 968.254C900.085 968.373 899.495 968.626 899.068 968.972C899.156 969.502 899.419 970.071 899.881 970.644L920.281 995.964C921.906 997.98 925.308 999.285 927.877 998.877L968.379 992.445C969.127 992.326 969.716 992.073 970.144 991.728C970.055 991.197 969.793 990.629 969.331 990.055L948.929 964.735C947.306 962.719 943.904 961.415 941.334 961.823Z" fill="white"/>
</mask>
<g mask="url(#mask6_8_564)">
<path d="M923.094 937.844L919.8 937.272L907.014 1011.02L910.308 1011.59L923.094 937.844Z" fill="#4D4D4D"/>
</g>
<path d="M958.552 1006.97L959.561 1001.85L956.261 998.947C955.779 998.523 955.405 998.084 955.128 997.641L962.964 994.173L971.019 1002.69L958.534 1007L958.511 1006.94L958.552 1006.97Z" fill="#363636"/>
<path d="M964.389 1006.93C960.944 1008.1 958.338 1008.1 958.569 1006.92L971.043 1002.7C970.812 1003.87 967.834 1005.77 964.389 1006.93Z" fill="#363636"/>
<path d="M972.027 997.576L971.019 1002.7L967.746 999.816C965.024 997.424 960.022 996.439 956.576 997.616C956.163 997.757 955.793 997.923 955.463 998.11C954.708 997.162 954.425 996.178 954.599 995.281C954.828 994.102 955.838 993.075 957.572 992.483C961.018 991.306 966.02 992.291 968.742 994.683L972.027 997.576Z" fill="#595959"/>
<mask id="mask7_8_564" style="mask-type:luminance" maskUnits="userSpaceOnUse" x="954" y="991" width="73" height="66">
<path d="M971.534 1000.08L1022.41 1044.78C1022.89 1045.2 1026.27 1049.5 1026.27 1049.5L1015.23 1056.5C1014.08 1056.89 1012.47 1056.57 1011.56 1055.78L959.854 1008.43L958.7 1006.24L959.561 1001.85L956.261 998.948C955.95 998.675 955.688 998.394 955.464 998.111C955.463 998.111 955.463 998.11 955.462 998.111C955.451 998.097 955.442 998.083 955.431 998.069C955.37 997.99 955.313 997.912 955.258 997.833C955.228 997.79 955.198 997.747 955.171 997.704C955.157 997.683 955.141 997.662 955.127 997.641L955.131 997.638C954.63 996.839 954.452 996.031 954.597 995.282C954.826 994.103 955.836 993.076 957.57 992.484C959.016 991.99 960.736 991.881 962.447 992.093L971.534 1000.08Z" fill="white"/>
</mask>
<g mask="url(#mask7_8_564)">
<path d="M1021.03 1047.82C1022.05 1047.47 1022.22 1046.61 1021.42 1045.91L953.165 985.935C952.361 985.228 950.883 984.936 949.865 985.284L943.401 987.492C942.383 987.84 942.212 988.695 943.016 989.402L1011.27 1049.37C1012.07 1050.08 1013.55 1050.37 1014.57 1050.02L1021.03 1047.82Z" fill="white"/>
<path d="M1007.89 1042.74L1012.3 1041.24L1020.14 1048.12L1015.73 1049.63L1007.89 1042.74Z" fill="#FF6040"/>
<path d="M1021.62 1048.49C1021.55 1048.84 1021.25 1049.14 1020.74 1049.32L1014.28 1051.52C1013.26 1051.87 1011.78 1051.58 1010.98 1050.87L942.725 990.902C942.325 990.55 942.166 990.162 942.233 989.818L942.524 988.317C942.457 988.661 942.616 989.05 943.016 989.401L1011.27 1049.37C1012.07 1050.08 1013.55 1050.37 1014.57 1050.02L1021.03 1047.81C1021.54 1047.64 1021.84 1047.34 1021.91 1046.99L1021.62 1048.49Z" fill="#E0E0E0"/>
</g>
<mask id="mask8_8_564" style="mask-type:luminance" maskUnits="userSpaceOnUse" x="954" y="991" width="73" height="66">
<path d="M971.534 1000.08L1022.41 1044.78C1022.89 1045.2 1026.27 1049.5 1026.27 1049.5L1015.23 1056.5C1014.08 1056.89 1012.47 1056.57 1011.56 1055.78L959.854 1008.43L958.7 1006.24L959.561 1001.85L956.261 998.948C955.95 998.675 955.688 998.394 955.464 998.111C955.463 998.111 955.463 998.11 955.462 998.111C955.451 998.097 955.442 998.083 955.431 998.069C955.37 997.99 955.313 997.912 955.258 997.833C955.228 997.79 955.198 997.747 955.171 997.704C955.157 997.683 955.141 997.662 955.127 997.641L955.131 997.638C954.63 996.839 954.452 996.031 954.597 995.282C954.826 994.103 955.836 993.076 957.57 992.484C959.016 991.99 960.736 991.881 962.447 992.093L971.534 1000.08Z" fill="white"/>
</mask>
<g mask="url(#mask8_8_564)">
<path d="M972.027 997.576L971.783 998.817L968.508 995.934C965.786 993.542 960.784 992.557 957.338 993.734C955.894 994.227 954.961 995.024 954.553 995.956C954.541 995.727 954.555 995.502 954.598 995.282C954.827 994.103 955.837 993.076 957.571 992.484C961.017 991.307 966.019 992.292 968.741 994.684L972.027 997.576Z" fill="#595959"/>
</g>
<path d="M1760.24 533.297L1762.98 549.085L1767.8 548.985L1771.08 533.453L1766.79 525.369L1760.24 533.297Z" fill="#353434"/>
<path d="M2984 292.839C2984 334.723 2965.14 376.515 2927.86 408.344L2905.53 427.258L2633.84 658.269L2362.57 427.258L2340.24 408.344C2295.26 370.058 2277.17 317.564 2286.16 267.927C2292.12 234.715 2310.12 202.886 2340.24 177.33C2377.96 145.593 2426.84 129.54 2476.04 129.54C2525.35 129.54 2574.23 145.593 2611.94 177.33L2634.27 196.243L2656.16 177.33C2731.16 113.488 2852.76 113.488 2927.86 177.33C2934.8 183.234 2941.08 189.508 2946.61 196.057C2971.54 224.661 2984 258.707 2984 292.839Z" fill="#F0F2F0"/>
<path d="M2984 292.839C2984 334.723 2965.14 376.514 2927.86 408.344L2905.53 427.258L2633.84 658.269L2362.57 427.258L2340.24 408.344C2295.26 370.058 2277.17 317.564 2286.16 267.927C2308.05 267.465 2333.2 269.127 2357.69 275.676C2424.24 293.39 2395.09 300.401 2509.53 300.401C2623.97 300.401 2661.47 272.077 2725.96 280.936C2790.44 289.791 2790.44 311.104 2842.46 266.821C2885.16 230.472 2898.38 190.525 2946.61 196.061C2971.54 224.66 2984 258.707 2984 292.839Z" fill="#E02242"/>
<path d="M2592.17 732.732C2578 732.736 2567.5 723.906 2551.59 710.536C2531.51 693.653 2501.15 668.141 2440.27 638.338C2428.51 632.582 2417.26 628.175 2406.68 625.135C2406.35 650.926 2395.97 675.994 2380.96 689.752C2369.02 700.705 2354.88 704.259 2341.14 699.758C2325.82 694.74 2315.5 682.249 2313.54 666.345C2311.21 647.562 2321.2 629.058 2338.99 619.208C2348.79 613.777 2366.92 607.779 2395.29 612.912C2394.07 603.726 2391.3 594.688 2386.7 586.384C2376.27 567.582 2352.17 545.774 2296.59 548.609C2208.15 553.235 2129.1 473.956 2059.53 404.09C2003.66 347.971 1950.88 294.962 1902.8 293.539C1872.9 292.664 1849.18 299.541 1830.59 314.584C1791.7 346.041 1773.35 413.545 1771.08 533.45L1760.24 533.297C1762.57 410.714 1781.96 341.198 1823.12 307.897C1843.93 291.054 1870.08 283.257 1903.18 284.319C1956.05 285.876 2010.33 340.397 2067.8 398.118C2135.72 466.334 2212.66 543.605 2295.94 539.396C2357.51 536.229 2384.63 561.062 2396.49 582.439C2402.17 592.684 2405.29 603.953 2406.31 615.345C2417.92 618.366 2431.01 623.161 2445.67 630.336C2507.77 660.735 2538.72 686.753 2559.21 703.972C2581.02 722.304 2587.38 726.857 2603.2 721.302C2630.82 711.583 2632.68 628.522 2631.07 597.34L2641.9 596.934C2642.53 609.071 2646.91 715.901 2607.34 729.826C2601.7 731.815 2596.74 732.732 2592.17 732.732ZM2374.44 620.117C2363.09 620.117 2353.14 622.379 2344.9 626.942C2330.5 634.922 2322.41 650.01 2324.31 665.381C2325.84 677.764 2333.59 687.394 2345.03 691.142C2356.94 695.042 2366.84 689.134 2373.02 683.475C2387.02 670.633 2396.5 646.746 2396.01 622.49C2388.38 620.911 2381.17 620.117 2374.44 620.117Z" fill="#E02242"/>
<path d="M1835.71 672.791C1835.71 706.338 1803.76 733.533 1764.36 733.533C1724.95 733.533 1693 706.341 1693 672.791C1693 639.24 1764.36 561.934 1764.36 561.934C1764.36 561.934 1835.71 639.243 1835.71 672.791Z" fill="#E02242"/>
<path d="M2649.96 631.349H2617.96V668.547H2649.96L2649.96 631.349Z" fill="#E02242"/>
</g>
<defs>
<clipPath id="clip0_8_564">
<rect width="3000" height="3000" fill="white"/>
</clipPath>
</defs>
</svg>
