<svg xmlns="http://www.w3.org/2000/svg" data-name="Layer 1" viewBox="0 0 3000 2000"><defs><linearGradient id="b" x1="1119.98" x2="1119.98" y1="987.76" y2="332.72" gradientUnits="userSpaceOnUse"><stop offset="0" stop-color="#9d1c20"/><stop offset="1" stop-color="#ec2224"/></linearGradient><clipPath id="a"><path fill="none" d="M1176.46 411c65.74-32.6 179.62-71 256.34 2.42 189 180.78-149.55 439-307.11 573.27-29.21 24.91-56.52 22.81-84.11-7.76-132-146.29-423.4-462.66-216.11-618.44 83.45-62.69 187.94-6.62 248.69 38.11 40.83 30 55.91 35.41 102.3 12.4" clip-rule="evenodd"/></clipPath></defs><path fill="#ecf4ff" fill-rule="evenodd" d="M1329.69 241.2c-121.78 45.59-237.55 143.21-328.69 234.22C811.07 664.94 782.74 704.78 548.48 863.9 412 956.63 304.3 1035.06 251.27 1140c-149 294.65 28.47 612.89 400.31 612.89h1511.56s177.81 4.05 307.56-153.44c439.76-533.78-289.63-1676.95-1141-1358.21"/><g clip-path="url(#a)"><path fill="url(#b)" d="M618.18 297.83h1003.61v713.8H618.18z"/></g><path fill="#fff" fill-rule="evenodd" d="M1345.48 790.3c-12.72 13.17-25.81 26.13-39.09 38.83l-105.19-9.3a21 21 0 0 1-18.87-17.33l-26.41-150.57-79 216.34a21 21 0 0 1-40.57-3.32l-22.54-128.48-32.51 46.37a21 21 0 0 1-20.17 10.57l-81.8-7.22c-10-13.58-19.8-27.37-29.2-41.31a20.87 20.87 0 0 1 12-2.5l90.74 8 55.78-79.52a21 21 0 0 1 37.85 8.4h.07l17.73 101.09 79-216.59a21 21 0 0 1 40.53 3.84L1221 779.3Z"/><path fill="#fff" d="M1243.73 520.2a15.43 15.43 0 0 1 25.52-17.36l33.28 48.91 99.76-76.09A15.41 15.41 0 1 1 1421 500.2l-112.08 85.48c-.4.33-.83.65-1.27 1a15.42 15.42 0 0 1-21.42-4.07Z"/><path fill="#f6b1c2" d="m530.51 1059.32 808.82 126.5 697.82-3.59L2180 1034.39c12.6-20.78 71.44-23 120.89-36.5 68.84-18.81 90.67-26.71 143.28-51.54 0 0 5.08-3.5 8.05 3.62 16.1 47.29 5.77 160.69-186.21 171h35.79a64.73 64.73 0 0 1 17.3-2.77l412.74-17.57c72.27-3.08 75.83 103.89 0 109.71L2503 1227.9c.22 2 .41 6.11.59 8.12h378.56c72.32 0 76.07 109.71 0 109.71h-380.4c-.19 1.94-.38 6-.56 8l283.21 15.19c72.24 3.86 75.95 113.56 0 109.72l-300.3-15.18-2 16.53 183.39 16.38c73 6.52 75.78 116.35 0 109.72l-282.72-24.78h-182.49s-119.48 13-174.52-74.39l-689.71-16.7-843.66-119.31Z"/><path fill="#f27f99" d="M2937.66 1288c1.79 28.34-16.19 57.7-55.53 57.7h-380.4c-.19 1.94-.38 6-.56 8l-52.77.3a188.78 188.78 0 0 0 24-11.32c13.64-7.55 21.66-22.15 21.66-22.15s392.36 3.16 415.93-8.16c23.11-11.09 27.46-23.84 27.63-24.32M2787.4 1152.63c1.82 28.35-16.32 54.65-55.53 57.69l-227.74 17.74c-.16 1.93-.37 6-.56 8l-52.77.28a190.72 190.72 0 0 0 24-11.32c13.66-7.55 21.66-22.14 21.66-22.14s239.91-14.69 263.26-25.9 27.47-23.82 27.63-24.31M2839.9 1420.88c1.82 28.34-16.23 59.69-55.52 57.71l-300.3-15.18c-.17 1.93-1.8 14.58-2 16.53l-51.33-8.29a190.2 190.2 0 0 0 24.05-11.32c13.67-7.54 21.69-22.15 21.69-22.15s312.47 18.23 335.79 7 27.47-23.84 27.63-24.33M2721 1548.33c1.79 28.35-16.24 59.82-55.53 57.71l-459.38-24.78h-5.8c-64.81 7.06-138.23-16.74-174.52-74.39l-686.43-.11-846.95-135.85 4.61-37.67 839.25 135h726.58c49.64 98.51 124.26 87.66 195.11 88.1 142.5.92 418.14 24.6 435.42 16.31 23.35-11.21 27.47-23.84 27.63-24.33"/><path fill="#f27f99" fill-rule="evenodd" d="M2329.89 1173c-16.32 97.35-22 213-39.77 302.61-10.49-60.84-24.82-90.11-41.17-113.31-16.79-23.92-36.26-41.15-94.65-63.21 91.28-36.35 111.72-56.51 175.59-126.09"/><path fill="#6ab0d8" d="M678.41 1074.22h429.79v412.3H678.41z" transform="rotate(-82.29 893.305 1280.375)"/><path fill="#00719e" d="m668.87 1466.85 57.66-425.91-17.35-2.35-57.66 425.9 17.35 2.36z"/><path fill="#00719e" d="M882.66 1299.34h429.8v17.51h-429.8z" transform="rotate(-82.29 1097.564 1308.102)"/><path fill="#4597bf" d="m844.44 1244.65 105.48 14.28c62.42 8.46 112.78 42.64 133.92 85.46a104.92 104.92 0 0 1 6.59 16.52 97.37 97.37 0 0 1 4.21 27.66 93.44 93.44 0 0 1-.85 12.76l-16.35 120.83-425.92-57.67 16.36-120.82a92.39 92.39 0 0 1 2.57-12.55 97.57 97.57 0 0 1 11.42-25.51 99.85 99.85 0 0 1 10.76-14.19c31.75-35.64 89.39-55.21 151.81-46.77"/><path fill="#cfcecc" d="m1095.27 1390.53-1.48 10.8c.11-.77.21-1.56.3-2.33l1.46-10.83c-.1.79-.19 1.57-.28 2.36"/><path fill="#00719e" d="M979.22 1261.63a208.43 208.43 0 0 0-20.92-4.94 208.43 208.43 0 0 1 20.92 4.94m106.21 70.76-1.46 10.82c-17.46-36.38-55-66.66-103-81.06 47.94 14.4 85.55 44.71 103 81.11a100.69 100.69 0 0 1 6.58 16.8 103.78 103.78 0 0 1 4.08 28.51 93.44 93.44 0 0 1-.85 12.76l-16.35 120.83-15.51-2.11 16.37-120.83a76.71 76.71 0 0 0 .46-17.31c-4.07-53.38-59.39-101.4-132.45-111.29l-101.49-13.75c-73.22-9.9-139.17 21.69-157.28 72.07a76.18 76.18 0 0 0-4.17 16.81L667 1466.6l-15.49-2.11 16.36-120.82a92.39 92.39 0 0 1 2.57-12.55 103 103 0 0 1 11.56-26.36 98 98 0 0 1 10.79-14.47l1.47-10.8c32-36.93 90.72-57.36 154.12-48.78l101.5 13.73c63.21 8.56 114.3 43.84 135.55 87.95Z"/><path fill="#00719e" d="m694.24 1279.49-1.47 10.8a98 98 0 0 0-10.77 14.47 103 103 0 0 0-11.53 26.36 92.39 92.39 0 0 0-2.57 12.55l1.46-10.8a99.58 99.58 0 0 1 14.1-38.93 98.1 98.1 0 0 1 10.8-14.45M1095.55 1388.17l-1.46 10.83a99.47 99.47 0 0 0 .55-10.43 103.78 103.78 0 0 0-4.08-28.51 100.69 100.69 0 0 0-6.58-16.8l1.46-10.82a.08.08 0 0 0 0 .07 101.56 101.56 0 0 1 6.56 16.79 100.27 100.27 0 0 1 3.53 38.92"/><path fill="#555559" d="M1850.26 1351.64H1473.5v-36.41h376.76c35.06 0 64.67-20.85 64.67-45.49s-29.61-45.53-64.67-45.53h-134.8c-54.38 0-97-33-97-75.06s42.61-75.08 97-75.08h134.8c35.65 0 64.67-26.91 64.67-60v-50.76h32.33v50.75c0 53.17-43.49 96.4-97 96.4h-134.8c-38.09 0-64.66 20.41-64.66 38.69s26.57 38.67 64.66 38.67h134.8c54.4 0 97 36 97 81.92s-42.6 81.9-97 81.9"/><path fill="#45444b" d="M1906.42 901.11h48.5v64.04h-48.5z"/><path fill="#555559" d="m1135.89 1296.06 131.91 17.75 288.38 1.84-.3 36.87-289.62-1.86-1.82-.06-132.46-17.81 3.91-36.73z"/><path fill="#45444b" d="m1144.71 1338.95 6.51-48.07-44.7-6.04-6.5 48.07 44.69 6.04z"/><path fill="#9bcfe4" d="M1759.12 934a105.17 105.17 0 0 1-105-105.05V494.71a105.17 105.17 0 0 1 105-105h334.2a105.19 105.19 0 0 1 105.08 105v334.2A105.19 105.19 0 0 1 2093.32 934Z"/><path fill="#45444b" d="M2093.32 878.8h-334.2a49.88 49.88 0 0 1-49.87-49.89v-334.2a49.87 49.87 0 0 1 49.87-49.87h334.2a49.87 49.87 0 0 1 49.85 49.87v334.2a49.87 49.87 0 0 1-49.85 49.89"/><path fill="#36363b" d="M2143.17 494.45a49.31 49.31 0 0 0-10.08-29.53l.51.39a49.48 49.48 0 0 1 9.57 29.14m0 .26ZM1758.86 878.8a49.66 49.66 0 0 1-29-9.53c-.16-.2-.32-.4-.46-.61a49.28 49.28 0 0 0 29.46 10.14Zm.26 0Z"/><path fill="#daecf0" d="M2060.64 779.07h-268.85c-22.16 0-40.12-15.05-40.12-33.56V520.76c0-18.52 18-33.54 40.12-33.54h268.85c22.2 0 40.17 15 40.17 33.54v224.75c0 18.51-18 33.56-40.17 33.56"/><path fill="#36363b" d="M2061.12 487.22a.47.47 0 0 0-.16 0 .47.47 0 0 1 .16.02Zm.27 0Zm.18 0Zm-309.9 258.47Zm0 .21Zm0 .21Zm0 .17a.28.28 0 0 0 0-.09.28.28 0 0 1 .01.11Zm0 .2Z"/><path fill="#9ca9aa" d="M1766.7 771.47c-8.83-5.92-14.65-14.8-15-25v-.2a.28.28 0 0 0 0-.09V520.76c0-18.52 18-33.54 40.12-33.54H2061a.47.47 0 0 1 .16 0h.45c14.79.28 27.5 7.34 34.16 17.51a45.12 45.12 0 0 0-25.09-7.56h-268.9c-22.15 0-40.12 15.06-40.12 33.57v224.75a28.88 28.88 0 0 0 5.08 16"/><path fill="#e2e3e2" d="M1843.14 827.64a29.93 29.93 0 1 1-29.93-29.92 30 30 0 0 1 29.93 29.92M1906.34 857.59a20 20 0 0 1-19.92-20v-20a20 20 0 0 1 19.92-19.95h55.28v59.87ZM2026.83 857.59h-55.23v-59.87h55.23a20 20 0 0 1 20 19.95v20a20 20 0 0 1-20 20"/><path fill="#555559" d="M1808.21 812.67h9.98v29.96h-9.98zM1989.31 804.67l39.77 22.97-39.77 22.96v-45.93z"/><path fill="#3a3a3a" d="m1992.09 810.24 33.56 19.38 3.43-1.98-39.77-22.97v45.93l2.78-1.6v-38.76z"/><path fill="#555559" d="m1943.57 804.69-39.77 22.95 39.77 22.99v-45.94z"/><path fill="#3a3a3a" d="m1940.82 810.24-33.6 19.39-3.42-1.99 39.77-22.95v45.94l-2.75-1.59v-38.8z"/><path fill="#45444b" d="M1935 675.75a11.1 11.1 0 0 0-8.8 4.36 11.14 11.14 0 0 0-20 6.8c0 11.18 20 22.65 20 22.65s19.93-11.64 19.93-22.65a11.13 11.13 0 0 0-11.13-11.16M1865.45 751.85h-.03l-2.59-2.13-11.83-58.27-10.88 36.69-2.6 1.91h-38.11v-5.38h36.11l13.42-45.04 2.71-1.9 2.48 2.13 11.48 56.6 8.58-37.58 2.57-2.14h.05l2.6 2.05 6.47 25.88h65.55v5.38h-67.66l-2.6-2.04-4.25-17.04-8.82 38.82-2.65 2.06zM1977 561.83V515.5h-9.68a37.88 37.88 0 0 1-14.23 5.21v8.2h10.72v32.92h-12.43v10.74h36.37v-10.74ZM2024.56 561.38a83.91 83.91 0 0 0-9.55.76c9.25-9.72 18.24-20 18.24-29.6 0-11-7.65-18.09-18.88-18.09-8.13 0-13.43 3.07-19.1 9.1l7.17 7.06c2.89-3.05 6-5.87 10.08-5.87 5 0 8.16 3 8.16 8.62 0 8.07-10.27 17.88-24.79 31.59v7.62H2036v-11.19ZM2063.63 514.45c-12.22 0-20.38 10-20.38 29.35s8.16 29.83 20.38 29.83 20.44-10.47 20.44-29.83-8.19-29.35-20.44-29.35m0 48.94c-4.38 0-7.86-4-7.86-19.59s3.48-19.16 7.86-19.16 7.92 3.51 7.92 19.16-3.42 19.59-7.92 19.59ZM2026.48 632v-.28c4-2.63 7.44-7.1 7.44-12.51 0-9.5-6.9-15.67-17.28-15.67-10.62 0-18.24 6.07-18.24 15.73 0 6.06 3.18 10.11 7.62 13.48v.38c-5.37 2.83-9.71 7.08-9.71 14 0 9.26 8.43 15.66 19.9 15.66 12.06 0 20.2-6.85 20.2-15.87 0-7.51-4.42-11.89-9.93-14.9m-10.13-19.28c4.33 0 7 3 7 7.38a12.71 12.71 0 0 1-3.5 8.32c-5.89-2.22-9.82-4.46-9.82-9.15-.03-4.43 2.81-6.59 6.32-6.59Zm.08 40.9c-4.79 0-8.8-3-8.8-8.07a12.4 12.4 0 0 1 4.41-9c7.17 3 12.06 4.89 12.06 9.91 0 4.79-3.26 7.12-7.67 7.12ZM2063.63 603.52c-12.22 0-20.38 10-20.38 29.38s8.16 29.85 20.38 29.85 20.44-10.43 20.44-29.85-8.19-29.38-20.44-29.38m0 49c-4.38 0-7.86-4-7.86-19.59s3.48-19.14 7.86-19.14 7.92 3.56 7.92 19.14-3.42 19.56-7.92 19.56ZM2019.8 715.11c-3.51 0-8.51 2.25-11.4 6 .43-13.34 5.41-17.8 11.74-17.8a13 13 0 0 1 8.88 4l6.9-7.89a22.68 22.68 0 0 0-16.61-6.78c-12 0-23 9.59-23 30.84 0 20 10.48 28.3 21.5 28.3 10.41 0 19-7.24 19-19.14s-7.22-17.59-17-17.59m-2.29 26.95c-3.93 0-7.73-2.89-8.93-11.91 2.62-4.07 5.78-5.57 8.67-5.57 4.3 0 7.43 2.24 7.43 8.19 0 6.46-3.21 9.29-7.17 9.29ZM2063.63 692.7c-12.22 0-20.38 10-20.38 29.33s8.16 29.81 20.38 29.81 20.44-10.44 20.44-29.81-8.19-29.33-20.44-29.33m0 48.95c-4.38 0-7.86-4-7.86-19.62s3.48-19.13 7.86-19.13 7.92 3.5 7.92 19.13-3.42 19.62-7.92 19.62Z"/><path fill="#ef6928" d="M1723.2 535.19h19.08v30.75h-19.08z"/><path fill="#e7c25b" d="M1723.2 585.88h19.08v30.75h-19.08z"/><path fill="#9eb445" d="M1723.2 636.61h19.08v30.76h-19.08z"/><path fill="#45444b" d="M1787.5 646.99h33.49v9.97h-33.49z"/><path fill="#45444b" d="m1792.86 652 6.58-10.79-.38-.25-17.59 7c-6.12 1.33-12.24 2.7-18.34 4 6.1 1.34 12.22 2.72 18.34 4l17.59 7 .38-.15ZM1783.59 505.1h8.73v20.8h-8.73zM1796.01 505.1h8.76v20.8h-8.76zM1808.45 505.1h8.76v20.8h-8.76z"/><path fill="#485f87" fill-rule="evenodd" d="M147.2 1345.94c30.71-66 90.52-316.22 110-394.15l349.15 81.14-55.51 395.26-130-43Z"/><path fill="#504b6a" fill-rule="evenodd" d="M139.55 1353.58c19-66.5 40.15-138.5 67.65-203.23l369.29 91.25-25.68 186.59Z"/></svg>