<svg xmlns="http://www.w3.org/2000/svg" xmlns:xlink="http://www.w3.org/1999/xlink" enable-background="new 0 0 3000 3000" viewBox="0 0 3000 3000"><switch><g><path fill="#f0bf98" d="M1104.668,972.861c11.85,0.288,18.696-1.9,26.062-8.448
								c13.741-12.219,39.439-15.131,44.161-13.755c10.343,3.016,26.248,0.596,33.344-1.981c1.868-0.679,4.003,0.224,4.652,2.103
								c2.005,5.795,1.117,13.01-8.939,17.866c-7.951,3.839-19.789,3.556-21.78,6.188c-0.091,0.821,43.737,0.482,46.664,2.367
								c18.434,6.277,8.808,38.107,5.943,42.439c-10.661,16.11-52.105,24.179-66.894,24.221c-16.572,0.05-21.406-2.655-27.837-7.499
								c-5.823-4.387-13.877-5.96-19.434-6.952C1098.48,1025.46,1091.744,972.449,1104.668,972.861L1104.668,972.861z"/><path fill="#f0bf98" d="M1052.281,977.816c35.086-1.67,60.877-5.695,60.877-5.695
								c36.853,18.816,25.834,52.322-3.142,58.452c0,0-21.706,1.044-47.946,3.292
								C1059.847,1007.809,1059.573,1003.103,1052.281,977.816z"/><path fill="#f0bf98" d="M1071.094,1033.173c18.292-7.877,26.884-39.251,14.409-57.173c0,0-75.539-4.876-153.206-1.506
							l15.715,76.533L1071.094,1033.173z"/><g><path fill="#d9d9d9" d="M1010.219,1064.328c33.775-0.182,43.126-92.191,14.114-103.886c0,0-31.281,0.028-64.715-0.973
								c-40.564,0.409-29.571,102.73-2.23,110.367L1010.219,1064.328z"/><path fill="#e6e6e6" d="M996.536,968.134c0,0-143.066-2.573-155.047,8.64c-12.001,11.233-34.801,88.192-13.148,87.162
								c62.861-2.987,158.958-11.185,158.958-11.185C1006.374,1047.033,1017.42,984.877,996.536,968.134z"/><path fill="#f0f0f0" d="M1010.362,1066.294c33.775-0.182,44.419-95.686,15.408-107.381c0,0-32.678-0.292-66.152,0.556
								c25.367,28.447,22.227,88.847-2.23,110.367L1010.362,1066.294z"/><g><path d="M762.027,2585.309c-101.673,41.912-113.981,130.274-27.489,197.349
										c86.492,67.075,239.044,87.476,340.717,45.562c101.673-41.913,678.018-370.161,428.469-494.944
										C1329.04,2202.255,863.7,2543.396,762.027,2585.309z" opacity=".07"/><path fill="#ffd4b9" d="M1026.774,728.14c-0.393,12.225-9.913,27.613-14.734,44.737
												c-9.695,34.441-15.852,66.463-34.352,95.848c-21.469,34.1-40.216,60.951-76.796,24.651
												c-34.058-33.797-57.16-50.937-32.529-109.85c12.866-30.773-103.61-39.297-96.969-88.181
												c11.786-86.751,90.984-128.756,153.442-110.157C997.237,606.748,1029.519,642.916,1026.774,728.14z"/><path fill="#696969" d="M926.235,1212.648c7.85,24.871-18.278,76.798-42.774,67.89
												c-19.33-7.03-213.13-199.231-219.195-303.692c-2.889-49.755,43.316-60.434,66.635-55.767
												C762.298,927.364,923.3,1203.347,926.235,1212.648z"/><path fill="#fff" d="M940.859,2666.72c-81.915,32.879-164.533,67.941-204.703,36.944
													c-19.848-15.315-7.885-91.542,6.767-100.423c3.585-2.174,7.049-0.432,13.444,0.063
													c4.498,0.349,10.72,11.131,21.64,11.332c35.47,0.655,112.827-5.579,144.714-10.677
													c22.285-3.564,55.138-32.258,65.526-21.529C1007.521,2602.336,991.091,2646.559,940.859,2666.72z"/><path fill="#deb500" d="M938,2649.085c-81.917,32.879-165.255,62.468-205.424,31.471
													c-19.848-15.316-13.358-83.186,1.294-92.069c3.585-2.174,7.049-0.43,13.444,0.064
													c4.498,0.349,10.72,11.131,21.64,11.332c9.969,0.185,32.16-4.333,59.508-10.404
													c69.956-15.529,138.251-29.629,157.433-12.759C1006.699,2595.017,988.23,2628.923,938,2649.085z"/><path fill="#ffcba1" d="M834.977,2127.063c-19.665,41.555-43.212,161.248-20.603,469.353
												c-4.749,29.727-82.669,24.114-84.508,3.522c-16.799-188.12-74.468-277.895-29.615-426.664
												c5.339-17.707-30.815-200.134-27.286-273.88c3.326-69.463-1.596-151.824-3.836-159.232
												c-15.65-51.776-44.217-138.677-1.256-231.648l164.839,41.399C832.713,1549.913,884.106,2023.25,834.977,2127.063z"/><path fill="#fff" d="M1124.975,2760.082c-81.915,32.878-174.795,66.687-214.965,35.689
													c-19.848-15.316-12.835-120.958,1.817-129.84c3.586-2.174,7.05-0.432,13.444,0.063
													c4.499,0.349,14.061,40.988,24.981,41.188c35.47,0.656,85.828-12.42,102.202-4.665
													c9.789,6.136,21.888-2.642,53.775-7.74c22.287-3.564,55.139-32.258,65.526-21.527
													C1191.03,2693.156,1175.206,2739.921,1124.975,2760.082z"/><path fill="#deb500" d="M1121.507,2739.905c-81.915,32.879-174.911,63.756-215.08,32.759
													c-19.846-15.316-13.358-83.186,1.294-92.068c3.586-2.174,7.05-0.432,13.445,0.063
													c4.498,0.349,10.719,11.131,21.639,11.332c35.47,0.656,199.917-47.915,226.599-24.45
													C1190.208,2685.836,1171.739,2719.743,1121.507,2739.905z"/><path fill="#ffcba1" d="M974.691,2199.815c-19.665,41.555,7.181,180.797,15.622,490.36
												c-4.748,29.727-84.3,22.349-85.891,1.736c-12.212-158.114-96.545-269.954-50.385-489.14
												c3.811-18.098-10.748-137.525-7.219-211.271c3.325-69.463-1.598-151.824-3.836-159.231
												c-15.65-51.777-44.217-138.678-1.255-231.649l145.197,68.967C986.924,1669.589,1023.819,2096.003,974.691,2199.815z"/><rect width="47.738" height="144.812" x="859.688" y="856.562" fill="#ffd4b9" transform="rotate(-172.501 883.6 929.046)"/><path fill="#f0f0f0" d="M644.789,2225.931c81.441,67.203,331.908,89.069,380.487,17.577
												c0,0,18.964-95.63,19.054-190.264c0.112-120.392-67.381-478.34-67.381-478.34L649.4,1523.559
												c-11.161,30.134-13.549,61.712-9.99,120.399c2.25,37.09,20.82,59.945,26.831,102.48
												C674.475,1804.714,644.789,2225.931,644.789,2225.931z"/><path fill="#f0f0f0" d="M649.401,1524.066c12.198,127.807,252.825,115.442,325.954,59.467
												c11.784-9.021-32.907-73.247-42.505-179.023c-6.564-72.348,75.466-214.319,77.513-252.351
												c2.904-53.978-14.124-105.474-22.378-123.912c-29.679-66.303-260.272-157.952-324.951-97.827
												c-37.11,34.496,24.414,264.741,29.013,403.018C695.66,1442.095,649.865,1509.039,649.401,1524.066z"/><path fill="#361308" d="M658.457,867.304c96.105-64.596,81.064-224.826,137.077-278.205
												c53.77-51.243,166.324-30.937,210.571,27.7c38.642,51.21,8.902,130.156-38.492,209.128
												c-52.4,87.311-15.011,162.44-39.491,210.761c-15.144,29.893-48.428,0.246-104.086,25.7
												c-34.461,15.76-61.698-47.875-112.676-45.443c-21.617,1.032-27.968-36.761-48.758-37.136
												C633.244,979.279,611.054,899.164,658.457,867.304z"/></g><g><path fill="#d9d9d9" d="M1158.959,1230.41c38.15-9.847,75.946,91.145,46.685,112.969c0,0-35.291,9.277-72.707,20.357
								c-45.875,11.61-63.777-107.065-35.199-123.816L1158.959,1230.41z"/><path fill="#f0c7ad" d="M1296.938,1209.175c21.705-2.071,35.221,21.316,32.657,45.099
								c0,0-141.261,58.4-217.617,96.074l-18.436-74.715L1296.938,1209.175z"/><path fill="#e6e6e6" d="M1169.103,1336.946c0,0-268.901,70.484-286.11,65.352c-17.24-5.141-27.881-73.832-7.76-83.139
								c24.105-11.15,243.554-60.631,243.554-60.631C1140.271,1254.802,1181.406,1310.323,1169.103,1336.946z"/><path fill="#f0f0f0" d="M1158.538,1228.15c38.151-9.847,78.44,94.702,49.181,116.526c0,0-36.772,10.055-74.782,19.061
								c20.189-39.633-1.24-106.824-35.199-123.816L1158.538,1228.15z"/><path fill="#e6e6e6" d="M930.967,1395.334c-11.78,22.724-48.468-14.781-66.295-46.261
									c-5.022-8.868,14.486-192.079,38.045-251.27c22.623-56.841,121.171-78.557,121.171-14.715
									C1023.887,1139.167,953.899,1351.105,930.967,1395.334z"/><path fill="#f0c7ad" d="M1374.134,1169.654c-5.539,6.554-18.122,12.681-18.851,15.804
								c0.533,1.671,62.745-26.182,68.906-25.234c18.832-1.724,14.445,31.5,13.61,36.476c-3.103,18.514-36.907,40.681-50.011,46.57
								c-14.684,6.601-35.283,16.424-45.607,13.452c-6.801-1.958-14.662,0.203-19.984,1.522
								c-21.193,5.252-48.082-39.121-36.452-43.871c10.627-4.433,14.801-11.502,18.753-20.228
								c7.373-16.28,28.643-27.587,33.376-28.234c10.366-1.417,27.912-12.864,33.191-17.961c1.389-1.341,3.64-1.384,4.958,0.026
								C1380.086,1152.324,1381.14,1161.367,1374.134,1169.654z"/></g></g><g><ellipse cx="1976.281" cy="2290.334" opacity=".07" rx="227.722" ry="393.126" transform="rotate(-87.094 1976.253 2290.362)"/><path fill="#1c1c1c" d="M1697.961,1883.991c-3.839-53.55,11.535-51.57,51.059-80.609
						c59.657-33.056-6.242-770.385,22.575-859.839l-156.733-46.134L1697.961,1883.991z"/><path d="M1934.429,2207.724c-10.769,19.831-76.92,53.651-76.92,53.651l-29.901-13.386L1934.429,2207.724z"/><path fill="#2e231b" d="M1857.509,2261.375c0,0,66.15-33.82,76.92-53.651c2.532-4.662-0.598-35.678-0.598-35.678
							l-82.368,61.412L1857.509,2261.375z"/><path fill="#2e231b" d="M1628.666,2286.16c-7.975-37.739,89.868-91.983,166.794-129.259
							c76.926-37.276,109.258-74.755,130.853-30.186c21.595,44.568,8.967,78.019-67.959,115.295
							c-34.679,16.804-65.687,53.765-109.332,70.719C1702.27,2330.889,1636.146,2321.551,1628.666,2286.16z"/><path fill="#613b20" d="M1627.635,2280.312c-15.596-35.278,89.868-91.983,166.794-129.259
							c76.927-37.276,109.258-74.755,130.853-30.186c21.595,44.568,8.065,75.69-68.862,112.966
							c-34.679,16.804-73.709,52.432-118.026,67.541C1697.071,2315.461,1638.772,2305.505,1627.635,2280.312z"/><path fill="#2e2e2e" d="M1772.883,2156.682c1.795,47.048,160.342,31.408,154.877-20.825l-75.321-400.592l68.197-550.151
						l-222.134,35.079c0,0-41.111,437.415-33.753,510.212C1672.604,1808.134,1772.883,2156.682,1772.883,2156.682z"/><path fill="#2e231b" d="M2149.714,2205.487c-4.402,9.816-25.431,30.964-42.13,69.167
							c-10.039,22.967-23.468,43.98-24.449,66.155c-1.75,39.54,13.043,44.959,48.985,48.988
							c62.342,6.988,124.898-58.945,143.147-137.648c18.607-80.246-19.956-88.513-43.748-98.311
							C2191.347,2137.296,2183.42,2130.324,2149.714,2205.487z"/><path fill="#613b20" d="M2146.964,2189.261c-4.402,9.816-19.083,35.524-35.782,73.728
							c-11.85,27.11-32.981,68.915-28.056,92.226c11.896,11.897,59.444,23.783,89.881,10.69
							c28.064-12.072,54.21-34.878,70.728-60.787c21.334-33.463,53.09-141.834,13.45-159.612
							C2217.543,2127.727,2180.67,2114.098,2146.964,2189.261z"/><path fill="#3b3b3b" d="M2127.561,2237.83c33.763,7.945,128.587,10.018,142.309-80.548l-141.711-369.229
							l-44.612-528.19l-225.813-9.077c0,0,64.989,501.923,82.182,568.578C1951.435,1864.023,2119.51,2235.935,2127.561,2237.83z"/><g><path fill="#2b2b2b" d="M1551.766,1278.295c-15.836,50.836-27.811,86.582-27.811,86.582
							c-20.245,29.766-134.994-10.989-131.765-35.979l26.201-110.751L1551.766,1278.295z"/><path fill="#facfb4" d="M1449.373,1409.532c-0.959-0.609-20.449,31.097-23.592,42.536
								c-3.354,12.208,5.147,21.332-0.451,26.662c-14.911,14.198-42.836-9.374-45.611-14.111
								c-6.357-10.849-11.084-37.841-6.704-54.994c2.734-10.705,6.239-20.25,8.866-25.655c7.663-15.761,18.017-38.344,28.716-43.07
								c7.049-3.114,14.483-28.337,18.009-33.153c14.041-19.18,78.323,15.579,71.92,27.663
								c-5.785,11.12-20.781,34.096-18.997,44.364L1449.373,1409.532z"/><path fill="#634831" d="M1290.128,1590.336L1290.128,1590.336c24.738,66.341,12.729-78.881,79.064-103.62
								l120.112-44.795c22.557-11.609,45.304-78.784-3.745-61.295l-120.112,44.795
								C1299.112,1450.161,1265.39,1523.996,1290.128,1590.336z"/><path fill="#915d30" d="M1313.71,1517.202l299.958,805.793c12.048,8.595,30.01,4.392,34.583-12.899l-299.959-805.792
								L1313.71,1517.202z"/><path fill="#634831" d="M1290.128,1590.336L1290.128,1590.336c24.738,66.341,15.777-77.052,82.113-101.791
								l117.437-46.862c-54.882,19.184-37.909-48.455-4.118-61.057l-120.112,44.795
								C1299.112,1450.161,1265.39,1523.996,1290.128,1590.336z"/><path fill="#facfb4" d="M1412.241,1340.367c-28.007,19.71-39.194,62.849-40.455,73.999
								c-3.761,10.753-6.102,33.092-10.306,39.88c-1.107,1.787-0.635,4.192,1.167,5.271c5.559,3.327,15.416,2.372,22.618-6.988
								c5.694-7.401,45.607-82.315,48.76-83.808L1412.241,1340.367z"/><path fill="#7b481b" d="M1469.967,608.161c20.219-31.694,101.288-63.919,130.97-40.848
							c49.754,38.671,24.405,294.662,27.457,390.08c2.796,87.426-104.438,407.484-104.438,407.484
							c-12.327-33.841-112.11-61.74-131.765-35.979l80.725-341.227C1472.916,987.671,1433.197,665.798,1469.967,608.161z"/></g><g><path fill="#d9b49c" d="M1527.754,339.757l40.088,182.941c0,0,25.853,70.896,82.664,60.09
								c58.99-11.22,104.101-82.775,99.943-98.791c-52.704-3.637-66.255-193.145-66.255-193.145L1527.754,339.757z"/><path fill="#f0c7ad" d="M1684.384,272.294c20.779,50.28,20.8,100.888,6.108,153.599
									c-12.917,46.344-33.441,97.598-64.295,113.321c-69.002,35.164-59.673-4.809-87.716-26.098
									c-35.47-26.927-72.903-68.491-94.71-121.259c-16.199-39.197-30.152-88.486-19.938-124.578
									c14.407-50.91,69.893-95.496,112.023-105.545C1608.456,144.42,1645.335,177.806,1684.384,272.294z"/><path fill="#f2f2f2" d="M1391.035,239.999c-5.434,11.859,8.496,19.603,14.785,33.907
								c6.83,15.535,7.904,34.109,17.283,47.724c2.175-15.17-1.074-45.592,15.566-43.14c12.572,1.853,13.481,3.528,31.191-2.469
								c28.141-14.503,31.026-43.668,73.121-52.683c37.236-7.974,86.657,18.289,80.58,73.022
								c9.399,9.477,19.314,22.43,38.086,36.957c-3.426-16.996-0.255-31.654,7.815-33.841c8.84-2.397,20.186,11.07,25.341,30.079
								c3.49,12.869,0.754,25.439-2.509,32.663c10.534,10.042,2.723,26.867,5.419,31.673c13.381-41.17,8.989-78.654-3.168-105.268
								c-29.601-64.803-57.57-122.32-104.797-136.185C1533.7,135.985,1406.166,206.975,1391.035,239.999z"/><path fill="#f2f2f2" d="M1484.967,491.322c0.59,2.387,25.398,27.863,54.635,0.96
								c50.964-3.988,73.801-66.908,71.987-68.539c-1.085-3.343-50.137,17.558-82.61,47.161
								C1491.706,468.995,1484.967,491.322,1484.967,491.322z"/><path fill="#3a5234" d="M1695.201,1236.841c12.134,55.924,299.005,84.403,335.343-15.021l-275.559-706.663
							l-218.644,38.336L1695.201,1236.841z"/><path fill="#69482c" d="M1839.561,518.224c62.27,6.157,99.775,17.674,117.695,77.631
							c19.243,64.386,30.938,188.776,52.888,314.496c34.426,197.177,224.841,948.009,234.956,958.712
							c2.447,50.122-21.222,81.629-62.255,100.76c0,0-375.103-974.117-406.881-1084.386
							c-24.153-83.812-45.068-422.292-19.501-397.599C1774.067,504.839,1818.784,516.169,1839.561,518.224z"/><path fill="#4a6942" d="M1797.625,1285.025c2.07-0.619,3.319-2.759,2.805-4.883l-179.737-741.381
							c-0.53-2.199-2.742-3.551-4.941-3.021c-2.142,0.566-3.553,2.746-3.021,4.941l179.737,741.381
							c0.53,2.199,2.742,3.551,4.941,3.021L1797.625,1285.025z"/><path fill="#69482c" d="M1465.06,641.786c0.618-54.51,58.401-112.893,108.86-112.735
							c-15.046,26.54-15.524,105.075,7.227,184.551c20.415,71.317,24.75,145.805,36.348,189.634
							c26.744,101.063,137.057,1111.77,137.057,1111.77c-44.847-10.24-74.677-31.69-79.946-71.468
							c0,0-68.846-767.431-116.735-942.347C1520.93,866.262,1464.095,726.921,1465.06,641.786z"/><path fill="#5a8050" d="M1711.787,433.257c20.157,42.567-70.816,103.318-95.79,104.614l85.147,93.486
							c0,0,50.16-122.415,39.282-160.408C1735.35,453.224,1711.787,433.257,1711.787,433.257z"/><path fill="#5a8050" d="M1557.494,499.038c0,0,2.953,9.896,5.06,16.158c9.26,27.516,53.386,33.573,53.386,33.573
							l-38.694,114.318c0,0-31.31-81.596-33.82-115.287C1542.707,538.137,1557.494,499.038,1557.494,499.038z"/><path fill="#85562c" d="M1559.181,506.809c-5.294,0.187-20.492,19.151-26.205,35.84
							c-8.495,24.818-20.853,113.665-20.853,113.665l31.421,25.203l6.115,73.318l65.273,144.45
							c1.282-8.034-11.466-140.735-23.239-180.127c-5.458-18.26-7.809-66.56-25.938-99.813
							C1532.668,558.655,1551.462,519.925,1559.181,506.809z"/><path fill="#f2f2f2" d="M1694.772,359.094c0,0-82.275,112.465-116.186,130.736
							c-43.591,23.487-52.128,12.021-63.294,3.238c-3.113,11.883,25.663,31.786,36.802,43.501
							c6.861,7.216,19.425,24.695,29.05,27.248c12.462,3.304,39.441-4.834,50.154-12.009c22.139-14.826,54.815-60.856,62.413-86.395
							C1712.635,401.806,1694.772,359.094,1694.772,359.094z"/><path fill="#85562c" d="M1720.722,441.526c6.796,2.775,37.921,58.655,56.545,69.529
							c27.713,16.18,11.163,111.094,11.163,111.094l-33.859,32.632l30.702,68.204l-11.028,159.232
							c0,0-51.932-167.384-58.898-209.615C1704.952,609.583,1743.308,491.99,1720.722,441.526z"/></g><g><path fill="#f0c6ac" d="M1312.652,1110.253c11.301-0.201,28.033-7.953,31.827-6.096
							c0.578,0.886-10.652,13.676-29.104,23.781c-21.878,11.982-29.766,15.139-32.025,18.981
							c-17.444,17.805,25.889,55.771,31.664,59.065c21.479,12.252,58.664,0.809,75.588-7.673
							c18.965-9.505,31.952-35.151,37.516-48.175c3.666-8.58,12.419-14.813,18.197-19.152c23.01-17.278,0.122-81.715-14.411-73.788
							c-13.375,7.164-22.462,8.615-34.657,5.384c-22.754-6.029-53.8,5.47-58.401,9.766c-10.08,9.41-33.017,16.422-42.614,17.57
							c-2.526,0.302-4.445,2.566-4.103,5.087C1293.182,1102.779,1298.359,1110.507,1312.652,1110.253z"/><path fill="#85562c" d="M1981.453,636.195c0,50.993-191.136,285.16-223.081,319.205
							c-37.452,39.914-282.323,200.634-282.323,200.634c-28.458-6.862-87.481-79.257-87.066-105.249l263.625-212.259
							c0,0,120.681-195.544,169.25-234.252C1863.148,571.369,1981.453,476.591,1981.453,636.195z"/></g></g><g><path fill="#4d4d4d" d="M1279.458,1051.451c-0.469,0.439-1.108,0.81-1.909,1.084l-60.257,20.583
												c-3.27,1.118-8.028,0.181-10.614-2.092l-50.447-44.327c-3.756-3.3-6.422-6.766-8.033-10.223
												c-0.498-1.068-0.995-2.136-1.493-3.204c1.689,3.624,4.484,7.258,8.423,10.719l50.447,44.327
												c3.349,2.943,9.5,4.154,13.737,2.707l60.257-20.583c1.038-0.354,1.865-0.836,2.473-1.404
												C1281.179,1049.842,1280.318,1050.646,1279.458,1051.451z"/><path fill="#666" d="M1283.222,1047.001c-0.281,1.45-1.523,2.713-3.655,3.441l-60.257,20.583
												c-4.237,1.447-10.388,0.236-13.737-2.707l-50.447-44.327c-8.193-7.199-11.438-15.147-10.071-22.199l2.794-14.406
												c-1.368,7.051,1.878,15,10.07,22.198l50.447,44.327c3.349,2.943,9.5,4.154,13.737,2.707l60.257-20.584
												c2.132-0.728,3.374-1.991,3.655-3.441L1283.222,1047.001z"/><path fill="#e6e6e6" d="M1281.624,1031.52c3.272-1.116,3.831-3.87,1.243-6.142l-50.447-44.327
													c-15.728-13.821-44.629-19.514-64.539-12.712c-19.914,6.801-23.305,23.525-7.575,37.345l50.447,44.327
													c2.586,2.273,7.344,3.21,10.614,2.092L1281.624,1031.52z"/><path fill="#859194" d="M1213.972,1046.348c1.27,1.116,4.205,1.692,5.817,1.141l54.693-18.682
												c1.571-0.536,1.974-2.57,0.727-3.666l-41.437-36.41c-1.515-1.331-3.625-1.75-5.533-1.098l-49.197,16.805
												c-4.092,1.398-5.144,6.698-1.895,9.552L1213.972,1046.348z"/><path fill="#999" d="M1284.263,1027.22c0.022,0.048,1.374,2.948,1.419,3.044
												c1.093,2.345-0.095,4.67-3.32,5.772l-60.257,20.584c-4.237,1.447-10.388,0.236-13.737-2.707l-50.447-44.327
												c-12.45-10.94-13.475-23.61-4.248-32.233c0.172-0.161,0.344-0.322,0.516-0.483c0.078-0.073,0.181-0.169,0.258-0.241
												c0.039-0.036,0.09-0.084,0.129-0.12c0.078-0.073,0.181-0.169,0.258-0.241c0.473-0.443,0.947-0.885,1.42-1.327
												c-8.802,8.224-7.824,20.312,4.051,30.745l50.447,44.327c2.586,2.273,7.344,3.21,10.614,2.092l60.257-20.584
												c2.491-0.85,3.409-2.648,2.564-4.46C1284.211,1027.108,1284.241,1027.172,1284.263,1027.22z"/><path fill="#b0baad" d="M1227.768,998.495l-38.808,13.256c-0.716,0.244-1.254,0.595-1.616,1.008
											c0.178,0.508,0.534,1.023,1.087,1.509l24.426,21.463c1.945,1.709,5.52,2.413,7.982,1.572l38.808-13.256
											c0.716-0.245,1.253-0.595,1.616-1.008c-0.178-0.508-0.534-1.023-1.087-1.509l-24.427-21.463
											C1233.805,998.358,1230.231,997.654,1227.768,998.495z"/><g><path fill="#6e7475" d="M1260.585,1019.429c0.967,0.849,1.35,1.787,1.188,2.619
												c-0.069,0.356-0.243,0.69-0.508,0.992c-0.178-0.508-0.534-1.023-1.087-1.509l-24.427-21.463
												c-1.946-1.709-5.52-2.413-7.983-1.572l-38.808,13.256c-0.716,0.244-1.254,0.595-1.616,1.008
												c-0.133-0.379-0.17-0.754-0.101-1.11c0.164-0.843,0.885-1.577,2.125-2l38.808-13.256
												c2.463-0.841,6.037-0.137,7.982,1.572L1260.585,1019.429z"/></g><g><polygon fill="#595959" points="1211.794 1012.67 1212.011 1011.599 1212.241 1010.524 1205.955 1012.672 1199.671 1014.818 1201.535 1015.178 1203.385 1015.542 1207.588 1014.107"/><polygon fill="#595959" points="1221.758 1018.679 1212.465 1010.513 1212.258 1011.593 1212.043 1012.666 1218.871 1018.666 1220.722 1019.03"/><polygon fill="#595959" points="1220.444 1020.233 1220.664 1019.161 1218.811 1018.798 1214.574 1020.245 1210.337 1021.692 1210.12 1022.763 1211.97 1023.127 1216.207 1021.68"/><polygon fill="#595959" points="1208.845 1023.09 1209.88 1022.734 1210.097 1021.663 1203.268 1015.663 1201.416 1015.297 1199.552 1014.924"/><polygon fill="#595959" points="1231.184 1027.147 1229.337 1026.782 1227.484 1026.418 1223.246 1027.866 1219.009 1029.313 1218.793 1030.383 1218.578 1031.453 1224.88 1029.301"/><polygon fill="#595959" points="1218.331 1031.424 1218.552 1030.354 1218.769 1029.284 1211.939 1023.282 1210.088 1022.917 1209.058 1023.277"/><g><polygon fill="#595959" points="1241.124 1012.065 1231.831 1003.899 1231.624 1004.979 1231.407 1006.052 1238.235 1012.052 1240.088 1012.416"/><polygon fill="#595959" points="1250.609 1020.399 1241.337 1012.252 1240.297 1012.599 1240.078 1013.671 1246.908 1019.673 1248.761 1020.037"/><polygon fill="#595959" points="1250.548 1020.534 1248.7 1020.168 1246.85 1019.804 1242.613 1021.251 1238.376 1022.699 1238.159 1023.769 1237.942 1024.84 1244.246 1022.686"/></g><g><polygon fill="#f2f2f2" points="1231.243 1027.013 1221.971 1018.866 1220.931 1019.214 1220.714 1020.284 1227.544 1026.286 1229.395 1026.651"/><polygon fill="#f2f2f2" points="1231.157 1006.057 1231.374 1004.986 1231.605 1003.911 1225.321 1006.057 1219.038 1008.203 1220.899 1008.564 1222.751 1008.928 1226.954 1007.492"/><polygon fill="#f2f2f2" points="1239.81 1013.618 1240.028 1012.548 1238.177 1012.183 1233.94 1013.631 1229.703 1015.078 1229.486 1016.149 1231.336 1016.513 1235.573 1015.066"/><polygon fill="#f2f2f2" points="1228.212 1016.475 1229.243 1016.121 1229.46 1015.05 1222.632 1009.049 1220.779 1008.683 1218.919 1008.31"/><polygon fill="#f2f2f2" points="1237.697 1024.81 1237.916 1023.741 1238.133 1022.67 1231.303 1016.668 1229.452 1016.304 1228.425 1016.662"/></g><g><polygon fill="#595959" points="1218.549 1010.37 1216.895 1008.917 1214.802 1009.632 1216.455 1011.085"/></g></g><g><path fill="#d9d9d9" d="M1165.994,979.922c-5.117,5.858-5.276,13.575-0.424,20.643
													c1.07,1.564,3.642,2.316,5.615,1.641l19.802-6.765c0.595-0.203,1.084-0.52,1.454-0.943
													c1.056-1.21,0.867-2.926-0.45-4.082l-15.645-13.747c-1.267-1.116-3.422-1.548-5.013-1.004
													c-0.021,0.007-0.041,0.015-0.061,0.021l-0.145-0.021l-0.594,0.385C1168.765,977.194,1167.238,978.497,1165.994,979.922z
													"/><path fill="#d9d9d9" d="M1181.938,972.379c-1.06,1.213-0.868,2.934,0.454,4.092l15.645,13.747
													c1.285,1.131,3.4,1.549,5.027,0.992l19.805-6.766c0.597-0.203,1.087-0.521,1.458-0.945
													c0.539-0.617,0.773-1.428,0.641-2.225c-0.155-0.938-0.782-1.769-1.764-2.337c-11.189-6.511-26.138-9.455-39.009-7.682
													l-1.12,0.154l-0.067,0.183C1182.586,971.787,1182.221,972.055,1181.938,972.379z"/><path fill="#c1d6d9" d="M1192.542,988.774c1.235,1.085,0.969,2.397-0.594,2.931l-19.804,6.765
														c-1.835,0.627-4.562-0.101-5.517-1.49c-5.742-8.366-3.967-17.119,4.596-22.668c0.185-0.12,0.394-0.219,0.621-0.296
														c1.509-0.516,3.792-0.097,5.051,1.009L1192.542,988.774z M1172.784,974.192c-0.136,0.047-0.268,0.193-0.378,0.186
														c-0.003,0-0.007,0-0.01-0.001c-8.264,5.354-9.978,13.807-4.436,21.879c0.59,0.863,2.307,1.323,3.461,0.928
														l19.804-6.765c0.981-0.334,1.148-1.16,0.373-1.841l-15.647-13.749C1175.162,974.135,1173.722,973.871,1172.784,974.192
														z"/><path fill="#a6b8bb" d="M1191.224,990.419c0.981-0.334,1.148-1.16,0.373-1.841l-15.647-13.749
															c-0.788-0.695-2.229-0.959-3.167-0.638c-0.14,0.048-0.276,0.201-0.388,0.185c-8.265,5.354-9.979,13.807-4.437,21.879
															c0.59,0.863,2.307,1.323,3.461,0.928L1191.224,990.419z"/><path fill="#889799" d="M1192.827,992.856c-0.104,0.535-0.562,1.001-1.348,1.269l-19.804,6.765
														c-1.835,0.627-4.562-0.102-5.517-1.49c-2.844-4.144-3.844-8.383-3.088-12.281l0.469-2.421
														c-0.756,3.898,0.244,8.137,3.088,12.281c0.955,1.388,3.681,2.116,5.517,1.49l19.804-6.765
														c0.786-0.269,1.245-0.734,1.348-1.269L1192.827,992.856z"/><g><path fill="#a6b8bb" d="M1223.106,979.423c1.153-0.393,1.155-1.441,0-2.11
															c-10.792-6.28-25.401-9.157-37.813-7.448c-0.022,0.062-0.334,0.061-0.474,0.109c-0.939,0.32-1.14,1.145-0.348,1.839
															l15.647,13.749c0.774,0.681,2.201,0.962,3.181,0.627L1223.106,979.423z"/><path fill="#c1d6d9" d="M1223.83,980.708l-19.806,6.766c-1.563,0.534-3.831,0.087-5.065-0.998l-15.647-13.749
															c-1.259-1.106-0.939-2.414,0.569-2.929c0.227-0.077,0.48-0.137,0.759-0.175c12.863-1.771,27.991,1.209,39.175,7.716
															C1225.671,978.42,1225.663,980.082,1223.83,980.708z M1223.106,977.313c-10.792-6.28-25.401-9.157-37.813-7.448
															c-0.022,0.062-0.334,0.061-0.474,0.109c-0.939,0.32-1.14,1.145-0.348,1.839l15.647,13.749
															c0.774,0.681,2.201,0.962,3.181,0.627l19.807-6.766C1224.259,979.03,1224.261,977.982,1223.106,977.313z"/><path fill="#889799" d="M1224.713,981.856c-0.103,0.532-0.555,1.001-1.353,1.273l-19.806,6.766
															c-1.563,0.534-3.831,0.087-5.065-0.998l-15.647-13.749c-0.622-0.547-0.859-1.142-0.757-1.667l0.47-2.421
															c-0.102,0.525,0.135,1.121,0.757,1.667l15.647,13.749c1.235,1.085,3.502,1.531,5.065,0.998l19.806-6.766
															c0.798-0.273,1.25-0.741,1.353-1.273L1224.713,981.856z"/></g><path fill="#9c9c9c" d="M1183.151,988.759c0.529-0.18,0.68-0.64,0.214-1.05l-7.569-6.651
												c-0.467-0.411-1.286-0.539-1.815-0.358c-0.169,0.058-0.308,0.147-0.396,0.268l-4.513,6.16
												c-0.367,0.502,0.402,1.178,1.386,1.218l12.083,0.491C1182.776,988.845,1182.983,988.816,1183.151,988.759z"/><g><path fill="#9c9c9c" d="M1204.963,981.74c0.168-0.058,0.307-0.146,0.396-0.267l4.513-6.16
													c0.367-0.502-0.402-1.178-1.386-1.218l-12.082-0.491c-0.238-0.01-0.445,0.019-0.613,0.077
													c-0.528,0.181-0.679,0.64-0.212,1.051l7.569,6.651C1203.614,981.793,1204.434,981.92,1204.963,981.74z"/></g></g><g><defs><path id="a" d="M1283.222,1047.001c-0.281,1.45-1.523,2.713-3.655,3.441l-60.257,20.583
												c-4.237,1.447-10.388,0.236-13.737-2.707l-50.447-44.327c-8.193-7.199-11.438-15.147-10.071-22.199l2.794-14.406
												c-1.368,7.051,1.878,15,10.07,22.198l50.447,44.327c3.349,2.943,9.5,4.154,13.737,2.707l60.257-20.584
												c2.132-0.728,3.374-1.991,3.655-3.441L1283.222,1047.001z"/></defs><clipPath id="b"><use overflow="visible" xlink:href="#a"/></clipPath><g clip-path="url(#b)"><polygon fill="#404040" points="1188.393 1029.341 1184.265 1025.755 1178.596 1054.543 1182.724 1058.129"/><polygon fill="#404040" points="1173.234 1015.336 1163.958 1007.253 1158.289 1036.041 1167.565 1044.124"/><polygon fill="#404040" points="1220.756 1049.76 1211.48 1041.677 1203.946 1078.239 1213.222 1086.323"/></g></g><g><defs><path id="c" d="M1283.222,1047.001c-0.281,1.45-1.523,2.713-3.655,3.441l-60.257,20.583
												c-4.237,1.447-10.388,0.236-13.737-2.707l-50.447-44.327c-8.193-7.199-11.438-15.147-10.071-22.199l2.794-14.406
												c-1.368,7.051,1.878,15,10.07,22.198l50.447,44.327c3.349,2.943,9.5,4.154,13.737,2.707l60.257-20.584
												c2.132-0.728,3.374-1.991,3.655-3.441L1283.222,1047.001z"/></defs><clipPath id="d"><use overflow="visible" xlink:href="#c"/></clipPath><g clip-path="url(#d)"><polygon fill="#404040" points="1241.033 1041.477 1234.958 1043.286 1229.121 1072.929 1235.196 1071.119"/></g><g clip-path="url(#d)"><polygon fill="#404040" points="1281.807 1030.684 1277.29 1032.297 1271.453 1061.939 1275.97 1060.327"/></g><g clip-path="url(#d)"><polygon fill="#404040" points="1244.451 1041.865 1242.547 1042.609 1236.71 1072.252 1238.614 1071.507"/></g></g><g><defs><path id="e" d="M1227.768,998.495l-38.808,13.256c-0.716,0.244-1.254,0.595-1.616,1.008
											c0.178,0.508,0.534,1.023,1.087,1.509l24.426,21.463c1.945,1.709,5.52,2.413,7.982,1.572l38.808-13.256
											c0.716-0.245,1.253-0.595,1.616-1.008c-0.178-0.508-0.534-1.023-1.087-1.509l-24.427-21.463
											C1233.805,998.358,1230.231,997.654,1227.768,998.495z"/></defs><clipPath id="f"><use overflow="visible" xlink:href="#e"/></clipPath><rect width="19.745" height="74.846" x="1245.271" y="982.316" fill="#4d4d4d" clip-path="url(#f)" transform="rotate(9.836 1255.501 1019.786)"/><rect width="9.748" height="74.846" x="1208.266" y="977.992" fill="#4d4d4d" clip-path="url(#f)" transform="rotate(9.836 1212.91 1015.113)"/><rect width="3.343" height="74.849" x="1202.357" y="977.984" fill="#4d4d4d" clip-path="url(#f)" transform="rotate(9.836 1203.872 1015.178)"/></g><g><path fill="#363636" d="M1247.485,1047.974l1.009-5.122l-3.3-2.905c-0.482-0.424-0.856-0.863-1.133-1.306
									l7.836-3.468l8.055,8.519l-12.485,4.305l-0.023-0.058L1247.485,1047.974z"/><path fill="#363636" d="M1253.321,1047.934c-3.445,1.166-6.05,1.161-5.819-0.013l12.474-4.222
									C1259.745,1044.874,1256.766,1046.769,1253.321,1047.934z"/><path fill="#595959" d="M1260.96,1038.576l-1.008,5.122l-3.273-2.882c-2.722-2.392-7.724-3.377-11.17-2.2
										c-0.413,0.141-0.783,0.307-1.113,0.494c-0.755-0.948-1.038-1.932-0.864-2.829c0.229-1.179,1.239-2.206,2.973-2.798
										c3.446-1.177,8.448-0.192,11.17,2.2L1260.96,1038.576z"/></g><g><defs><path id="g" d="M1260.467,1041.077l50.873,44.701c0.482,0.424,3.858,4.719,3.858,4.719l-11.037,7.002
									c-1.148,0.392-2.759,0.075-3.667-0.723l-51.707-47.348l-1.154-2.191l0.861-4.385l-3.3-2.905
									c-0.311-0.273-0.573-0.554-0.797-0.837c-0.001,0-0.001,0-0.002,0.001c-0.011-0.014-0.02-0.028-0.031-0.042
									c-0.061-0.079-0.118-0.158-0.173-0.237c-0.03-0.043-0.06-0.085-0.087-0.128c-0.014-0.021-0.03-0.043-0.044-0.064
									l0.004-0.002c-0.501-0.799-0.679-1.608-0.534-2.357c0.229-1.179,1.239-2.206,2.973-2.798
									c1.446-0.494,3.166-0.603,4.877-0.391L1260.467,1041.077z"/></defs><clipPath id="h"><use overflow="visible" xlink:href="#g"/></clipPath><g clip-path="url(#h)"><path fill="#fff" d="M1309.965,1088.815c1.018-0.348,1.191-1.202,0.387-1.908l-68.254-59.973
										c-0.804-0.707-2.282-0.999-3.3-0.651l-6.464,2.208c-1.018,0.348-1.189,1.203-0.385,1.91l68.253,59.973
										c0.804,0.707,2.28,0.997,3.298,0.649L1309.965,1088.815z"/><polygon fill="#ff6040" points="1296.822 1083.74 1301.229 1082.235 1309.068 1089.122 1304.661 1090.628"/><path fill="#e0e0e0" d="M1310.552,1089.49c-0.068,0.348-0.366,0.651-0.878,0.826l-6.464,2.208
									c-1.018,0.348-2.494,0.057-3.298-0.65l-68.254-59.973c-0.4-0.352-0.559-0.74-0.492-1.084l0.291-1.501
									c-0.067,0.344,0.092,0.733,0.492,1.084l68.253,59.973c0.804,0.707,2.28,0.997,3.298,0.649l6.464-2.208
									c0.512-0.175,0.811-0.478,0.878-0.826L1310.552,1089.49z"/></g><path fill="#595959" d="M1260.96,1038.576l-0.244,1.241l-3.275-2.883
								c-2.722-2.392-7.724-3.377-11.17-2.2c-1.444,0.493-2.377,1.29-2.785,2.222c-0.012-0.229,0.002-0.454,0.045-0.674
								c0.229-1.179,1.239-2.206,2.973-2.798c3.446-1.177,8.448-0.192,11.17,2.2L1260.96,1038.576z" clip-path="url(#h)"/></g></g></g></switch></svg>