<svg xmlns="http://www.w3.org/2000/svg" enable-background="new 0 0 2000 2000" viewBox="0 0 2000 2000"><path fill="#bcbcbc" d="M958.455 983.525s-64.959 163.078-78.459 234.555l17.945 54.92H953l5.455-289.475z"/><path fill="#e84545" d="M1495.866 1871h179.704c3.86-4 6.637-10.107 7.89-16.66 8.888-46.471 20.891-78.933 63.553-85.097 42.662-6.161 52.261-44.366 61.556-88.738 9.295-44.373 56.29-37.312 57.44-73.946 1.169-36.634-74.082-53.47-115.271-12.942-41.189 40.53-33.538 5.71-85.205 26.348-38.65 15.457-52.059 55.785-61.674 84.107a597.323 597.323 0 0 1-1.744 5.08c-2.539 7.347-4.892 13.628-7.499 18.047-12.681 21.45-67.396 22.923-84.682 57.088-16.371 32.334-14.338 80.713-14.068 86.713z"/><path fill="#53354a" d="M1570.033 1813c-15.101 18.858-28.729 39-39.953 58h5.012c10.817-19 23.853-37.194 38.208-55.157 1.305-1.642 2.626-3.192 3.944-4.817 22.23-27.206 47.369-52.952 72.373-76.179 1.66-1.541 3.318-3.045 4.962-4.569 19.282-17.675 38.344-33.781 55.799-47.815.559-.457 1.118-.91 1.677-1.35 1.606-1.286 3.231-2.572 4.824-3.841 20.383-16.184 39.784-30.573 56.765-42.678 3.317-2.37 6.552-4.638 9.666-6.822 30.93-21.669 51.752-34.399 52.091-34.603a2.159 2.159 0 0 0 .728-2.979 2.185 2.185 0 0 0-2.979-.729c-.168.119-6.364 3.911-16.929 10.801a1332.678 1332.678 0 0 0-44.676 30.524 1.434 1.434 0 0 0-.271.188c-4.3 3.063-8.752 6.28-13.34 9.615-1.609 1.185-3.234 2.371-4.876 3.589-13.679 10.073-28.44 21.314-43.66 33.52-.424.339-.83.662-1.254 1.017-.051.017-.084.068-.136.101a1115.564 1115.564 0 0 0-19.484 15.998 401.835 401.835 0 0 0-4.216 3.555c-11.97 10.125-24.378 21.026-36.806 32.572-.22.187-.423.391-.624.594a853.436 853.436 0 0 0-26.547 25.647 957.394 957.394 0 0 0-4.249 4.284c-15.847 16.184-31.234 33.14-45.37 50.764-.239.286-.459.481-.679.77z"/><path fill="#53354a" d="M1772.056 1634.741c.436.121.911.107 1.364-.069 24.042-9.384 45.687 7.344 45.901 7.514.94.742 2.303.58 3.042-.36a2.168 2.168 0 0 0-.36-3.042c-.961-.757-23.832-18.422-50.157-8.147a2.163 2.163 0 0 0 .21 4.104zM1789.062 1714.886a2.167 2.167 0 0 0 1.951-.408 2.169 2.169 0 0 0 .308-3.047c-.346-.422-34.917-42.004-82.255-33.136a2.162 2.162 0 0 0-1.729 2.528 2.164 2.164 0 0 0 2.528 1.729c44.774-8.394 77.772 31.218 78.1 31.618.292.36.68.602 1.097.716zM1713.615 1770.9a2.164 2.164 0 0 0 2.61-2.832c-.153-.418-15.924-41.975-67.788-37.451a2.163 2.163 0 0 0-1.97 2.344 2.168 2.168 0 0 0 2.345 1.971c48.591-4.237 63.202 34.232 63.345 34.623a2.169 2.169 0 0 0 1.458 1.345zM1659.048 1850.673a2.166 2.166 0 0 0 2.009-3.713c-2.002-1.759-49.552-43.048-89.478-35.054a2.166 2.166 0 0 0 .852 4.247c37.821-7.577 85.293 33.644 85.768 34.062.252.223.543.374.849.458zM1685.895 1701.432a2.166 2.166 0 0 0 2.746-2.083c.059-40.397-28.12-65.107-29.318-66.139a2.167 2.167 0 0 0-2.829 3.283c.279.241 27.869 24.499 27.816 62.85a2.163 2.163 0 0 0 1.585 2.089zM1617.677 1764.318a2.164 2.164 0 0 0 2.744-2.075c.225-36.72-15.921-57.4-16.608-58.261a2.162 2.162 0 0 0-3.04-.345 2.165 2.165 0 0 0-.35 3.041c.161.201 15.882 20.44 15.667 55.541a2.163 2.163 0 0 0 1.587 2.099zM1754.452 1647.487a2.167 2.167 0 0 0 2.705-1.666c4.738-24.009-7.792-35.743-8.328-36.231a2.165 2.165 0 0 0-2.921 3.198c.491.457 11.233 10.735 7 32.194a2.166 2.166 0 0 0 1.544 2.505zM1812.467 1607c1.15 0 2.346-.352 2.665-1.504 4.979-17.944-4.96-25.281-5.385-25.586a2.163 2.163 0 0 0-3.021.507 2.165 2.165 0 0 0 .489 3.011c.358.267 7.859 6.068 3.741 20.909-.319 1.152.355 2.663 1.508 2.663h.003z"/><path fill="#903749" d="M1533.623 1871s98.192-22.985 93.677-78.288c-4.515-55.303-1.13-95.858 45.145-116.173s45.146-66.551 41.76-119.597c-3.387-53.045 51.917-59.798 41.759-101.558-10.157-41.758-100.448-37.235-134.307 21.454-33.859 58.689-36.117 16.934-88.033 56.436-51.915 39.503-38.934 115.122-46.554 143.338s-68.923 47.253-77.772 91.269c-8.85 44.017 11.466 103.119 11.466 103.119h112.859z"/><path fill="#53354a" d="M1459.224 1870.608a9.2 9.2 0 0 0-2.594.365c.01-.071.01-.144.024-.215 22.248-101.578 90.916-211.588 144.603-285.99 58.111-80.532 111.688-137.867 112.223-138.437a2.54 2.54 0 1 1 3.703 3.475c-.532.567-53.923 57.707-111.846 137.987-53.238 73.785-121.264 182.716-143.521 283.186a8.848 8.848 0 0 0-2.592-.371z"/><path fill="#53354a" d="M1658.613 1516.611c.528 0 1.063-.166 1.519-.506 24.229-18.129 53.922-6.003 54.218-5.877a2.536 2.536 0 0 0 3.322-1.36 2.537 2.537 0 0 0-1.358-3.323c-1.323-.557-32.693-13.356-59.224 6.494a2.54 2.54 0 0 0 1.523 4.572zM1702.914 1601.843a2.54 2.54 0 0 0 1.471-4.611c-.522-.369-52.6-36.532-103.312-11.695a2.537 2.537 0 0 0-1.162 3.397 2.537 2.537 0 0 0 3.397 1.164c47.964-23.498 97.646 10.928 98.142 11.279.446.315.957.466 1.464.466zM1635.201 1688.748a2.538 2.538 0 0 0 2.065-4.016c-.304-.425-31.132-42.444-88.318-21.098a2.539 2.539 0 1 0 1.776 4.758c53.576-19.998 82.128 18.895 82.41 19.292a2.533 2.533 0 0 0 2.067 1.064zM1598.517 1795.967a2.54 2.54 0 0 0 1.108-4.827c-2.814-1.36-69.464-33.129-112.073-11.599a2.54 2.54 0 0 0 2.292 4.534c40.362-20.401 106.902 11.315 107.569 11.639.357.172.733.253 1.104.253zM1582.137 1618.935a2.54 2.54 0 0 0 2.45-3.216c-12.58-45.66-52.154-64.76-53.832-65.55a2.54 2.54 0 0 0-2.167 4.594c.39.183 39.159 18.956 51.102 62.304a2.541 2.541 0 0 0 2.447 1.868zM1524.74 1711.343a2.542 2.542 0 0 0 2.454-3.202c-11.244-41.562-35.959-59.873-37.005-60.632a2.54 2.54 0 0 0-2.986 4.109c.243.177 24.341 18.123 35.087 57.85a2.54 2.54 0 0 0 2.45 1.875zM1642.712 1536.522a2.54 2.54 0 0 0 2.536-2.729c-2.162-28.611-19.994-37.947-20.753-38.331a2.54 2.54 0 0 0-3.413 1.119 2.541 2.541 0 0 0 1.114 3.409c.698.362 16.055 8.612 17.986 34.184a2.54 2.54 0 0 0 2.53 2.348zM1695.592 1473c1.401 0 2.539-1.324 2.539-2.725.01-21.833-13.519-27.11-14.094-27.32-1.321-.479-2.776.151-3.256 1.469a2.512 2.512 0 0 0 1.498 3.225c.487.188 10.781 4.577 10.772 22.634 0 1.404 1.136 2.717 2.538 2.717h.003z"/><path fill="#2b2e4a" d="M791.083 645.894c-24.055-25.973-61.313-37.686-96.034-35.449-8.236.529-16.376 2.247-24.407 4.143a1.677 1.677 0 0 0-.83-.534c-76.33-20.783-153.849 49.153-165.819 121.84-6.515 39.549.291 81.392 21.142 115.786 21.064 34.745 57.545 61.671 99.546 54.298 19.963-3.505 38.444-13.527 55.472-24.093 18.999-11.788 37.105-25.268 55.13-38.481 32.688-23.961 62.691-55.822 76.36-94.606 12.596-35.742 5.229-75.06-20.56-102.904zM977.766 1871l-24.982-260.783s394.395 10.083 468.884-18.586l42.02 279.369h-248.47L1186 1830.672V1871H977.766z"/><path fill="#bcbcbc" d="M1102.671 906.007s-42.185 63.637-55.054 185.654c-12.414 117.704-13.606 417.514-5.079 519.083 0 0 50.034 23.863 126.974 1.01 0 0-9.106-519.969 31.844-634.282 40.949-114.313 37.191-107.276 37.191-107.276s-47.887 85.786-109.669 84.382c-37.244-.847-26.207-48.571-26.207-48.571z"/><path fill="#e3e3e5" d="M1110.271 875.293s-143.007 89.162-151.924 108.348c0 0-57.097 672.81-34.244 794.695 0 0 85.078 25.476 129.157 25.813 0 0-31.01-686.597 49.411-898.142 4.987-13.12 1.648-21.502 7.6-30.714z"/><path fill="#2b2e4a" d="M1223.471 739.337s50.14-40.561 57.208-112.342c9.028-91.701-25.395-91.418-25.395-91.418s8.553-57.872-75.618-88.033c-110.239-39.503-248.861-5.925-269.177 68.564-20.315 74.489 38.938 87.186 38.938 87.186s16.923 66.871 71.1 63.485c54.177-3.386 202.944 72.558 202.944 72.558z"/><path fill="#d89675" d="M1243.612 735.692c-5.037 18.903-18.138 31.822-29.263 28.859-11.121-2.964-16.057-20.691-11.021-39.594 5.039-18.903 18.14-31.823 29.265-28.859 11.122 2.965 16.057 20.692 11.019 39.594zM603.331 850.43c16.977 13.267 24.408 32.119 16.603 42.11-7.807 9.986-27.896 7.332-44.872-5.932-16.977-13.269-24.411-32.121-16.604-42.112 7.809-9.987 27.899-7.332 44.873 5.934z"/><path fill="#edbf9a" d="M1242.305 863.16s-48.249 97.344-108.348 96.497c-60.1-.846-32.166-43.17-32.166-43.17s.44-3.979.88-10.48c.881-13.611 1.711-38.276-1.727-60.623 0 0 85.849-93.941 109.398-127.36.523-.744 1.033-1.473 1.489-2.149l.339 1.677s.21 35.403 2.179 47c9.122 53.745 27.956 98.608 27.956 98.608z"/><path fill="#d89675" d="M1210.139 797.981c-3.367 47.994-28.779 113.427-107.468 108.025.881-13.611 1.711-38.276-1.727-60.623 0 0 85.849-93.941 109.398-127.36l1.828-.473.79 13.277c.001.001-1.483 48.126-2.821 67.154z"/><path fill="#edbf9a" d="M1006.987 588.058s-13.544 192.995 54.174 272.563c67.717 79.568 134.3-21.844 140.514-44.016 9.711-34.654 20.882-126.406 5.08-182.837 0-.001-127.535 53.044-199.768-45.71z"/><path fill="#2b2e4a" d="M1064.547 789.517a2.54 2.54 0 0 1-1.88-.832c-4.406-4.848-2.448-16.984.26-33.783 3.238-20.08 7.27-45.073-.589-58.939-13.099-23.111-44.68-9.235-44.998-9.094a2.54 2.54 0 1 1-2.083-4.631c.358-.162 36.145-15.874 51.499 11.221 8.737 15.42 4.549 41.386 1.185 62.251-2.103 13.038-4.276 26.52-1.514 29.559a2.539 2.539 0 0 1-1.88 4.248zM1100.943 698.945a2.539 2.539 0 0 1-2.111-3.948c21.29-31.939 70.581-8.738 71.075-8.499a2.538 2.538 0 0 1 1.188 3.388 2.533 2.533 0 0 1-3.388 1.19c-.456-.22-45.807-21.53-64.65 6.739a2.537 2.537 0 0 1-2.114 1.13zM1138.612 716.509c0 6.428-3.601 11.639-8.041 11.639s-8.042-5.211-8.042-11.639c0-6.428 3.602-11.639 8.042-11.639s8.041 5.211 8.041 11.639z"/><path fill="#e3e3e5" d="M1489.474 1756.183s-207.13 55.867-302.477 38.938c0 0-57.831-270.87-18.183-587.448 39.632-316.579 62.334-375.527 62.334-375.527l57.137 18.318 5.366 10.158s164.79 74.489 183.972 85.781c0 0-57.561 327.295-50.788 384.855 2.759 23.515 13.73 98.766 25.732 179.552 2.353 15.863 4.757 31.963 7.144 47.91a87372.423 87372.423 0 0 0 29.763 197.463z"/><path fill="#bcbcbc" d="M1459.711 1558.718c-162.589-18.08-271.952-99.968-271.952-99.968l264.809 52.058a35182.61 35182.61 0 0 0 7.143 47.91z"/><path fill="#e3e3e5" d="M1477.623 946.396s66.024 97.061 84.646 185.094 71.104 350.438 50.788 379.217c-20.315 28.78-179.549 42.044-277.294 6.492 0 0 16.137-16.649 13.196-43.737-2.941-27.087-6.772-106.655-6.772-106.655s42.344-18.622 61.803-15.236c0 0-55.378-113.425-38.274-224.314 17.102-110.887 88.206-179.732 111.907-180.861z"/><path fill="#969799" d="m1174.584 1510.821-5.072-.23c8.794-193.46 83.559-335.52 91.354-349.834l-51.229-105.924 73.921-41.771c2.258-45.886-5.335-151.189-5.413-152.258l5.065-.369c.08 1.084 7.85 108.857 5.347 154.292l-.077 1.387-72.196 40.797 50.307 104.017-.657 1.161c-.823 1.444-82.174 146.904-91.35 348.732zM1003.404 1575.619C981.293 1444.879 981 1130 981 1126.834v-.94l40.943-47.705-31.382-51.528.608-1.249c27.971-57.057 80.903-135.435 81.435-136.22l4.204 2.847c-.525.777-52.503 77.734-80.472 134.36l31.837 52.301-42.143 49.073c.033 19.205.926 320.224 22.367 447l-4.993.846z"/><path fill="#969799" d="M1203.364 1171.697a3.385 3.385 0 0 1-.15-6.768c.383-.019 38.563-1.987 46.11-20.603 8.222-20.277 24.459-125.714 24.622-126.777a3.384 3.384 0 1 1 6.692 1.026c-.669 4.371-16.522 107.29-25.038 128.294-9.176 22.631-50.334 24.744-52.081 24.823a2.618 2.618 0 0 1-.155.005zM1183.617 1168h-.115c-.241 0-24.151-.464-24.151-32.151 0-28.715 13.57-114.997 14.149-118.672.29-1.847 2.019-2.926 3.87-2.638 1.847.289 3.109 2.113 2.818 3.959-.141.894-14.065 89.837-14.065 118.024 0 24.976 16.911 26.091 17.63 26.126 1.858.089 3.31.952 3.233 2.812-.074 1.82-1.561 2.54-3.369 2.54z"/><path fill="#2b2e4a" d="M1050.58 723.281c0 6.428-3.601 11.639-8.042 11.639-4.44 0-8.041-5.211-8.041-11.639 0-6.428 3.601-11.639 8.041-11.639 4.441 0 8.042 5.211 8.042 11.639z"/><path fill="#e84545" d="M1020.527 769.43s123.164 31.091 194.102-69.924l.255 7.06s-20.828 41.052-52.993 55.442l26.803 66.025s24.387-45.281 25.656-63.48l2.138 9.306s-17.188 140.603-121.021 115.554c-17.22-4.154-60.693-41.772-74.94-119.983zM504.134 1871H324.43c-3.86-4-6.636-10.107-7.889-16.66-8.889-46.471-20.891-78.933-63.553-85.097-42.663-6.161-52.262-44.366-61.556-88.738-9.295-44.373-56.291-37.312-57.441-73.946-1.169-36.634 74.083-53.47 115.271-12.942 41.189 40.53 33.538 5.71 85.206 26.348 38.649 15.457 52.058 55.785 61.673 84.107.594 1.744 1.169 3.438 1.744 5.08 2.539 7.347 4.892 13.628 7.499 18.047 12.681 21.45 67.397 22.923 84.682 57.088 16.37 32.334 14.339 80.713 14.068 86.713z"/><path fill="#53354a" d="M429.968 1813c15.101 18.858 28.728 39 39.952 58h-5.011c-10.817-19-23.854-37.194-38.209-55.157-1.304-1.642-2.625-3.192-3.944-4.817-22.229-27.206-47.369-52.952-72.373-76.179-1.66-1.541-3.318-3.045-4.961-4.569-19.282-17.675-38.345-33.781-55.8-47.815a116.61 116.61 0 0 0-1.676-1.35c-1.607-1.286-3.232-2.572-4.824-3.841-20.384-16.184-39.784-30.573-56.765-42.678-3.318-2.37-6.552-4.638-9.667-6.822-30.929-21.669-51.752-34.399-52.091-34.603a2.158 2.158 0 0 1-.727-2.979 2.185 2.185 0 0 1 2.979-.729c.169.119 6.365 3.911 16.93 10.801a1331.223 1331.223 0 0 1 44.676 30.524c.103.052.187.119.27.188 4.301 3.063 8.753 6.28 13.341 9.615 1.608 1.185 3.233 2.371 4.875 3.589 13.68 10.073 28.441 21.314 43.661 33.52.423.339.83.662 1.253 1.017.052.017.084.068.136.101a1115.545 1115.545 0 0 1 19.485 15.998 401.835 401.835 0 0 1 4.216 3.555c11.97 10.125 24.377 21.026 36.805 32.572.22.187.423.391.625.594a854.529 854.529 0 0 1 26.546 25.647 957.394 957.394 0 0 1 4.249 4.284c15.847 16.184 31.235 33.14 45.37 50.764.238.286.458.481.679.77z"/><path fill="#53354a" d="M227.944 1634.741a2.157 2.157 0 0 1-1.364-.069c-24.041-9.384-45.686 7.344-45.9 7.514a2.166 2.166 0 0 1-2.682-3.402c.96-.757 23.831-18.422 50.156-8.147a2.166 2.166 0 0 1-.21 4.104zM210.939 1714.886a2.164 2.164 0 0 1-2.258-3.455c.346-.422 34.917-42.004 82.254-33.136a2.161 2.161 0 0 1 1.729 2.528 2.162 2.162 0 0 1-2.527 1.729c-44.775-8.394-77.772 31.218-78.1 31.618-.293.36-.682.602-1.098.716zM286.386 1770.9a2.168 2.168 0 0 1-2.611-2.832c.154-.418 15.925-41.975 67.789-37.451a2.163 2.163 0 0 1 1.969 2.344 2.168 2.168 0 0 1-2.345 1.971c-48.591-4.237-63.202 34.232-63.344 34.623a2.17 2.17 0 0 1-1.458 1.345zM340.953 1850.673a2.166 2.166 0 0 1-2.009-3.713c2.002-1.759 49.551-43.048 89.478-35.054a2.165 2.165 0 1 1-.852 4.247c-37.822-7.577-85.293 33.644-85.768 34.062a2.124 2.124 0 0 1-.849.458zM314.105 1701.432a2.167 2.167 0 0 1-2.746-2.083c-.058-40.397 28.12-65.107 29.318-66.139a2.167 2.167 0 0 1 2.829 3.283c-.279.241-27.869 24.499-27.816 62.85a2.162 2.162 0 0 1-1.585 2.089zM382.324 1764.318a2.165 2.165 0 0 1-2.745-2.075c-.225-36.72 15.921-57.4 16.608-58.261a2.166 2.166 0 0 1 3.39 2.696c-.16.201-15.881 20.44-15.666 55.541.006 1-.667 1.844-1.587 2.099zM245.548 1647.487a2.166 2.166 0 0 1-2.704-1.666c-4.738-24.009 7.791-35.743 8.327-36.231a2.165 2.165 0 0 1 2.921 3.198c-.49.457-11.233 10.735-6.999 32.194a2.166 2.166 0 0 1-1.545 2.505zM187.534 1607.008a2.165 2.165 0 0 1-2.665-1.508c-4.98-17.944 4.959-25.283 5.384-25.588a2.163 2.163 0 0 1 3.021.506 2.162 2.162 0 0 1-.489 3.01c-.358.267-7.859 6.071-3.741 20.912a2.168 2.168 0 0 1-1.508 2.667h-.002z"/><path fill="#2b2e4a" d="M1276.167 1026.528a4.232 4.232 0 0 1-4.12-5.213c.122-.517 12.158-51.947.451-72.241-4.275-7.408-15.142-11.964-29.069-12.189-19.257-.322-37.765 7.534-44.931 19.079-14.505 23.371-17.964 66.226-17.999 66.658-.178 2.33-2.202 4.09-4.544 3.894a4.232 4.232 0 0 1-3.894-4.545c.141-1.838 3.644-45.334 19.245-70.47 10.156-16.36 33.557-23.344 52.26-23.078 17.184.276 30.401 6.263 36.263 16.422 13.385 23.2.986 76.187.451 78.432a4.232 4.232 0 0 1-4.113 3.251zM1070.235 870.219a89.94 89.94 0 0 0 6.433 5.603c-9.243 9.262-16.964 19.995-22.669 32.285-34.518 74.473-53.327 171.969-60.2 213.055-.136.881-.272 1.728-.406 2.54a4.234 4.234 0 0 1-4.182 3.556c-.22 0-.456-.017-.694-.051a4.24 4.24 0 0 1-3.486-4.859c.203-1.218.404-2.505.626-3.842 7.109-42.171 26.087-139.33 60.658-213.971 5.873-12.68 13.915-24.175 23.92-34.316z"/><path fill="#2b2e4a" d="M1251.447 928.997c-1.033 2.946-1.761 4.808-1.931 5.214a4.24 4.24 0 0 1-5.502 2.371c-2.166-.865-3.216-3.336-2.353-5.502.032-.067.388-1.017.981-2.658 4.436-12.138 21.466-62.842 6.89-86.695-4.097-6.738-10.359-10.597-19.112-11.834a599.54 599.54 0 0 1-2.693-8.785c.577.049 1.152.101 1.729.152 12.341 1.186 21.533 6.585 27.307 16.066 15.863 25.969.439 75.453-5.316 91.671zM983.489 1218.253c-9.994 0-19.025-7.394-24.775-20.284a4.233 4.233 0 0 1 7.731-3.449c4.266 9.559 10.636 15.268 17.044 15.268 12.049 0 22.227-18.994 22.227-41.477 0-22.482-10.179-41.477-22.227-41.477-5.511 0-11.059 4.242-15.222 11.641a4.236 4.236 0 0 1-5.764 1.612 4.23 4.23 0 0 1-1.613-5.763c5.788-10.288 13.814-15.954 22.599-15.954 17.21 0 30.692 21.937 30.692 49.941s-13.482 49.942-30.692 49.942z"/><path fill="#2b2e4a" d="M970.488 1135.044c-2.406-1.93-5.079-3.131-7.925-3.454a12.399 12.399 0 0 0-1.573-.101c-11.867 0-21.162 15.185-21.162 34.569 0 18.808 8.753 33.656 20.129 34.502.339.033.678.051 1.033.051 2.64 0 5.163-.746 7.466-2.134 8.074-4.824 13.695-17.353 13.695-32.419 0-13.78-4.69-25.428-11.663-31.014zm-8.347 56.984c-.136.017-.288.052-.423.068a5.388 5.388 0 0 1-.728.051c-5.993 0-12.697-10.716-12.697-26.088 0-15.388 6.704-26.104 12.697-26.104 6.01 0 12.696 10.716 12.696 26.104.001 14.39-5.857 24.716-11.545 25.969z"/><path fill="#903749" d="M466.377 1871s-98.192-22.985-93.677-78.288c4.515-55.303 1.131-95.858-45.144-116.173-46.275-20.315-45.146-66.551-41.76-119.597 3.386-53.045-51.917-59.798-41.76-101.558 10.157-41.758 100.448-37.235 134.308 21.454 33.858 58.689 36.116 16.934 88.032 56.436 51.916 39.503 38.934 115.122 46.554 143.338 7.62 28.216 68.923 47.253 77.772 91.269 8.851 44.017-11.465 103.119-11.465 103.119h-112.86z"/><path fill="#969799" d="M1389.395 1352.226c-.396-1.482-39.476-149.368-24.879-234.286 14.629-85.111 94.637-172.396 95.442-173.268l3.729 3.449c-.797.861-79.795 87.065-94.166 170.679-14.408 83.82 24.387 230.643 24.78 232.116l-4.906 1.31zM1370.978 1615.282c-38.155 0-124.477-5.37-134.02-13.793-10.014-8.835-20.347-42.069-20.781-43.479l-1.124-3.644 188.327 18.302-.492 5.056-180.684-17.56c3.669 11.018 11.519 31.698 18.113 37.518 8.473 7.478 120.134 14.621 144.779 12.075 6.294-.651 10.827-2.933 13.471-6.781 4.811-7 2.145-17.164 2.116-17.265l4.898-1.339c.139.506 3.324 12.487-2.808 21.451-3.524 5.15-9.296 8.174-17.155 8.987-3.091.318-8.175.472-14.64.472z"/><path fill="#2b2e4a" d="M667.044 988.229c-3.433-24.941-15.759-47.275-35.844-62.556-23.219-17.663-56.144-25.445-84.837-26.095-.896-.021-1.346.545-1.44 1.213-22.054 11.649-46.384 17.412-69.701 25.936-15.836 5.79-32.968 13.216-41.488 28.661-6.957 12.611-4.521 28.604-2.455 42.113 2.441 15.96 4.875 30.608-1.732 45.959-10.913 25.359-39.27 39.895-60.982 54.601-22.244 15.066-43.692 32.794-51.258 59.654-7.064 25.08 2.104 50.302 22.453 65.942 20.805 15.987 49.226 21.853 74.912 22.721 13.67.461 27.325-.441 40.738-3.176 14.155-2.885 26.955-8.973 39.865-15.288 35.755-17.491 69.482-39.437 98.816-66.41 47.641-43.811 82.1-106.838 72.953-173.275z"/><path fill="#969799" d="M1222.846 1720.006c-.103-1.162-10.136-116.703-6.774-162.928l5.065.369c-3.333 45.823 6.667 160.959 6.769 162.117l-5.06.442z"/><path fill="#53354a" d="M540.776 1870.608c.941 0 1.804.134 2.595.365-.01-.071-.01-.144-.025-.215-22.248-101.578-90.916-211.588-144.602-285.99-58.112-80.532-111.688-137.867-112.224-138.437a2.54 2.54 0 1 0-3.703 3.475c.532.567 53.923 57.707 111.847 137.987 53.237 73.785 121.263 182.716 143.52 283.186a8.848 8.848 0 0 1 2.592-.371z"/><path fill="#53354a" d="M341.388 1516.611a2.539 2.539 0 0 1-1.52-.506c-24.229-18.129-53.921-6.003-54.217-5.877a2.537 2.537 0 0 1-3.323-1.36 2.537 2.537 0 0 1 1.359-3.323c1.322-.557 32.692-13.356 59.223 6.494a2.541 2.541 0 0 1 .513 3.555 2.543 2.543 0 0 1-2.035 1.017zM297.087 1601.843a2.538 2.538 0 0 1-1.472-4.611c.522-.369 52.601-36.532 103.313-11.695a2.538 2.538 0 0 1 1.162 3.397 2.538 2.538 0 0 1-3.397 1.164c-47.965-23.498-97.647 10.928-98.143 11.279a2.525 2.525 0 0 1-1.463.466zM364.799 1688.748a2.538 2.538 0 0 1-2.065-4.016c.304-.425 31.133-42.444 88.318-21.098a2.539 2.539 0 1 1-1.776 4.758c-53.575-19.998-82.127 18.895-82.41 19.292a2.533 2.533 0 0 1-2.067 1.064zM401.483 1795.967a2.54 2.54 0 0 1-1.107-4.827c2.814-1.36 69.463-33.129 112.072-11.599a2.54 2.54 0 0 1-2.291 4.534c-40.363-20.401-106.903 11.315-107.569 11.639a2.54 2.54 0 0 1-1.105.253zM417.864 1618.935a2.538 2.538 0 0 1-2.45-3.216c12.579-45.66 52.153-64.76 53.831-65.55a2.54 2.54 0 0 1 2.168 4.594c-.391.183-39.159 18.956-51.103 62.304a2.54 2.54 0 0 1-2.446 1.868zM475.26 1711.343a2.542 2.542 0 0 1-2.453-3.202c11.243-41.562 35.958-59.873 37.005-60.632a2.54 2.54 0 0 1 2.985 4.109c-.243.177-24.341 18.123-35.087 57.85a2.54 2.54 0 0 1-2.45 1.875zM357.288 1536.522a2.54 2.54 0 0 1-2.536-2.729c2.163-28.611 19.995-37.947 20.754-38.331a2.54 2.54 0 0 1 2.298 4.528c-.697.362-16.055 8.612-17.985 34.184a2.542 2.542 0 0 1-2.531 2.348zM304.409 1473c-1.402 0-2.539-1.324-2.539-2.725-.011-21.833 13.519-27.11 14.094-27.32 1.32-.479 2.775.151 3.255 1.469a2.512 2.512 0 0 1-1.498 3.225c-.487.188-10.78 4.577-10.772 22.634 0 1.404-1.136 2.717-2.537 2.717h-.003z"/><path fill="#edbf9a" d="M753.725 1028.118s-43.205 95.466-127.089 46.946c-83.868-48.536-46.268-60.387-46.268-60.387s24.293-24.632 30.506-74.218c.407-3.234.729-6.57.966-10.022a75.09 75.09 0 0 0 .136-2.015s1.456.982 4.097 2.624c13.646 8.448 59.049 34.062 99.731 28.611 0 0-2.523 16.354 3.929 33.842 4.788 13.001 14.54 26.629 33.992 34.619z"/><path fill="#969799" d="M986.856 1610.369c-17.182 0-44.822-3.837-46.246-4.036l.704-5.029c.418.058 42.034 5.622 54.171 3.199 7.948-1.59 12.194-16.502 13.649-26.502H941v-5h73.921l-.334 3.008c-.367 3.133-4.008 30.779-18.106 33.599-2.391.477-5.743.761-9.625.761z"/><path fill="#2b2e4a" d="M512.931 1676.463S504.751 1798 525.066 1871h173.808l13.545-62.639L725.961 1871h147.284s-7.334-164.139-15.234-194.612c0 0-254.51 46.349-345.08.075z"/><path fill="#e84545" d="M861.394 1359.748s27.154 274.695 22.076 311.094c-5.079 36.398-88.879 64.771-157.427 60.742-2.996-.169-6.161-.372-9.496-.575-72.932-4.553-221.369-17.269-216.511-60.167 2.185-19.231 2.455-75.336 2.049-135.367-.033-5.451-.085-10.937-.118-16.422-.135-15.575-.306-31.235-.474-46.387-.458-37.446-.999-71.847-1.305-94.702-.169-12.478-.27-21.501-.253-25.733.05-12.307-15.66-63.214-29.949-118.929-18.215-70.933-34.162-149.654-12.442-166.247a13.262 13.262 0 0 1 1.862-1.235c3.2-1.761 6.603-3.589 10.192-5.435 44.862-23.21 116.405-51.922 116.405-51.922s20.315 64.331 88.032 65.465c67.718 1.134 65.466-54.174 65.466-54.174s60.946 33.435 96.497 73.439c35.552 39.987 74.489 212.447 74.489 212.447l-49.093 54.108z"/><path fill="#ce3e3e" d="M788.599 1423.725s-70.681 6.568-109.821 21.805c-31.048 12.087-135.4 23.091-177.283 27.136.168 15.152.339 30.812.474 46.387.033 5.485.085 10.971.118 16.422.406 60.031.136 116.136-2.049 135.367-4.858 42.898 143.579 55.614 216.511 60.167-9.565-2.793-19.199-5.486-28.34-9.209-25.988-10.548-50.976-23.329-77.029-33.791-19.858-7.957-42.543-16.896-51.805-37.635-4.569-10.242 4.013-8.432 11.175-7.059 7.432 1.438 14.813 3.369 22.447 3.098 2.049-.068 2.776-2.42 1.88-3.963-18.944-32.538-46.064-63.45-45.438-102.404 1.184-.322 2.133-1.338 1.997-2.472 21.669-3.809 145.728-47.538 176.217-60.726 31.319-13.544 73.643-11.004 73.643-11.004l-12.697-42.119zM738.037 1306.619c-5.023-11.68-12.049-23.114-21.731-31.483-1.136-.982-3.438-.703-3.941.889-11.714 37.005-60.413 47.13-94.241 45.594-17.572-.8-36.224-5.001-50.428-15.858-8.972-6.858-14.626-17.566-20.748-26.826-7.334-11.094-19.596-37.382-22.824-83.538-.111-1.594-6.353 53.096-7.011 54.67-6.48 15.514-14.18 32.063-14.38 49.176-.21 17.766-7.996 55.318 6.53 60.792 19.978 7.525 8.068 6.848 28.217 14.107 17.486 6.302 90.32-2.108 131.04-22.572 23.58-11.851 28.308-9.936 44.46-11.851 12.017-1.425 31.201 18.419 32.982.799 1.137-11.229-3.585-23.809-7.925-33.899z"/><path fill="#969799" d="M1008 1576h6v125h-6z"/><path fill="#2b2e4a" d="M1145.824 1584.112c11.166.392 17.263-7.909 13.548-18.447l-103.014-292.392c-3.715-10.538-15.896-19.273-27.069-19.273H717.495c-11.173 0-16.607 8.469-12.074 18.681l125.16 282.038c4.533 10.214 17.377 18.919 28.545 19.309l286.698 10.084z"/><path fill="#e84545" d="M1346.703 1357.214s68.718 117.552-4.516 162.521l-177.194-69.974-48.529 18.057s-60.88-1.128-101.543-29.344-37.155-59.816-37.155-59.816-30.596-25.959-23.823-38.938c6.772-12.979 78.111 12.857 104.256 12.505 11.166-.15 23.16-7.785 23.16-7.785l-12.297-36.824s26.523-9.091 47.968 11.789c10.032 9.768 37.967 30.4 55.93 32.82 17.962 2.421 173.743 4.989 173.743 4.989z"/><path fill="#969799" d="M939 1252.536a8.464 8.464 0 0 1-8.465 8.464h-139.07a8.465 8.465 0 0 1-8.465-8.464v-.071a8.464 8.464 0 0 1 8.465-8.464h139.07a8.465 8.465 0 0 1 8.465 8.464v.071z"/><path fill="#ce3e3e" d="M589.898 1398.16c-13.814-14.863-29.339-26.884-49.027-32.69-15.389-4.555-40.376-4.047-38.718-25.936 1.338-17.589 9.853-34.893 15.947-51.212 6.468-17.353 9.634-33.164 9.243-51.821-.728-35.975-5.331-73.776-14.727-108.549-7.061-26.208-19.74-53.007-43.018-67.565a406.313 406.313 0 0 0-10.192 5.435c-.643.355-1.271.762-1.862 1.235 6.196 17.252 10.784 34.925 12.985 53.21 2.556 21.347 1.761 43.406 1.201 64.839-.423 16.066-1.168 32.131-1.744 48.198 14.289 55.714 29.999 106.622 29.949 118.929-.017 4.232.084 13.255.253 25.733 2.963 2.081 6.079 3.978 9.243 5.705 23.685 12.814 52.212 15.305 78.4 18.943 2.71.372 3.728-2.676 2.067-4.454z"/><path fill="#969799" d="M1349.385 1359.745a2.533 2.533 0 0 1-2.538-2.669c.015-.278.434-6.87 5.953-10.908 4.401-3.221 10.588-3.826 18.383-1.804 20.034 5.198 37.353-.738 61.483-10.387a2.54 2.54 0 0 1 1.885 4.715c-25.067 10.022-43.105 16.172-64.645 10.589-6.215-1.613-10.951-1.293-14.063.954-3.583 2.586-3.923 7.086-3.927 7.132a2.544 2.544 0 0 1-2.531 2.378z"/><path fill="#e84545" d="M588.832 1429.446c-13.544 32.166-21.162 74.489-21.162 74.489a319.859 319.859 0 0 1-17.792 1.473c-89.997 5.18-173.813-26.088-191.285-65.805-18.622-42.323 25.395-282.72 67.718-346.408 7.618-11.462 14.745-18.809 21.314-23.126 29.881-19.705 48.097 23.126 48.097 23.126 15.947 21.753 20.315 97.547 6.771 160.186-13.543 62.639-20.315 103.269-15.236 106.367 5.079 3.099 42.323 20.603 72.796 25.682 30.472 5.079 28.779 44.016 28.779 44.016zM597.264 896.559s-35.941-3.773-51.408-18.495c0 0-9.645 9.768-5.695 23.131 3.949 13.363 43.593 32.786 68.987 17.549 25.393-15.237-11.884-22.185-11.884-22.185z"/><path fill="#d89675" d="M719.731 993.499c-6.451-17.488-3.929-33.842-3.929-33.842-40.682 5.451-86.085-20.163-99.731-28.611l-4.232-.608c0-.001 17.624 81.7 107.892 63.061z"/><path fill="#edbf9a" d="M580.367 811.935s10.588 163.805 98.405 170.576c87.817 6.772 92.333-47.417 99.104-76.19 6.771-28.772 2.259-149.446 0-166.984 0 0-24.829-35.929-67.718-43.663.001.001-29.248 74.655-129.791 116.261z"/><path fill="#e84545" d="M783.5 855.394c-.193-1.255-1.521-1.951-2.627-1.236-15.515 10.023-34.991 11.695-52.744 15.141-15.973 3.098-32.097 5.459-48.373 6.006-35.325 1.187-66.92-10.936-92.384-35.44-.852-.818-1.856-.412-2.362.357-1.419-1.349-2.804-2.741-4.106-4.255-1.423-1.658-3.782-.003-2.768 1.908 8.075 15.189 23.166 22.504 34.177 35.006 7.478 8.491 8.2 18.909 8.718 29.721.521 10.877.38 21.772.683 32.657-9.86-12.722-17.297-27.189-28.112-39.192-1.195-1.328-3.679-.409-2.966 1.519 10.837 29.278 22.85 57.142 50.469 74.216 25.014 15.466 57.564 17.817 85.331 9.417 50.722-15.349 64.242-79.299 57.064-125.825z"/><path fill="#2b2e4a" d="M763.133 774.793c-18.258-6.203-35.044 2.906-43.681 19.469-11.407 21.878.521 51.059 4.544 73.352.576 3.198 5.641 2.784 5.059-.443-3.596-19.93-10.566-39.855-8.227-60.351 2.192-19.211 21.456-33.772 40.192-27.408 3.066 1.042 5.219-3.564 2.113-4.619zM683.012 797.165c-14.754-14.99-38.708-16.042-53.236-.251-2.221 2.414 1.681 5.668 3.892 3.265 12.791-13.904 33.356-12.05 46.081.876 2.297 2.334 5.539-1.577 3.263-3.89zM668.521 826.056c0 7.401-4.321 13.403-9.653 13.403-5.332 0-9.653-6.002-9.653-13.403 0-7.402 4.321-13.401 9.653-13.401 5.331-.001 9.653 5.999 9.653 13.401z"/><path fill="#2b2e4a" d="M758.246 815.898c0 7.401-4.321 13.403-9.653 13.403-5.332 0-9.653-6.001-9.653-13.403s4.321-13.401 9.653-13.401c5.332 0 9.653 5.999 9.653 13.401z"/><path fill="#ce3e3e" d="M534.438 1485.161c-11.343-13.324-18.859-26.851-19.165-44.762-.051-2.438-3.047-2.827-4.485-1.421-21.958 21.636-52.193 37.548-78.468 13.56-22.567-20.603-32.03-55.24-37.346-84.188-7.078-38.533-4.655-77.199 5.214-115.019 11.952-45.878 31.81-89.522 39.275-136.586a198.923 198.923 0 0 0 2.354-37.38 120.716 120.716 0 0 1 6.349-4.859c1.846-1.321 1.032-3.725-.542-4.436-6.568 4.317-13.695 11.664-21.314 23.126-42.323 63.688-86.34 304.085-67.718 346.408 17.472 39.717 101.288 70.984 191.285 65.805-4.451-7.128-9.817-13.663-15.439-20.248z"/><path fill="#bcbcbc" d="M846.937 1364.792c-.355-7.566-2.759-14.829-8.313-21.381-25.004-29.559-80.211 36.297-103.793 1.083-1.017-1.506-2.878-1.287-4.047-.202-13.696 12.697-23.463 29.135-37.804 41.138-19.078 15.999-44.929 11.173-67.411 6.688-32.421-6.484-72.069-26.783-101.864-2.642-16.794 13.595-23.312 35.874-24.176 57.221-.22 5.35-.084 10.648.339 15.728 2.557 30.744 19.943 38.988 51.72 48.4 19.637 5.808 101.475-13.018 121.637-27.204 8.618-6.061 55.682-31.472 68.53-30.473 12.037.931 33.943 1.438 45.15-4.521 12.816-6.823 42.155-27.002 47.961-40.055 6.282-14.102 12.798-29.507 12.071-43.78z"/><path fill="#969799" d="M846.937 1364.792c-21.517 51.534-41.121 66.347-77.807 71.849-18.709 2.827-42.831-12.849-59.999-3.25-7.77 4.35-14.457 10.208-21.634 15.422-8.804 6.399-18.877 10.852-29.035 14.61-30.32 11.208-61.217 15.135-93.314 10.819-23.143-3.115-48.469-10.971-65.618-27.545-.22 5.35-.084 10.648.339 15.728 2.557 30.744 19.943 38.988 51.72 48.4 19.637 5.808 101.475-13.018 121.637-27.204 8.618-6.061 55.682-31.472 68.53-30.473 12.037.931 33.943 1.438 45.15-4.521 12.816-6.823 42.155-27.002 47.961-40.055 6.281-14.102 12.797-29.507 12.07-43.78z"/></svg>