<svg width="1310" height="593" viewBox="0 0 1310 593" fill="none" xmlns="http://www.w3.org/2000/svg">
<path d="M904.558 305.838L903.463 524.603C903.407 535.63 893.929 544.52 882.305 544.468C870.682 544.415 861.31 535.44 861.364 524.414L862.46 305.649L904.558 305.838Z" fill="#F5DFE1"/>
<path d="M900.568 420.831L900.036 527.076C900 534.273 892.067 540.069 882.33 540.024C872.592 539.98 864.731 534.114 864.766 526.917L865.297 420.881C869.455 420.102 874.596 419.747 880.12 420.769C887.223 422.097 894.886 421.593 900.568 420.831Z" fill="#F56476"/>
<path d="M904.783 306.129L862.231 305.937C861.773 305.935 861.334 305.76 861.011 305.451C860.689 305.142 860.509 304.724 860.511 304.289C860.513 303.854 860.698 303.437 861.023 303.131C861.349 302.825 861.79 302.654 862.249 302.657L904.8 302.849C905.248 302.865 905.672 303.046 905.983 303.354C906.293 303.661 906.465 304.071 906.463 304.497C906.461 304.922 906.284 305.331 905.971 305.635C905.657 305.94 905.231 306.117 904.783 306.129Z" fill="#F5DFE1"/>
<path d="M873.602 516.547C873.161 516.545 872.725 516.461 872.319 516.299C871.912 516.137 871.544 515.901 871.234 515.604C870.924 515.307 870.678 514.955 870.511 514.568C870.345 514.181 870.26 513.766 870.262 513.348L871.269 312.246C871.294 311.415 871.661 310.626 872.291 310.048C872.921 309.471 873.764 309.149 874.64 309.153C875.516 309.157 876.356 309.486 876.98 310.069C877.604 310.653 877.963 311.444 877.98 312.275L876.974 513.378C876.972 513.796 876.883 514.21 876.712 514.595C876.542 514.981 876.293 515.331 875.98 515.625C875.666 515.919 875.295 516.152 874.887 516.31C874.479 516.469 874.042 516.549 873.602 516.547Z" fill="#4D4D4D"/>
<path d="M904.558 305.838L904.466 324.27C903.506 320 901.036 316.169 897.465 313.413C893.894 310.658 889.436 309.145 884.833 309.124L862.443 309.023L862.46 305.648L904.558 305.838Z" fill="#E6D1D3"/>
<path d="M984.815 305.838L983.72 524.603C983.665 535.63 974.186 544.52 962.563 544.468C950.939 544.415 941.567 535.44 941.622 524.414L942.718 305.649L984.815 305.838Z" fill="#F5DFE1"/>
<path d="M981.045 376.796L980.317 522.267C980.268 532.12 972.324 540.069 962.586 540.024C952.848 539.98 944.999 531.961 945.047 522.108L945.774 376.924C949.934 375.851 955.076 375.356 960.599 376.745C967.698 378.552 975.361 377.849 981.045 376.796Z" fill="#F56476"/>
<path d="M985.04 306.129L942.489 305.937C942.03 305.935 941.591 305.76 941.269 305.451C940.946 305.142 940.766 304.724 940.768 304.289C940.771 303.854 940.955 303.437 941.281 303.131C941.607 302.825 942.047 302.654 942.506 302.657L985.057 302.849C985.506 302.865 985.93 303.046 986.24 303.354C986.55 303.661 986.722 304.071 986.72 304.497C986.718 304.922 986.542 305.331 986.228 305.635C985.915 305.94 985.489 306.117 985.04 306.129Z" fill="#F5DFE1"/>
<path d="M953.859 516.547C953.418 516.545 952.983 516.461 952.576 516.299C952.17 516.137 951.801 515.901 951.491 515.604C951.181 515.307 950.936 514.955 950.769 514.568C950.602 514.181 950.518 513.766 950.52 513.348L951.527 312.246C951.552 311.415 951.918 310.626 952.548 310.048C953.178 309.471 954.021 309.149 954.897 309.153C955.774 309.157 956.614 309.486 957.238 310.069C957.862 310.653 958.221 311.444 958.238 312.275L957.231 513.378C957.227 514.222 956.869 515.031 956.237 515.625C955.604 516.219 954.749 516.551 953.859 516.547Z" fill="#4D4D4D"/>
<path d="M984.815 305.838L984.723 324.27C983.764 320 981.293 316.169 977.722 313.413C974.151 310.658 969.694 309.145 965.091 309.124L942.7 309.023L942.718 305.648L984.815 305.838Z" fill="#E6D1D3"/>
<path d="M1065.07 305.838L1063.98 524.603C1063.92 535.63 1054.44 544.52 1042.82 544.468C1031.2 544.415 1021.82 535.44 1021.88 524.414L1022.97 305.649L1065.07 305.838Z" fill="#F5DFE1"/>
<path d="M1061.24 390.979L1060.58 523.815C1060.53 532.813 1052.59 540.069 1042.86 540.024C1033.12 539.98 1025.26 532.654 1025.31 523.657L1025.97 391.082C1030.13 390.103 1035.27 389.653 1040.8 390.924C1047.9 392.576 1055.56 391.938 1061.24 390.979Z" fill="#F56476"/>
<path d="M1065.3 306.129L1022.75 305.937C1022.29 305.935 1021.85 305.76 1021.53 305.451C1021.2 305.142 1021.02 304.724 1021.03 304.289C1021.03 303.854 1021.21 303.437 1021.54 303.131C1021.86 302.825 1022.3 302.654 1022.76 302.657L1065.31 302.849C1065.54 302.85 1065.77 302.893 1065.98 302.977C1066.19 303.06 1066.38 303.182 1066.54 303.335C1066.69 303.488 1066.82 303.669 1066.91 303.868C1066.99 304.068 1067.04 304.281 1067.04 304.497C1067.03 304.932 1066.85 305.348 1066.52 305.654C1066.2 305.96 1065.76 306.131 1065.3 306.129Z" fill="#F5DFE1"/>
<path d="M1034.12 516.547C1033.68 516.545 1033.24 516.461 1032.83 516.299C1032.43 516.137 1032.06 515.901 1031.75 515.604C1031.44 515.307 1031.19 514.955 1031.03 514.568C1030.86 514.181 1030.78 513.766 1030.78 513.348L1031.78 312.246C1031.81 311.415 1032.18 310.626 1032.81 310.048C1033.44 309.471 1034.28 309.149 1035.16 309.153C1036.03 309.157 1036.87 309.486 1037.5 310.069C1038.12 310.653 1038.48 311.444 1038.5 312.275L1037.49 513.378C1037.48 514.222 1037.13 515.031 1036.49 515.625C1035.86 516.219 1035.01 516.551 1034.12 516.547Z" fill="#4D4D4D"/>
<path d="M1065.07 305.838L1064.98 324.27C1064.02 320 1061.55 316.169 1057.98 313.413C1054.41 310.658 1049.95 309.145 1045.35 309.124L1022.96 309.023L1022.97 305.648L1065.07 305.838Z" fill="#E6D1D3"/>
<path d="M1145.33 305.838L1144.23 524.603C1144.18 535.63 1134.7 544.52 1123.08 544.468C1111.45 544.415 1102.08 535.44 1102.14 524.414L1103.23 305.649L1145.33 305.838Z" fill="#F5DFE1"/>
<path d="M1141.21 447.54L1140.79 529.995C1140.77 535.58 1132.84 540.07 1123.1 540.025C1113.36 539.981 1105.5 535.42 1105.52 529.836L1105.94 447.544C1110.09 446.943 1115.86 444.92 1120.76 447.471C1128.74 451.626 1135.99 449.794 1141.21 447.54Z" fill="#F56476"/>
<path d="M1145.55 306.129L1103 305.937C1102.54 305.935 1102.11 305.76 1101.78 305.451C1101.46 305.142 1101.28 304.724 1101.28 304.289C1101.28 303.854 1101.47 303.437 1101.79 303.131C1102.12 302.825 1102.56 302.654 1103.02 302.657L1145.57 302.849C1146.02 302.865 1146.44 303.046 1146.75 303.354C1147.06 303.661 1147.24 304.071 1147.23 304.497C1147.23 304.922 1147.06 305.331 1146.74 305.635C1146.43 305.94 1146 306.117 1145.55 306.129Z" fill="#F5DFE1"/>
<path d="M1114.37 516.547C1113.93 516.545 1113.5 516.461 1113.09 516.299C1112.68 516.137 1112.32 515.901 1112.01 515.604C1111.69 515.307 1111.45 514.955 1111.28 514.568C1111.12 514.181 1111.03 513.766 1111.03 513.348L1112.04 312.246C1112.07 311.418 1112.44 310.634 1113.07 310.06C1113.7 309.486 1114.54 309.167 1115.41 309.171C1116.28 309.175 1117.12 309.501 1117.75 310.081C1118.37 310.66 1118.73 311.448 1118.75 312.275L1117.74 513.378C1117.74 514.222 1117.38 515.031 1116.75 515.625C1116.12 516.219 1115.26 516.551 1114.37 516.547Z" fill="#4D4D4D"/>
<path d="M1145.33 305.838L1145.24 324.27C1144.28 320 1141.81 316.169 1138.24 313.413C1134.67 310.658 1130.21 309.145 1125.6 309.124L1103.21 309.023L1103.23 305.648L1145.33 305.838Z" fill="#E6D1D3"/>
<path d="M1222.2 305.838L1221.11 524.603C1221.05 535.63 1211.57 544.52 1199.95 544.468C1188.33 544.415 1178.95 535.44 1179.01 524.414L1180.1 305.649L1222.2 305.838Z" fill="#F5DFE1"/>
<path d="M1218.43 376.796L1217.7 522.267C1217.65 532.12 1209.71 540.069 1199.97 540.024C1190.24 539.98 1182.39 531.961 1182.43 522.108L1183.16 376.924C1187.32 375.851 1192.46 375.356 1197.99 376.745C1205.09 378.552 1212.75 377.849 1218.43 376.796Z" fill="#F56476"/>
<path d="M1222.43 306.129L1179.88 305.937C1179.42 305.935 1178.98 305.76 1178.66 305.451C1178.33 305.142 1178.15 304.724 1178.16 304.289C1178.16 303.854 1178.34 303.437 1178.67 303.131C1178.99 302.825 1179.43 302.654 1179.89 302.657L1222.44 302.849C1222.89 302.865 1223.32 303.046 1223.63 303.354C1223.94 303.661 1224.11 304.071 1224.11 304.497C1224.11 304.922 1223.93 305.331 1223.62 305.635C1223.3 305.94 1222.88 306.117 1222.43 306.129Z" fill="#F5DFE1"/>
<path d="M1191.25 516.547C1190.81 516.545 1190.37 516.461 1189.96 516.299C1189.56 516.137 1189.19 515.901 1188.88 515.604C1188.57 515.307 1188.32 514.955 1188.16 514.568C1187.99 514.181 1187.9 513.766 1187.91 513.348L1188.91 312.246C1188.94 311.415 1189.31 310.626 1189.94 310.048C1190.57 309.471 1191.41 309.149 1192.28 309.153C1193.16 309.157 1194 309.486 1194.63 310.069C1195.25 310.653 1195.61 311.444 1195.63 312.275L1194.62 513.378C1194.61 514.222 1194.26 515.031 1193.62 515.625C1192.99 516.219 1192.14 516.551 1191.25 516.547Z" fill="#4D4D4D"/>
<path d="M1222.2 305.838L1222.11 324.27C1221.15 320 1218.68 316.169 1215.11 313.413C1211.54 310.658 1207.08 309.145 1202.48 309.124L1180.09 309.023L1180.11 305.648L1222.2 305.838Z" fill="#E6D1D3"/>
<path d="M1063.39 467.26C1063.66 467.442 1063.97 467.612 1064.27 467.734C1065.06 468.085 1065.93 468.283 1066.85 468.283H1111.25L1111.24 473.065H1182.68L1182.7 470.483L1182.71 467.26H1063.39ZM829.181 467.26V448.224C826.701 450.14 824.242 452.08 821.805 454.045V502.948C824.205 505.882 826.685 508.769 829.181 511.672V504.018H877.015L877.046 498.167H829.181V473.065H1060.84L1060.86 467.26H829.181ZM1066.85 468.283C1065.96 468.282 1065.08 468.094 1064.27 467.734C1063.96 467.605 1063.66 467.447 1063.39 467.26H1060.86L1060.84 473.065H1111.24L1111.25 468.283H1066.85ZM1264.29 569.086V272.666C1264.29 272.355 1264.23 272.047 1264.1 271.759C1263.98 271.472 1263.79 271.211 1263.56 270.992C1263.33 270.773 1263.05 270.6 1262.75 270.483C1262.44 270.367 1262.12 270.309 1261.79 270.313H1259.41C1258.05 270.313 1256.91 271.352 1256.91 272.666V338.024H829.181V272.666C829.181 271.352 828.038 270.313 826.686 270.313H824.301C823.974 270.309 823.649 270.367 823.345 270.483C823.041 270.6 822.765 270.773 822.533 270.992C822.3 271.211 822.116 271.472 821.992 271.759C821.867 272.047 821.804 272.355 821.806 272.666V569.086H812.997V577.123H839.183V569.086H829.182L829.181 504.018H1256.91V569.086H1248.1V577.123H1274.35V569.086H1264.29ZM829.181 343.83H1256.91V467.26H829.181V343.83ZM829.181 498.167V473.065H1256.91V498.167H829.181ZM877.24 467.26L877.192 473.065H1182.7V467.26H877.24Z" fill="#49499C"/>
<path d="M1215.22 360.167C1215.22 365.191 1212.02 367.252 1208.91 367.252C1205.8 367.252 1202.21 363.809 1203.46 359.01C1204.28 355.837 1207.81 354.852 1208.91 349.057C1208.91 349.058 1215.22 355.143 1215.22 360.167ZM1196.37 325.813C1196.37 329.665 1193.92 331.245 1191.54 331.245C1189.15 331.245 1186.4 328.605 1187.36 324.927C1187.99 322.495 1190.7 321.74 1191.54 317.298C1191.54 317.297 1196.37 321.961 1196.37 325.813Z" fill="#F56476"/>
<path d="M137.074 349.07H202.119V509.187H137.074V349.07ZM202.119 509.187L267.165 509.188V349.695C267.165 349.529 267.095 349.37 266.971 349.253C266.848 349.136 266.68 349.07 266.505 349.07H202.119V509.187Z" fill="#8BD6F2"/>
<path d="M202.119 521.065H123.15V372.964C123.15 331.592 158.505 298.053 202.119 298.053V521.065ZM202.119 521.065H281.088V372.964C281.088 331.592 245.732 298.053 202.119 298.053V521.065Z" fill="#C6F0F7"/>
<path d="M281.088 521.06C235.489 535.844 189.892 533.574 159.493 529.001C153.591 528.086 148.267 527.135 143.638 526.183C130.753 523.512 123.152 521.06 123.152 521.06L143.638 517.583L202.121 507.703L281.088 521.06ZM162.635 272.598H241.604V302.979H162.635V272.598Z" fill="#C6F0F7"/>
<path d="M199.112 278.584L199.034 298.052V302.993L198.997 313.751C176.584 317.41 159.493 335.928 159.493 358.213V529.001C153.591 528.086 148.267 527.135 143.638 526.183V349.248C143.638 326.925 160.689 308.445 183.102 304.748V278.583H199.112V278.584Z" fill="#808080"/>
<path d="M239.222 249.941H165.018C156.464 249.941 149.529 256.519 149.529 264.633C149.529 272.747 156.464 279.325 165.018 279.325H239.222C247.775 279.325 254.709 272.747 254.709 264.633C254.708 256.519 247.774 249.941 239.222 249.941Z" fill="#7D93B2"/>
<path d="M123.15 392.211H281.088V462.278H123.15V392.211Z" fill="#F5F6F7"/>
<path d="M272.547 454.822H131.69V399.667H272.547V454.822ZM132.308 454.236H271.929V400.253H132.308V454.236Z" fill="black"/>
<path d="M137.531 418.156C139.535 417.869 141.559 417.724 143.586 417.721C147.677 417.721 150.591 418.622 152.522 420.33C154.485 422.036 155.632 424.458 155.632 427.843C155.632 431.259 154.519 434.053 152.457 435.979C150.394 437.934 146.99 438.991 142.702 438.991C140.673 438.991 138.97 438.897 137.53 438.742V418.156H137.531ZM140.379 436.662C141.099 436.787 142.147 436.817 143.26 436.817C149.348 436.817 152.654 433.588 152.654 427.937C152.687 423 149.741 419.864 143.719 419.864C142.246 419.864 141.133 419.988 140.38 420.143V436.662H140.379ZM162.176 417.877V438.804H159.328V417.877H162.176ZM170.718 432.222L168.426 438.804H165.48L172.975 417.877H176.413L183.941 438.804H180.898L178.541 432.222H170.718ZM177.951 430.11L175.791 424.087C175.3 422.72 174.973 421.478 174.645 420.266H174.581C174.251 421.54 173.88 422.804 173.467 424.056L171.307 430.11H177.951ZM187.179 418.156C188.422 417.908 190.386 417.721 192.383 417.721C195.231 417.721 197.063 418.187 198.438 419.242C199.583 420.049 200.271 421.292 200.271 422.937C200.271 424.955 198.863 426.725 196.539 427.533V427.594C198.634 428.091 201.089 429.737 201.089 432.841C201.089 434.642 200.337 436.009 199.224 437.034C197.685 438.368 195.197 438.99 191.597 438.99C189.633 438.99 188.127 438.865 187.178 438.741V418.156H187.179ZM190.027 426.725H192.613C195.624 426.725 197.391 425.235 197.391 423.216C197.391 420.763 195.427 419.801 192.547 419.801C191.237 419.801 190.485 419.894 190.027 419.987V426.725ZM190.027 436.755C190.583 436.847 191.401 436.879 192.416 436.879C195.362 436.879 198.079 435.855 198.079 432.812C198.079 429.954 195.493 428.775 192.384 428.775H190.027V436.755ZM216.341 428.992H207.765V436.538H217.322V438.804H204.917V417.877H216.831V420.143H207.764V426.758H216.34L216.341 428.992ZM225.732 420.174H219.022V417.877H235.355V420.174H228.612V438.804H225.731V420.174H225.732ZM249.231 428.992H240.655V436.538H250.212V438.804H237.807V417.877H249.721V420.143H240.654V426.758H249.23V428.992H249.231ZM253.516 435.514C254.793 436.259 256.658 436.879 258.622 436.879C261.535 436.879 263.237 435.419 263.237 433.308C263.237 431.352 262.059 430.235 259.08 429.147C255.479 427.937 253.253 426.167 253.253 423.216C253.253 419.956 256.101 417.534 260.389 417.534C262.647 417.534 264.283 418.031 265.265 418.558L264.479 420.763C263.192 420.107 261.752 419.765 260.29 419.77C257.279 419.77 256.133 421.477 256.133 422.906C256.133 424.862 257.476 425.825 260.519 426.942C264.251 428.308 266.15 430.017 266.15 433.09C266.15 436.32 263.629 439.114 258.425 439.114C256.298 439.114 253.973 438.524 252.795 437.779L253.516 435.514Z" fill="black"/>
<path d="M590.754 531.307C590.749 530.699 590.489 530.118 590.032 529.692C589.575 529.266 588.959 529.029 588.318 529.034L476.421 529.883L476.46 534.467L588.356 533.618C588.674 533.616 588.988 533.554 589.28 533.437C589.572 533.319 589.837 533.148 590.06 532.934C590.283 532.719 590.459 532.465 590.578 532.186C590.697 531.907 590.757 531.608 590.754 531.307Z" fill="#1F1C80"/>
<path d="M6.96548 566.135L6.46107 506.406C6.40334 499.587 11.7553 494.017 18.4129 493.967C25.0705 493.916 30.5146 499.404 30.5723 506.224L30.6969 521.067L98.5346 520.552L98.7878 550.596L30.9501 551.111L31.0747 565.951C31.1325 572.772 25.7825 578.341 19.1239 578.391C12.4653 578.442 7.0222 572.954 6.96548 566.135Z" fill="white"/>
<path d="M30.2026 503.408C30.4174 504.315 30.5622 505.25 30.5703 506.223L30.6655 517.454L30.3201 517.457L30.2026 503.408Z" fill="#E6E6E6"/>
<path d="M6.96548 566.135L6.95839 565.343C8.25283 570.79 13.0406 574.827 18.7492 574.784C25.4067 574.734 30.7577 569.164 30.7 562.344L30.5754 547.501L98.4131 546.987L98.1902 520.553L98.5346 520.551L98.7878 550.596L30.9501 551.111L31.0747 565.951C31.1325 572.772 25.7825 578.341 19.1239 578.391C12.4653 578.442 7.0222 572.954 6.96548 566.135Z" fill="#CCCCCC"/>
<path d="M77.7729 581.658L77.0062 490.708C77.0085 490.046 76.8724 489.39 76.6059 488.779C76.3393 488.168 75.9475 487.613 75.4532 487.146C74.9588 486.679 74.3718 486.31 73.726 486.06C73.0803 485.81 72.3886 485.684 71.6912 485.689C70.9937 485.694 70.3043 485.831 69.6628 486.09C69.0213 486.35 68.4406 486.728 67.9541 487.202C67.4677 487.677 67.0853 488.238 66.829 488.853C66.5728 489.468 66.4477 490.126 66.4612 490.787L67.2279 581.737C67.2335 582.394 67.3754 583.043 67.6455 583.648C67.9156 584.253 68.3086 584.801 68.8021 585.262C69.2956 585.723 69.8799 586.086 70.5217 586.333C71.1635 586.579 71.8501 586.703 72.5425 586.698C73.2348 586.693 73.9193 586.558 74.5568 586.302C75.1944 586.046 75.7725 585.673 76.2582 585.205C76.7439 584.737 77.1276 584.183 77.3875 583.574C77.6474 582.966 77.7784 582.314 77.7729 581.658Z" fill="#CCCCCC"/>
<path d="M76.998 489.804L422.475 487.181L457.611 511.217L474.907 511.087L474.948 515.882C480.821 515.837 485.619 520.317 485.666 525.888L485.758 536.852C485.806 542.423 481.083 546.974 475.21 547.019L475.257 552.555L457.458 552.69L423.25 579.035L77.7739 581.659L76.998 489.804Z" fill="white"/>
<path d="M86.1392 498.345L86.7661 572.981L286.244 571.476C303.344 550.654 263.975 531.878 284.368 496.84L86.1392 498.345Z" fill="#EB557D"/>
<path d="M130.113 551.491L135.811 551.448L136.062 581.233L130.363 581.275L130.113 551.491ZM175.758 551.143L181.483 551.1L181.734 580.885L176.009 580.927L175.758 551.143ZM221.382 550.803L227.108 550.759L227.361 580.544L221.637 580.587L221.382 550.803ZM267.074 550.447L272.774 550.404L273.025 580.189L267.326 580.232L267.074 550.447ZM312.659 550.125L318.359 550.082L318.607 579.868L312.908 579.91L312.659 550.125ZM358.311 549.778L364.01 549.735L364.255 579.52L358.555 579.562L358.311 549.778Z" fill="white"/>
<path d="M76.998 489.804L85.9265 489.736L86.1746 519.196C86.4106 547.24 110.568 569.792 140.133 569.568L410.849 567.512C418.813 567.453 426.519 564.826 432.702 560.063L457.358 541.075L475.208 547.018L475.255 552.554L457.456 552.689L423.248 579.035L77.7719 581.658L76.998 489.804Z" fill="#F2F2F2"/>
<path d="M413.22 283.021C413.22 283.021 421.859 257.173 430.177 252.883C444.567 245.463 441.033 275.568 436.143 284.628C428.881 298.082 410.033 353.024 410.033 353.024L413.22 283.021Z" fill="#F9BDBD"/>
<path d="M414.73 283.938C414.73 283.938 423.369 258.089 431.687 253.799C434.027 252.593 435.89 252.383 437.353 252.908C435.742 251.447 433.414 251.215 430.177 252.883C421.859 257.173 413.22 283.021 413.22 283.021L410.033 353.022C410.033 353.022 410.696 351.09 411.82 347.863L414.73 283.938Z" fill="#F0BBBB"/>
<path d="M450.268 428.709C439.582 417.559 411.068 342.64 411.162 338.861C411.535 323.802 421.603 276.015 426.167 249.865C428.58 236.046 407.254 218.627 400.799 239.347C398.149 247.853 368.069 375.932 366.416 375.591L395.342 440.7C395.341 440.7 460.955 439.858 450.268 428.709Z" fill="#F9BDBD"/>
<path d="M368.621 376.777C370.274 377.118 400.354 249.038 403.004 240.533C405.916 231.185 411.854 229.602 417.275 231.945C411.347 228.125 404.112 228.708 400.798 239.346C398.148 247.852 368.068 375.931 366.415 375.59L395.341 440.699C395.341 440.699 395.939 440.691 397.007 440.667L368.621 376.777Z" fill="#F0BBBB"/>
<path d="M396.276 369.879C396.276 369.879 395.662 279.45 398.12 252.769C401.93 211.429 374.415 201.215 362.187 221.878C353.537 236.497 331.471 368.295 345.736 398.407C358.286 424.906 405.45 505.963 405.45 505.963L462.504 421.016L396.276 369.879Z" fill="#F9C2C2"/>
<path d="M349.677 400.183C335.412 370.07 357.478 238.273 366.128 223.654C371.193 215.095 378.882 211.839 385.88 213.894C377.997 209.003 368.228 211.67 362.188 221.877C353.538 236.496 331.472 368.294 345.737 398.406C358.287 424.905 405.451 505.963 405.451 505.963L407.012 503.638C397.292 486.858 360.534 423.109 349.677 400.183Z" fill="#F0BBBB"/>
<path d="M729.29 593H577.695C571.504 587.948 565.647 583.424 560.173 579.415C548.162 570.588 538.067 564.258 530.579 560.378C506.903 548.106 445.143 524.803 406.083 505.028C405.528 504.757 404.975 504.479 404.427 504.196C396.815 500.303 390.143 496.553 384.853 493.06C364.885 479.872 309.081 384.187 309.081 384.187C309.081 384.187 292.572 331.18 278.894 291.525C278.746 291.103 278.597 290.693 278.461 290.282C273.246 275.114 269.044 261.693 267.364 253.581C267.33 253.388 267.289 253.197 267.241 253.006C267.239 252.94 267.231 252.873 267.216 252.808L267.167 252.562C267.143 252.436 267.118 252.311 267.093 252.186C267.093 252.162 267.081 252.139 267.081 252.116C267.056 251.952 267.043 251.811 267.007 251.67C266.969 251.459 266.933 251.248 266.895 251.049C266.883 250.955 266.87 250.872 266.858 250.791C266.808 250.509 266.784 250.228 266.746 249.97C266.598 248.821 266.549 247.872 266.585 247.145C266.597 246.947 266.623 246.782 266.647 246.618C266.671 246.408 266.721 246.208 266.783 246.056C266.783 246.044 266.783 246.032 266.795 246.021C266.807 246.009 266.807 246.009 266.807 245.998C266.893 245.787 266.992 245.647 267.128 245.541C279.065 236.035 291.113 232.541 305.483 248.471C317.519 261.81 333.336 300.377 343.011 325.964V325.977C344.222 329.188 345.335 332.189 346.335 334.908V334.92C349.684 344.063 351.735 350.064 351.735 350.064C351.735 350.064 359.606 356.067 369.973 363.896C370.653 364.412 371.358 364.939 372.062 365.479C387.446 377.083 407.267 391.9 415.361 397.397C420.278 400.738 427.582 404.5 438.53 408.205C442.138 409.436 446.154 410.644 450.603 411.827C456.275 413.351 462.675 414.828 469.88 416.223C469.966 416.246 470.053 416.259 470.139 416.27C470.225 416.293 470.312 416.317 470.41 416.329C471.893 416.622 473.4 416.903 474.958 417.173H474.97C475.391 417.255 475.811 417.337 476.243 417.407C476.329 417.418 476.417 417.442 476.504 417.454C476.59 417.466 476.677 417.489 476.763 417.489C490.763 419.95 507.519 422.119 527.612 423.794C532.999 424.24 538.461 425.201 543.973 426.608V426.619C544.06 426.632 544.158 426.654 544.257 426.689C544.343 426.701 544.43 426.724 544.517 426.748C545.419 426.982 546.308 427.228 547.211 427.487C548.064 427.733 548.915 427.99 549.768 428.249C549.868 428.283 549.954 428.307 550.053 428.343H550.065C550.164 428.366 550.25 428.402 550.349 428.437C589.805 440.909 629.358 475.078 645.2 507.419C649.587 516.386 658.225 527.194 669.086 538.634C675.771 545.679 683.309 552.982 691.205 560.226C691.514 560.507 691.81 560.789 692.107 561.07C698.953 567.298 705.911 573.414 712.978 579.415C718.364 583.999 723.801 588.528 729.29 593Z" fill="#F9CBCB"/>
<path d="M590.917 593H577.695C571.504 587.948 565.647 583.424 560.173 579.415C548.162 570.588 538.067 564.258 530.579 560.378C506.903 548.106 445.143 524.803 406.083 505.028C405.528 504.757 404.975 504.479 404.427 504.196C396.815 500.303 390.143 496.553 384.853 493.06C364.885 479.872 309.081 384.187 309.081 384.187C309.081 384.187 292.572 331.18 278.894 291.525C278.746 291.103 278.597 290.693 278.461 290.282C273.246 275.114 269.044 261.693 267.364 253.581C267.33 253.388 267.289 253.197 267.241 253.006C267.228 252.936 267.216 252.877 267.203 252.808C267.191 252.713 267.179 252.643 267.167 252.562C267.143 252.436 267.118 252.311 267.093 252.186C267.093 252.162 267.079 252.139 267.079 252.116C267.055 251.952 267.042 251.811 267.006 251.67C266.968 251.459 266.932 251.248 266.894 251.049C266.882 250.955 266.869 250.872 266.857 250.791C266.807 250.509 266.783 250.228 266.745 249.97C266.584 248.821 266.535 247.872 266.584 247.145C266.596 246.947 266.623 246.782 266.647 246.618C266.671 246.408 266.721 246.208 266.783 246.056C266.783 246.044 266.782 246.032 266.794 246.021C266.806 246.009 266.806 246.009 266.806 245.998C266.844 245.975 266.856 245.94 266.88 245.916C266.88 245.916 270.513 248.6 274.999 254.051C277.124 262.022 280.548 272.666 284.564 284.364C284.699 284.774 284.847 285.184 284.996 285.606C285.008 285.665 285.033 285.723 285.058 285.782C298.724 325.414 315.184 378.28 315.184 378.28C315.184 378.28 370.987 473.953 390.956 487.14C392.804 488.361 394.687 489.533 396.603 490.657C397.987 491.489 399.445 492.322 400.965 493.177H400.977C404.149 494.943 407.355 496.655 410.591 498.312C449.54 518.25 512.683 542.022 536.681 554.47C545.751 559.171 558.663 567.47 574.135 579.415C579.837 583.822 585.433 588.351 590.917 593Z" fill="#F0BBBB"/>
<path d="M285.056 285.779C283.392 287.424 281.01 288.565 278.344 289.647C273.099 274.389 268.878 260.901 267.209 252.81L267.162 252.559L267.091 252.181C267.054 251.986 267.025 251.797 266.985 251.62C266.954 251.419 266.925 251.229 266.89 251.045C266.446 248.387 266.397 246.629 266.8 246.024C266.825 245.987 266.854 245.953 266.886 245.921C266.886 245.921 270.519 248.596 274.998 254.045C278.247 257.989 281.939 263.389 285.003 270.288C288.67 278.537 287.937 282.924 285.056 285.779Z" fill="#F9D6D6"/>
<path d="M593.168 510.897C593.243 509.778 593.26 508.682 593.241 507.6C593.239 507.493 593.229 507.386 593.226 507.28C593.201 506.286 593.137 505.293 593.034 504.303C593.02 504.175 593 504.048 592.986 503.92C592.879 502.98 592.737 502.044 592.559 501.114C592.523 500.923 592.484 500.733 592.445 500.543C592.272 499.704 592.071 498.872 591.842 498.045C591.799 497.888 591.773 497.726 591.727 497.57C591.699 497.467 591.656 497.369 591.627 497.266C591.434 496.622 591.22 495.988 590.996 495.358C590.662 494.404 590.291 493.462 589.885 492.534C589.752 492.229 589.633 491.917 589.492 491.616C589.247 491.087 588.979 490.569 588.713 490.049C588.51 489.649 588.309 489.25 588.094 488.856C587.646 488.03 587.174 487.216 586.679 486.415C586.448 486.035 586.232 485.647 585.992 485.273C581.023 477.568 574.318 471.064 567.663 464.669C564.336 461.458 560.974 458.269 557.956 454.797C554.951 451.342 552.333 447.456 551.437 443.007C549.027 434.323 546.69 425.62 544.427 416.9C542.203 408.175 539.918 399.45 538.22 390.629C536.653 381.777 534.818 372.954 532.382 364.265C529.969 355.577 526.905 347.016 522.74 338.908C520.622 334.875 518.165 330.98 515.202 327.433C512.262 323.882 508.665 320.744 504.412 318.614C500.145 316.554 495.148 315.737 490.446 316.684C485.765 317.611 481.402 319.818 478.02 323.016C474.722 326.43 473.77 331.178 473.585 335.612C473.406 340.114 473.877 344.599 474.365 349.058C475.31 357.938 476.69 366.993 474.743 375.782C474.28 377.974 473.32 380.01 472.802 382.233C472.397 384.453 472.208 386.7 472.207 388.945C472.167 393.435 472.485 397.921 472.964 402.385C474.954 420.243 478.566 437.896 482.368 455.479C485.453 469.488 488.79 483.447 492.34 497.358C493.236 500.906 494.152 504.448 495.088 507.986C495.086 507.976 495.083 507.968 495.082 507.958L495.088 507.986L593.168 510.897Z" fill="#F9CBCB"/>
<path d="M537.949 390.033C541.355 400.889 544.953 411.627 548.242 422.464C549.967 427.86 551.507 433.3 553.175 438.707C554.037 441.34 554.664 444.385 555.636 446.352C556.688 448.553 558.288 450.701 560.088 452.763C563.644 456.954 567.921 460.885 572.039 465.008C576.114 469.179 580.274 473.424 583.765 478.223C585.509 480.616 587.194 483.066 588.583 485.683C589.963 488.302 591.149 491.012 592.055 493.802C592.89 496.616 593.448 499.487 593.661 502.361C593.857 505.241 593.645 508.11 593.17 510.897C592.954 508.066 592.632 505.285 591.956 502.584C591.254 499.892 590.378 497.269 589.19 494.772C586.854 489.761 583.597 485.218 579.914 480.982C572.526 472.448 563.352 465.453 555.278 456.443C553.327 454.123 551.461 451.603 550.093 448.638L549.596 447.519L549.197 446.333C548.901 445.491 548.781 444.897 548.578 444.188C548.208 442.82 547.835 441.452 547.501 440.076C546.155 434.572 544.735 429.089 543.559 423.547C542.31 418.023 541.209 412.465 540.194 406.89C539.261 401.303 538.296 395.701 537.949 390.033Z" fill="#F9BDBD"/>
<path d="M593.907 502.343C593.709 499.541 593.167 496.646 592.301 493.727C591.436 491.067 590.262 488.324 588.803 485.581C587.358 482.791 585.541 480.236 583.972 478.09C580.5 473.319 576.348 469.064 572.32 464.95L572.22 464.844C571.134 463.755 570.034 462.677 568.946 461.609C565.832 458.562 562.891 455.69 560.284 452.606C558.233 450.262 556.786 448.188 555.86 446.254C555.242 445 554.773 443.3 554.265 441.506C553.994 440.557 553.721 439.572 553.413 438.646C552.745 436.454 552.091 434.25 551.435 432.057C551.077 430.862 550.719 429.654 550.348 428.435C549.744 426.418 549.122 424.406 548.482 422.398C546.517 415.917 544.404 409.364 542.365 403.034C540.954 398.683 539.562 394.326 538.189 389.964L537.992 389.343L537.98 389.308L537.571 387.984L537.695 390.048C538.028 395.486 538.943 400.937 539.82 406.2L539.944 406.926C541.056 413.069 542.156 418.519 543.304 423.595C543.515 424.603 543.738 425.599 543.973 426.608V426.619C544.714 429.854 545.516 433.079 546.295 436.231C546.616 437.532 546.938 438.822 547.247 440.123C547.556 441.376 547.902 442.654 548.236 443.874L548.335 444.248C548.397 444.471 548.459 444.683 548.508 444.893C548.632 445.35 548.755 445.819 548.953 446.405L549.361 447.613L549.855 448.727C550.103 449.266 550.374 449.793 550.646 450.298C552.031 452.829 553.711 454.963 555.083 456.592C559.025 460.988 563.251 464.939 567.34 468.748C571.765 472.874 575.941 476.765 579.722 481.139C583.837 485.875 586.864 490.364 588.953 494.865C590.04 497.151 590.942 499.694 591.709 502.636C592.45 505.567 592.735 508.579 592.919 510.889V510.913L593.068 512.976L593.414 510.937C593.932 507.935 594.093 505.051 593.907 502.343ZM593.228 508.685C593.031 506.786 592.734 504.641 592.202 502.531C591.424 499.554 590.522 496.975 589.422 494.678C587.309 490.13 584.256 485.605 580.105 480.834C576.311 476.439 572.122 472.535 567.698 468.409C563.608 464.599 559.395 460.673 555.478 456.288C553.846 454.354 551.795 451.728 550.324 448.552L549.83 447.45L549.435 446.255C549.267 445.773 549.122 445.284 549.003 444.789C548.941 444.566 548.891 444.356 548.829 444.133L548.718 443.758C548.397 442.539 548.05 441.274 547.742 440.019C547.434 438.718 547.112 437.421 546.777 436.127C546.024 433.056 545.245 429.902 544.516 426.749C544.281 425.671 544.033 424.58 543.812 423.502C542.662 418.427 541.562 412.988 540.438 406.857L540.326 406.131C539.56 401.583 538.77 396.882 538.361 392.193C538.522 392.698 538.682 393.213 538.843 393.717C538.856 393.729 538.856 393.729 538.856 393.74C539.856 396.905 540.882 400.082 541.883 403.165C543.922 409.506 546.035 416.059 548 422.529C548.606 424.431 549.196 426.338 549.768 428.249C550.163 429.573 550.558 430.886 550.941 432.187C551.597 434.38 552.251 436.583 552.93 438.775C553.227 439.701 553.512 440.674 553.771 441.623C554.278 443.44 554.76 445.151 555.402 446.452C556.354 448.422 557.811 450.544 559.888 452.912C562.507 456.006 565.461 458.889 568.574 461.938C569.672 463.011 570.763 464.089 571.849 465.173L571.947 465.279C575.951 469.37 580.103 473.613 583.55 478.36C585.107 480.493 586.899 483.049 588.357 485.792C589.791 488.512 590.952 491.231 591.805 493.869C592.658 496.741 593.201 499.613 593.399 502.379C593.535 504.301 593.486 506.318 593.251 508.415V508.498C593.24 508.567 593.24 508.614 593.228 508.685Z" fill="#F0BBBB"/>
<path d="M495.091 507.983C489.096 493.1 484.133 477.883 479.839 462.488C475.568 447.085 471.992 431.483 470.047 415.507C469.61 411.507 469.303 407.48 469.218 403.41C469.173 399.338 469.238 395.223 470.093 391.011L470.793 388.09C470.999 387.197 471.16 386.282 471.295 385.355C471.569 383.504 471.723 381.602 471.817 379.685C471.98 375.846 471.938 371.938 471.844 368.008C471.606 360.145 471.136 352.183 471.449 344.161C471.674 340.158 472.024 336.117 473.087 332.185C473.634 330.228 474.332 328.294 475.36 326.511C476.394 324.744 477.748 323.112 479.48 321.983C477.986 323.376 476.923 325.081 476.212 326.889C475.474 328.69 475.05 330.593 474.779 332.509C474.254 336.352 474.276 340.265 474.5 344.172C474.901 351.997 476.025 359.832 476.684 367.788C477.046 371.768 477.315 375.782 477.259 379.86C477.233 381.899 477.145 383.954 476.916 386.031C476.806 387.078 476.654 388.122 476.461 389.159L475.882 392.043C475.268 395.629 475.172 399.476 475.287 403.313C475.41 407.162 475.761 411.041 476.218 414.919C477.049 422.691 478.384 430.46 479.828 438.217C481.209 445.989 482.921 453.719 484.54 461.477C487.919 476.968 491.563 492.435 495.091 507.983Z" fill="#F9BDBD"/>
<path d="M491.803 492.485C489.467 482.311 487.046 471.784 484.784 461.434C484.437 459.723 484.067 458.024 483.708 456.312C482.448 450.381 481.151 444.239 480.075 438.179C478.913 431.955 477.641 424.734 476.763 417.49C476.652 416.627 476.553 415.764 476.466 414.899C475.947 410.433 475.651 406.752 475.539 403.306C475.404 398.805 475.589 395.242 476.133 392.088L476.713 389.205C476.887 388.267 477.034 387.235 477.17 386.063C477.368 384.199 477.479 382.231 477.517 379.862C477.566 375.419 477.232 371.071 476.936 367.777C476.677 364.612 476.33 361.412 475.997 358.329C475.503 353.675 474.997 348.869 474.749 344.157C474.49 339.551 474.576 335.858 475.033 332.541C475.33 330.384 475.8 328.567 476.454 326.973C477.195 325.062 478.283 323.433 479.655 322.154L479.358 321.827L479.334 321.791C477.727 322.835 476.318 324.382 475.132 326.398C474.218 327.992 473.488 329.809 472.834 332.131C471.759 336.104 471.413 340.253 471.191 344.146C470.956 350.37 471.179 356.63 471.401 362.689C471.475 364.471 471.537 366.242 471.586 368.011C471.672 371.528 471.734 375.665 471.562 379.675C471.45 381.819 471.289 383.672 471.042 385.324C470.916 386.233 470.751 387.136 470.548 388.032L469.844 390.962C468.955 395.358 468.917 399.695 468.967 403.411C469.041 407.173 469.313 411.136 469.794 415.531C469.819 415.766 469.856 415.989 469.882 416.223C471.624 430.208 474.713 444.965 479.594 462.548C484.252 479.252 489.245 494.15 494.855 508.064L495.152 507.982L495.337 507.935C494.166 502.784 492.988 497.634 491.803 492.485ZM494.126 504.876C489.01 491.829 484.401 477.915 480.088 462.431C475.233 444.918 472.143 430.254 470.412 416.329L470.301 415.484C469.819 411.101 469.547 407.15 469.472 403.411C469.423 399.718 469.46 395.404 470.337 391.067L471.041 388.137C471.227 387.328 471.388 386.425 471.548 385.393C471.795 383.717 471.956 381.865 472.067 379.697C472.241 375.676 472.179 371.526 472.092 367.998C472.042 366.228 471.98 364.458 471.906 362.676C471.684 356.628 471.462 350.379 471.697 344.178C471.918 340.31 472.265 336.184 473.327 332.246C473.921 330.147 474.563 328.459 475.366 326.994C475.378 326.971 475.391 326.947 475.404 326.935C475.465 326.83 475.515 326.724 475.577 326.631C476.095 325.752 476.652 324.954 477.257 324.263C476.748 325.072 476.318 325.924 475.972 326.807C475.304 328.424 474.835 330.276 474.527 332.48C474.069 335.821 473.983 339.549 474.242 344.178C474.489 348.903 474.996 353.709 475.502 358.362C475.823 361.457 476.169 364.645 476.429 367.81C476.725 371.092 477.059 375.429 476.997 379.859C476.973 382.204 476.861 384.161 476.664 386.002C476.528 387.185 476.392 388.17 476.206 389.108L475.626 392.004C475.082 395.192 474.896 398.779 475.032 403.316C475.143 406.774 475.44 410.466 475.959 414.943C476.046 415.764 476.144 416.584 476.243 417.405C477.121 424.707 478.418 431.987 479.58 438.259C480.655 444.318 481.953 450.461 483.213 456.404C483.571 458.103 483.929 459.815 484.288 461.526C486.549 471.877 488.971 482.402 491.307 492.589C491.825 494.863 492.357 497.137 492.876 499.423C492.888 499.482 492.9 499.553 492.925 499.622C493.322 501.371 493.731 503.118 494.126 504.876Z" fill="#F0BBBB"/>
<path d="M482.736 373.753C487.828 381.251 517.275 377.581 521.999 366.466C521.553 364.71 522.062 319.534 494.722 322.559C469.121 325.392 482.736 373.753 482.736 373.753Z" fill="#F9D6D6"/>
<path d="M708.456 545.444L692.107 561.07L658.695 593H612.196L669.086 538.634L685.04 523.396L707.553 544.601L708.456 545.444Z" fill="#C44F52"/>
<path d="M782.683 593H656.915L691.205 560.226L707.553 544.601L719.329 533.348L782.683 593Z" fill="#5575A6"/>
<path d="M329.963 246.34C325.07 254.453 315.974 253.728 309.378 248.963C302.782 244.2 299.18 236.115 306.323 229.266C312.19 223.64 331.265 220.294 336.199 215.213C332.715 221.401 334.734 238.432 329.963 246.34Z" fill="#F44E5B"/>
<path d="M329.963 246.34C334.733 238.433 332.715 221.401 336.2 215.213C335.513 215.92 334.552 216.594 333.39 217.245C331.977 225.027 332.497 237.166 328.688 243.484C323.795 251.597 314.698 250.871 308.103 246.107C305.949 244.551 304.118 242.64 302.873 240.535C303.85 243.761 306.285 246.728 309.379 248.963C315.974 253.727 325.07 254.452 329.963 246.34Z" fill="#CCCCCC"/>
<path d="M313.394 228.597C312.841 228.916 312.187 228.853 311.934 228.459C311.681 228.064 311.924 227.484 312.477 227.166C313.03 226.847 313.683 226.909 313.937 227.305C314.19 227.699 313.947 228.278 313.394 228.597ZM309.273 232.991C307.676 234.435 305.828 235.055 305.145 234.375C304.462 233.696 305.204 231.974 306.801 230.53C308.398 229.086 310.247 228.466 310.929 229.145C311.612 229.825 310.871 231.547 309.273 232.991Z" fill="#F2F2F2"/>
<path d="M0 579.415H1310V593H0V579.415Z" fill="#1F1C80"/>
<path d="M737.532 138.562C721.284 154.095 705.819 168.507 698.641 172.518C680.893 182.445 609.398 247.008 580.47 234.444C567.877 228.988 567.687 212.287 603.679 182.332C639.673 152.363 704.518 107.581 723.479 122.687C727.971 126.262 732.994 131.898 737.532 138.562Z" fill="#F2BFC2"/>
<path d="M786.687 246.261C763.613 252.393 721.791 222.226 713.175 215.75C715.95 215.842 723.429 213.828 743.299 203.706C769.329 190.438 729.167 163.822 703.829 155.925C722.949 129.311 774.394 86.1001 778.07 87.3107C784.259 89.338 813.938 126.14 816.866 132.801C819.779 139.46 812.494 239.416 786.687 246.261Z" fill="#F2BFC2"/>
<path d="M612.015 88.1822C612.015 88.1822 489.855 149.82 505.471 169.315C521.086 188.811 585.097 170.227 615.676 144.76C646.255 119.291 661.878 105.31 671.11 102.222C680.341 99.1336 696.877 112.687 724.317 106.869C751.759 101.051 784.003 99.4737 784.003 99.4737L713.976 41.7718C713.976 41.7718 626.262 69.723 612.015 88.1822Z" fill="#F7C8CC"/>
<path d="M535.152 212.58C523.922 195.211 607.916 111.003 632.268 100.826C656.62 90.6486 767.213 96.0628 767.213 96.0628L760.1 146.853C760.1 146.853 675.651 143.387 670.638 152.063C665.623 160.738 588.112 206.932 572.073 213.268C556.033 219.602 543.477 225.456 535.152 212.58Z" fill="#F7C8CC"/>
<path d="M711.593 214.552C711.593 214.552 712.148 214.986 713.175 215.75C711.162 215.697 711.593 214.552 711.593 214.552Z" fill="#F2CED0"/>
<path d="M1060.06 554.213L981.642 593H873.951C872.283 588.441 870.652 583.915 869.022 579.415C866.241 571.783 863.461 564.224 860.569 556.756C860.532 556.65 860.482 556.545 860.446 556.44C856.602 546.523 852.563 536.736 848.051 527.124C847.483 525.899 846.903 524.679 846.309 523.466C839.401 509.118 831.369 495.11 821.384 481.454C820.308 479.984 819.213 478.526 818.098 477.082C797.474 450.228 768.769 424.802 725.26 400.948C730.453 399.86 735.615 398.649 740.743 397.314C796.658 382.769 813.007 351.178 813.007 319.212C813.007 318.239 812.995 317.255 812.957 316.282C812.933 315.434 812.896 314.586 812.846 313.739C812.81 313.047 812.772 312.355 812.71 311.652C812.697 311.441 812.673 311.23 812.661 311.007C812.613 310.424 812.559 309.842 812.5 309.26C812.464 308.865 812.423 308.471 812.376 308.077C812.328 307.619 812.275 307.162 812.215 306.706C812.156 306.173 812.09 305.641 812.018 305.111L811.869 304.103C811.769 303.382 811.658 302.663 811.535 301.946C811.514 301.773 811.485 301.601 811.449 301.43C811.371 300.9 811.28 300.373 811.177 299.847C811.065 299.202 810.942 298.569 810.818 297.937C810.683 297.234 810.534 296.53 810.386 295.827C810.188 294.901 809.991 293.975 809.768 293.061C809.496 291.889 809.212 290.717 808.903 289.556C808.717 288.853 808.532 288.149 808.335 287.446C807.635 284.913 806.873 282.396 806.049 279.897C805.81 279.147 805.559 278.4 805.295 277.658C805.072 276.99 804.837 276.334 804.603 275.677C804.516 275.419 804.418 275.173 804.331 274.915C804.084 274.235 803.837 273.544 803.577 272.875C803.219 271.926 802.86 270.977 802.49 270.05C802.255 269.441 802.021 268.843 801.773 268.233C801.167 266.739 800.545 265.25 799.907 263.768C799.264 262.315 798.634 260.884 797.991 259.489C796.764 256.817 795.482 254.168 794.148 251.542C793.826 250.909 793.519 250.3 793.197 249.69C791.476 246.367 789.671 243.084 787.785 239.843C802.464 227.278 804.491 144.263 772.251 128.098C769.397 126.668 766.431 125.016 763.404 123.187C763.243 123.081 763.071 122.988 762.898 122.881C758.808 120.396 754.606 117.606 750.393 114.629C748.989 113.648 747.596 112.651 746.217 111.64C743.045 109.326 739.918 106.958 736.838 104.536C732.756 101.345 728.732 98.09 724.765 94.7715C724.456 94.514 724.135 94.2555 723.826 93.9864C722.321 92.7315 720.826 91.4657 719.34 90.1893L718.475 89.4389C718.469 89.4385 718.463 89.4359 718.459 89.4317C718.454 89.4274 718.451 89.4218 718.451 89.4159C713.323 85.0016 708.265 80.5153 703.277 75.9586C700.009 72.9561 696.776 69.92 693.577 66.8511C692.736 66.0421 692.28 65.5972 692.28 65.5972C692.28 65.5972 690.389 66.8165 687.064 68.7977L687.04 68.8092C679.675 73.228 665.329 81.4219 649.055 88.6078C625.576 98.9933 604.878 104.408 587.333 106.437C586.912 106.191 586.492 105.956 586.071 105.722C585.651 105.475 585.231 105.241 584.811 105.019C584.112 104.631 583.408 104.251 582.699 103.881C581.094 103.025 579.466 102.209 577.818 101.432C576.919 101.003 576.013 100.589 575.099 100.189C575.026 100.145 574.947 100.109 574.864 100.084C573.468 99.4573 572.051 98.8748 570.614 98.337C569.695 97.9686 568.763 97.6283 567.821 97.3166C567.363 97.1533 566.894 97.0005 566.436 96.8478C565.976 96.6998 565.515 96.5554 565.052 96.4144C564.596 96.2847 564.138 96.1444 563.68 96.0157C563.222 95.8869 562.766 95.7697 562.321 95.6525C561.864 95.5238 561.407 95.4181 560.962 95.3124C560.505 95.2067 560.06 95.1019 559.603 95.0078C557.806 94.6126 555.987 94.3149 554.154 94.1162C553.759 94.0701 553.363 94.023 552.98 93.9999C552.78 93.9728 552.578 93.957 552.375 93.9528C552.018 93.9175 551.659 93.8941 551.3 93.8827C550.991 93.8596 550.682 93.8471 550.397 93.8471C549.977 93.8356 549.57 93.8241 549.162 93.8241H549.076C548.915 93.8241 548.754 93.8366 548.593 93.8366C548.532 93.8241 548.469 93.8241 548.408 93.8366C547.67 93.8499 546.932 93.8814 546.196 93.9307C545.825 93.9538 545.455 93.9893 545.096 94.0249C544.763 94.048 544.429 94.095 544.107 94.1306C544.037 94.1319 543.966 94.1396 543.897 94.1536C543.625 94.1882 543.353 94.2353 543.081 94.2708C542.575 94.341 542.081 94.4342 541.586 94.5408C541.315 94.5879 541.055 94.6465 540.783 94.7042C540.45 94.7743 540.104 94.8569 539.77 94.9386C539.499 95.0088 539.226 95.0789 538.955 95.1615C538.596 95.2557 538.239 95.3604 537.88 95.4776C535.701 96.1581 533.605 97.0581 531.628 98.1622C531.369 97.9979 531.109 97.8345 530.861 97.6577C516.058 87.9055 518.789 76.3353 539.993 68.8342C614.06 42.6125 657.828 2.37066 697.679 0.03876C715.547 -1.01622 753.507 19.649 785.179 39.5062C789.466 42.195 793.73 44.9187 797.968 47.677C800.304 49.2124 802.578 50.7132 804.777 52.1669C806.902 53.5814 809.019 55.0076 811.127 56.4454C812.885 57.6317 814.635 58.8273 816.379 60.0322H816.392C820.501 62.8645 824.571 65.7482 828.6 68.6824C828.6 68.6824 828.612 68.6939 828.612 68.6824C829.626 69.4203 830.54 70.1006 831.368 70.7212C831.727 70.9912 832.073 71.2372 832.419 71.4947C833.865 72.51 835.379 73.4341 836.953 74.2609C842.526 77.2039 847.766 78.2694 852.856 79.0909C857.032 79.7587 861.098 80.2631 865.164 81.517C872.43 83.7441 879.647 88.3397 887.37 100.483C905.361 128.792 936.352 168.33 941.406 282.805C941.698 289.382 941.896 295.962 942 302.544C942.358 323.843 948.202 347.85 957.124 372.383C957.408 373.145 957.68 373.918 957.976 374.68C958.002 374.763 958.026 374.832 958.064 374.903C958.347 375.701 958.644 376.498 958.941 377.283C959.027 377.518 959.126 377.752 959.212 377.987C960.609 381.636 962.051 385.27 963.537 388.888C965.004 392.441 966.516 395.978 968.073 399.496C968.723 400.986 969.386 402.471 970.062 403.951C970.656 405.274 971.257 406.595 971.866 407.912C974.715 414.078 977.673 420.197 980.739 426.269C981.383 427.57 982.038 428.867 982.704 430.16C983.026 430.793 983.358 431.438 983.692 432.07C987.106 438.696 990.624 445.273 994.245 451.798C995.524 454.115 996.817 456.424 998.126 458.726C1002.85 467.066 1007.72 475.335 1012.72 483.529C1013.58 484.948 1014.44 486.354 1015.3 487.748C1016.3 489.378 1017.32 490.995 1018.3 492.59C1018.69 493.2 1019.07 493.809 1019.44 494.418C1019.81 494.993 1020.17 495.567 1020.54 496.142C1021.07 496.986 1021.59 497.819 1022.12 498.651C1022.93 499.927 1023.74 501.2 1024.56 502.472L1024.96 503.105C1029.11 509.566 1033.33 515.987 1037.62 522.365C1038.66 523.912 1039.68 525.401 1040.66 526.855C1041.18 527.604 1041.67 528.343 1042.17 529.059C1042.98 530.242 1043.77 531.391 1044.54 532.505C1044.61 532.622 1044.7 532.728 1044.76 532.833C1045.04 533.243 1045.32 533.63 1045.59 534.028C1047.8 537.21 1050.03 540.379 1052.29 543.535C1057.17 550.379 1060.06 554.213 1060.06 554.213Z" fill="#F7D2D4"/>
<path d="M587.339 106.436C561.419 109.424 542.437 104.989 531.629 98.1564C547.252 89.4821 566.788 94.6158 587.339 106.436Z" fill="#F7D2D4"/>
<path d="M1016.61 450.299L833.605 533.712L815.645 485.249C830.139 475.589 844.762 466.446 859.552 457.933C898.248 435.627 938.059 417.578 979.45 405.653L1016.61 450.299Z" fill="white"/>
<path d="M851.041 525.764L833.605 533.713L815.645 485.249C830.139 475.589 844.762 466.446 859.552 457.933C849.273 471.129 839.231 486.175 838.567 495.238C837.924 503.852 844.109 515.562 851.041 525.764Z" fill="#EBEDF5"/>
<path d="M1117.58 593H840.081L821.841 538.424C825.573 536.115 829.219 533.852 832.827 531.637H832.84C834.421 530.676 835.979 529.715 837.536 528.765C840.501 526.971 843.417 525.201 846.309 523.467C846.309 523.454 846.321 523.454 846.321 523.454C847.087 522.998 847.854 522.528 848.619 522.072C866.549 511.334 883.293 501.781 899.949 493.048C900.567 492.721 901.185 492.392 901.803 492.075C907.979 488.846 914.207 485.708 920.486 482.663C921.512 482.156 922.542 481.655 923.575 481.162C924.428 480.752 925.293 480.341 926.146 479.931C934.414 476 942.769 472.237 951.206 468.643C952.071 468.268 952.949 467.893 953.826 467.53C955.21 466.944 956.594 466.358 958.003 465.784C959.719 465.066 961.441 464.359 963.167 463.663C963.761 463.417 964.353 463.182 964.947 462.935C971.119 460.448 977.327 458.041 983.569 455.715C984.286 455.445 985.015 455.176 985.744 454.906L987.548 454.238C989.76 453.429 991.984 452.607 994.245 451.798C1000.33 449.616 1006.43 447.491 1012.56 445.422C1012.67 445.388 1012.79 445.341 1012.9 445.305C1013.77 445.012 1014.65 444.719 1015.52 444.439C1016.91 443.97 1018.3 443.512 1019.7 443.043C1021.41 442.476 1023.13 441.917 1024.85 441.367C1026.53 440.815 1028.23 440.265 1029.93 439.726L1039.72 456.851L1069.68 509.236L1070.4 510.502L1070.96 511.476L1072.08 513.433L1074.12 517.008L1074.21 517.149L1074.62 517.877L1075.09 518.686V518.698L1075.13 518.791L1077.19 522.367L1079.76 526.857L1079.84 527.021L1080.51 528.181L1080.84 528.767L1082.21 531.171L1084.83 535.742L1084.96 535.965L1085.29 536.551L1085.96 537.7L1090.06 544.885L1090.73 546.046L1094.65 552.903L1095.07 553.641L1095.13 553.735L1095.93 555.142L1096.73 556.56L1097.48 557.849L1109.81 579.417L1109.88 579.546L1117.58 593Z" fill="#324191"/>
<path d="M938.256 474.985C937.725 475.36 922.538 486.132 905.659 500.866C886.555 517.524 865.301 539.256 860.569 556.756C859.864 559.359 859.531 561.867 859.618 564.258C859.754 568.091 861.138 573.261 863.461 579.415C865.018 583.541 867.008 588.101 869.343 593H840.081L821.841 538.424C825.573 536.115 829.219 533.852 832.827 531.637H832.84C837.412 528.836 841.897 526.116 846.309 523.467C846.309 523.454 846.321 523.454 846.321 523.454C847.087 522.998 847.854 522.528 848.619 522.072C875.001 506.271 898.825 493.048 923.575 481.162L938.256 474.985Z" fill="#23317D"/>
<path d="M496.952 169.468L493.57 159.279C493.422 158.831 493.286 158.385 493.161 157.936C493.139 157.852 493.11 157.764 493.093 157.676L493.091 157.671L493.027 157.421C493.011 157.357 492.992 157.3 492.977 157.236C492.962 157.172 492.954 157.111 492.932 157.049L492.925 157.028C492.849 156.718 492.778 156.407 492.713 156.096C492.702 156.048 492.685 155.995 492.68 155.945C492.667 155.891 492.657 155.837 492.65 155.782C492.606 155.595 492.571 155.4 492.532 155.211C491.964 152.074 491.909 148.873 492.367 145.72C493.822 135.659 500.416 126.644 510.316 121.988C510.435 121.93 510.556 121.877 510.678 121.823C512.111 121.163 513.594 120.604 515.114 120.149L821.912 28.5299C839.275 23.3453 857.771 32.475 863.236 48.9453L866.618 59.1347C872.083 75.6051 862.443 93.1553 845.079 98.3399L538.281 189.96C536.899 190.373 535.494 190.7 534.102 190.921C522.638 192.858 511.162 188.838 503.718 180.851C503.557 180.684 503.4 180.513 503.247 180.34C501.372 178.241 499.801 175.913 498.575 173.419C498.248 172.761 497.946 172.092 497.668 171.414L497.56 171.143C497.551 171.111 497.539 171.08 497.524 171.051C497.499 170.995 497.478 170.932 497.453 170.872C497.275 170.407 497.109 169.939 496.952 169.468Z" fill="#62C0A6"/>
<path d="M825.532 39.4418C836.527 36.1587 848.284 41.963 851.741 52.3812L855.122 62.5697C858.583 72.9993 852.455 84.1554 841.459 87.4385L534.664 179.057C533.822 179.311 532.963 179.509 532.092 179.651C521.727 181.398 511.614 175.562 508.471 166.09L505.09 155.901C502.032 146.687 506.581 136.515 515.672 132.24C516.659 131.771 517.683 131.376 518.736 131.061L825.532 39.4418Z" fill="#88D3BC"/>
<path d="M526.968 128.698L653.748 90.8359L669.628 138.685L542.847 176.546L526.968 128.698Z" fill="#609991"/>
<path d="M534.561 133.411L650.37 98.827L662.796 136.267L546.986 170.852L534.561 133.411Z" fill="#4D4D4D"/>
<path d="M534.57 133.405L540.566 131.614L550.92 162.814L660.732 130.021L662.823 136.325L547.016 170.908L534.57 133.405Z" fill="#B3B3B3"/>
<path d="M496.952 169.468L493.57 159.279C493.422 158.831 493.286 158.385 493.161 157.936C493.139 157.852 493.11 157.764 493.093 157.676L493.091 157.671C493.064 157.588 493.044 157.508 493.021 157.423C492.988 157.299 492.966 157.173 492.934 157.048C492.872 156.798 492.814 156.548 492.76 156.298C492.723 156.128 492.675 155.957 492.642 155.787C491.963 152.473 491.862 149.076 492.343 145.73C493.778 135.647 500.38 126.6 510.302 121.939L511.131 121.692L534.089 190.872C522.652 192.801 511.196 188.804 503.75 180.846C503.587 180.68 503.428 180.51 503.273 180.337C501.392 178.24 499.815 175.914 498.583 173.421C498.257 172.763 497.954 172.094 497.677 171.416C497.636 171.33 497.6 171.238 497.563 171.147C497.554 171.115 497.542 171.084 497.527 171.055C497.502 170.999 497.481 170.936 497.456 170.876C497.277 170.41 497.109 169.941 496.952 169.468Z" fill="#58AF92"/>
<path d="M809.1 87.9982C832.21 81.0967 848.416 67.8856 845.298 58.4904C842.18 49.0951 820.918 47.0735 797.809 53.975C774.699 60.8765 758.493 74.0876 761.611 83.4828C764.729 92.8781 785.991 94.8996 809.1 87.9982Z" fill="#808080"/>
<path d="M430.695 191.417L426.051 177.424L493.021 157.423C493.044 157.508 493.064 157.588 493.091 157.671L493.093 157.676C493.116 157.761 493.145 157.851 493.167 157.936C493.292 158.384 493.434 158.828 493.582 159.276L496.963 169.465C497.119 169.939 497.283 170.411 497.46 170.873C497.486 170.933 497.506 170.996 497.526 171.054C497.573 171.175 497.621 171.296 497.671 171.417L430.695 191.417Z" fill="#8ACEB9"/>
<path d="M765.399 82.3654C763.453 76.4996 776.703 67.171 796.031 60.2282L803.877 83.8691C783.842 88.6808 767.348 88.235 765.399 82.3654Z" fill="#609991"/>
<path d="M798.001 80.6964C780.054 84.3744 771.205 82.3779 769.828 81.0491C769.995 80.2987 771.432 77.913 776.596 74.429C780.852 71.5581 786.613 68.6382 793.133 66.0276L798.001 80.6964Z" fill="#9BBFB8"/>
<path d="M841.504 59.6382C839.557 53.7724 823.063 53.3266 803.027 58.1384L810.873 81.7793C830.201 74.8364 843.452 65.5079 841.504 59.6382Z" fill="#609991"/>
<path d="M813.774 75.9865C830.706 69.2483 836.753 62.8031 837.08 60.9661C836.49 60.4415 833.871 59.2674 827.535 59.2184C822.312 59.177 815.827 59.9149 808.906 61.3187L813.774 75.9865Z" fill="#9BBFB8"/>
<path d="M426.064 177.435L439.231 173.503L443.874 187.497L430.709 191.429L426.064 177.435Z" fill="#BEE5D8"/>
<path d="M441.918 181.647L428.675 185.601L427.865 183.161L441.108 179.206L441.918 181.647Z" fill="#ED1C24"/>
<path d="M749.129 99.3094C743.422 101.013 737.339 98.0065 735.543 92.5933V92.5923C733.746 87.1791 736.917 81.4094 742.622 79.7049H742.623C748.33 78.0004 754.412 81.0077 756.208 86.421V86.422C758.004 91.8362 754.835 97.6059 749.129 99.3094Z" fill="#4D4D4D"/>
<path d="M735.541 92.5952C735.111 91.3079 734.954 89.9527 735.079 88.6075C735.204 87.2624 735.608 85.954 736.268 84.7578C736.925 83.5602 737.825 82.4973 738.915 81.63C740.006 80.7626 741.266 80.1077 742.624 79.703C743.98 79.2968 745.408 79.1488 746.825 79.2676C748.241 79.3863 749.62 79.7693 750.88 80.3947C751.306 80.6052 751.722 80.8463 752.115 81.1077C749.883 80.3378 747.446 80.2885 745.182 80.9674C743.825 81.3723 742.565 82.0272 741.475 82.8946C740.384 83.762 739.485 84.8248 738.828 86.0222C738.167 87.2184 737.763 88.5268 737.638 89.872C737.513 91.2171 737.67 92.5724 738.101 93.8596C738.811 96.0111 740.25 97.8797 742.196 99.1749C740.627 98.6382 739.211 97.7652 738.056 96.6239C736.902 95.4826 736.041 94.1039 735.541 92.5952Z" fill="#808080"/>
<path d="M717.585 108.729C711.878 110.433 705.795 107.426 703.999 102.013V102.012C702.203 96.5989 705.373 90.8292 711.078 89.1247C716.785 87.4202 722.868 90.4276 724.664 95.8408V95.8418C726.461 101.256 723.291 107.026 717.585 108.729Z" fill="#4D4D4D"/>
<path d="M703.997 102.015C703.567 100.728 703.41 99.3725 703.535 98.0274C703.66 96.6823 704.064 95.3739 704.725 94.1776C705.438 92.8779 706.436 91.738 707.651 90.8343C708.867 89.9307 710.273 89.2843 711.774 88.9384C713.275 88.5926 714.836 88.5554 716.353 88.8293C717.871 89.1032 719.309 89.6819 720.571 90.5266C718.104 89.6803 715.398 89.712 712.954 90.6159C710.51 91.5198 708.495 93.2343 707.283 95.4411C706.622 96.6373 706.218 97.9457 706.093 99.2908C705.968 100.636 706.126 101.991 706.556 103.278C707.266 105.43 708.706 107.299 710.651 108.594C709.083 108.057 707.666 107.184 706.512 106.043C705.358 104.902 704.498 103.524 703.997 102.015Z" fill="#808080"/>
<path d="M495.618 172.029L490.974 158.035L493.02 157.424C492.999 157.362 492.99 157.297 492.977 157.237C492.962 157.173 492.954 157.112 492.932 157.05L492.925 157.029C492.867 156.786 492.813 156.543 492.762 156.299L492.713 156.097C492.702 156.048 492.685 155.995 492.68 155.945C492.664 155.892 492.65 155.84 492.64 155.786L494.302 155.289L500.161 172.946L498.576 173.42C498.249 172.762 497.947 172.093 497.67 171.415L495.618 172.029Z" fill="#4D4D4D"/>
<path d="M542.729 186.245C539.608 188.167 535.95 189.332 532.173 189.768C528.385 190.202 524.499 189.874 520.809 188.885C517.121 187.894 513.612 186.203 510.676 183.883C507.724 181.595 505.331 178.691 503.881 175.441C506.597 177.842 509.357 179.957 512.366 181.627C515.34 183.335 518.521 184.602 521.822 185.499C525.148 186.399 528.578 186.907 532.035 187.013C535.526 187.129 539.062 186.799 542.729 186.245Z" fill="#E6E6E6"/>
<path d="M740.745 397.311C735.617 398.646 730.454 399.857 725.26 400.943C723.15 398.957 721.018 396.991 718.864 395.047C686.437 365.826 672.002 324.099 659.889 296.511C647.789 268.936 631.162 248.347 576.919 203.864C520.508 157.602 510.382 124.876 520.28 107.87C531.307 88.9249 559.54 89.8261 587.339 106.435C637.457 135.287 694.795 200.885 713.773 209.233C745.439 223.163 770.565 249.286 786.438 240.783C786.895 240.533 787.34 240.23 787.784 239.848C807.111 273.032 851.374 368.538 740.745 397.311Z" fill="#F7D2D4"/>
<path d="M597.591 123.818C603.353 138.632 570.701 174.359 554 169.13C552.809 168.757 508.28 133.831 528.348 108.844C548.417 83.8575 597.591 123.818 597.591 123.818Z" fill="#FAE8E9"/>
<path d="M346.177 565.102C346.177 573.595 328.861 580.48 307.502 580.48C286.142 580.48 268.826 573.594 268.826 565.102V555.535C268.826 555.535 289.328 549.724 307.502 549.724C325.781 549.724 346.177 555.602 346.177 555.602V565.102Z" fill="#EB8F52"/>
<path d="M344.67 555.191V563.721C344.67 572.215 327.355 579.099 305.995 579.099C290.774 579.099 277.613 575.602 271.301 570.52C276.813 576.339 290.939 580.481 307.503 580.481C328.863 580.481 346.178 573.595 346.178 565.103V555.603C346.178 555.603 345.641 555.448 344.67 555.191Z" fill="#E08241"/>
<path d="M307.502 570.823C328.862 570.823 346.178 563.938 346.178 555.446C346.178 546.953 328.862 540.068 307.502 540.068C286.142 540.068 268.826 546.953 268.826 555.446C268.826 563.938 286.142 570.823 307.502 570.823Z" fill="#FFBC8F"/>
<path d="M272.684 557.934C272.684 549.441 290 542.556 311.36 542.556C323.963 542.556 335.154 544.954 342.216 548.664C335.912 543.573 322.738 540.068 307.502 540.068C286.142 540.068 268.826 546.953 268.826 555.446C268.826 558.928 271.74 562.138 276.645 564.715C274.113 562.67 272.684 560.369 272.684 557.934Z" fill="#FFC8A3"/>
<path d="M339.021 546.54C340.958 548.372 342.031 550.384 342.031 552.496C342.031 560.989 324.715 567.874 303.354 567.874C290.345 567.874 278.846 565.318 271.835 561.403C277.688 566.938 291.452 570.824 307.501 570.824C328.861 570.824 346.176 563.94 346.176 555.447C346.177 552.125 343.521 549.053 339.021 546.54Z" fill="#FAAE7C"/>
<path d="M333.289 550.012L287.315 559.228L282.085 556.702L326.209 547.896L333.289 550.012Z" fill="#EB8F52"/>
<path d="M384.678 567.078C381.141 574.881 362.367 574.718 342.744 566.713C323.121 558.709 310.08 545.896 313.617 538.093L317.6 529.305C317.6 529.305 338.855 531.648 355.551 538.458C372.345 545.308 388.635 558.351 388.635 558.351L384.678 567.078Z" fill="#E06BAE"/>
<path d="M387.42 557.407L383.868 565.244C380.331 573.047 361.557 572.883 341.933 564.879C327.951 559.175 317.317 551.032 313.634 543.997C316.273 551.409 327.527 560.507 342.744 566.713C362.367 574.717 381.141 574.881 384.678 567.078L388.635 558.351C388.635 558.351 388.206 558.008 387.42 557.407Z" fill="#D1589D"/>
<path d="M388.713 558.191C392.25 550.388 379.209 537.575 359.585 529.571C339.962 521.568 321.187 521.404 317.651 529.206C314.114 537.009 327.155 549.822 346.779 557.826C366.402 565.83 385.177 565.993 388.713 558.191Z" fill="#FF8FCF"/>
<path d="M320.146 532.954C323.682 525.152 342.456 525.314 362.08 533.319C373.658 538.041 382.941 544.438 387.883 550.493C384.211 543.454 373.569 535.297 359.571 529.587C339.949 521.584 321.174 521.42 317.637 529.222C316.186 532.422 317.527 536.462 320.961 540.668C319.486 537.84 319.132 535.191 320.146 532.954Z" fill="#FFA8D9"/>
<path d="M385.833 547.343C386.851 549.752 386.997 552.003 386.118 553.943C382.581 561.746 363.806 561.582 344.183 553.578C332.232 548.703 322.732 542.045 317.922 535.822C320.995 543.1 332.021 551.828 346.765 557.842C366.388 565.845 385.162 566.01 388.699 558.207C390.082 555.156 388.921 551.339 385.833 547.343Z" fill="#FA82C7"/>
<path d="M379.121 548.385L333.048 539.625L329.296 535.345L373.497 543.789L379.121 548.385Z" fill="#E06BAE"/>
<path d="M181.516 556.273L191.142 542.347L173.71 531.503C172.034 530.463 170.034 529.999 168.042 530.191L168.031 530.184C166.728 530.304 165.469 530.701 164.349 531.344C163.228 531.987 162.274 532.861 161.556 533.9C160.922 534.815 160.486 535.84 160.272 536.915C160.059 537.991 160.074 539.096 160.314 540.167C160.543 541.237 160.994 542.254 161.641 543.157C162.288 544.061 163.118 544.833 164.083 545.429L181.516 556.273Z" fill="#99C7FF"/>
<path d="M181.516 556.273L180.391 555.573L186.98 546.041C187.462 545.344 187.632 544.493 187.453 543.677C187.274 542.86 186.761 542.144 186.026 541.687L171.366 532.568C169.691 531.527 167.69 531.064 165.698 531.255L165.688 531.248C165.109 531.306 164.538 531.417 163.983 531.581C165.19 530.805 166.581 530.325 168.031 530.184L168.042 530.191C170.034 529.999 172.034 530.463 173.71 531.503L191.142 542.347L181.516 556.273Z" fill="#7AADEB"/>
<path d="M211.112 564.726C211.744 563.812 212.181 562.788 212.396 561.714C212.61 560.64 212.599 559.536 212.363 558.465C212.129 557.395 211.675 556.378 211.027 555.475C210.378 554.571 209.548 553.797 208.584 553.197L191.142 542.347L181.516 556.273L198.958 567.122C200.35 567.991 201.975 568.464 203.641 568.486C205.307 568.508 206.945 568.079 208.363 567.247C209.464 566.61 210.403 565.749 211.112 564.726Z" fill="#52A0FF"/>
<path d="M208.363 567.247C206.758 568.187 204.877 568.61 202.999 568.453C203.659 568.25 204.291 567.973 204.882 567.628C205.984 566.991 206.923 566.129 207.631 565.106C208.264 564.192 208.7 563.168 208.915 562.094C209.13 561.019 209.119 559.915 208.883 558.845C208.649 557.774 208.195 556.758 207.546 555.854C206.898 554.95 206.068 554.176 205.104 553.577L189.91 544.125L191.141 542.346L208.584 553.196C210.613 554.458 211.897 556.378 212.363 558.465C212.733 560.142 212.547 561.885 211.831 563.457C211.114 565.03 209.903 566.354 208.363 567.247Z" fill="#4D96F0"/>
<path d="M165.31 543.422C164.933 543.71 164.438 543.675 164.101 543.349C162.824 542.113 162.127 540.412 162.118 538.688C162.116 538.262 162.575 537.879 163.018 537.918C163.501 537.962 163.827 538.316 163.829 538.771C163.829 538.864 163.831 538.957 163.836 539.05L163.837 539.076L163.846 539.178C163.888 539.53 163.963 539.877 164.069 540.217C164.083 540.261 164.099 540.305 164.113 540.349C164.146 540.433 164.179 540.516 164.215 540.599C164.358 540.926 164.534 541.235 164.732 541.533L164.811 541.639C164.986 541.864 165.177 542.076 165.384 542.276C165.701 542.579 165.656 543.158 165.31 543.422ZM190.298 560.122L168.059 546.228C167.139 545.654 168.075 544.294 168.997 544.87L191.235 558.762C192.157 559.338 191.22 560.698 190.298 560.122ZM193.192 561.852C192.27 561.28 193.207 559.92 194.13 560.494C195.052 561.066 194.115 562.426 193.192 561.852Z" fill="#A7A9AC"/>
<path d="M156.005 569.256L156.179 552.604L135.334 552.407C133.332 552.39 131.384 553.025 129.817 554.206H129.805C128.776 554.975 127.943 555.954 127.365 557.069C126.788 558.185 126.482 559.409 126.469 560.651C126.456 561.746 126.672 562.832 127.105 563.846C127.538 564.861 128.179 565.784 128.991 566.561C129.793 567.345 130.751 567.97 131.81 568.399C132.869 568.828 134.007 569.052 135.159 569.059L156.005 569.256Z" fill="#FF8FCF"/>
<path d="M156.005 569.256L154.661 569.244L154.78 557.847C154.789 557.013 154.448 556.209 153.832 555.614C153.216 555.018 152.377 554.679 151.497 554.67L133.968 554.505C131.966 554.487 130.018 555.122 128.451 556.304H128.438C127.984 556.648 127.567 557.034 127.193 557.457C127.767 556.185 128.665 555.068 129.805 554.206H129.817C131.384 553.025 133.332 552.39 135.334 552.407L156.179 552.604L156.005 569.256Z" fill="#F580C3"/>
<path d="M185.726 561.21C185.739 560.117 185.523 559.032 185.093 558.018C184.662 557.004 184.024 556.08 183.216 555.3C182.41 554.52 181.449 553.897 180.388 553.468C179.328 553.04 178.189 552.813 177.037 552.802L156.179 552.604L156.005 569.256L176.862 569.454C178.528 569.472 180.165 569.038 181.58 568.203C182.994 567.368 184.128 566.167 184.848 564.741C185.413 563.641 185.713 562.435 185.726 561.21Z" fill="#E660AD"/>
<path d="M184.848 564.741C184.033 566.354 182.691 567.674 181.02 568.504C181.461 567.995 181.836 567.438 182.137 566.845C182.701 565.744 183.001 564.538 183.015 563.314C183.027 562.22 182.812 561.135 182.381 560.121C181.95 559.107 181.313 558.184 180.505 557.404C179.698 556.623 178.737 556 177.677 555.572C176.617 555.143 175.478 554.917 174.325 554.906L156.158 554.734L156.18 552.605L177.037 552.802C178.189 552.813 179.329 553.04 180.389 553.468C181.45 553.897 182.411 554.52 183.217 555.3C184.025 556.08 184.663 557.004 185.094 558.018C185.524 559.032 185.74 560.117 185.727 561.21C185.713 562.435 185.413 563.641 184.848 564.741Z" fill="#DB53A1"/>
<path d="M135.049 566.742C134.897 567.178 134.459 567.401 133.991 567.299C132.212 566.913 130.658 565.838 129.669 564.392C129.425 564.034 129.592 563.477 129.987 563.284C130.419 563.073 130.895 563.204 131.156 563.586C131.21 563.663 131.264 563.741 131.321 563.817L131.337 563.838L131.403 563.919C131.638 564.195 131.899 564.449 132.183 564.679L132.295 564.768C132.371 564.821 132.446 564.875 132.524 564.926C132.83 565.127 133.155 565.298 133.493 565.447L133.619 565.495C133.894 565.595 134.177 565.676 134.464 565.738C134.899 565.832 135.191 566.341 135.049 566.742ZM165.588 567.998L138.962 567.696C137.86 567.683 137.874 566.06 138.978 566.071L165.605 566.373C166.707 566.385 166.691 568.01 165.588 567.998ZM169.009 567.972C167.907 567.962 167.921 566.337 169.025 566.347C170.127 566.357 170.112 567.981 169.009 567.972Z" fill="#A7A9AC"/>
</svg>
